<?xml version="1.0" encoding="UTF-8"?>
<svg xmlns="http://www.w3.org/2000/svg" xmlns:xlink="http://www.w3.org/1999/xlink" width="300pt" height="299.999988pt" viewBox="0 0 300 299.999988" version="1.2">
<g id="surface1">
<path style=" stroke:none;fill-rule:nonzero;fill:rgb(74.899292%,59.21936%,45.489502%);fill-opacity:1;" d="M 150 0 C 147.546875 0 145.089844 0.0585938 142.640625 0.179688 C 140.1875 0.300781 137.742188 0.480469 135.296875 0.722656 C 132.855469 0.964844 130.417969 1.261719 127.992188 1.625 C 125.5625 1.984375 123.144531 2.402344 120.738281 2.882812 C 118.328125 3.359375 115.933594 3.898438 113.554688 4.496094 C 111.171875 5.089844 108.804688 5.746094 106.457031 6.457031 C 104.109375 7.171875 101.777344 7.941406 99.464844 8.769531 C 97.15625 9.59375 94.867188 10.480469 92.597656 11.417969 C 90.328125 12.359375 88.085938 13.351562 85.867188 14.402344 C 83.648438 15.453125 81.457031 16.554688 79.289062 17.710938 C 77.125 18.867188 74.988281 20.078125 72.882812 21.339844 C 70.777344 22.601562 68.707031 23.914062 66.664062 25.28125 C 64.625 26.644531 62.617188 28.054688 60.644531 29.519531 C 58.671875 30.980469 56.738281 32.492188 54.839844 34.046875 C 52.945312 35.605469 51.085938 37.207031 49.265625 38.855469 C 47.445312 40.507812 45.667969 42.199219 43.933594 43.933594 C 42.199219 45.667969 40.507812 47.445312 38.855469 49.265625 C 37.207031 51.085938 35.605469 52.945312 34.046875 54.839844 C 32.492188 56.738281 30.980469 58.671875 29.519531 60.644531 C 28.054688 62.617188 26.644531 64.625 25.28125 66.664062 C 23.914062 68.707031 22.601562 70.777344 21.339844 72.882812 C 20.078125 74.988281 18.867188 77.125 17.710938 79.289062 C 16.554688 81.457031 15.453125 83.648438 14.402344 85.867188 C 13.351562 88.085938 12.359375 90.328125 11.417969 92.597656 C 10.480469 94.867188 9.59375 97.15625 8.769531 99.464844 C 7.941406 101.777344 7.171875 104.109375 6.457031 106.457031 C 5.746094 108.804688 5.09375 111.171875 4.496094 113.554688 C 3.898438 115.933594 3.359375 118.328125 2.882812 120.738281 C 2.402344 123.144531 1.984375 125.5625 1.625 127.992188 C 1.261719 130.417969 0.964844 132.855469 0.722656 135.296875 C 0.480469 137.742188 0.300781 140.1875 0.179688 142.640625 C 0.0585938 145.089844 0 147.546875 0 150 C 0 152.453125 0.0585938 154.910156 0.179688 157.359375 C 0.300781 159.8125 0.480469 162.257812 0.722656 164.703125 C 0.964844 167.144531 1.261719 169.582031 1.625 172.007812 C 1.984375 174.4375 2.402344 176.855469 2.882812 179.261719 C 3.359375 181.671875 3.898438 184.066406 4.496094 186.445312 C 5.09375 188.828125 5.746094 191.195312 6.457031 193.542969 C 7.171875 195.890625 7.941406 198.222656 8.769531 200.535156 C 9.59375 202.84375 10.480469 205.132812 11.417969 207.402344 C 12.359375 209.671875 13.351562 211.914062 14.402344 214.132812 C 15.453125 216.351562 16.554688 218.542969 17.710938 220.710938 C 18.867188 222.875 20.078125 225.011719 21.339844 227.117188 C 22.601562 229.222656 23.914062 231.292969 25.28125 233.335938 C 26.644531 235.375 28.054688 237.382812 29.519531 239.355469 C 30.980469 241.328125 32.492188 243.261719 34.046875 245.160156 C 35.605469 247.054688 37.207031 248.914062 38.855469 250.734375 C 40.507812 252.550781 42.199219 254.332031 43.933594 256.066406 C 45.667969 257.800781 47.445312 259.492188 49.265625 261.144531 C 51.085938 262.792969 52.945312 264.394531 54.839844 265.953125 C 56.738281 267.507812 58.671875 269.019531 60.644531 270.480469 C 62.617188 271.945312 64.625 273.355469 66.664062 274.71875 C 68.707031 276.085938 70.777344 277.398438 72.882812 278.660156 C 74.988281 279.921875 77.125 281.132812 79.289062 282.289062 C 81.457031 283.445312 83.648438 284.546875 85.867188 285.597656 C 88.085938 286.648438 90.328125 287.640625 92.597656 288.582031 C 94.867188 289.519531 97.15625 290.40625 99.464844 291.230469 C 101.777344 292.058594 104.109375 292.828125 106.457031 293.539062 C 108.804688 294.253906 111.171875 294.90625 113.554688 295.503906 C 115.933594 296.101562 118.328125 296.640625 120.738281 297.117188 C 123.144531 297.597656 125.5625 298.015625 127.992188 298.375 C 130.417969 298.738281 132.855469 299.035156 135.296875 299.277344 C 137.742188 299.519531 140.1875 299.699219 142.640625 299.820312 C 145.089844 299.941406 147.546875 300 150 300 C 152.453125 300 154.910156 299.941406 157.359375 299.820312 C 159.8125 299.699219 162.257812 299.519531 164.703125 299.277344 C 167.144531 299.035156 169.582031 298.738281 172.007812 298.375 C 174.4375 298.015625 176.855469 297.597656 179.261719 297.117188 C 181.671875 296.640625 184.066406 296.101562 186.445312 295.503906 C 188.828125 294.90625 191.195312 294.253906 193.542969 293.539062 C 195.890625 292.828125 198.222656 292.058594 200.535156 291.230469 C 202.84375 290.40625 205.132812 289.519531 207.402344 288.582031 C 209.671875 287.640625 211.914062 286.648438 214.132812 285.597656 C 216.351562 284.546875 218.542969 283.445312 220.710938 282.289062 C 222.875 281.132812 225.011719 279.921875 227.117188 278.660156 C 229.222656 277.398438 231.292969 276.085938 233.335938 274.71875 C 235.375 273.355469 237.382812 271.945312 239.355469 270.480469 C 241.328125 269.019531 243.261719 267.507812 245.160156 265.953125 C 247.054688 264.394531 248.914062 262.792969 250.734375 261.144531 C 252.550781 259.492188 254.332031 257.800781 256.066406 256.066406 C 257.800781 254.332031 259.492188 252.550781 261.144531 250.734375 C 262.792969 248.914062 264.394531 247.054688 265.953125 245.160156 C 267.507812 243.261719 269.019531 241.328125 270.480469 239.355469 C 271.945312 237.382812 273.355469 235.375 274.71875 233.335938 C 276.085938 231.292969 277.398438 229.222656 278.660156 227.117188 C 279.921875 225.007812 281.132812 222.875 282.289062 220.710938 C 283.445312 218.542969 284.546875 216.351562 285.597656 214.132812 C 286.648438 211.914062 287.640625 209.671875 288.582031 207.402344 C 289.519531 205.132812 290.40625 202.84375 291.230469 200.535156 C 292.058594 198.222656 292.828125 195.890625 293.539062 193.542969 C 294.253906 191.195312 294.90625 188.828125 295.503906 186.445312 C 296.101562 184.066406 296.640625 181.671875 297.117188 179.261719 C 297.597656 176.855469 298.015625 174.4375 298.375 172.007812 C 298.738281 169.582031 299.035156 167.144531 299.277344 164.703125 C 299.519531 162.257812 299.699219 159.8125 299.820312 157.359375 C 299.941406 154.910156 300 152.453125 300 150 C 300 147.546875 299.941406 145.089844 299.820312 142.640625 C 299.699219 140.1875 299.519531 137.742188 299.277344 135.296875 C 299.035156 132.855469 298.738281 130.417969 298.375 127.992188 C 298.015625 125.5625 297.597656 123.144531 297.117188 120.738281 C 296.640625 118.328125 296.101562 115.933594 295.503906 113.554688 C 294.90625 111.171875 294.253906 108.804688 293.539062 106.457031 C 292.828125 104.109375 292.058594 101.777344 291.230469 99.464844 C 290.40625 97.15625 289.519531 94.867188 288.582031 92.597656 C 287.640625 90.328125 286.648438 88.085938 285.597656 85.867188 C 284.546875 83.648438 283.445312 81.457031 282.289062 79.289062 C 281.132812 77.125 279.921875 74.988281 278.660156 72.882812 C 277.398438 70.777344 276.085938 68.707031 274.71875 66.664062 C 273.355469 64.625 271.945312 62.617188 270.480469 60.644531 C 269.019531 58.671875 267.507812 56.738281 265.953125 54.839844 C 264.394531 52.945312 262.792969 51.085938 261.144531 49.265625 C 259.492188 47.445312 257.800781 45.667969 256.066406 43.933594 C 254.332031 42.199219 252.550781 40.507812 250.734375 38.855469 C 248.914062 37.207031 247.054688 35.605469 245.160156 34.046875 C 243.261719 32.492188 241.328125 30.980469 239.355469 29.519531 C 237.382812 28.054688 235.375 26.644531 233.335938 25.28125 C 231.292969 23.914062 229.222656 22.601562 227.117188 21.339844 C 225.011719 20.078125 222.875 18.867188 220.710938 17.710938 C 218.542969 16.554688 216.351562 15.453125 214.132812 14.402344 C 211.914062 13.351562 209.671875 12.359375 207.402344 11.417969 C 205.132812 10.480469 202.84375 9.59375 200.535156 8.769531 C 198.222656 7.941406 195.890625 7.171875 193.542969 6.457031 C 191.195312 5.746094 188.828125 5.089844 186.445312 4.496094 C 184.066406 3.898438 181.671875 3.359375 179.261719 2.882812 C 176.855469 2.402344 174.4375 1.984375 172.007812 1.625 C 169.582031 1.261719 167.144531 0.964844 164.703125 0.722656 C 162.257812 0.480469 159.8125 0.300781 157.359375 0.179688 C 154.910156 0.0585938 152.453125 0 150 0 Z M 150 0 "/>
<path style=" stroke:none;fill-rule:nonzero;fill:rgb(98.81897%,91.369629%,61.959839%);fill-opacity:1;" d="M 150 9.5625 C 147.703125 9.5625 145.40625 9.621094 143.109375 9.734375 C 140.8125 9.847656 138.523438 10.015625 136.234375 10.242188 C 133.949219 10.464844 131.667969 10.746094 129.394531 11.085938 C 127.121094 11.421875 124.855469 11.8125 122.601562 12.261719 C 120.347656 12.710938 118.105469 13.214844 115.875 13.773438 C 113.648438 14.332031 111.433594 14.945312 109.234375 15.613281 C 107.035156 16.277344 104.851562 17 102.6875 17.773438 C 100.523438 18.546875 98.382812 19.375 96.257812 20.253906 C 94.132812 21.132812 92.035156 22.066406 89.957031 23.046875 C 87.878906 24.03125 85.824219 25.0625 83.800781 26.148438 C 81.773438 27.230469 79.773438 28.363281 77.800781 29.542969 C 75.832031 30.726562 73.890625 31.953125 71.976562 33.230469 C 70.066406 34.507812 68.1875 35.832031 66.34375 37.199219 C 64.496094 38.570312 62.683594 39.984375 60.910156 41.441406 C 59.132812 42.898438 57.390625 44.402344 55.6875 45.945312 C 53.984375 47.488281 52.320312 49.070312 50.695312 50.695312 C 49.070312 52.320312 47.488281 53.984375 45.945312 55.6875 C 44.402344 57.390625 42.898438 59.132812 41.441406 60.910156 C 39.984375 62.683594 38.570312 64.496094 37.199219 66.34375 C 35.832031 68.1875 34.507812 70.066406 33.230469 71.976562 C 31.953125 73.890625 30.726562 75.832031 29.542969 77.800781 C 28.363281 79.773438 27.230469 81.773438 26.148438 83.800781 C 25.0625 85.824219 24.03125 87.878906 23.046875 89.957031 C 22.066406 92.035156 21.132812 94.132812 20.253906 96.257812 C 19.375 98.382812 18.546875 100.523438 17.773438 102.6875 C 17 104.851562 16.277344 107.035156 15.613281 109.234375 C 14.945312 111.433594 14.332031 113.648438 13.773438 115.875 C 13.214844 118.105469 12.710938 120.347656 12.261719 122.601562 C 11.8125 124.855469 11.421875 127.121094 11.085938 129.394531 C 10.746094 131.667969 10.464844 133.949219 10.242188 136.234375 C 10.015625 138.523438 9.847656 140.8125 9.734375 143.109375 C 9.621094 145.40625 9.5625 147.703125 9.5625 150 C 9.5625 152.296875 9.621094 154.59375 9.734375 156.890625 C 9.847656 159.1875 10.015625 161.476562 10.242188 163.765625 C 10.464844 166.050781 10.746094 168.332031 11.085938 170.605469 C 11.421875 172.878906 11.8125 175.144531 12.261719 177.398438 C 12.710938 179.652344 13.214844 181.894531 13.773438 184.125 C 14.332031 186.351562 14.945312 188.566406 15.613281 190.765625 C 16.277344 192.964844 17 195.148438 17.773438 197.3125 C 18.546875 199.476562 19.375 201.617188 20.253906 203.742188 C 21.132812 205.867188 22.066406 207.964844 23.046875 210.042969 C 24.03125 212.121094 25.0625 214.175781 26.148438 216.199219 C 27.230469 218.226562 28.363281 220.226562 29.542969 222.199219 C 30.726562 224.167969 31.953125 226.109375 33.230469 228.023438 C 34.507812 229.933594 35.832031 231.8125 37.199219 233.65625 C 38.570312 235.503906 39.984375 237.316406 41.441406 239.089844 C 42.898438 240.867188 44.402344 242.609375 45.945312 244.3125 C 47.488281 246.015625 49.070312 247.679688 50.695312 249.304688 C 52.320312 250.929688 53.984375 252.511719 55.6875 254.054688 C 57.390625 255.597656 59.132812 257.101562 60.910156 258.558594 C 62.683594 260.015625 64.496094 261.429688 66.34375 262.800781 C 68.1875 264.167969 70.066406 265.492188 71.976562 266.769531 C 73.890625 268.042969 75.832031 269.273438 77.800781 270.457031 C 79.773438 271.636719 81.773438 272.769531 83.800781 273.851562 C 85.824219 274.9375 87.878906 275.96875 89.957031 276.953125 C 92.035156 277.933594 94.132812 278.867188 96.257812 279.746094 C 98.382812 280.625 100.523438 281.453125 102.6875 282.226562 C 104.851562 283 107.035156 283.722656 109.234375 284.386719 C 111.433594 285.054688 113.648438 285.667969 115.875 286.226562 C 118.105469 286.785156 120.347656 287.289062 122.601562 287.738281 C 124.855469 288.1875 127.121094 288.578125 129.394531 288.914062 C 131.667969 289.253906 133.949219 289.535156 136.234375 289.757812 C 138.523438 289.984375 140.8125 290.152344 143.109375 290.265625 C 145.40625 290.378906 147.703125 290.4375 150 290.4375 C 152.296875 290.4375 154.59375 290.378906 156.890625 290.265625 C 159.1875 290.152344 161.476562 289.984375 163.765625 289.757812 C 166.050781 289.535156 168.332031 289.253906 170.605469 288.914062 C 172.878906 288.578125 175.144531 288.1875 177.398438 287.738281 C 179.652344 287.289062 181.894531 286.785156 184.125 286.226562 C 186.351562 285.667969 188.566406 285.054688 190.765625 284.386719 C 192.964844 283.722656 195.148438 283 197.3125 282.226562 C 199.476562 281.453125 201.617188 280.625 203.742188 279.746094 C 205.867188 278.867188 207.964844 277.933594 210.042969 276.953125 C 212.121094 275.96875 214.175781 274.9375 216.199219 273.851562 C 218.226562 272.769531 220.226562 271.636719 222.199219 270.457031 C 224.167969 269.273438 226.109375 268.042969 228.023438 266.769531 C 229.933594 265.492188 231.8125 264.167969 233.65625 262.800781 C 235.503906 261.429688 237.316406 260.015625 239.089844 258.558594 C 240.867188 257.101562 242.609375 255.597656 244.3125 254.054688 C 246.015625 252.511719 247.679688 250.929688 249.304688 249.304688 C 250.929688 247.679688 252.511719 246.015625 254.054688 244.3125 C 255.597656 242.609375 257.101562 240.867188 258.558594 239.089844 C 260.015625 237.316406 261.429688 235.503906 262.800781 233.65625 C 264.167969 231.8125 265.492188 229.933594 266.769531 228.023438 C 268.042969 226.109375 269.273438 224.167969 270.457031 222.199219 C 271.636719 220.226562 272.769531 218.226562 273.851562 216.199219 C 274.9375 214.175781 275.96875 212.121094 276.953125 210.042969 C 277.933594 207.964844 278.867188 205.867188 279.746094 203.742188 C 280.625 201.617188 281.453125 199.476562 282.226562 197.3125 C 283 195.148438 283.722656 192.964844 284.386719 190.765625 C 285.054688 188.566406 285.667969 186.351562 286.226562 184.125 C 286.785156 181.894531 287.289062 179.652344 287.738281 177.398438 C 288.1875 175.144531 288.578125 172.878906 288.914062 170.605469 C 289.253906 168.332031 289.535156 166.050781 289.757812 163.765625 C 289.984375 161.476562 290.152344 159.1875 290.265625 156.890625 C 290.378906 154.59375 290.4375 152.296875 290.4375 150 C 290.4375 147.703125 290.378906 145.40625 290.265625 143.109375 C 290.152344 140.8125 289.984375 138.523438 289.757812 136.234375 C 289.535156 133.949219 289.253906 131.667969 288.914062 129.394531 C 288.578125 127.121094 288.1875 124.855469 287.738281 122.601562 C 287.289062 120.347656 286.785156 118.105469 286.226562 115.875 C 285.667969 113.648438 285.054688 111.433594 284.386719 109.234375 C 283.722656 107.035156 283 104.851562 282.226562 102.6875 C 281.453125 100.523438 280.625 98.382812 279.746094 96.257812 C 278.867188 94.132812 277.933594 92.035156 276.953125 89.957031 C 275.96875 87.878906 274.9375 85.824219 273.851562 83.800781 C 272.769531 81.773438 271.636719 79.773438 270.457031 77.800781 C 269.273438 75.832031 268.042969 73.890625 266.769531 71.976562 C 265.492188 70.066406 264.167969 68.1875 262.800781 66.34375 C 261.429688 64.496094 260.015625 62.683594 258.558594 60.910156 C 257.101562 59.132812 255.597656 57.390625 254.054688 55.6875 C 252.511719 53.984375 250.929688 52.320312 249.304688 50.695312 C 247.679688 49.070312 246.015625 47.488281 244.3125 45.945312 C 242.609375 44.402344 240.867188 42.898438 239.089844 41.441406 C 237.316406 39.984375 235.503906 38.570312 233.65625 37.199219 C 231.8125 35.832031 229.933594 34.507812 228.023438 33.230469 C 226.109375 31.953125 224.167969 30.726562 222.199219 29.542969 C 220.226562 28.363281 218.226562 27.230469 216.199219 26.148438 C 214.175781 25.0625 212.121094 24.03125 210.042969 23.046875 C 207.964844 22.066406 205.867188 21.132812 203.742188 20.253906 C 201.617188 19.375 199.476562 18.546875 197.3125 17.773438 C 195.148438 17 192.964844 16.277344 190.765625 15.613281 C 188.566406 14.945312 186.351562 14.332031 184.125 13.773438 C 181.894531 13.214844 179.652344 12.710938 177.398438 12.261719 C 175.144531 11.8125 172.878906 11.421875 170.605469 11.085938 C 168.332031 10.746094 166.050781 10.464844 163.765625 10.242188 C 161.476562 10.015625 159.1875 9.847656 156.890625 9.734375 C 154.59375 9.621094 152.296875 9.5625 150 9.5625 Z M 150 9.5625 "/>
</g>
</svg>
