<?xml version="1.0" encoding="UTF-8"?>
<svg xmlns="http://www.w3.org/2000/svg" xmlns:xlink="http://www.w3.org/1999/xlink" width="300pt" height="299.999988pt" viewBox="0 0 300 299.999988" version="1.2">
<g id="surface1">
<path style=" stroke:none;fill-rule:nonzero;fill:rgb(87.059021%,57.249451%,6.269836%);fill-opacity:1;" d="M 95.695312 40.054688 L 99.792969 41.90625 L 85.003906 74.648438 L 80.902344 72.792969 Z M 95.695312 40.054688 "/>
<path style=" stroke:none;fill-rule:nonzero;fill:rgb(96.859741%,70.979309%,9.408569%);fill-opacity:1;" d="M 66.496094 50.71875 L 70.902344 51.636719 L 63.582031 86.808594 L 59.175781 85.894531 Z M 66.496094 50.71875 "/>
<path style=" stroke:none;fill-rule:nonzero;fill:rgb(93.728638%,79.998779%,32.939148%);fill-opacity:1;" d="M 110.210938 21.976562 L 114.695312 22.351562 L 111.722656 58.152344 L 107.238281 57.78125 Z M 110.210938 21.976562 "/>
<path style=" stroke:none;fill-rule:nonzero;fill:rgb(93.728638%,79.998779%,32.939148%);fill-opacity:1;" d="M 100.386719 69.605469 L 103.804688 71.152344 L 88.984375 103.957031 L 85.566406 102.414062 Z M 100.386719 69.605469 "/>
<path style=" stroke:none;fill-rule:nonzero;fill:rgb(87.059021%,57.249451%,6.269836%);fill-opacity:1;" d="M 122.578125 116.011719 L 119.179688 113.0625 L 142.714844 85.921875 L 146.113281 88.867188 Z M 122.578125 116.011719 "/>
<path style=" stroke:none;fill-rule:nonzero;fill:rgb(96.859741%,70.979309%,9.408569%);fill-opacity:1;" d="M 153.605469 114.140625 L 149.648438 112.003906 L 166.71875 80.394531 L 170.679688 82.53125 Z M 153.605469 114.140625 "/>
<path style=" stroke:none;fill-rule:nonzero;fill:rgb(93.728638%,79.998779%,32.939148%);fill-opacity:1;" d="M 103.496094 129.179688 L 99.308594 127.542969 L 112.394531 94.085938 L 116.585938 95.726562 Z M 103.496094 129.179688 "/>
<path style=" stroke:none;fill-rule:nonzero;fill:rgb(93.728638%,79.998779%,32.939148%);fill-opacity:1;" d="M 126.539062 86.351562 L 123.707031 83.894531 L 147.292969 56.699219 L 150.125 59.15625 Z M 126.539062 86.351562 "/>
<path style=" stroke:none;fill-rule:nonzero;fill:rgb(87.059021%,57.249451%,6.269836%);fill-opacity:1;" d="M 72.125 152.335938 L 76.226562 154.1875 L 61.4375 186.925781 L 57.335938 185.074219 Z M 72.125 152.335938 "/>
<path style=" stroke:none;fill-rule:nonzero;fill:rgb(96.859741%,70.979309%,9.408569%);fill-opacity:1;" d="M 42.929688 163 L 47.335938 163.914062 L 40.015625 199.089844 L 35.609375 198.171875 Z M 42.929688 163 "/>
<path style=" stroke:none;fill-rule:nonzero;fill:rgb(93.728638%,79.998779%,32.939148%);fill-opacity:1;" d="M 86.644531 134.257812 L 91.128906 134.628906 L 88.15625 170.429688 L 83.667969 170.058594 Z M 86.644531 134.257812 "/>
<path style=" stroke:none;fill-rule:nonzero;fill:rgb(93.728638%,79.998779%,32.939148%);fill-opacity:1;" d="M 76.820312 181.886719 L 80.238281 183.429688 L 65.417969 216.238281 L 62 214.691406 Z M 76.820312 181.886719 "/>
<path style=" stroke:none;fill-rule:nonzero;fill:rgb(87.059021%,57.249451%,6.269836%);fill-opacity:1;" d="M 35.441406 153.386719 L 31.554688 151.117188 L 49.664062 120.089844 L 53.546875 122.355469 Z M 35.441406 153.386719 "/>
<path style=" stroke:none;fill-rule:nonzero;fill:rgb(96.859741%,70.979309%,9.408569%);fill-opacity:1;" d="M 65.585938 145.804688 L 61.300781 144.4375 L 72.226562 110.214844 L 76.515625 111.582031 Z M 65.585938 145.804688 "/>
<path style=" stroke:none;fill-rule:nonzero;fill:rgb(93.728638%,79.998779%,32.939148%);fill-opacity:1;" d="M 19.128906 169.859375 L 14.707031 169.023438 L 21.375 133.722656 L 25.796875 134.558594 Z M 19.128906 169.859375 "/>
<path style=" stroke:none;fill-rule:nonzero;fill:rgb(93.728638%,79.998779%,32.939148%);fill-opacity:1;" d="M 33.847656 123.507812 L 30.605469 121.617188 L 48.753906 90.523438 L 51.992188 92.414062 Z M 33.847656 123.507812 "/>
<path style=" stroke:none;fill-rule:nonzero;fill:rgb(87.059021%,57.249451%,6.269836%);fill-opacity:1;" d="M 194.371094 60.1875 L 191.246094 63.421875 L 165.40625 38.464844 L 168.53125 35.230469 Z M 194.371094 60.1875 "/>
<path style=" stroke:none;fill-rule:nonzero;fill:rgb(96.859741%,70.979309%,9.408569%);fill-opacity:1;" d="M 194.167969 29.101562 L 191.820312 32.941406 L 161.171875 14.199219 L 163.519531 10.363281 Z M 194.167969 29.101562 "/>
<path style=" stroke:none;fill-rule:nonzero;fill:rgb(93.728638%,79.998779%,32.939148%);fill-opacity:1;" d="M 206.503906 79.945312 L 204.640625 84.039062 L 171.933594 69.179688 L 173.796875 65.082031 Z M 206.503906 79.945312 "/>
<path style=" stroke:none;fill-rule:nonzero;fill:rgb(93.728638%,79.998779%,32.939148%);fill-opacity:1;" d="M 164.972656 54.644531 L 162.367188 57.34375 L 136.472656 32.335938 L 139.078125 29.636719 Z M 164.972656 54.644531 "/>
<path style=" stroke:none;fill-rule:nonzero;fill:rgb(87.059021%,57.249451%,6.269836%);fill-opacity:1;" d="M 221.574219 251.457031 L 217.269531 250.148438 L 227.722656 215.777344 L 232.027344 217.085938 Z M 221.574219 251.457031 "/>
<path style=" stroke:none;fill-rule:nonzero;fill:rgb(96.859741%,70.979309%,9.408569%);fill-opacity:1;" d="M 249.15625 237.125 L 244.667969 236.78125 L 247.402344 200.960938 L 251.886719 201.300781 Z M 249.15625 237.125 "/>
<path style=" stroke:none;fill-rule:nonzero;fill:rgb(93.728638%,79.998779%,32.939148%);fill-opacity:1;" d="M 209.503906 271.253906 L 205.007812 271.460938 L 203.351562 235.574219 L 207.84375 235.367188 Z M 209.503906 271.253906 "/>
<path style=" stroke:none;fill-rule:nonzero;fill:rgb(93.728638%,79.998779%,32.939148%);fill-opacity:1;" d="M 213.125 222.753906 L 209.535156 221.664062 L 220.011719 187.222656 L 223.601562 188.3125 Z M 213.125 222.753906 "/>
<path style=" stroke:none;fill-rule:nonzero;fill:rgb(93.728638%,79.998779%,32.939148%);fill-opacity:1;" d="M 202.367188 164.078125 L 206.730469 165.164062 L 198.058594 200.027344 L 193.691406 198.941406 Z M 202.367188 164.078125 "/>
<path style=" stroke:none;fill-rule:nonzero;fill:rgb(87.059021%,57.249451%,6.269836%);fill-opacity:1;" d="M 230.496094 137.078125 L 226.191406 135.769531 L 236.644531 101.398438 L 240.949219 102.707031 Z M 230.496094 137.078125 "/>
<path style=" stroke:none;fill-rule:nonzero;fill:rgb(96.859741%,70.979309%,9.408569%);fill-opacity:1;" d="M 258.078125 122.746094 L 253.589844 122.402344 L 256.324219 86.582031 L 260.808594 86.925781 Z M 258.078125 122.746094 "/>
<path style=" stroke:none;fill-rule:nonzero;fill:rgb(93.728638%,79.998779%,32.939148%);fill-opacity:1;" d="M 218.425781 156.875 L 213.929688 157.082031 L 212.273438 121.195312 L 216.765625 120.988281 Z M 218.425781 156.875 "/>
<path style=" stroke:none;fill-rule:nonzero;fill:rgb(93.728638%,79.998779%,32.939148%);fill-opacity:1;" d="M 222.046875 108.378906 L 218.457031 107.285156 L 228.9375 72.84375 L 232.523438 73.9375 Z M 222.046875 108.378906 "/>
<path style=" stroke:none;fill-rule:nonzero;fill:rgb(87.059021%,57.249451%,6.269836%);fill-opacity:1;" d="M 266.742188 131.316406 L 270.886719 133.066406 L 256.921875 166.167969 L 252.777344 164.417969 Z M 266.742188 131.316406 "/>
<path style=" stroke:none;fill-rule:nonzero;fill:rgb(96.859741%,70.979309%,9.408569%);fill-opacity:1;" d="M 237.820312 142.710938 L 242.246094 143.515625 L 235.816406 178.863281 L 231.386719 178.058594 Z M 237.820312 142.710938 "/>
<path style=" stroke:none;fill-rule:nonzero;fill:rgb(93.728638%,79.998779%,32.939148%);fill-opacity:1;" d="M 280.800781 112.878906 L 285.292969 113.140625 L 283.21875 149.003906 L 278.726562 148.746094 Z M 280.800781 112.878906 "/>
<path style=" stroke:none;fill-rule:nonzero;fill:rgb(93.728638%,79.998779%,32.939148%);fill-opacity:1;" d="M 272.175781 160.742188 L 275.632812 162.199219 L 261.636719 195.367188 L 258.183594 193.910156 Z M 272.175781 160.742188 "/>
<path style=" stroke:none;fill-rule:nonzero;fill:rgb(96.859741%,70.979309%,9.408569%);fill-opacity:1;" d="M 125.328125 274.992188 L 127.160156 270.882812 L 159.96875 285.523438 L 158.132812 289.632812 Z M 125.328125 274.992188 "/>
<path style=" stroke:none;fill-rule:nonzero;fill:rgb(87.059021%,57.249451%,6.269836%);fill-opacity:1;" d="M 185.140625 179.59375 L 188.890625 182.078125 L 169.039062 212.023438 L 165.289062 209.539062 Z M 185.140625 179.59375 "/>
<path style=" stroke:none;fill-rule:nonzero;fill:rgb(96.859741%,70.979309%,9.408569%);fill-opacity:1;" d="M 154.609375 185.441406 L 158.808594 187.050781 L 145.949219 220.59375 L 141.746094 218.984375 Z M 154.609375 185.441406 "/>
<path style=" stroke:none;fill-rule:nonzero;fill:rgb(93.728638%,79.998779%,32.939148%);fill-opacity:1;" d="M 185.035156 209.515625 L 188.160156 211.585938 L 168.269531 241.59375 L 165.144531 239.519531 Z M 185.035156 209.515625 "/>
<path style=" stroke:none;fill-rule:nonzero;fill:rgb(87.059021%,57.249451%,6.269836%);fill-opacity:1;" d="M 121.125 244.195312 L 123.808594 240.582031 L 152.648438 262.003906 L 149.964844 265.617188 Z M 121.125 244.195312 "/>
<path style=" stroke:none;fill-rule:nonzero;fill:rgb(93.728638%,79.998779%,32.939148%);fill-opacity:1;" d="M 106.550781 226.160156 L 107.871094 221.859375 L 142.21875 232.386719 L 140.898438 236.6875 Z M 106.550781 226.160156 "/>
<path style=" stroke:none;fill-rule:nonzero;fill:rgb(93.728638%,79.998779%,32.939148%);fill-opacity:1;" d="M 151 245.902344 L 153.238281 242.894531 L 182.136719 264.363281 L 179.898438 267.371094 Z M 151 245.902344 "/>
<path style=" stroke:none;fill-rule:nonzero;fill:rgb(87.059021%,57.249451%,6.269836%);fill-opacity:1;" d="M 201.765625 103.289062 L 204.640625 106.75 L 177 129.703125 L 174.125 126.242188 Z M 201.765625 103.289062 "/>
<path style=" stroke:none;fill-rule:nonzero;fill:rgb(96.859741%,70.979309%,9.408569%);fill-opacity:1;" d="M 170.84375 100.085938 L 174.40625 102.839844 L 152.417969 131.253906 L 148.859375 128.5 Z M 170.84375 100.085938 "/>
<path style=" stroke:none;fill-rule:nonzero;fill:rgb(93.728638%,79.998779%,32.939148%);fill-opacity:1;" d="M 193.039062 131.910156 L 195.4375 134.792969 L 167.742188 157.792969 L 165.34375 154.910156 Z M 193.039062 131.910156 "/>
<path style=" stroke:none;fill-rule:nonzero;fill:rgb(87.059021%,57.249451%,6.269836%);fill-opacity:1;" d="M 121.847656 146.695312 L 125.457031 144.007812 L 146.894531 172.835938 L 143.285156 175.523438 Z M 121.847656 146.695312 "/>
<path style=" stroke:none;fill-rule:nonzero;fill:rgb(93.728638%,79.998779%,32.939148%);fill-opacity:1;" d="M 113.089844 125.226562 L 115.59375 121.488281 L 145.449219 141.46875 L 142.945312 145.210938 Z M 113.089844 125.226562 "/>
<path style=" stroke:none;fill-rule:nonzero;fill:rgb(93.728638%,79.998779%,32.939148%);fill-opacity:1;" d="M 149.960938 156.941406 L 152.972656 154.707031 L 174.453125 183.59375 L 171.445312 185.832031 Z M 149.960938 156.941406 "/>
<path style=" stroke:none;fill-rule:nonzero;fill:rgb(96.859741%,70.979309%,9.408569%);fill-opacity:1;" d="M 213.820312 71.367188 L 209.332031 71.027344 L 212.0625 35.203125 L 216.550781 35.546875 Z M 213.820312 71.367188 "/>
<path style=" stroke:none;fill-rule:nonzero;fill:rgb(93.728638%,79.998779%,32.939148%);fill-opacity:1;" d="M 250.730469 79.25 L 247.566406 81.261719 L 228.265625 50.871094 L 231.429688 48.863281 Z M 250.730469 79.25 "/>
<path style=" stroke:none;fill-rule:nonzero;fill:rgb(87.059021%,57.249451%,6.269836%);fill-opacity:1;" d="M 131.351562 181.027344 L 135.453125 182.882812 L 120.660156 215.621094 L 116.558594 213.769531 Z M 131.351562 181.027344 "/>
<path style=" stroke:none;fill-rule:nonzero;fill:rgb(96.859741%,70.979309%,9.408569%);fill-opacity:1;" d="M 96.433594 188.75 L 100.421875 190.828125 L 83.820312 222.6875 L 79.832031 220.609375 Z M 96.433594 188.75 "/>
<path style=" stroke:none;fill-rule:nonzero;fill:rgb(87.059021%,57.249451%,6.269836%);fill-opacity:1;" d="M 56.46875 243.304688 L 59.546875 240.019531 L 85.753906 264.59375 L 82.679688 267.875 Z M 56.46875 243.304688 "/>
<path style=" stroke:none;fill-rule:nonzero;fill:rgb(93.728638%,79.998779%,32.939148%);fill-opacity:1;" d="M 44.046875 223.726562 L 45.847656 219.605469 L 78.773438 233.980469 L 76.972656 238.101562 Z M 44.046875 223.726562 "/>
<path style=" stroke:none;fill-rule:nonzero;fill:rgb(93.728638%,79.998779%,32.939148%);fill-opacity:1;" d="M 85.957031 248.40625 L 88.519531 245.671875 L 114.785156 270.292969 L 112.21875 273.03125 Z M 85.957031 248.40625 "/>
<path style=" stroke:none;fill-rule:nonzero;fill:rgb(96.859741%,70.979309%,9.408569%);fill-opacity:1;" d="M 116.5625 183.867188 L 112.148438 184.75 L 105.089844 149.523438 L 109.5 148.640625 Z M 116.5625 183.867188 "/>
</g>
</svg>
