<?xml version="1.0" encoding="UTF-8"?>
<svg xmlns="http://www.w3.org/2000/svg" xmlns:xlink="http://www.w3.org/1999/xlink" width="300pt" height="299.999988pt" viewBox="0 0 300 299.999988" version="1.2">
<g id="surface1">
<path style=" stroke:none;fill-rule:nonzero;fill:rgb(88.238525%,19.999695%,14.118958%);fill-opacity:1;" d="M 77.613281 55.800781 C 77.222656 55.800781 76.84375 55.878906 76.484375 56.027344 C 76.121094 56.179688 75.800781 56.390625 75.523438 56.667969 C 75.246094 56.945312 75.03125 57.265625 74.882812 57.628906 C 74.730469 57.992188 74.65625 58.367188 74.65625 58.761719 C 74.65625 59.152344 74.730469 59.53125 74.882812 59.894531 C 75.03125 60.257812 75.246094 60.574219 75.523438 60.851562 C 75.800781 61.128906 76.121094 61.34375 76.484375 61.496094 C 76.84375 61.644531 77.222656 61.71875 77.613281 61.71875 C 78.007812 61.71875 78.382812 61.644531 78.746094 61.496094 C 79.109375 61.34375 79.429688 61.128906 79.707031 60.851562 C 79.984375 60.574219 80.199219 60.257812 80.347656 59.894531 C 80.5 59.53125 80.574219 59.152344 80.574219 58.761719 C 80.574219 58.367188 80.5 57.992188 80.347656 57.628906 C 80.199219 57.265625 79.984375 56.945312 79.707031 56.667969 C 79.429688 56.390625 79.109375 56.179688 78.746094 56.027344 C 78.382812 55.878906 78.007812 55.800781 77.613281 55.800781 Z M 77.613281 55.800781 "/>
<path style=" stroke:none;fill-rule:nonzero;fill:rgb(87.059021%,32.939148%,6.269836%);fill-opacity:1;" d="M 43.691406 83.601562 C 43.300781 83.601562 42.921875 83.675781 42.558594 83.824219 C 42.199219 83.976562 41.878906 84.191406 41.601562 84.46875 C 41.324219 84.746094 41.109375 85.066406 40.960938 85.425781 C 40.808594 85.789062 40.734375 86.167969 40.734375 86.558594 C 40.734375 86.953125 40.808594 87.328125 40.960938 87.691406 C 41.109375 88.054688 41.324219 88.375 41.601562 88.652344 C 41.878906 88.929688 42.199219 89.144531 42.558594 89.292969 C 42.921875 89.441406 43.300781 89.519531 43.691406 89.519531 C 44.085938 89.519531 44.460938 89.441406 44.824219 89.292969 C 45.1875 89.144531 45.507812 88.929688 45.785156 88.652344 C 46.0625 88.375 46.277344 88.054688 46.425781 87.691406 C 46.578125 87.328125 46.652344 86.953125 46.652344 86.558594 C 46.652344 86.167969 46.578125 85.789062 46.425781 85.425781 C 46.277344 85.066406 46.0625 84.746094 45.785156 84.46875 C 45.507812 84.191406 45.1875 83.976562 44.824219 83.824219 C 44.460938 83.675781 44.085938 83.601562 43.691406 83.601562 Z M 43.691406 83.601562 "/>
<path style=" stroke:none;fill-rule:nonzero;fill:rgb(72.158813%,19.999695%,15.689087%);fill-opacity:1;" d="M 128.398438 30 C 128.007812 30 127.628906 30.074219 127.265625 30.226562 C 126.90625 30.375 126.585938 30.589844 126.308594 30.867188 C 126.03125 31.144531 125.816406 31.464844 125.664062 31.828125 C 125.515625 32.1875 125.441406 32.566406 125.441406 32.957031 C 125.441406 33.351562 125.515625 33.726562 125.664062 34.089844 C 125.816406 34.453125 126.03125 34.773438 126.308594 35.050781 C 126.585938 35.328125 126.90625 35.542969 127.265625 35.691406 C 127.628906 35.84375 128.007812 35.917969 128.398438 35.917969 C 128.792969 35.917969 129.167969 35.84375 129.53125 35.691406 C 129.894531 35.542969 130.214844 35.328125 130.492188 35.050781 C 130.769531 34.773438 130.984375 34.453125 131.132812 34.089844 C 131.28125 33.726562 131.359375 33.351562 131.359375 32.957031 C 131.359375 32.566406 131.28125 32.1875 131.132812 31.828125 C 130.984375 31.464844 130.769531 31.144531 130.492188 30.867188 C 130.214844 30.589844 129.894531 30.375 129.53125 30.226562 C 129.167969 30.074219 128.792969 30 128.398438 30 Z M 128.398438 30 "/>
<path style=" stroke:none;fill-rule:nonzero;fill:rgb(88.238525%,38.42926%,14.118958%);fill-opacity:1;" d="M 92.203125 83.601562 C 91.808594 83.601562 91.433594 83.675781 91.070312 83.824219 C 90.707031 83.976562 90.386719 84.191406 90.109375 84.46875 C 89.832031 84.746094 89.617188 85.066406 89.46875 85.425781 C 89.316406 85.789062 89.242188 86.167969 89.242188 86.558594 C 89.242188 86.953125 89.316406 87.328125 89.46875 87.691406 C 89.617188 88.054688 89.832031 88.375 90.109375 88.652344 C 90.386719 88.929688 90.707031 89.144531 91.070312 89.292969 C 91.433594 89.441406 91.808594 89.519531 92.203125 89.519531 C 92.59375 89.519531 92.972656 89.441406 93.335938 89.292969 C 93.695312 89.144531 94.015625 88.929688 94.292969 88.652344 C 94.570312 88.375 94.785156 88.054688 94.933594 87.691406 C 95.085938 87.328125 95.160156 86.953125 95.160156 86.558594 C 95.160156 86.167969 95.085938 85.789062 94.933594 85.425781 C 94.785156 85.066406 94.570312 84.746094 94.292969 84.46875 C 94.015625 84.191406 93.695312 83.976562 93.335938 83.824219 C 92.972656 83.675781 92.59375 83.601562 92.203125 83.601562 Z M 92.203125 83.601562 "/>
<path style=" stroke:none;fill-rule:nonzero;fill:rgb(88.238525%,19.999695%,14.118958%);fill-opacity:1;" d="M 212.449219 67.648438 C 212.628906 67.296875 212.734375 66.929688 212.765625 66.539062 C 212.800781 66.144531 212.753906 65.765625 212.632812 65.390625 C 212.515625 65.015625 212.328125 64.679688 212.074219 64.382812 C 211.820312 64.082031 211.519531 63.84375 211.167969 63.664062 C 210.820312 63.484375 210.449219 63.378906 210.058594 63.347656 C 209.667969 63.316406 209.285156 63.359375 208.914062 63.480469 C 208.539062 63.597656 208.203125 63.785156 207.902344 64.039062 C 207.605469 64.292969 207.363281 64.597656 207.1875 64.945312 C 207.007812 65.292969 206.902344 65.664062 206.871094 66.054688 C 206.835938 66.445312 206.882812 66.828125 207 67.203125 C 207.121094 67.574219 207.308594 67.910156 207.5625 68.210938 C 207.816406 68.511719 208.117188 68.75 208.46875 68.929688 C 208.816406 69.109375 209.1875 69.214844 209.578125 69.246094 C 209.96875 69.277344 210.351562 69.234375 210.722656 69.113281 C 211.097656 68.992188 211.433594 68.804688 211.734375 68.550781 C 212.03125 68.296875 212.269531 67.996094 212.449219 67.648438 Z M 212.449219 67.648438 "/>
<path style=" stroke:none;fill-rule:nonzero;fill:rgb(87.059021%,32.939148%,6.269836%);fill-opacity:1;" d="M 170.363281 61.132812 C 170.542969 60.785156 170.648438 60.414062 170.679688 60.023438 C 170.710938 59.632812 170.667969 59.25 170.546875 58.878906 C 170.425781 58.503906 170.238281 58.167969 169.984375 57.867188 C 169.730469 57.570312 169.429688 57.332031 169.082031 57.152344 C 168.730469 56.972656 168.363281 56.867188 167.972656 56.835938 C 167.582031 56.800781 167.199219 56.847656 166.824219 56.964844 C 166.449219 57.085938 166.113281 57.273438 165.816406 57.527344 C 165.515625 57.78125 165.277344 58.082031 165.097656 58.433594 C 164.917969 58.78125 164.8125 59.152344 164.78125 59.542969 C 164.75 59.933594 164.792969 60.316406 164.914062 60.6875 C 165.035156 61.0625 165.21875 61.398438 165.472656 61.699219 C 165.726562 61.996094 166.03125 62.234375 166.378906 62.414062 C 166.726562 62.59375 167.097656 62.699219 167.488281 62.730469 C 167.878906 62.765625 168.261719 62.71875 168.636719 62.601562 C 169.007812 62.480469 169.34375 62.292969 169.644531 62.039062 C 169.945312 61.785156 170.183594 61.484375 170.363281 61.132812 Z M 170.363281 61.132812 "/>
<path style=" stroke:none;fill-rule:nonzero;fill:rgb(72.158813%,19.999695%,15.689087%);fill-opacity:1;" d="M 170.363281 104.21875 C 170.542969 103.867188 170.648438 103.5 170.679688 103.105469 C 170.710938 102.714844 170.667969 102.335938 170.546875 101.960938 C 170.425781 101.585938 170.238281 101.25 169.984375 100.953125 C 169.730469 100.652344 169.429688 100.414062 169.082031 100.234375 C 168.730469 100.054688 168.363281 99.949219 167.972656 99.917969 C 167.582031 99.886719 167.199219 99.929688 166.824219 100.050781 C 166.449219 100.167969 166.113281 100.355469 165.816406 100.609375 C 165.515625 100.863281 165.277344 101.167969 165.097656 101.515625 C 164.917969 101.863281 164.8125 102.234375 164.78125 102.625 C 164.75 103.015625 164.792969 103.398438 164.914062 103.773438 C 165.035156 104.144531 165.21875 104.480469 165.472656 104.78125 C 165.726562 105.082031 166.03125 105.320312 166.378906 105.5 C 166.726562 105.675781 167.097656 105.785156 167.488281 105.816406 C 167.878906 105.847656 168.261719 105.804688 168.636719 105.683594 C 169.007812 105.5625 169.34375 105.375 169.644531 105.121094 C 169.945312 104.867188 170.183594 104.566406 170.363281 104.21875 Z M 170.363281 104.21875 "/>
<path style=" stroke:none;fill-rule:nonzero;fill:rgb(100%,89.019775%,10.198975%);fill-opacity:1;" d="M 138.730469 84.949219 C 138.910156 84.601562 139.015625 84.230469 139.050781 83.839844 C 139.082031 83.449219 139.035156 83.066406 138.917969 82.691406 C 138.796875 82.320312 138.609375 81.980469 138.355469 81.683594 C 138.101562 81.382812 137.800781 81.144531 137.449219 80.964844 C 137.101562 80.785156 136.730469 80.679688 136.339844 80.648438 C 135.949219 80.617188 135.566406 80.660156 135.195312 80.78125 C 134.820312 80.902344 134.484375 81.089844 134.183594 81.34375 C 133.886719 81.597656 133.648438 81.898438 133.46875 82.246094 C 133.289062 82.59375 133.183594 82.964844 133.152344 83.355469 C 133.117188 83.746094 133.164062 84.128906 133.285156 84.503906 C 133.402344 84.878906 133.589844 85.214844 133.84375 85.511719 C 134.097656 85.8125 134.398438 86.050781 134.75 86.230469 C 135.097656 86.410156 135.46875 86.515625 135.859375 86.546875 C 136.25 86.578125 136.632812 86.535156 137.003906 86.414062 C 137.378906 86.292969 137.714844 86.105469 138.015625 85.851562 C 138.3125 85.597656 138.554688 85.296875 138.730469 84.949219 Z M 138.730469 84.949219 "/>
<path style=" stroke:none;fill-rule:nonzero;fill:rgb(88.238525%,19.999695%,14.118958%);fill-opacity:1;" d="M 86.285156 121.582031 C 85.890625 121.582031 85.515625 121.65625 85.152344 121.808594 C 84.789062 121.957031 84.46875 122.171875 84.191406 122.449219 C 83.914062 122.726562 83.699219 123.046875 83.550781 123.410156 C 83.402344 123.769531 83.324219 124.148438 83.324219 124.542969 C 83.324219 124.933594 83.402344 125.3125 83.550781 125.671875 C 83.699219 126.035156 83.914062 126.355469 84.191406 126.632812 C 84.46875 126.910156 84.789062 127.125 85.152344 127.273438 C 85.515625 127.425781 85.890625 127.5 86.285156 127.5 C 86.675781 127.5 87.054688 127.425781 87.417969 127.273438 C 87.777344 127.125 88.097656 126.910156 88.375 126.632812 C 88.652344 126.355469 88.867188 126.035156 89.019531 125.671875 C 89.167969 125.3125 89.242188 124.933594 89.242188 124.542969 C 89.242188 124.148438 89.167969 123.769531 89.019531 123.410156 C 88.867188 123.046875 88.652344 122.726562 88.375 122.449219 C 88.097656 122.171875 87.777344 121.957031 87.417969 121.808594 C 87.054688 121.65625 86.675781 121.582031 86.285156 121.582031 Z M 86.285156 121.582031 "/>
<path style=" stroke:none;fill-rule:nonzero;fill:rgb(87.059021%,32.939148%,6.269836%);fill-opacity:1;" d="M 30 137.476562 C 29.609375 137.476562 29.230469 137.550781 28.867188 137.703125 C 28.503906 137.851562 28.183594 138.066406 27.90625 138.34375 C 27.628906 138.621094 27.417969 138.941406 27.265625 139.304688 C 27.117188 139.667969 27.042969 140.042969 27.042969 140.4375 C 27.042969 140.828125 27.117188 141.207031 27.265625 141.566406 C 27.417969 141.929688 27.628906 142.25 27.90625 142.527344 C 28.183594 142.804688 28.503906 143.019531 28.867188 143.167969 C 29.230469 143.320312 29.609375 143.394531 30 143.394531 C 30.390625 143.394531 30.769531 143.320312 31.132812 143.167969 C 31.496094 143.019531 31.816406 142.804688 32.09375 142.527344 C 32.371094 142.25 32.582031 141.929688 32.734375 141.566406 C 32.882812 141.207031 32.957031 140.828125 32.957031 140.4375 C 32.957031 140.042969 32.882812 139.667969 32.734375 139.304688 C 32.582031 138.941406 32.371094 138.621094 32.09375 138.34375 C 31.816406 138.066406 31.496094 137.851562 31.132812 137.703125 C 30.769531 137.550781 30.390625 137.476562 30 137.476562 Z M 30 137.476562 "/>
<path style=" stroke:none;fill-rule:nonzero;fill:rgb(72.158813%,19.999695%,15.689087%);fill-opacity:1;" d="M 140.097656 134.519531 C 139.703125 134.519531 139.328125 134.59375 138.964844 134.742188 C 138.601562 134.894531 138.28125 135.109375 138.003906 135.386719 C 137.726562 135.664062 137.511719 135.980469 137.363281 136.34375 C 137.210938 136.707031 137.136719 137.085938 137.136719 137.476562 C 137.136719 137.871094 137.210938 138.246094 137.363281 138.609375 C 137.511719 138.972656 137.726562 139.292969 138.003906 139.570312 C 138.28125 139.847656 138.601562 140.058594 138.964844 140.210938 C 139.328125 140.359375 139.703125 140.4375 140.097656 140.4375 C 140.488281 140.4375 140.867188 140.359375 141.230469 140.210938 C 141.589844 140.058594 141.910156 139.847656 142.1875 139.570312 C 142.464844 139.292969 142.679688 138.972656 142.828125 138.609375 C 142.980469 138.246094 143.054688 137.871094 143.054688 137.476562 C 143.054688 137.085938 142.980469 136.707031 142.828125 136.34375 C 142.679688 135.980469 142.464844 135.664062 142.1875 135.386719 C 141.910156 135.109375 141.589844 134.894531 141.230469 134.742188 C 140.867188 134.59375 140.488281 134.519531 140.097656 134.519531 Z M 140.097656 134.519531 "/>
<path style=" stroke:none;fill-rule:nonzero;fill:rgb(100%,82.348633%,19.999695%);fill-opacity:1;" d="M 73.761719 158.601562 C 73.367188 158.601562 72.992188 158.675781 72.628906 158.824219 C 72.265625 158.976562 71.945312 159.191406 71.667969 159.46875 C 71.390625 159.746094 71.179688 160.066406 71.027344 160.425781 C 70.878906 160.789062 70.804688 161.167969 70.804688 161.558594 C 70.804688 161.953125 70.878906 162.328125 71.027344 162.691406 C 71.179688 163.054688 71.390625 163.375 71.667969 163.652344 C 71.945312 163.929688 72.265625 164.144531 72.628906 164.292969 C 72.992188 164.441406 73.367188 164.519531 73.761719 164.519531 C 74.152344 164.519531 74.53125 164.441406 74.894531 164.292969 C 75.257812 164.144531 75.574219 163.929688 75.855469 163.652344 C 76.132812 163.375 76.34375 163.054688 76.496094 162.691406 C 76.644531 162.328125 76.71875 161.953125 76.71875 161.558594 C 76.71875 161.167969 76.644531 160.789062 76.496094 160.425781 C 76.34375 160.066406 76.132812 159.746094 75.855469 159.46875 C 75.574219 159.191406 75.257812 158.976562 74.894531 158.824219 C 74.53125 158.675781 74.152344 158.601562 73.761719 158.601562 Z M 73.761719 158.601562 "/>
<path style=" stroke:none;fill-rule:nonzero;fill:rgb(88.238525%,19.999695%,14.118958%);fill-opacity:1;" d="M 226.238281 102.859375 C 225.847656 102.859375 225.46875 102.933594 225.105469 103.085938 C 224.742188 103.234375 224.421875 103.449219 224.144531 103.726562 C 223.867188 104.003906 223.65625 104.324219 223.503906 104.6875 C 223.355469 105.046875 223.28125 105.425781 223.28125 105.816406 C 223.28125 106.210938 223.355469 106.589844 223.503906 106.949219 C 223.65625 107.3125 223.867188 107.632812 224.144531 107.910156 C 224.421875 108.1875 224.742188 108.402344 225.105469 108.550781 C 225.46875 108.703125 225.847656 108.777344 226.238281 108.777344 C 226.632812 108.777344 227.007812 108.703125 227.371094 108.550781 C 227.734375 108.402344 228.054688 108.1875 228.332031 107.910156 C 228.609375 107.632812 228.820312 107.3125 228.972656 106.949219 C 229.121094 106.589844 229.195312 106.210938 229.195312 105.816406 C 229.195312 105.425781 229.121094 105.046875 228.972656 104.6875 C 228.820312 104.324219 228.609375 104.003906 228.332031 103.726562 C 228.054688 103.449219 227.734375 103.234375 227.371094 103.085938 C 227.007812 102.933594 226.632812 102.859375 226.238281 102.859375 Z M 226.238281 102.859375 "/>
<path style=" stroke:none;fill-rule:nonzero;fill:rgb(87.059021%,32.939148%,6.269836%);fill-opacity:1;" d="M 195.621094 140.4375 C 195.226562 140.4375 194.847656 140.511719 194.488281 140.660156 C 194.125 140.8125 193.804688 141.023438 193.527344 141.300781 C 193.25 141.578125 193.035156 141.898438 192.886719 142.261719 C 192.734375 142.625 192.660156 143.003906 192.660156 143.394531 C 192.660156 143.785156 192.734375 144.164062 192.886719 144.527344 C 193.035156 144.890625 193.25 145.210938 193.527344 145.488281 C 193.804688 145.765625 194.125 145.976562 194.488281 146.128906 C 194.847656 146.277344 195.226562 146.351562 195.621094 146.351562 C 196.011719 146.351562 196.390625 146.277344 196.75 146.128906 C 197.113281 145.976562 197.433594 145.765625 197.710938 145.488281 C 197.988281 145.210938 198.203125 144.890625 198.351562 144.527344 C 198.503906 144.164062 198.578125 143.785156 198.578125 143.394531 C 198.578125 143.003906 198.503906 142.625 198.351562 142.261719 C 198.203125 141.898438 197.988281 141.578125 197.710938 141.300781 C 197.433594 141.023438 197.113281 140.8125 196.75 140.660156 C 196.390625 140.511719 196.011719 140.4375 195.621094 140.4375 Z M 195.621094 140.4375 "/>
<path style=" stroke:none;fill-rule:nonzero;fill:rgb(72.158813%,19.999695%,15.689087%);fill-opacity:1;" d="M 255.34375 87.585938 C 254.953125 87.585938 254.574219 87.660156 254.210938 87.808594 C 253.847656 87.960938 253.53125 88.171875 253.25 88.449219 C 252.972656 88.726562 252.761719 89.046875 252.609375 89.410156 C 252.460938 89.773438 252.386719 90.152344 252.386719 90.542969 C 252.386719 90.933594 252.460938 91.3125 252.609375 91.675781 C 252.761719 92.039062 252.972656 92.359375 253.25 92.636719 C 253.53125 92.914062 253.847656 93.125 254.210938 93.277344 C 254.574219 93.425781 254.953125 93.5 255.34375 93.5 C 255.738281 93.5 256.113281 93.425781 256.476562 93.277344 C 256.839844 93.125 257.160156 92.914062 257.4375 92.636719 C 257.714844 92.359375 257.925781 92.039062 258.078125 91.675781 C 258.226562 91.3125 258.300781 90.933594 258.300781 90.542969 C 258.300781 90.152344 258.226562 89.773438 258.078125 89.410156 C 257.925781 89.046875 257.714844 88.726562 257.4375 88.449219 C 257.160156 88.171875 256.839844 87.960938 256.476562 87.808594 C 256.113281 87.660156 255.738281 87.585938 255.34375 87.585938 Z M 255.34375 87.585938 "/>
<path style=" stroke:none;fill-rule:nonzero;fill:rgb(100%,89.019775%,10.198975%);fill-opacity:1;" d="M 240.824219 130.65625 C 240.433594 130.65625 240.054688 130.734375 239.695312 130.882812 C 239.332031 131.03125 239.011719 131.246094 238.734375 131.523438 C 238.457031 131.800781 238.242188 132.121094 238.09375 132.484375 C 237.941406 132.847656 237.867188 133.222656 237.867188 133.617188 C 237.867188 134.007812 237.941406 134.386719 238.09375 134.75 C 238.242188 135.109375 238.457031 135.429688 238.734375 135.707031 C 239.011719 135.984375 239.332031 136.199219 239.695312 136.351562 C 240.054688 136.5 240.433594 136.574219 240.824219 136.574219 C 241.21875 136.574219 241.59375 136.5 241.957031 136.351562 C 242.320312 136.199219 242.640625 135.984375 242.917969 135.707031 C 243.195312 135.429688 243.410156 135.109375 243.558594 134.75 C 243.710938 134.386719 243.785156 134.007812 243.785156 133.617188 C 243.785156 133.222656 243.710938 132.847656 243.558594 132.484375 C 243.410156 132.121094 243.195312 131.800781 242.917969 131.523438 C 242.640625 131.246094 242.320312 131.03125 241.957031 130.882812 C 241.59375 130.734375 241.21875 130.65625 240.824219 130.65625 Z M 240.824219 130.65625 "/>
<path style=" stroke:none;fill-rule:nonzero;fill:rgb(72.158813%,19.999695%,15.689087%);fill-opacity:1;" d="M 192.660156 19.679688 C 192.269531 19.679688 191.890625 19.753906 191.527344 19.902344 C 191.164062 20.054688 190.847656 20.269531 190.570312 20.546875 C 190.289062 20.824219 190.078125 21.144531 189.925781 21.503906 C 189.777344 21.867188 189.703125 22.246094 189.703125 22.636719 C 189.703125 23.03125 189.777344 23.40625 189.925781 23.769531 C 190.078125 24.132812 190.289062 24.453125 190.570312 24.730469 C 190.847656 25.007812 191.164062 25.222656 191.527344 25.371094 C 191.890625 25.519531 192.269531 25.597656 192.660156 25.597656 C 193.054688 25.597656 193.429688 25.519531 193.792969 25.371094 C 194.15625 25.222656 194.476562 25.007812 194.753906 24.730469 C 195.03125 24.453125 195.242188 24.132812 195.394531 23.769531 C 195.542969 23.40625 195.621094 23.03125 195.621094 22.636719 C 195.621094 22.246094 195.542969 21.867188 195.394531 21.503906 C 195.242188 21.144531 195.03125 20.824219 194.753906 20.546875 C 194.476562 20.269531 194.15625 20.054688 193.792969 19.902344 C 193.429688 19.753906 193.054688 19.679688 192.660156 19.679688 Z M 192.660156 19.679688 "/>
<path style=" stroke:none;fill-rule:nonzero;fill:rgb(72.158813%,19.999695%,15.689087%);fill-opacity:1;" d="M 116.015625 185.296875 C 115.621094 185.296875 115.242188 185.375 114.882812 185.523438 C 114.519531 185.671875 114.199219 185.886719 113.921875 186.164062 C 113.644531 186.441406 113.429688 186.761719 113.28125 187.125 C 113.128906 187.488281 113.054688 187.863281 113.054688 188.257812 C 113.054688 188.648438 113.128906 189.027344 113.28125 189.390625 C 113.429688 189.75 113.644531 190.070312 113.921875 190.347656 C 114.199219 190.625 114.519531 190.839844 114.882812 190.992188 C 115.242188 191.140625 115.621094 191.214844 116.015625 191.214844 C 116.40625 191.214844 116.785156 191.140625 117.144531 190.992188 C 117.507812 190.839844 117.828125 190.625 118.105469 190.347656 C 118.382812 190.070312 118.597656 189.75 118.746094 189.390625 C 118.898438 189.027344 118.972656 188.648438 118.972656 188.257812 C 118.972656 187.863281 118.898438 187.488281 118.746094 187.125 C 118.597656 186.761719 118.382812 186.441406 118.105469 186.164062 C 117.828125 185.886719 117.507812 185.671875 117.144531 185.523438 C 116.785156 185.375 116.40625 185.296875 116.015625 185.296875 Z M 116.015625 185.296875 "/>
<path style=" stroke:none;fill-rule:nonzero;fill:rgb(72.158813%,19.999695%,15.689087%);fill-opacity:1;" d="M 46.652344 188.257812 C 46.257812 188.257812 45.882812 188.332031 45.519531 188.480469 C 45.15625 188.632812 44.835938 188.847656 44.558594 189.125 C 44.28125 189.402344 44.066406 189.722656 43.917969 190.082031 C 43.769531 190.445312 43.691406 190.824219 43.691406 191.214844 C 43.691406 191.609375 43.769531 191.984375 43.917969 192.347656 C 44.066406 192.710938 44.28125 193.03125 44.558594 193.308594 C 44.835938 193.585938 45.15625 193.800781 45.519531 193.949219 C 45.882812 194.097656 46.257812 194.175781 46.652344 194.175781 C 47.042969 194.175781 47.421875 194.097656 47.785156 193.949219 C 48.144531 193.800781 48.464844 193.585938 48.742188 193.308594 C 49.019531 193.03125 49.234375 192.710938 49.386719 192.347656 C 49.535156 191.984375 49.609375 191.609375 49.609375 191.214844 C 49.609375 190.824219 49.535156 190.445312 49.386719 190.082031 C 49.234375 189.722656 49.019531 189.402344 48.742188 189.125 C 48.464844 188.847656 48.144531 188.632812 47.785156 188.480469 C 47.421875 188.332031 47.042969 188.257812 46.652344 188.257812 Z M 46.652344 188.257812 "/>
<path style=" stroke:none;fill-rule:nonzero;fill:rgb(88.238525%,19.999695%,14.118958%);fill-opacity:1;" d="M 95.160156 237.453125 C 94.769531 237.453125 94.390625 237.527344 94.027344 237.679688 C 93.664062 237.828125 93.347656 238.042969 93.070312 238.320312 C 92.789062 238.597656 92.578125 238.917969 92.425781 239.28125 C 92.277344 239.644531 92.203125 240.019531 92.203125 240.414062 C 92.203125 240.804688 92.277344 241.183594 92.425781 241.546875 C 92.578125 241.90625 92.789062 242.226562 93.070312 242.503906 C 93.347656 242.78125 93.664062 242.996094 94.027344 243.144531 C 94.390625 243.296875 94.769531 243.371094 95.160156 243.371094 C 95.554688 243.371094 95.929688 243.296875 96.292969 243.144531 C 96.65625 242.996094 96.976562 242.78125 97.253906 242.503906 C 97.53125 242.226562 97.742188 241.90625 97.894531 241.546875 C 98.042969 241.183594 98.121094 240.804688 98.121094 240.414062 C 98.121094 240.019531 98.042969 239.644531 97.894531 239.28125 C 97.742188 238.917969 97.53125 238.597656 97.253906 238.320312 C 96.976562 238.042969 96.65625 237.828125 96.292969 237.679688 C 95.929688 237.527344 95.554688 237.453125 95.160156 237.453125 Z M 95.160156 237.453125 "/>
<path style=" stroke:none;fill-rule:nonzero;fill:rgb(87.059021%,32.939148%,6.269836%);fill-opacity:1;" d="M 162.394531 182.664062 C 162.574219 182.3125 162.679688 181.945312 162.710938 181.550781 C 162.746094 181.160156 162.699219 180.777344 162.578125 180.40625 C 162.460938 180.03125 162.273438 179.695312 162.019531 179.398438 C 161.765625 179.097656 161.464844 178.859375 161.113281 178.679688 C 160.765625 178.5 160.394531 178.394531 160.003906 178.363281 C 159.613281 178.332031 159.230469 178.375 158.859375 178.496094 C 158.484375 178.613281 158.148438 178.800781 157.847656 179.054688 C 157.550781 179.308594 157.308594 179.609375 157.132812 179.960938 C 156.953125 180.308594 156.847656 180.679688 156.816406 181.070312 C 156.78125 181.460938 156.828125 181.84375 156.945312 182.21875 C 157.066406 182.589844 157.253906 182.925781 157.507812 183.226562 C 157.761719 183.523438 158.0625 183.765625 158.414062 183.945312 C 158.761719 184.121094 159.132812 184.226562 159.523438 184.261719 C 159.914062 184.292969 160.296875 184.25 160.667969 184.128906 C 161.042969 184.007812 161.378906 183.820312 161.679688 183.566406 C 161.976562 183.3125 162.214844 183.011719 162.394531 182.664062 Z M 162.394531 182.664062 "/>
<path style=" stroke:none;fill-rule:nonzero;fill:rgb(100%,82.348633%,19.999695%);fill-opacity:1;" d="M 150 223.691406 C 149.609375 223.691406 149.230469 223.769531 148.867188 223.917969 C 148.503906 224.066406 148.183594 224.28125 147.90625 224.558594 C 147.628906 224.835938 147.417969 225.15625 147.265625 225.519531 C 147.117188 225.882812 147.042969 226.257812 147.042969 226.652344 C 147.042969 227.042969 147.117188 227.421875 147.265625 227.785156 C 147.417969 228.144531 147.628906 228.464844 147.90625 228.742188 C 148.183594 229.019531 148.503906 229.234375 148.867188 229.386719 C 149.230469 229.535156 149.609375 229.609375 150 229.609375 C 150.390625 229.609375 150.769531 229.535156 151.132812 229.386719 C 151.496094 229.234375 151.816406 229.019531 152.09375 228.742188 C 152.371094 228.464844 152.582031 228.144531 152.734375 227.785156 C 152.882812 227.421875 152.957031 227.042969 152.957031 226.652344 C 152.957031 226.257812 152.882812 225.882812 152.734375 225.519531 C 152.582031 225.15625 152.371094 224.835938 152.09375 224.558594 C 151.816406 224.28125 151.496094 224.066406 151.132812 223.917969 C 150.769531 223.769531 150.390625 223.691406 150 223.691406 Z M 150 223.691406 "/>
<path style=" stroke:none;fill-rule:nonzero;fill:rgb(72.158813%,19.999695%,15.689087%);fill-opacity:1;" d="M 226.238281 182.339844 C 225.847656 182.339844 225.46875 182.414062 225.105469 182.566406 C 224.742188 182.714844 224.421875 182.929688 224.144531 183.207031 C 223.867188 183.484375 223.65625 183.804688 223.503906 184.164062 C 223.355469 184.527344 223.28125 184.90625 223.28125 185.296875 C 223.28125 185.691406 223.355469 186.066406 223.503906 186.429688 C 223.65625 186.792969 223.867188 187.113281 224.144531 187.390625 C 224.421875 187.667969 224.742188 187.882812 225.105469 188.03125 C 225.46875 188.179688 225.847656 188.257812 226.238281 188.257812 C 226.632812 188.257812 227.007812 188.179688 227.371094 188.03125 C 227.734375 187.882812 228.054688 187.667969 228.332031 187.390625 C 228.609375 187.113281 228.820312 186.792969 228.972656 186.429688 C 229.121094 186.066406 229.195312 185.691406 229.195312 185.296875 C 229.195312 184.90625 229.121094 184.527344 228.972656 184.164062 C 228.820312 183.804688 228.609375 183.484375 228.332031 183.207031 C 228.054688 182.929688 227.734375 182.714844 227.371094 182.566406 C 227.007812 182.414062 226.632812 182.339844 226.238281 182.339844 Z M 226.238281 182.339844 "/>
<path style=" stroke:none;fill-rule:nonzero;fill:rgb(87.059021%,32.939148%,6.269836%);fill-opacity:1;" d="M 206.871094 223.691406 C 206.480469 223.691406 206.101562 223.769531 205.738281 223.917969 C 205.378906 224.066406 205.058594 224.28125 204.78125 224.558594 C 204.503906 224.835938 204.289062 225.15625 204.140625 225.519531 C 203.988281 225.882812 203.914062 226.257812 203.914062 226.652344 C 203.914062 227.042969 203.988281 227.421875 204.140625 227.785156 C 204.289062 228.144531 204.503906 228.464844 204.78125 228.742188 C 205.058594 229.019531 205.378906 229.234375 205.738281 229.386719 C 206.101562 229.535156 206.480469 229.609375 206.871094 229.609375 C 207.265625 229.609375 207.640625 229.535156 208.003906 229.386719 C 208.367188 229.234375 208.6875 229.019531 208.964844 228.742188 C 209.242188 228.464844 209.457031 228.144531 209.605469 227.785156 C 209.757812 227.421875 209.832031 227.042969 209.832031 226.652344 C 209.832031 226.257812 209.757812 225.882812 209.605469 225.519531 C 209.457031 225.15625 209.242188 224.835938 208.964844 224.558594 C 208.6875 224.28125 208.367188 224.066406 208.003906 223.917969 C 207.640625 223.769531 207.265625 223.691406 206.871094 223.691406 Z M 206.871094 223.691406 "/>
<path style=" stroke:none;fill-rule:nonzero;fill:rgb(87.059021%,32.939148%,6.269836%);fill-opacity:1;" d="M 150 267.042969 C 149.609375 267.042969 149.230469 267.117188 148.867188 267.265625 C 148.503906 267.417969 148.183594 267.628906 147.90625 267.90625 C 147.628906 268.183594 147.417969 268.503906 147.265625 268.867188 C 147.117188 269.230469 147.042969 269.609375 147.042969 270 C 147.042969 270.390625 147.117188 270.769531 147.265625 271.132812 C 147.417969 271.496094 147.628906 271.816406 147.90625 272.09375 C 148.183594 272.371094 148.503906 272.582031 148.867188 272.734375 C 149.230469 272.882812 149.609375 272.957031 150 272.957031 C 150.390625 272.957031 150.769531 272.882812 151.132812 272.734375 C 151.496094 272.582031 151.816406 272.371094 152.09375 272.09375 C 152.371094 271.816406 152.582031 271.496094 152.734375 271.132812 C 152.882812 270.769531 152.957031 270.390625 152.957031 270 C 152.957031 269.609375 152.882812 269.230469 152.734375 268.867188 C 152.582031 268.503906 152.371094 268.183594 152.09375 267.90625 C 151.816406 267.628906 151.496094 267.417969 151.132812 267.265625 C 150.769531 267.117188 150.390625 267.042969 150 267.042969 Z M 150 267.042969 "/>
<path style=" stroke:none;fill-rule:nonzero;fill:rgb(100%,89.019775%,10.198975%);fill-opacity:1;" d="M 255.34375 220.734375 C 254.953125 220.734375 254.574219 220.808594 254.210938 220.960938 C 253.847656 221.109375 253.53125 221.324219 253.25 221.601562 C 252.972656 221.878906 252.761719 222.199219 252.609375 222.558594 C 252.460938 222.921875 252.386719 223.300781 252.386719 223.691406 C 252.386719 224.085938 252.460938 224.460938 252.609375 224.824219 C 252.761719 225.1875 252.972656 225.507812 253.25 225.785156 C 253.53125 226.0625 253.847656 226.277344 254.210938 226.425781 C 254.574219 226.578125 254.953125 226.652344 255.34375 226.652344 C 255.738281 226.652344 256.113281 226.578125 256.476562 226.425781 C 256.839844 226.277344 257.160156 226.0625 257.4375 225.785156 C 257.714844 225.507812 257.925781 225.1875 258.078125 224.824219 C 258.226562 224.460938 258.300781 224.085938 258.300781 223.691406 C 258.300781 223.300781 258.226562 222.921875 258.078125 222.558594 C 257.925781 222.199219 257.714844 221.878906 257.4375 221.601562 C 257.160156 221.324219 256.839844 221.109375 256.476562 220.960938 C 256.113281 220.808594 255.738281 220.734375 255.34375 220.734375 Z M 255.34375 220.734375 "/>
<path style=" stroke:none;fill-rule:nonzero;fill:rgb(88.238525%,19.999695%,14.118958%);fill-opacity:1;" d="M 272.957031 175.398438 C 272.566406 175.398438 272.1875 175.472656 271.828125 175.621094 C 271.464844 175.773438 271.144531 175.988281 270.867188 176.265625 C 270.589844 176.542969 270.375 176.859375 270.226562 177.222656 C 270.074219 177.585938 270 177.964844 270 178.355469 C 270 178.75 270.074219 179.125 270.226562 179.488281 C 270.375 179.851562 270.589844 180.171875 270.867188 180.449219 C 271.144531 180.726562 271.464844 180.9375 271.828125 181.089844 C 272.1875 181.238281 272.566406 181.316406 272.957031 181.316406 C 273.351562 181.316406 273.726562 181.238281 274.089844 181.089844 C 274.453125 180.9375 274.773438 180.726562 275.050781 180.449219 C 275.328125 180.171875 275.542969 179.851562 275.691406 179.488281 C 275.84375 179.125 275.917969 178.75 275.917969 178.355469 C 275.917969 177.964844 275.84375 177.585938 275.691406 177.222656 C 275.542969 176.859375 275.328125 176.542969 275.050781 176.265625 C 274.773438 175.988281 274.453125 175.773438 274.089844 175.621094 C 273.726562 175.472656 273.351562 175.398438 272.957031 175.398438 Z M 272.957031 175.398438 "/>
<path style=" stroke:none;fill-rule:nonzero;fill:rgb(88.238525%,38.42926%,14.118958%);fill-opacity:1;" d="M 56.007812 231.535156 C 55.617188 231.535156 55.238281 231.613281 54.875 231.761719 C 54.515625 231.910156 54.195312 232.125 53.917969 232.402344 C 53.640625 232.679688 53.425781 233 53.277344 233.363281 C 53.125 233.726562 53.050781 234.101562 53.050781 234.496094 C 53.050781 234.886719 53.125 235.265625 53.277344 235.628906 C 53.425781 235.988281 53.640625 236.308594 53.917969 236.585938 C 54.195312 236.863281 54.515625 237.078125 54.875 237.230469 C 55.238281 237.378906 55.617188 237.453125 56.007812 237.453125 C 56.402344 237.453125 56.777344 237.378906 57.140625 237.230469 C 57.503906 237.078125 57.824219 236.863281 58.101562 236.585938 C 58.378906 236.308594 58.59375 235.988281 58.742188 235.628906 C 58.894531 235.265625 58.96875 234.886719 58.96875 234.496094 C 58.96875 234.101562 58.894531 233.726562 58.742188 233.363281 C 58.59375 233 58.378906 232.679688 58.101562 232.402344 C 57.824219 232.125 57.503906 231.910156 57.140625 231.761719 C 56.777344 231.613281 56.402344 231.535156 56.007812 231.535156 Z M 56.007812 231.535156 "/>
</g>
</svg>
