<?xml version="1.0" encoding="UTF-8"?>
<svg xmlns="http://www.w3.org/2000/svg" xmlns:xlink="http://www.w3.org/1999/xlink" width="300pt" height="299.999988pt" viewBox="0 0 300 299.999988" version="1.2">
<defs>
<clipPath id="clip1">
  <path d="M 109 98 L 141 98 L 141 128.6875 L 109 128.6875 Z M 109 98 "/>
</clipPath>
<clipPath id="clip2">
  <path d="M 126 178 L 158 178 L 158 208.71875 L 126 208.71875 Z M 126 178 "/>
</clipPath>
<clipPath id="clip3">
  <path d="M 185 124 L 217 124 L 217 154.863281 L 185 154.863281 Z M 185 124 "/>
</clipPath>
<clipPath id="clip4">
  <path d="M 103 244 L 135 244 L 135 274.773438 L 103 274.773438 Z M 103 244 "/>
</clipPath>
</defs>
<g id="surface1">
<path style=" stroke:none;fill-rule:nonzero;fill:rgb(43.919373%,67.83905%,12.159729%);fill-opacity:1;" d="M 112.957031 60.023438 C 112.722656 60.164062 112.472656 60.292969 112.207031 60.398438 C 109.015625 61.6875 105.246094 59.675781 103.789062 55.902344 C 102.519531 52.609375 103.425781 49.066406 105.796875 47.359375 C 105.121094 44.019531 106.546875 40.722656 109.347656 39.589844 C 111.140625 38.863281 113.117188 39.179688 114.761719 40.269531 C 115.296875 39.824219 115.902344 39.457031 116.574219 39.183594 C 120.097656 37.757812 124.085938 39.527344 125.480469 43.136719 C 126.1875 44.96875 126.089844 46.921875 125.359375 48.585938 C 126.058594 49.234375 126.613281 50.03125 126.96875 50.953125 C 128.425781 54.730469 126.046875 59.230469 121.648438 61.007812 C 118.480469 62.289062 115.128906 61.804688 112.957031 60.023438 Z M 123.554688 64.027344 C 129.214844 61.738281 132.28125 55.945312 130.40625 51.085938 C 129.945312 49.894531 129.230469 48.871094 128.332031 48.039062 C 129.269531 45.894531 129.394531 43.382812 128.484375 41.023438 C 126.691406 36.378906 121.558594 34.101562 117.019531 35.9375 C 116.15625 36.285156 115.375 36.761719 114.691406 37.332031 C 112.574219 35.933594 110.03125 35.523438 107.722656 36.457031 C 104.117188 37.914062 102.28125 42.160156 103.148438 46.457031 C 100.097656 48.65625 98.929688 53.21875 100.566406 57.453125 C 102.441406 62.3125 107.292969 64.902344 111.402344 63.242188 C 111.742188 63.105469 112.0625 62.941406 112.371094 62.757812 C 115.160156 65.054688 119.472656 65.675781 123.554688 64.027344 "/>
<path style=" stroke:none;fill-rule:nonzero;fill:rgb(50.979614%,81.959534%,33.729553%);fill-opacity:1;" d="M 126.75 59.441406 C 129.402344 55.710938 129.082031 51.769531 125.9375 49.199219 C 126.367188 49.714844 126.71875 50.300781 126.96875 50.953125 C 128.425781 54.730469 126.046875 59.230469 121.648438 61.007812 C 118.78125 62.167969 115.765625 61.882812 113.609375 60.496094 C 117.492188 64.421875 124.386719 62.761719 126.75 59.441406 "/>
<path style=" stroke:none;fill-rule:nonzero;fill:rgb(50.979614%,81.959534%,33.729553%);fill-opacity:1;" d="M 115.371094 39.816406 C 115.742188 39.570312 116.144531 39.359375 116.574219 39.183594 C 120.097656 37.757812 124.085938 39.527344 125.480469 43.136719 C 126.082031 44.703125 126.101562 46.359375 125.636719 47.847656 C 126.636719 45.96875 127.242188 41.976562 124.40625 39.300781 C 121.566406 36.628906 117.269531 37.917969 115.371094 39.816406 "/>
<path style=" stroke:none;fill-rule:nonzero;fill:rgb(50.979614%,81.959534%,33.729553%);fill-opacity:1;" d="M 109.347656 39.589844 C 110.863281 38.976562 112.507812 39.109375 113.972656 39.816406 C 110.933594 37.988281 108.710938 37.816406 106.4375 40.195312 C 104.136719 42.601562 105.644531 46.695312 105.710938 46.867188 C 105.265625 43.703125 106.683594 40.664062 109.347656 39.589844 "/>
<path style=" stroke:none;fill-rule:nonzero;fill:rgb(50.979614%,81.959534%,33.729553%);fill-opacity:1;" d="M 103.789062 55.902344 C 102.691406 53.058594 103.21875 50.023438 104.914062 48.148438 C 103.203125 49.671875 101.027344 52.832031 102.90625 57.214844 C 104.789062 61.601562 109.363281 61.796875 112.207031 60.398438 C 109.015625 61.6875 105.246094 59.675781 103.789062 55.902344 "/>
<path style=" stroke:none;fill-rule:nonzero;fill:rgb(43.919373%,67.83905%,12.159729%);fill-opacity:1;" d="M 38.207031 133.570312 C 37.96875 133.710938 37.71875 133.835938 37.457031 133.941406 C 34.265625 135.234375 30.496094 133.222656 29.039062 129.449219 C 27.765625 126.15625 28.675781 122.613281 31.046875 120.902344 C 30.371094 117.5625 31.796875 114.265625 34.597656 113.136719 C 36.390625 112.410156 38.367188 112.726562 40.011719 113.8125 C 40.542969 113.371094 41.148438 113 41.820312 112.730469 C 45.347656 111.304688 49.335938 113.074219 50.726562 116.683594 C 51.433594 118.511719 51.339844 120.464844 50.609375 122.132812 C 51.308594 122.78125 51.863281 123.574219 52.21875 124.5 C 53.675781 128.273438 51.292969 132.773438 46.898438 134.550781 C 43.726562 135.835938 40.378906 135.351562 38.207031 133.570312 Z M 48.804688 137.570312 C 54.460938 135.28125 57.53125 129.488281 55.652344 124.632812 C 55.195312 123.441406 54.480469 122.417969 53.582031 121.585938 C 54.519531 119.441406 54.644531 116.925781 53.734375 114.570312 C 51.941406 109.925781 46.808594 107.648438 42.269531 109.484375 C 41.40625 109.832031 40.625 110.304688 39.941406 110.875 C 37.824219 109.476562 35.28125 109.070312 32.972656 110.003906 C 29.367188 111.460938 27.53125 115.703125 28.398438 120.003906 C 25.347656 122.203125 24.179688 126.761719 25.816406 131 C 27.691406 135.855469 32.542969 138.449219 36.652344 136.785156 C 36.992188 136.648438 37.3125 136.488281 37.617188 136.304688 C 40.410156 138.601562 44.722656 139.222656 48.804688 137.570312 "/>
<path style=" stroke:none;fill-rule:nonzero;fill:rgb(50.979614%,81.959534%,33.729553%);fill-opacity:1;" d="M 52 132.988281 C 54.652344 129.257812 54.332031 125.3125 51.1875 122.742188 C 51.617188 123.261719 51.96875 123.847656 52.21875 124.5 C 53.675781 128.273438 51.292969 132.773438 46.898438 134.550781 C 44.03125 135.710938 41.015625 135.425781 38.859375 134.042969 C 42.738281 137.96875 49.636719 136.308594 52 132.988281 "/>
<path style=" stroke:none;fill-rule:nonzero;fill:rgb(50.979614%,81.959534%,33.729553%);fill-opacity:1;" d="M 40.621094 113.363281 C 40.992188 113.117188 41.394531 112.902344 41.820312 112.730469 C 45.347656 111.304688 49.335938 113.074219 50.726562 116.683594 C 51.332031 118.25 51.347656 119.902344 50.886719 121.390625 C 51.886719 119.515625 52.488281 115.519531 49.652344 112.847656 C 46.816406 110.171875 42.519531 111.460938 40.621094 113.363281 "/>
<path style=" stroke:none;fill-rule:nonzero;fill:rgb(50.979614%,81.959534%,33.729553%);fill-opacity:1;" d="M 34.597656 113.136719 C 36.113281 112.523438 37.753906 112.652344 39.21875 113.363281 C 36.183594 111.535156 33.960938 111.359375 31.6875 113.738281 C 29.386719 116.148438 30.894531 120.238281 30.960938 120.414062 C 30.515625 117.246094 31.933594 114.210938 34.597656 113.136719 "/>
<path style=" stroke:none;fill-rule:nonzero;fill:rgb(50.979614%,81.959534%,33.729553%);fill-opacity:1;" d="M 29.039062 129.449219 C 27.9375 126.601562 28.46875 123.566406 30.164062 121.695312 C 28.453125 123.214844 26.277344 126.378906 28.15625 130.761719 C 30.039062 135.144531 34.613281 135.34375 37.457031 133.941406 C 34.265625 135.234375 30.496094 133.222656 29.039062 129.449219 "/>
<g clip-path="url(#clip1)" clip-rule="nonzero">
<path style=" stroke:none;fill-rule:nonzero;fill:rgb(43.919373%,67.83905%,12.159729%);fill-opacity:1;" d="M 122.265625 123.109375 C 122.027344 123.253906 121.777344 123.378906 121.511719 123.484375 C 118.320312 124.773438 114.550781 122.761719 113.09375 118.988281 C 111.824219 115.695312 112.730469 112.152344 115.101562 110.445312 C 114.429688 107.105469 115.855469 103.808594 118.652344 102.675781 C 120.449219 101.949219 122.421875 102.269531 124.066406 103.355469 C 124.601562 102.910156 125.207031 102.542969 125.878906 102.273438 C 129.402344 100.847656 133.390625 102.617188 134.785156 106.222656 C 135.492188 108.054688 135.394531 110.007812 134.667969 111.675781 C 135.363281 112.320312 135.917969 113.117188 136.277344 114.042969 C 137.734375 117.816406 135.351562 122.316406 130.953125 124.09375 C 127.785156 125.375 124.433594 124.894531 122.265625 123.109375 Z M 132.859375 127.113281 C 138.519531 124.824219 141.585938 119.03125 139.710938 114.171875 C 139.25 112.984375 138.535156 111.960938 137.636719 111.125 C 138.574219 108.980469 138.699219 106.46875 137.789062 104.109375 C 135.996094 99.464844 130.863281 97.1875 126.328125 99.023438 C 125.460938 99.375 124.683594 99.847656 123.996094 100.417969 C 121.878906 99.019531 119.335938 98.609375 117.027344 99.542969 C 113.425781 101.003906 111.589844 105.246094 112.457031 109.542969 C 109.40625 111.742188 108.234375 116.304688 109.871094 120.539062 C 111.746094 125.398438 116.597656 127.988281 120.710938 126.328125 C 121.046875 126.191406 121.367188 126.03125 121.675781 125.847656 C 124.46875 128.140625 128.78125 128.761719 132.859375 127.113281 "/>
</g>
<path style=" stroke:none;fill-rule:nonzero;fill:rgb(50.979614%,81.959534%,33.729553%);fill-opacity:1;" d="M 136.054688 122.53125 C 138.710938 118.800781 138.386719 114.855469 135.242188 112.285156 C 135.671875 112.800781 136.023438 113.390625 136.277344 114.042969 C 137.734375 117.816406 135.351562 122.316406 130.953125 124.09375 C 128.085938 125.253906 125.070312 124.96875 122.914062 123.582031 C 126.796875 127.507812 133.691406 125.851562 136.054688 122.53125 "/>
<path style=" stroke:none;fill-rule:nonzero;fill:rgb(50.979614%,81.959534%,33.729553%);fill-opacity:1;" d="M 124.675781 102.902344 C 125.050781 102.65625 125.449219 102.445312 125.878906 102.273438 C 129.402344 100.847656 133.390625 102.617188 134.785156 106.222656 C 135.390625 107.789062 135.40625 109.445312 134.941406 110.933594 C 135.941406 109.054688 136.546875 105.0625 133.710938 102.386719 C 130.871094 99.714844 126.574219 101.003906 124.675781 102.902344 "/>
<path style=" stroke:none;fill-rule:nonzero;fill:rgb(50.979614%,81.959534%,33.729553%);fill-opacity:1;" d="M 118.652344 102.675781 C 120.167969 102.0625 121.8125 102.195312 123.277344 102.902344 C 120.238281 101.074219 118.019531 100.902344 115.742188 103.28125 C 113.441406 105.6875 114.953125 109.78125 115.019531 109.957031 C 114.570312 106.789062 115.992188 103.753906 118.652344 102.675781 "/>
<path style=" stroke:none;fill-rule:nonzero;fill:rgb(50.979614%,81.959534%,33.729553%);fill-opacity:1;" d="M 113.09375 118.988281 C 111.996094 116.144531 112.523438 113.109375 114.21875 111.234375 C 112.507812 112.757812 110.332031 115.921875 112.214844 120.300781 C 114.097656 124.6875 118.667969 124.882812 121.511719 123.484375 C 118.320312 124.773438 114.550781 122.761719 113.09375 118.988281 "/>
<path style=" stroke:none;fill-rule:nonzero;fill:rgb(43.919373%,67.83905%,12.159729%);fill-opacity:1;" d="M 220.460938 79.042969 C 220.222656 79.1875 219.972656 79.3125 219.710938 79.417969 C 216.519531 80.710938 212.75 78.695312 211.292969 74.921875 C 210.019531 71.632812 210.929688 68.085938 213.300781 66.378906 C 212.625 63.039062 214.050781 59.742188 216.851562 58.609375 C 218.644531 57.882812 220.621094 58.203125 222.265625 59.289062 C 222.796875 58.84375 223.402344 58.476562 224.074219 58.207031 C 227.601562 56.78125 231.589844 58.550781 232.980469 62.15625 C 233.6875 63.988281 233.59375 65.941406 232.863281 67.609375 C 233.5625 68.253906 234.117188 69.050781 234.472656 69.976562 C 235.929688 73.75 233.546875 78.25 229.152344 80.027344 C 225.980469 81.308594 222.632812 80.828125 220.460938 79.042969 Z M 231.058594 83.046875 C 236.714844 80.757812 239.785156 74.964844 237.90625 70.105469 C 237.449219 68.917969 236.734375 67.894531 235.835938 67.058594 C 236.773438 64.914062 236.898438 62.402344 235.988281 60.042969 C 234.195312 55.398438 229.0625 53.121094 224.523438 54.957031 C 223.660156 55.308594 222.878906 55.78125 222.195312 56.351562 C 220.078125 54.953125 217.535156 54.542969 215.226562 55.476562 C 211.621094 56.9375 209.785156 61.179688 210.652344 65.476562 C 207.601562 67.675781 206.433594 72.238281 208.070312 76.472656 C 209.945312 81.332031 214.796875 83.921875 218.90625 82.261719 C 219.246094 82.125 219.566406 81.964844 219.871094 81.78125 C 222.664062 84.074219 226.976562 84.695312 231.058594 83.046875 "/>
<path style=" stroke:none;fill-rule:nonzero;fill:rgb(50.979614%,81.959534%,33.729553%);fill-opacity:1;" d="M 234.253906 78.464844 C 236.90625 74.734375 236.585938 70.789062 233.441406 68.21875 C 233.871094 68.734375 234.222656 69.324219 234.472656 69.976562 C 235.929688 73.75 233.546875 78.25 229.152344 80.027344 C 226.285156 81.1875 223.269531 80.902344 221.113281 79.515625 C 224.992188 83.441406 231.890625 81.785156 234.253906 78.464844 "/>
<path style=" stroke:none;fill-rule:nonzero;fill:rgb(50.979614%,81.959534%,33.729553%);fill-opacity:1;" d="M 222.875 58.835938 C 223.246094 58.589844 223.648438 58.378906 224.074219 58.207031 C 227.601562 56.78125 231.589844 58.550781 232.980469 62.15625 C 233.585938 63.722656 233.601562 65.378906 233.140625 66.867188 C 234.140625 64.988281 234.742188 60.996094 231.90625 58.324219 C 229.070312 55.648438 224.773438 56.9375 222.875 58.835938 "/>
<path style=" stroke:none;fill-rule:nonzero;fill:rgb(50.979614%,81.959534%,33.729553%);fill-opacity:1;" d="M 216.851562 58.609375 C 218.367188 57.996094 220.007812 58.128906 221.472656 58.835938 C 218.4375 57.007812 216.214844 56.835938 213.941406 59.214844 C 211.640625 61.621094 213.148438 65.714844 213.214844 65.890625 C 212.769531 62.722656 214.1875 59.6875 216.851562 58.609375 "/>
<path style=" stroke:none;fill-rule:nonzero;fill:rgb(50.979614%,81.959534%,33.729553%);fill-opacity:1;" d="M 211.292969 74.921875 C 210.191406 72.078125 210.722656 69.042969 212.417969 67.167969 C 210.707031 68.691406 208.53125 71.855469 210.410156 76.234375 C 212.292969 80.621094 216.867188 80.816406 219.710938 79.417969 C 216.519531 80.710938 212.75 78.695312 211.292969 74.921875 "/>
<g clip-path="url(#clip2)" clip-rule="nonzero">
<path style=" stroke:none;fill-rule:nonzero;fill:rgb(43.919373%,67.83905%,12.159729%);fill-opacity:1;" d="M 139.300781 203.144531 C 139.066406 203.285156 138.816406 203.410156 138.550781 203.515625 C 135.359375 204.808594 131.589844 202.796875 130.132812 199.019531 C 128.863281 195.730469 129.769531 192.1875 132.140625 190.476562 C 131.464844 187.136719 132.890625 183.839844 135.691406 182.707031 C 137.484375 181.984375 139.460938 182.300781 141.105469 183.386719 C 141.640625 182.945312 142.246094 182.574219 142.917969 182.304688 C 146.441406 180.878906 150.429688 182.648438 151.824219 186.253906 C 152.53125 188.085938 152.433594 190.039062 151.703125 191.707031 C 152.402344 192.355469 152.957031 193.148438 153.3125 194.074219 C 154.769531 197.847656 152.390625 202.347656 147.992188 204.125 C 144.824219 205.410156 141.472656 204.925781 139.300781 203.144531 Z M 149.898438 207.144531 C 155.558594 204.855469 158.625 199.0625 156.75 194.207031 C 156.289062 193.015625 155.574219 191.992188 154.675781 191.160156 C 155.613281 189.015625 155.738281 186.5 154.828125 184.144531 C 153.035156 179.5 147.902344 177.222656 143.363281 179.058594 C 142.5 179.40625 141.71875 179.878906 141.035156 180.449219 C 138.917969 179.050781 136.375 178.644531 134.066406 179.578125 C 130.460938 181.035156 128.625 185.277344 129.492188 189.574219 C 126.441406 191.777344 125.273438 196.335938 126.910156 200.574219 C 128.785156 205.429688 133.636719 208.023438 137.746094 206.359375 C 138.085938 206.222656 138.40625 206.0625 138.714844 205.878906 C 141.503906 208.171875 145.816406 208.796875 149.898438 207.144531 "/>
</g>
<path style=" stroke:none;fill-rule:nonzero;fill:rgb(50.979614%,81.959534%,33.729553%);fill-opacity:1;" d="M 153.09375 202.5625 C 155.746094 198.832031 155.425781 194.886719 152.28125 192.316406 C 152.710938 192.835938 153.0625 193.421875 153.3125 194.074219 C 154.769531 197.847656 152.390625 202.347656 147.992188 204.125 C 145.125 205.285156 142.109375 205 139.953125 203.617188 C 143.835938 207.542969 150.730469 205.882812 153.09375 202.5625 "/>
<path style=" stroke:none;fill-rule:nonzero;fill:rgb(50.979614%,81.959534%,33.729553%);fill-opacity:1;" d="M 141.714844 182.933594 C 142.085938 182.691406 142.488281 182.476562 142.917969 182.304688 C 146.441406 180.878906 150.429688 182.648438 151.824219 186.253906 C 152.425781 187.820312 152.445312 189.476562 151.980469 190.964844 C 152.980469 189.089844 153.585938 185.09375 150.75 182.421875 C 147.910156 179.746094 143.613281 181.035156 141.714844 182.933594 "/>
<path style=" stroke:none;fill-rule:nonzero;fill:rgb(50.979614%,81.959534%,33.729553%);fill-opacity:1;" d="M 135.691406 182.707031 C 137.207031 182.097656 138.851562 182.226562 140.316406 182.9375 C 137.277344 181.109375 135.054688 180.933594 132.78125 183.3125 C 130.480469 185.722656 131.988281 189.8125 132.054688 189.988281 C 131.609375 186.820312 133.027344 183.785156 135.691406 182.707031 "/>
<path style=" stroke:none;fill-rule:nonzero;fill:rgb(50.979614%,81.959534%,33.729553%);fill-opacity:1;" d="M 130.132812 199.019531 C 129.035156 196.175781 129.5625 193.140625 131.257812 191.269531 C 129.546875 192.789062 127.371094 195.953125 129.25 200.335938 C 131.132812 204.71875 135.707031 204.917969 138.550781 203.515625 C 135.359375 204.808594 131.589844 202.796875 130.132812 199.019531 "/>
<path style=" stroke:none;fill-rule:nonzero;fill:rgb(43.919373%,67.83905%,12.159729%);fill-opacity:1;" d="M 55.246094 227.5 C 55.007812 227.644531 54.757812 227.769531 54.496094 227.875 C 51.304688 229.164062 47.535156 227.152344 46.074219 223.378906 C 44.804688 220.085938 45.710938 216.542969 48.082031 214.835938 C 47.410156 211.496094 48.835938 208.199219 51.636719 207.066406 C 53.429688 206.339844 55.40625 206.660156 57.050781 207.746094 C 57.582031 207.300781 58.1875 206.933594 58.859375 206.664062 C 62.386719 205.238281 66.371094 207.003906 67.765625 210.613281 C 68.472656 212.445312 68.375 214.398438 67.648438 216.0625 C 68.347656 216.710938 68.902344 217.507812 69.257812 218.433594 C 70.714844 222.207031 68.332031 226.707031 63.9375 228.484375 C 60.765625 229.765625 57.414062 229.285156 55.246094 227.5 Z M 65.839844 231.503906 C 71.5 229.214844 74.566406 223.421875 72.691406 218.5625 C 72.230469 217.371094 71.519531 216.351562 70.621094 215.515625 C 71.558594 213.371094 71.683594 210.859375 70.773438 208.5 C 68.980469 203.855469 63.847656 201.578125 59.308594 203.414062 C 58.445312 203.765625 57.664062 204.238281 56.980469 204.808594 C 54.859375 203.410156 52.316406 203 50.011719 203.933594 C 46.40625 205.390625 44.570312 209.636719 45.4375 213.933594 C 42.386719 216.132812 41.21875 220.695312 42.855469 224.929688 C 44.730469 229.789062 49.582031 232.378906 53.691406 230.71875 C 54.027344 230.582031 54.351562 230.421875 54.65625 230.234375 C 57.449219 232.53125 61.761719 233.152344 65.839844 231.503906 "/>
<path style=" stroke:none;fill-rule:nonzero;fill:rgb(50.979614%,81.959534%,33.729553%);fill-opacity:1;" d="M 69.035156 226.917969 C 71.691406 223.191406 71.371094 219.246094 68.226562 216.675781 C 68.65625 217.191406 69.007812 217.777344 69.257812 218.433594 C 70.714844 222.207031 68.332031 226.707031 63.9375 228.484375 C 61.066406 229.644531 58.050781 229.359375 55.898438 227.972656 C 59.777344 231.898438 66.671875 230.238281 69.035156 226.917969 "/>
<path style=" stroke:none;fill-rule:nonzero;fill:rgb(50.979614%,81.959534%,33.729553%);fill-opacity:1;" d="M 57.65625 207.292969 C 58.03125 207.046875 58.433594 206.835938 58.859375 206.664062 C 62.386719 205.238281 66.371094 207.003906 67.765625 210.613281 C 68.371094 212.179688 68.386719 213.835938 67.925781 215.324219 C 68.921875 213.445312 69.527344 209.453125 66.691406 206.777344 C 63.851562 204.105469 59.558594 205.394531 57.65625 207.292969 "/>
<path style=" stroke:none;fill-rule:nonzero;fill:rgb(50.979614%,81.959534%,33.729553%);fill-opacity:1;" d="M 51.636719 207.066406 C 53.148438 206.453125 54.792969 206.585938 56.257812 207.292969 C 53.21875 205.464844 51 205.292969 48.726562 207.671875 C 46.421875 210.078125 47.933594 214.171875 48 214.347656 C 47.550781 211.179688 48.972656 208.144531 51.636719 207.066406 "/>
<path style=" stroke:none;fill-rule:nonzero;fill:rgb(50.979614%,81.959534%,33.729553%);fill-opacity:1;" d="M 46.074219 223.378906 C 44.976562 220.535156 45.507812 217.5 47.203125 215.625 C 45.488281 217.148438 43.316406 220.3125 45.195312 224.691406 C 47.078125 229.078125 51.648438 229.273438 54.496094 227.875 C 51.304688 229.164062 47.535156 227.152344 46.074219 223.378906 "/>
<path style=" stroke:none;fill-rule:nonzero;fill:rgb(43.919373%,67.83905%,12.159729%);fill-opacity:1;" d="M 198.882812 258.9375 C 198.644531 259.078125 198.394531 259.203125 198.132812 259.308594 C 194.9375 260.601562 191.167969 258.589844 189.710938 254.8125 C 188.441406 251.523438 189.347656 247.980469 191.71875 246.269531 C 191.046875 242.929688 192.472656 239.632812 195.273438 238.5 C 197.066406 237.777344 199.042969 238.09375 200.6875 239.179688 C 201.21875 238.738281 201.824219 238.367188 202.496094 238.097656 C 206.023438 236.671875 210.007812 238.441406 211.402344 242.050781 C 212.109375 243.878906 212.011719 245.832031 211.285156 247.5 C 211.984375 248.148438 212.539062 248.941406 212.894531 249.867188 C 214.351562 253.640625 211.96875 258.140625 207.570312 259.917969 C 204.402344 261.203125 201.050781 260.71875 198.882812 258.9375 Z M 209.476562 262.9375 C 215.136719 260.648438 218.203125 254.855469 216.328125 250 C 215.867188 248.808594 215.15625 247.785156 214.257812 246.953125 C 215.195312 244.808594 215.320312 242.292969 214.40625 239.9375 C 212.613281 235.292969 207.484375 233.015625 202.945312 234.851562 C 202.082031 235.199219 201.300781 235.671875 200.617188 236.242188 C 198.496094 234.84375 195.953125 234.4375 193.644531 235.371094 C 190.042969 236.828125 188.207031 241.070312 189.074219 245.367188 C 186.023438 247.570312 184.855469 252.128906 186.488281 256.367188 C 188.367188 261.222656 193.21875 263.816406 197.328125 262.152344 C 197.664062 262.015625 197.988281 261.855469 198.292969 261.671875 C 201.085938 263.96875 205.398438 264.589844 209.476562 262.9375 "/>
<path style=" stroke:none;fill-rule:nonzero;fill:rgb(50.979614%,81.959534%,33.729553%);fill-opacity:1;" d="M 212.671875 258.355469 C 215.328125 254.625 215.007812 250.679688 211.863281 248.109375 C 212.292969 248.628906 212.640625 249.214844 212.894531 249.867188 C 214.351562 253.640625 211.96875 258.140625 207.570312 259.917969 C 204.703125 261.078125 201.6875 260.792969 199.535156 259.410156 C 203.414062 263.335938 210.308594 261.675781 212.671875 258.355469 "/>
<path style=" stroke:none;fill-rule:nonzero;fill:rgb(50.979614%,81.959534%,33.729553%);fill-opacity:1;" d="M 201.292969 238.730469 C 201.667969 238.484375 202.070312 238.269531 202.496094 238.097656 C 206.023438 236.671875 210.007812 238.441406 211.402344 242.050781 C 212.007812 243.617188 212.023438 245.269531 211.5625 246.757812 C 212.558594 244.882812 213.164062 240.886719 210.328125 238.214844 C 207.488281 235.539062 203.195312 236.828125 201.292969 238.730469 "/>
<path style=" stroke:none;fill-rule:nonzero;fill:rgb(50.979614%,81.959534%,33.729553%);fill-opacity:1;" d="M 195.273438 238.5 C 196.785156 237.890625 198.429688 238.019531 199.894531 238.730469 C 196.855469 236.902344 194.636719 236.726562 192.363281 239.105469 C 190.058594 241.515625 191.570312 245.605469 191.636719 245.78125 C 191.1875 242.613281 192.609375 239.578125 195.273438 238.5 "/>
<path style=" stroke:none;fill-rule:nonzero;fill:rgb(50.979614%,81.959534%,33.729553%);fill-opacity:1;" d="M 189.710938 254.8125 C 188.613281 251.96875 189.144531 248.933594 190.839844 247.0625 C 189.125 248.582031 186.953125 251.746094 188.832031 256.128906 C 190.714844 260.511719 195.285156 260.710938 198.132812 259.308594 C 194.9375 260.601562 191.167969 258.589844 189.710938 254.8125 "/>
<g clip-path="url(#clip3)" clip-rule="nonzero">
<path style=" stroke:none;fill-rule:nonzero;fill:rgb(43.919373%,67.83905%,12.159729%);fill-opacity:1;" d="M 198.148438 149.285156 C 197.910156 149.429688 197.660156 149.554688 197.398438 149.660156 C 194.207031 150.953125 190.4375 148.9375 188.980469 145.164062 C 187.707031 141.875 188.617188 138.328125 190.988281 136.621094 C 190.3125 133.28125 191.738281 129.984375 194.539062 128.851562 C 196.332031 128.125 198.308594 128.445312 199.953125 129.53125 C 200.484375 129.089844 201.089844 128.71875 201.761719 128.449219 C 205.289062 127.023438 209.277344 128.792969 210.667969 132.398438 C 211.375 134.230469 211.28125 136.183594 210.550781 137.851562 C 211.25 138.496094 211.804688 139.292969 212.160156 140.21875 C 213.617188 143.992188 211.234375 148.492188 206.839844 150.269531 C 203.667969 151.550781 200.320312 151.070312 198.148438 149.285156 Z M 208.746094 153.289062 C 214.402344 151 217.472656 145.207031 215.59375 140.347656 C 215.136719 139.160156 214.421875 138.136719 213.523438 137.300781 C 214.460938 135.160156 214.585938 132.644531 213.675781 130.285156 C 211.882812 125.644531 206.75 123.367188 202.210938 125.199219 C 201.347656 125.550781 200.566406 126.023438 199.882812 126.59375 C 197.765625 125.195312 195.222656 124.785156 192.914062 125.71875 C 189.308594 127.179688 187.472656 131.421875 188.339844 135.71875 C 185.289062 137.917969 184.121094 142.480469 185.757812 146.71875 C 187.632812 151.574219 192.484375 154.164062 196.59375 152.503906 C 196.933594 152.367188 197.253906 152.207031 197.558594 152.023438 C 200.351562 154.316406 204.664062 154.9375 208.746094 153.289062 "/>
</g>
<path style=" stroke:none;fill-rule:nonzero;fill:rgb(50.979614%,81.959534%,33.729553%);fill-opacity:1;" d="M 211.941406 148.707031 C 214.59375 144.976562 214.273438 141.03125 211.128906 138.460938 C 211.558594 138.976562 211.910156 139.566406 212.160156 140.21875 C 213.617188 143.992188 211.234375 148.492188 206.839844 150.269531 C 203.972656 151.429688 200.957031 151.144531 198.800781 149.761719 C 202.679688 153.6875 209.578125 152.027344 211.941406 148.707031 "/>
<path style=" stroke:none;fill-rule:nonzero;fill:rgb(50.979614%,81.959534%,33.729553%);fill-opacity:1;" d="M 200.5625 129.078125 C 200.933594 128.832031 201.335938 128.621094 201.761719 128.449219 C 205.289062 127.023438 209.277344 128.792969 210.667969 132.398438 C 211.273438 133.964844 211.289062 135.621094 210.828125 137.109375 C 211.828125 135.234375 212.429688 131.238281 209.59375 128.566406 C 206.757812 125.890625 202.460938 127.179688 200.5625 129.078125 "/>
<path style=" stroke:none;fill-rule:nonzero;fill:rgb(50.979614%,81.959534%,33.729553%);fill-opacity:1;" d="M 194.539062 128.851562 C 196.054688 128.238281 197.695312 128.371094 199.160156 129.082031 C 196.125 127.253906 193.902344 127.078125 191.628906 129.457031 C 189.328125 131.867188 190.835938 135.957031 190.902344 136.132812 C 190.457031 132.964844 191.875 129.929688 194.539062 128.851562 "/>
<path style=" stroke:none;fill-rule:nonzero;fill:rgb(50.979614%,81.959534%,33.729553%);fill-opacity:1;" d="M 188.980469 145.164062 C 187.878906 142.320312 188.410156 139.285156 190.105469 137.410156 C 188.394531 138.933594 186.21875 142.097656 188.097656 146.476562 C 189.980469 150.863281 194.554688 151.058594 197.398438 149.660156 C 194.207031 150.953125 190.4375 148.9375 188.980469 145.164062 "/>
<g clip-path="url(#clip4)" clip-rule="nonzero">
<path style=" stroke:none;fill-rule:nonzero;fill:rgb(43.919373%,67.83905%,12.159729%);fill-opacity:1;" d="M 116.785156 269.199219 C 116.546875 269.339844 116.296875 269.464844 116.035156 269.570312 C 112.84375 270.863281 109.074219 268.851562 107.617188 265.078125 C 106.34375 261.785156 107.253906 258.242188 109.625 256.53125 C 108.949219 253.191406 110.375 249.894531 113.175781 248.765625 C 114.96875 248.039062 116.945312 248.355469 118.589844 249.441406 C 119.121094 249 119.726562 248.628906 120.398438 248.359375 C 123.925781 246.933594 127.914062 248.703125 129.304688 252.3125 C 130.011719 254.140625 129.917969 256.09375 129.1875 257.761719 C 129.886719 258.410156 130.441406 259.203125 130.796875 260.128906 C 132.253906 263.902344 129.871094 268.402344 125.476562 270.179688 C 122.304688 271.464844 118.957031 270.980469 116.785156 269.199219 Z M 127.378906 273.199219 C 133.039062 270.910156 136.109375 265.117188 134.230469 260.261719 C 133.773438 259.070312 133.058594 258.046875 132.160156 257.214844 C 133.097656 255.070312 133.222656 252.554688 132.3125 250.199219 C 130.519531 245.554688 125.386719 243.277344 120.847656 245.113281 C 119.984375 245.460938 119.203125 245.933594 118.519531 246.503906 C 116.402344 245.105469 113.859375 244.699219 111.550781 245.632812 C 107.945312 247.089844 106.109375 251.332031 106.976562 255.632812 C 103.925781 257.832031 102.757812 262.390625 104.394531 266.628906 C 106.269531 271.484375 111.121094 274.078125 115.230469 272.414062 C 115.566406 272.277344 115.890625 272.117188 116.195312 271.933594 C 118.988281 274.230469 123.300781 274.851562 127.378906 273.199219 "/>
</g>
<path style=" stroke:none;fill-rule:nonzero;fill:rgb(50.979614%,81.959534%,33.729553%);fill-opacity:1;" d="M 130.578125 268.617188 C 133.230469 264.886719 132.910156 260.941406 129.765625 258.371094 C 130.195312 258.890625 130.546875 259.476562 130.796875 260.128906 C 132.253906 263.902344 129.871094 268.402344 125.476562 270.179688 C 122.609375 271.339844 119.59375 271.054688 117.4375 269.671875 C 121.316406 273.597656 128.214844 271.9375 130.578125 268.617188 "/>
<path style=" stroke:none;fill-rule:nonzero;fill:rgb(50.979614%,81.959534%,33.729553%);fill-opacity:1;" d="M 119.199219 248.992188 C 119.570312 248.746094 119.972656 248.53125 120.398438 248.359375 C 123.925781 246.933594 127.914062 248.703125 129.304688 252.3125 C 129.910156 253.878906 129.925781 255.53125 129.464844 257.019531 C 130.464844 255.144531 131.066406 251.148438 128.230469 248.476562 C 125.394531 245.800781 121.097656 247.089844 119.199219 248.992188 "/>
<path style=" stroke:none;fill-rule:nonzero;fill:rgb(50.979614%,81.959534%,33.729553%);fill-opacity:1;" d="M 113.175781 248.765625 C 114.691406 248.152344 116.332031 248.28125 117.796875 248.992188 C 114.761719 247.164062 112.539062 246.988281 110.265625 249.367188 C 107.964844 251.777344 109.472656 255.867188 109.539062 256.042969 C 109.089844 252.875 110.511719 249.839844 113.175781 248.765625 "/>
<path style=" stroke:none;fill-rule:nonzero;fill:rgb(50.979614%,81.959534%,33.729553%);fill-opacity:1;" d="M 107.617188 265.078125 C 106.515625 262.230469 107.046875 259.195312 108.742188 257.324219 C 107.027344 258.84375 104.855469 262.007812 106.734375 266.390625 C 108.617188 270.773438 113.191406 270.972656 116.035156 269.570312 C 112.84375 270.863281 109.074219 268.851562 107.617188 265.078125 "/>
<path style=" stroke:none;fill-rule:nonzero;fill:rgb(43.919373%,67.83905%,12.159729%);fill-opacity:1;" d="M 254.539062 196.066406 C 254.300781 196.207031 254.050781 196.332031 253.789062 196.4375 C 250.59375 197.730469 246.824219 195.71875 245.367188 191.945312 C 244.097656 188.652344 245.003906 185.109375 247.375 183.398438 C 246.703125 180.058594 248.128906 176.761719 250.929688 175.632812 C 252.722656 174.90625 254.695312 175.222656 256.339844 176.308594 C 256.875 175.867188 257.480469 175.5 258.152344 175.226562 C 261.679688 173.800781 265.664062 175.570312 267.058594 179.179688 C 267.765625 181.007812 267.667969 182.964844 266.941406 184.628906 C 267.636719 185.277344 268.191406 186.070312 268.550781 186.996094 C 270.007812 190.769531 267.625 195.269531 263.226562 197.050781 C 260.058594 198.332031 256.707031 197.847656 254.539062 196.066406 Z M 265.132812 200.066406 C 270.792969 197.777344 273.859375 191.984375 271.984375 187.128906 C 271.523438 185.9375 270.8125 184.914062 269.910156 184.082031 C 270.847656 181.9375 270.972656 179.421875 270.0625 177.066406 C 268.269531 172.421875 263.136719 170.144531 258.601562 171.980469 C 257.734375 172.328125 256.957031 172.804688 256.269531 173.371094 C 254.152344 171.972656 251.609375 171.566406 249.300781 172.5 C 245.699219 173.957031 243.863281 178.199219 244.730469 182.5 C 241.679688 184.699219 240.511719 189.261719 242.144531 193.496094 C 244.019531 198.355469 248.875 200.945312 252.984375 199.28125 C 253.320312 199.144531 253.644531 198.984375 253.949219 198.800781 C 256.742188 201.097656 261.054688 201.71875 265.132812 200.066406 "/>
<path style=" stroke:none;fill-rule:nonzero;fill:rgb(50.979614%,81.959534%,33.729553%);fill-opacity:1;" d="M 268.328125 195.484375 C 270.984375 191.753906 270.660156 187.8125 267.519531 185.238281 C 267.945312 185.757812 268.296875 186.34375 268.550781 186.996094 C 270.007812 190.769531 267.625 195.269531 263.226562 197.050781 C 260.359375 198.207031 257.34375 197.921875 255.1875 196.539062 C 259.070312 200.464844 265.964844 198.804688 268.328125 195.484375 "/>
<path style=" stroke:none;fill-rule:nonzero;fill:rgb(50.979614%,81.959534%,33.729553%);fill-opacity:1;" d="M 256.949219 175.859375 C 257.324219 175.613281 257.722656 175.398438 258.152344 175.226562 C 261.679688 173.800781 265.664062 175.570312 267.058594 179.179688 C 267.664062 180.746094 267.679688 182.398438 267.214844 183.886719 C 268.214844 182.011719 268.820312 178.015625 265.984375 175.34375 C 263.144531 172.667969 258.851562 173.957031 256.949219 175.859375 "/>
<path style=" stroke:none;fill-rule:nonzero;fill:rgb(50.979614%,81.959534%,33.729553%);fill-opacity:1;" d="M 250.929688 175.632812 C 252.441406 175.019531 254.085938 175.148438 255.550781 175.859375 C 252.511719 174.03125 250.292969 173.859375 248.019531 176.234375 C 245.714844 178.644531 247.226562 182.734375 247.292969 182.910156 C 246.84375 179.742188 248.265625 176.707031 250.929688 175.632812 "/>
<path style=" stroke:none;fill-rule:nonzero;fill:rgb(50.979614%,81.959534%,33.729553%);fill-opacity:1;" d="M 245.367188 191.945312 C 244.269531 189.097656 244.800781 186.0625 246.492188 184.191406 C 244.78125 185.710938 242.605469 188.875 244.488281 193.257812 C 246.371094 197.640625 250.941406 197.839844 253.789062 196.4375 C 250.59375 197.730469 246.824219 195.71875 245.367188 191.945312 "/>
</g>
</svg>
