<?xml version="1.0" encoding="UTF-8"?>
<svg xmlns="http://www.w3.org/2000/svg" xmlns:xlink="http://www.w3.org/1999/xlink" width="300pt" height="299.999988pt" viewBox="0 0 300 299.999988" version="1.2">
<defs>
<clipPath id="clip1">
  <path d="M 186 83 L 203 83 L 203 113 L 186 113 Z M 186 83 "/>
</clipPath>
<clipPath id="clip2">
  <path d="M 180.453125 80.632812 L 224.207031 74.023438 L 229.699219 110.359375 L 185.945312 116.972656 Z M 180.453125 80.632812 "/>
</clipPath>
<clipPath id="clip3">
  <path d="M 180.453125 80.632812 L 224.207031 74.023438 L 229.699219 110.359375 L 185.945312 116.972656 Z M 180.453125 80.632812 "/>
</clipPath>
<clipPath id="clip4">
  <path d="M 180.453125 80.632812 L 224.289062 74.011719 L 229.785156 110.382812 L 185.949219 117.007812 Z M 180.453125 80.632812 "/>
</clipPath>
<clipPath id="clip5">
  <path d="M 185 83 L 202 83 L 202 113 L 185 113 Z M 185 83 "/>
</clipPath>
<clipPath id="clip6">
  <path d="M 180.453125 80.632812 L 224.207031 74.023438 L 229.699219 110.359375 L 185.945312 116.972656 Z M 180.453125 80.632812 "/>
</clipPath>
<clipPath id="clip7">
  <path d="M 180.453125 80.632812 L 224.207031 74.023438 L 229.699219 110.359375 L 185.945312 116.972656 Z M 180.453125 80.632812 "/>
</clipPath>
<clipPath id="clip8">
  <path d="M 180.453125 80.632812 L 224.289062 74.011719 L 229.785156 110.382812 L 185.949219 117.007812 Z M 180.453125 80.632812 "/>
</clipPath>
<clipPath id="clip9">
  <path d="M 206 86 L 230 86 L 230 111 L 206 111 Z M 206 86 "/>
</clipPath>
<clipPath id="clip10">
  <path d="M 180.453125 80.632812 L 224.207031 74.023438 L 229.699219 110.359375 L 185.945312 116.972656 Z M 180.453125 80.632812 "/>
</clipPath>
<clipPath id="clip11">
  <path d="M 180.453125 80.632812 L 224.207031 74.023438 L 229.699219 110.359375 L 185.945312 116.972656 Z M 180.453125 80.632812 "/>
</clipPath>
<clipPath id="clip12">
  <path d="M 180.453125 80.632812 L 224.289062 74.011719 L 229.785156 110.382812 L 185.949219 117.007812 Z M 180.453125 80.632812 "/>
</clipPath>
<clipPath id="clip13">
  <path d="M 207 86 L 230 86 L 230 111 L 207 111 Z M 207 86 "/>
</clipPath>
<clipPath id="clip14">
  <path d="M 180.453125 80.632812 L 224.207031 74.023438 L 229.699219 110.359375 L 185.945312 116.972656 Z M 180.453125 80.632812 "/>
</clipPath>
<clipPath id="clip15">
  <path d="M 180.453125 80.632812 L 224.207031 74.023438 L 229.699219 110.359375 L 185.945312 116.972656 Z M 180.453125 80.632812 "/>
</clipPath>
<clipPath id="clip16">
  <path d="M 180.453125 80.632812 L 224.289062 74.011719 L 229.785156 110.382812 L 185.949219 117.007812 Z M 180.453125 80.632812 "/>
</clipPath>
<clipPath id="clip17">
  <path d="M 206.808594 86.632812 L 225.789062 83.765625 L 229.761719 110.070312 L 210.785156 112.9375 Z M 206.808594 86.632812 "/>
</clipPath>
<clipPath id="clip18">
  <path d="M 206.808594 86.632812 L 225.765625 83.769531 L 229.738281 110.058594 L 210.78125 112.921875 Z M 206.808594 86.632812 "/>
</clipPath>
<clipPath id="clip19">
  <path d="M 194 77 L 214 77 L 214 92 L 194 92 Z M 194 77 "/>
</clipPath>
<clipPath id="clip20">
  <path d="M 180.453125 80.632812 L 224.207031 74.023438 L 229.699219 110.359375 L 185.945312 116.972656 Z M 180.453125 80.632812 "/>
</clipPath>
<clipPath id="clip21">
  <path d="M 180.453125 80.632812 L 224.207031 74.023438 L 229.699219 110.359375 L 185.945312 116.972656 Z M 180.453125 80.632812 "/>
</clipPath>
<clipPath id="clip22">
  <path d="M 180.453125 80.632812 L 224.289062 74.011719 L 229.785156 110.382812 L 185.949219 117.007812 Z M 180.453125 80.632812 "/>
</clipPath>
<clipPath id="clip23">
  <path d="M 192 90 L 194 90 L 194 106 L 192 106 Z M 192 90 "/>
</clipPath>
<clipPath id="clip24">
  <path d="M 180.453125 80.632812 L 224.207031 74.023438 L 229.699219 110.359375 L 185.945312 116.972656 Z M 180.453125 80.632812 "/>
</clipPath>
<clipPath id="clip25">
  <path d="M 180.453125 80.632812 L 224.207031 74.023438 L 229.699219 110.359375 L 185.945312 116.972656 Z M 180.453125 80.632812 "/>
</clipPath>
<clipPath id="clip26">
  <path d="M 180.453125 80.632812 L 224.289062 74.011719 L 229.785156 110.382812 L 185.949219 117.007812 Z M 180.453125 80.632812 "/>
</clipPath>
<clipPath id="clip27">
  <path d="M 215 93 L 223 93 L 223 107 L 215 107 Z M 215 93 "/>
</clipPath>
<clipPath id="clip28">
  <path d="M 180.453125 80.632812 L 224.207031 74.023438 L 229.699219 110.359375 L 185.945312 116.972656 Z M 180.453125 80.632812 "/>
</clipPath>
<clipPath id="clip29">
  <path d="M 180.453125 80.632812 L 224.207031 74.023438 L 229.699219 110.359375 L 185.945312 116.972656 Z M 180.453125 80.632812 "/>
</clipPath>
<clipPath id="clip30">
  <path d="M 180.453125 80.632812 L 224.289062 74.011719 L 229.785156 110.382812 L 185.949219 117.007812 Z M 180.453125 80.632812 "/>
</clipPath>
<clipPath id="clip31">
  <path d="M 69 79 L 95 79 L 95 103 L 69 103 Z M 69 79 "/>
</clipPath>
<clipPath id="clip32">
  <path d="M 76.816406 70.496094 L 119.710938 81.367188 L 110.683594 116.992188 L 67.789062 106.121094 Z M 76.816406 70.496094 "/>
</clipPath>
<clipPath id="clip33">
  <path d="M 76.816406 70.496094 L 119.710938 81.367188 L 110.683594 116.992188 L 67.789062 106.121094 Z M 76.816406 70.496094 "/>
</clipPath>
<clipPath id="clip34">
  <path d="M 76.816406 70.496094 L 119.789062 81.386719 L 110.753906 117.046875 L 67.78125 106.15625 Z M 76.816406 70.496094 "/>
</clipPath>
<clipPath id="clip35">
  <path d="M 69 80 L 94 80 L 94 103 L 69 103 Z M 69 80 "/>
</clipPath>
<clipPath id="clip36">
  <path d="M 76.816406 70.496094 L 119.710938 81.367188 L 110.683594 116.992188 L 67.789062 106.121094 Z M 76.816406 70.496094 "/>
</clipPath>
<clipPath id="clip37">
  <path d="M 76.816406 70.496094 L 119.710938 81.367188 L 110.683594 116.992188 L 67.789062 106.121094 Z M 76.816406 70.496094 "/>
</clipPath>
<clipPath id="clip38">
  <path d="M 76.816406 70.496094 L 119.789062 81.386719 L 110.753906 117.046875 L 67.78125 106.15625 Z M 76.816406 70.496094 "/>
</clipPath>
<clipPath id="clip39">
  <path d="M 95 86 L 111 86 L 111 117 L 95 117 Z M 95 86 "/>
</clipPath>
<clipPath id="clip40">
  <path d="M 76.816406 70.496094 L 119.710938 81.367188 L 110.683594 116.992188 L 67.789062 106.121094 Z M 76.816406 70.496094 "/>
</clipPath>
<clipPath id="clip41">
  <path d="M 76.816406 70.496094 L 119.710938 81.367188 L 110.683594 116.992188 L 67.789062 106.121094 Z M 76.816406 70.496094 "/>
</clipPath>
<clipPath id="clip42">
  <path d="M 76.816406 70.496094 L 119.789062 81.386719 L 110.753906 117.046875 L 67.78125 106.15625 Z M 76.816406 70.496094 "/>
</clipPath>
<clipPath id="clip43">
  <path d="M 97 86 L 111 86 L 111 117 L 97 117 Z M 97 86 "/>
</clipPath>
<clipPath id="clip44">
  <path d="M 76.816406 70.496094 L 119.710938 81.367188 L 110.683594 116.992188 L 67.789062 106.121094 Z M 76.816406 70.496094 "/>
</clipPath>
<clipPath id="clip45">
  <path d="M 76.816406 70.496094 L 119.710938 81.367188 L 110.683594 116.992188 L 67.789062 106.121094 Z M 76.816406 70.496094 "/>
</clipPath>
<clipPath id="clip46">
  <path d="M 76.816406 70.496094 L 119.789062 81.386719 L 110.753906 117.046875 L 67.78125 106.15625 Z M 76.816406 70.496094 "/>
</clipPath>
<clipPath id="clip47">
  <path d="M 98.785156 86.246094 L 117.390625 90.960938 L 110.855469 116.75 L 92.25 112.035156 Z M 98.785156 86.246094 "/>
</clipPath>
<clipPath id="clip48">
  <path d="M 98.785156 86.246094 L 117.367188 90.953125 L 110.835938 116.730469 L 92.253906 112.019531 Z M 98.785156 86.246094 "/>
</clipPath>
<clipPath id="clip49">
  <path d="M 87 75 L 105 75 L 105 91 L 87 91 Z M 87 75 "/>
</clipPath>
<clipPath id="clip50">
  <path d="M 76.816406 70.496094 L 119.710938 81.367188 L 110.683594 116.992188 L 67.789062 106.121094 Z M 76.816406 70.496094 "/>
</clipPath>
<clipPath id="clip51">
  <path d="M 76.816406 70.496094 L 119.710938 81.367188 L 110.683594 116.992188 L 67.789062 106.121094 Z M 76.816406 70.496094 "/>
</clipPath>
<clipPath id="clip52">
  <path d="M 76.816406 70.496094 L 119.789062 81.386719 L 110.753906 117.046875 L 67.78125 106.15625 Z M 76.816406 70.496094 "/>
</clipPath>
<clipPath id="clip53">
  <path d="M 78 84 L 86 84 L 86 98 L 78 98 Z M 78 84 "/>
</clipPath>
<clipPath id="clip54">
  <path d="M 76.816406 70.496094 L 119.710938 81.367188 L 110.683594 116.992188 L 67.789062 106.121094 Z M 76.816406 70.496094 "/>
</clipPath>
<clipPath id="clip55">
  <path d="M 76.816406 70.496094 L 119.710938 81.367188 L 110.683594 116.992188 L 67.789062 106.121094 Z M 76.816406 70.496094 "/>
</clipPath>
<clipPath id="clip56">
  <path d="M 76.816406 70.496094 L 119.789062 81.386719 L 110.753906 117.046875 L 67.78125 106.15625 Z M 76.816406 70.496094 "/>
</clipPath>
<clipPath id="clip57">
  <path d="M 104 95 L 106 95 L 106 111 L 104 111 Z M 104 95 "/>
</clipPath>
<clipPath id="clip58">
  <path d="M 76.816406 70.496094 L 119.710938 81.367188 L 110.683594 116.992188 L 67.789062 106.121094 Z M 76.816406 70.496094 "/>
</clipPath>
<clipPath id="clip59">
  <path d="M 76.816406 70.496094 L 119.710938 81.367188 L 110.683594 116.992188 L 67.789062 106.121094 Z M 76.816406 70.496094 "/>
</clipPath>
<clipPath id="clip60">
  <path d="M 76.816406 70.496094 L 119.789062 81.386719 L 110.753906 117.046875 L 67.78125 106.15625 Z M 76.816406 70.496094 "/>
</clipPath>
<clipPath id="clip61">
  <path d="M 128 126 L 149 126 L 149 153.695312 L 128 153.695312 Z M 128 126 "/>
</clipPath>
<clipPath id="clip62">
  <path d="M 127.914062 126.8125 L 146.917969 126.8125 L 146.917969 153.402344 L 127.914062 153.402344 Z M 127.914062 126.8125 "/>
</clipPath>
<clipPath id="clip63">
  <path d="M 56 147 L 81 147 L 81 172 L 56 172 Z M 56 147 "/>
</clipPath>
<clipPath id="clip64">
  <path d="M 60.957031 139.667969 L 104.621094 146.851562 L 98.65625 183.113281 L 54.992188 175.933594 Z M 60.957031 139.667969 "/>
</clipPath>
<clipPath id="clip65">
  <path d="M 60.957031 139.667969 L 104.621094 146.851562 L 98.65625 183.113281 L 54.992188 175.933594 Z M 60.957031 139.667969 "/>
</clipPath>
<clipPath id="clip66">
  <path d="M 60.957031 139.667969 L 104.703125 146.867188 L 98.730469 183.164062 L 54.988281 175.964844 Z M 60.957031 139.667969 "/>
</clipPath>
<clipPath id="clip67">
  <path d="M 56 148 L 79 148 L 79 172 L 56 172 Z M 56 148 "/>
</clipPath>
<clipPath id="clip68">
  <path d="M 60.957031 139.667969 L 104.621094 146.851562 L 98.65625 183.113281 L 54.992188 175.933594 Z M 60.957031 139.667969 "/>
</clipPath>
<clipPath id="clip69">
  <path d="M 60.957031 139.667969 L 104.621094 146.851562 L 98.65625 183.113281 L 54.992188 175.933594 Z M 60.957031 139.667969 "/>
</clipPath>
<clipPath id="clip70">
  <path d="M 60.957031 139.667969 L 104.703125 146.867188 L 98.730469 183.164062 L 54.988281 175.964844 Z M 60.957031 139.667969 "/>
</clipPath>
<clipPath id="clip71">
  <path d="M 81 153 L 99 153 L 99 183 L 81 183 Z M 81 153 "/>
</clipPath>
<clipPath id="clip72">
  <path d="M 60.957031 139.667969 L 104.621094 146.851562 L 98.65625 183.113281 L 54.992188 175.933594 Z M 60.957031 139.667969 "/>
</clipPath>
<clipPath id="clip73">
  <path d="M 60.957031 139.667969 L 104.621094 146.851562 L 98.65625 183.113281 L 54.992188 175.933594 Z M 60.957031 139.667969 "/>
</clipPath>
<clipPath id="clip74">
  <path d="M 60.957031 139.667969 L 104.703125 146.867188 L 98.730469 183.164062 L 54.988281 175.964844 Z M 60.957031 139.667969 "/>
</clipPath>
<clipPath id="clip75">
  <path d="M 83 153 L 99 153 L 99 183 L 83 183 Z M 83 153 "/>
</clipPath>
<clipPath id="clip76">
  <path d="M 60.957031 139.667969 L 104.621094 146.851562 L 98.65625 183.113281 L 54.992188 175.933594 Z M 60.957031 139.667969 "/>
</clipPath>
<clipPath id="clip77">
  <path d="M 60.957031 139.667969 L 104.621094 146.851562 L 98.65625 183.113281 L 54.992188 175.933594 Z M 60.957031 139.667969 "/>
</clipPath>
<clipPath id="clip78">
  <path d="M 60.957031 139.667969 L 104.703125 146.867188 L 98.730469 183.164062 L 54.988281 175.964844 Z M 60.957031 139.667969 "/>
</clipPath>
<clipPath id="clip79">
  <path d="M 84.1875 153.492188 L 103.125 156.605469 L 98.808594 182.859375 L 79.867188 179.746094 Z M 84.1875 153.492188 "/>
</clipPath>
<clipPath id="clip80">
  <path d="M 84.1875 153.492188 L 103.101562 156.601562 L 98.785156 182.839844 L 79.871094 179.730469 Z M 84.1875 153.492188 "/>
</clipPath>
<clipPath id="clip81">
  <path d="M 72 143 L 91 143 L 91 159 L 72 159 Z M 72 143 "/>
</clipPath>
<clipPath id="clip82">
  <path d="M 60.957031 139.667969 L 104.621094 146.851562 L 98.65625 183.113281 L 54.992188 175.933594 Z M 60.957031 139.667969 "/>
</clipPath>
<clipPath id="clip83">
  <path d="M 60.957031 139.667969 L 104.621094 146.851562 L 98.65625 183.113281 L 54.992188 175.933594 Z M 60.957031 139.667969 "/>
</clipPath>
<clipPath id="clip84">
  <path d="M 60.957031 139.667969 L 104.703125 146.867188 L 98.730469 183.164062 L 54.988281 175.964844 Z M 60.957031 139.667969 "/>
</clipPath>
<clipPath id="clip85">
  <path d="M 64 153 L 71 153 L 71 167 L 64 167 Z M 64 153 "/>
</clipPath>
<clipPath id="clip86">
  <path d="M 60.957031 139.667969 L 104.621094 146.851562 L 98.65625 183.113281 L 54.992188 175.933594 Z M 60.957031 139.667969 "/>
</clipPath>
<clipPath id="clip87">
  <path d="M 60.957031 139.667969 L 104.621094 146.851562 L 98.65625 183.113281 L 54.992188 175.933594 Z M 60.957031 139.667969 "/>
</clipPath>
<clipPath id="clip88">
  <path d="M 60.957031 139.667969 L 104.703125 146.867188 L 98.730469 183.164062 L 54.988281 175.964844 Z M 60.957031 139.667969 "/>
</clipPath>
<clipPath id="clip89">
  <path d="M 90 162 L 94 162 L 94 178 L 90 178 Z M 90 162 "/>
</clipPath>
<clipPath id="clip90">
  <path d="M 60.957031 139.667969 L 104.621094 146.851562 L 98.65625 183.113281 L 54.992188 175.933594 Z M 60.957031 139.667969 "/>
</clipPath>
<clipPath id="clip91">
  <path d="M 60.957031 139.667969 L 104.621094 146.851562 L 98.65625 183.113281 L 54.992188 175.933594 Z M 60.957031 139.667969 "/>
</clipPath>
<clipPath id="clip92">
  <path d="M 60.957031 139.667969 L 104.703125 146.867188 L 98.730469 183.164062 L 54.988281 175.964844 Z M 60.957031 139.667969 "/>
</clipPath>
<clipPath id="clip93">
  <path d="M 134 214 L 161 214 L 161 237 L 134 237 Z M 134 214 "/>
</clipPath>
<clipPath id="clip94">
  <path d="M 110.046875 216.417969 L 152.8125 205.050781 L 162.25 240.570312 L 119.488281 251.933594 Z M 110.046875 216.417969 "/>
</clipPath>
<clipPath id="clip95">
  <path d="M 152.730469 205.074219 L 109.96875 216.441406 L 119.40625 251.957031 L 162.171875 240.589844 Z M 152.730469 205.074219 "/>
</clipPath>
<clipPath id="clip96">
  <path d="M 152.730469 205.074219 L 109.886719 216.460938 L 119.335938 252.011719 L 162.179688 240.625 Z M 152.730469 205.074219 "/>
</clipPath>
<clipPath id="clip97">
  <path d="M 136 214 L 161 214 L 161 237 L 136 237 Z M 136 214 "/>
</clipPath>
<clipPath id="clip98">
  <path d="M 110.046875 216.417969 L 152.8125 205.050781 L 162.25 240.570312 L 119.488281 251.933594 Z M 110.046875 216.417969 "/>
</clipPath>
<clipPath id="clip99">
  <path d="M 152.730469 205.074219 L 109.96875 216.441406 L 119.40625 251.957031 L 162.171875 240.589844 Z M 152.730469 205.074219 "/>
</clipPath>
<clipPath id="clip100">
  <path d="M 152.730469 205.074219 L 109.886719 216.460938 L 119.335938 252.011719 L 162.179688 240.625 Z M 152.730469 205.074219 "/>
</clipPath>
<clipPath id="clip101">
  <path d="M 119 221 L 134 221 L 134 252 L 119 252 Z M 119 221 "/>
</clipPath>
<clipPath id="clip102">
  <path d="M 110.046875 216.417969 L 152.8125 205.050781 L 162.25 240.570312 L 119.488281 251.933594 Z M 110.046875 216.417969 "/>
</clipPath>
<clipPath id="clip103">
  <path d="M 152.730469 205.074219 L 109.96875 216.441406 L 119.40625 251.957031 L 162.171875 240.589844 Z M 152.730469 205.074219 "/>
</clipPath>
<clipPath id="clip104">
  <path d="M 152.730469 205.074219 L 109.886719 216.460938 L 119.335938 252.011719 L 162.179688 240.625 Z M 152.730469 205.074219 "/>
</clipPath>
<clipPath id="clip105">
  <path d="M 119 221 L 133 221 L 133 252 L 119 252 Z M 119 221 "/>
</clipPath>
<clipPath id="clip106">
  <path d="M 110.046875 216.417969 L 152.8125 205.050781 L 162.25 240.570312 L 119.488281 251.933594 Z M 110.046875 216.417969 "/>
</clipPath>
<clipPath id="clip107">
  <path d="M 152.730469 205.074219 L 109.96875 216.441406 L 119.40625 251.957031 L 162.171875 240.589844 Z M 152.730469 205.074219 "/>
</clipPath>
<clipPath id="clip108">
  <path d="M 152.730469 205.074219 L 109.886719 216.460938 L 119.335938 252.011719 L 162.179688 240.625 Z M 152.730469 205.074219 "/>
</clipPath>
<clipPath id="clip109">
  <path d="M 130.945312 221.074219 L 112.398438 226.003906 L 119.230469 251.71875 L 137.78125 246.789062 Z M 130.945312 221.074219 "/>
</clipPath>
<clipPath id="clip110">
  <path d="M 130.945312 221.074219 L 112.421875 226 L 119.25 251.695312 L 137.777344 246.773438 Z M 130.945312 221.074219 "/>
</clipPath>
<clipPath id="clip111">
  <path d="M 124 210 L 143 210 L 143 226 L 124 226 Z M 124 210 "/>
</clipPath>
<clipPath id="clip112">
  <path d="M 110.046875 216.417969 L 152.8125 205.050781 L 162.25 240.570312 L 119.488281 251.933594 Z M 110.046875 216.417969 "/>
</clipPath>
<clipPath id="clip113">
  <path d="M 152.730469 205.074219 L 109.96875 216.441406 L 119.40625 251.957031 L 162.171875 240.589844 Z M 152.730469 205.074219 "/>
</clipPath>
<clipPath id="clip114">
  <path d="M 152.730469 205.074219 L 109.886719 216.460938 L 119.335938 252.011719 L 162.179688 240.625 Z M 152.730469 205.074219 "/>
</clipPath>
<clipPath id="clip115">
  <path d="M 144 219 L 152 219 L 152 233 L 144 233 Z M 144 219 "/>
</clipPath>
<clipPath id="clip116">
  <path d="M 110.046875 216.417969 L 152.8125 205.050781 L 162.25 240.570312 L 119.488281 251.933594 Z M 110.046875 216.417969 "/>
</clipPath>
<clipPath id="clip117">
  <path d="M 152.730469 205.074219 L 109.96875 216.441406 L 119.40625 251.957031 L 162.171875 240.589844 Z M 152.730469 205.074219 "/>
</clipPath>
<clipPath id="clip118">
  <path d="M 152.730469 205.074219 L 109.886719 216.460938 L 119.335938 252.011719 L 162.179688 240.625 Z M 152.730469 205.074219 "/>
</clipPath>
<clipPath id="clip119">
  <path d="M 124 230 L 126 230 L 126 246 L 124 246 Z M 124 230 "/>
</clipPath>
<clipPath id="clip120">
  <path d="M 110.046875 216.417969 L 152.8125 205.050781 L 162.25 240.570312 L 119.488281 251.933594 Z M 110.046875 216.417969 "/>
</clipPath>
<clipPath id="clip121">
  <path d="M 152.730469 205.074219 L 109.96875 216.441406 L 119.40625 251.957031 L 162.171875 240.589844 Z M 152.730469 205.074219 "/>
</clipPath>
<clipPath id="clip122">
  <path d="M 152.730469 205.074219 L 109.886719 216.460938 L 119.335938 252.011719 L 162.179688 240.625 Z M 152.730469 205.074219 "/>
</clipPath>
<clipPath id="clip123">
  <path d="M 182 170 L 206 170 L 206 195 L 182 195 Z M 182 170 "/>
</clipPath>
<clipPath id="clip124">
  <path d="M 185.933594 162.195312 L 229.691406 168.769531 L 224.234375 205.113281 L 180.472656 198.539062 Z M 185.933594 162.195312 "/>
</clipPath>
<clipPath id="clip125">
  <path d="M 185.933594 162.195312 L 229.691406 168.769531 L 224.234375 205.113281 L 180.472656 198.539062 Z M 185.933594 162.195312 "/>
</clipPath>
<clipPath id="clip126">
  <path d="M 185.933594 162.195312 L 229.773438 168.78125 L 224.308594 205.160156 L 180.46875 198.574219 Z M 185.933594 162.195312 "/>
</clipPath>
<clipPath id="clip127">
  <path d="M 181 170 L 204 170 L 204 195 L 181 195 Z M 181 170 "/>
</clipPath>
<clipPath id="clip128">
  <path d="M 185.933594 162.195312 L 229.691406 168.769531 L 224.234375 205.113281 L 180.472656 198.539062 Z M 185.933594 162.195312 "/>
</clipPath>
<clipPath id="clip129">
  <path d="M 185.933594 162.195312 L 229.691406 168.769531 L 224.234375 205.113281 L 180.472656 198.539062 Z M 185.933594 162.195312 "/>
</clipPath>
<clipPath id="clip130">
  <path d="M 185.933594 162.195312 L 229.773438 168.78125 L 224.308594 205.160156 L 180.46875 198.574219 Z M 185.933594 162.195312 "/>
</clipPath>
<clipPath id="clip131">
  <path d="M 207 176 L 224 176 L 224 205 L 207 205 Z M 207 176 "/>
</clipPath>
<clipPath id="clip132">
  <path d="M 185.933594 162.195312 L 229.691406 168.769531 L 224.234375 205.113281 L 180.472656 198.539062 Z M 185.933594 162.195312 "/>
</clipPath>
<clipPath id="clip133">
  <path d="M 185.933594 162.195312 L 229.691406 168.769531 L 224.234375 205.113281 L 180.472656 198.539062 Z M 185.933594 162.195312 "/>
</clipPath>
<clipPath id="clip134">
  <path d="M 185.933594 162.195312 L 229.773438 168.78125 L 224.308594 205.160156 L 180.46875 198.574219 Z M 185.933594 162.195312 "/>
</clipPath>
<clipPath id="clip135">
  <path d="M 208 176 L 225 176 L 225 205 L 208 205 Z M 208 176 "/>
</clipPath>
<clipPath id="clip136">
  <path d="M 185.933594 162.195312 L 229.691406 168.769531 L 224.234375 205.113281 L 180.472656 198.539062 Z M 185.933594 162.195312 "/>
</clipPath>
<clipPath id="clip137">
  <path d="M 185.933594 162.195312 L 229.691406 168.769531 L 224.234375 205.113281 L 180.472656 198.539062 Z M 185.933594 162.195312 "/>
</clipPath>
<clipPath id="clip138">
  <path d="M 185.933594 162.195312 L 229.773438 168.78125 L 224.308594 205.160156 L 180.46875 198.574219 Z M 185.933594 162.195312 "/>
</clipPath>
<clipPath id="clip139">
  <path d="M 209.351562 175.695312 L 228.332031 178.546875 L 224.378906 204.855469 L 205.398438 202.003906 Z M 209.351562 175.695312 "/>
</clipPath>
<clipPath id="clip140">
  <path d="M 209.351562 175.695312 L 228.308594 178.542969 L 224.359375 204.835938 L 205.402344 201.988281 Z M 209.351562 175.695312 "/>
</clipPath>
<clipPath id="clip141">
  <path d="M 197 165 L 216 165 L 216 181 L 197 181 Z M 197 165 "/>
</clipPath>
<clipPath id="clip142">
  <path d="M 185.933594 162.195312 L 229.691406 168.769531 L 224.234375 205.113281 L 180.472656 198.539062 Z M 185.933594 162.195312 "/>
</clipPath>
<clipPath id="clip143">
  <path d="M 185.933594 162.195312 L 229.691406 168.769531 L 224.234375 205.113281 L 180.472656 198.539062 Z M 185.933594 162.195312 "/>
</clipPath>
<clipPath id="clip144">
  <path d="M 185.933594 162.195312 L 229.773438 168.78125 L 224.308594 205.160156 L 180.46875 198.574219 Z M 185.933594 162.195312 "/>
</clipPath>
<clipPath id="clip145">
  <path d="M 189 175 L 196 175 L 196 190 L 189 190 Z M 189 175 "/>
</clipPath>
<clipPath id="clip146">
  <path d="M 185.933594 162.195312 L 229.691406 168.769531 L 224.234375 205.113281 L 180.472656 198.539062 Z M 185.933594 162.195312 "/>
</clipPath>
<clipPath id="clip147">
  <path d="M 185.933594 162.195312 L 229.691406 168.769531 L 224.234375 205.113281 L 180.472656 198.539062 Z M 185.933594 162.195312 "/>
</clipPath>
<clipPath id="clip148">
  <path d="M 185.933594 162.195312 L 229.773438 168.78125 L 224.308594 205.160156 L 180.46875 198.574219 Z M 185.933594 162.195312 "/>
</clipPath>
<clipPath id="clip149">
  <path d="M 215 184 L 219 184 L 219 200 L 215 200 Z M 215 184 "/>
</clipPath>
<clipPath id="clip150">
  <path d="M 185.933594 162.195312 L 229.691406 168.769531 L 224.234375 205.113281 L 180.472656 198.539062 Z M 185.933594 162.195312 "/>
</clipPath>
<clipPath id="clip151">
  <path d="M 185.933594 162.195312 L 229.691406 168.769531 L 224.234375 205.113281 L 180.472656 198.539062 Z M 185.933594 162.195312 "/>
</clipPath>
<clipPath id="clip152">
  <path d="M 185.933594 162.195312 L 229.773438 168.78125 L 224.308594 205.160156 L 180.46875 198.574219 Z M 185.933594 162.195312 "/>
</clipPath>
</defs>
<g id="surface1">
<g clip-path="url(#clip1)" clip-rule="nonzero">
<g clip-path="url(#clip2)" clip-rule="nonzero">
<g clip-path="url(#clip3)" clip-rule="nonzero">
<g clip-path="url(#clip4)" clip-rule="nonzero">
<path style=" stroke:none;fill-rule:nonzero;fill:rgb(82.348633%,16.079712%,14.509583%);fill-opacity:1;" d="M 200.234375 94.578125 C 200.761719 92.40625 201.050781 90.199219 200.875 88.382812 C 200.726562 86.921875 200.277344 85.710938 199.410156 84.964844 C 198.863281 84.488281 198.273438 84.214844 197.789062 84.054688 C 197.445312 83.9375 197.160156 83.882812 196.972656 83.855469 C 197.464844 83.675781 198.023438 83.570312 198.621094 83.613281 C 198.621094 83.613281 199.058594 83.640625 199.660156 83.835938 C 200.144531 83.996094 200.734375 84.273438 201.28125 84.746094 C 202.140625 85.484375 202.589844 86.699219 202.734375 88.160156 C 202.9375 90.171875 202.566406 92.648438 201.929688 95.03125 C 201.476562 96.730469 200.882812 98.378906 200.269531 99.792969 C 200.121094 100.128906 199.972656 100.460938 199.816406 100.789062 C 197.21875 106.277344 192.882812 111.664062 186.359375 112.058594 C 186.285156 112.0625 186.21875 112.066406 186.160156 112.058594 C 191.769531 110.941406 195.582031 106.015625 197.953125 101.007812 C 198.109375 100.675781 198.253906 100.347656 198.402344 100.007812 C 199.097656 98.414062 199.761719 96.507812 200.234375 94.578125 "/>
</g>
</g>
</g>
</g>
<g clip-path="url(#clip5)" clip-rule="nonzero">
<g clip-path="url(#clip6)" clip-rule="nonzero">
<g clip-path="url(#clip7)" clip-rule="nonzero">
<g clip-path="url(#clip8)" clip-rule="nonzero">
<path style=" stroke:none;fill-rule:nonzero;fill:rgb(91.369629%,14.898682%,18.818665%);fill-opacity:1;" d="M 191.78125 98.707031 C 191.941406 96.035156 191.992188 93.34375 192.425781 90.707031 C 192.707031 89.011719 193.15625 87.160156 194.238281 85.765625 C 194.347656 85.625 194.457031 85.492188 194.578125 85.363281 C 194.578125 85.363281 194.78125 85.152344 194.960938 84.992188 C 195.261719 84.734375 196.113281 84.472656 197.242188 84.382812 C 197.382812 84.179688 197.625 83.894531 197.988281 83.824219 C 198.652344 83.6875 199.214844 84.394531 199.636719 84.753906 C 200.519531 85.503906 200.976562 86.738281 201.121094 88.222656 C 201.472656 91.707031 200.121094 96.585938 198.609375 100.023438 C 198.464844 100.359375 198.308594 100.703125 198.148438 101.035156 C 195.742188 106.113281 191.878906 111.117188 186.183594 112.253906 C 185.527344 112.234375 185.179688 111.886719 185.933594 111.421875 C 187.15625 110.660156 188.441406 109.996094 189.328125 108.824219 C 189.96875 107.980469 190.398438 106.996094 190.714844 105.988281 C 191.460938 103.648438 191.628906 101.144531 191.78125 98.707031 "/>
</g>
</g>
</g>
</g>
<g clip-path="url(#clip9)" clip-rule="nonzero">
<g clip-path="url(#clip10)" clip-rule="nonzero">
<g clip-path="url(#clip11)" clip-rule="nonzero">
<g clip-path="url(#clip12)" clip-rule="nonzero">
<path style=" stroke:none;fill-rule:nonzero;fill:rgb(85.488892%,84.309387%,11.369324%);fill-opacity:1;" d="M 207.148438 94.855469 C 206.703125 93.855469 206.371094 92.867188 206.179688 91.941406 C 205.890625 90.507812 205.957031 89.214844 206.566406 88.238281 C 206.949219 87.625 207.433594 87.1875 207.847656 86.890625 C 208.355469 86.523438 208.773438 86.371094 208.773438 86.371094 C 209.335938 86.160156 209.894531 86.097656 210.417969 86.113281 C 210.25 86.199219 209.992188 86.339844 209.699219 86.546875 C 209.285156 86.84375 208.800781 87.28125 208.417969 87.894531 C 207.8125 88.871094 207.742188 90.160156 208.03125 91.59375 C 208.183594 92.359375 208.445312 93.167969 208.78125 93.996094 C 209.925781 96.804688 211.953125 99.804688 213.824219 101.972656 C 214.066406 102.25 214.304688 102.519531 214.550781 102.789062 C 218.296875 106.875 223.398438 110.453125 229.082031 109.867188 C 229.019531 109.890625 228.957031 109.90625 228.894531 109.921875 C 222.542969 111.476562 216.808594 107.609375 212.707031 103.136719 C 212.460938 102.863281 212.222656 102.59375 211.980469 102.316406 C 210.214844 100.285156 208.320312 97.515625 207.148438 94.855469 "/>
</g>
</g>
</g>
</g>
<g clip-path="url(#clip13)" clip-rule="nonzero">
<g clip-path="url(#clip14)" clip-rule="nonzero">
<g clip-path="url(#clip15)" clip-rule="nonzero">
<g clip-path="url(#clip16)" clip-rule="nonzero">
<g clip-path="url(#clip17)" clip-rule="nonzero">
<g clip-path="url(#clip18)" clip-rule="nonzero">
<path style=" stroke:none;fill-rule:nonzero;fill:rgb(92.939758%,92.939758%,12.548828%);fill-opacity:1;" d="M 213.550781 102.09375 C 211.074219 99.234375 208.332031 94.949219 207.636719 91.5 C 207.316406 90.019531 207.390625 88.707031 208.007812 87.714844 C 208.214844 87.382812 208.726562 86.269531 209.316406 86.339844 C 209.480469 86.359375 209.605469 86.457031 209.695312 86.554688 C 210.140625 86.398438 211.3125 86.066406 212.574219 86.5625 C 212.957031 86.710938 213.265625 86.90625 213.503906 87.097656 C 214.957031 88.113281 215.9375 89.757812 216.710938 91.304688 C 217.917969 93.710938 218.761719 96.289062 219.710938 98.800781 C 220.578125 101.097656 221.492188 103.453125 222.90625 105.484375 C 223.511719 106.355469 224.214844 107.171875 225.085938 107.792969 C 226.285156 108.65625 227.707031 108.902344 229.117188 109.277344 C 229.972656 109.503906 229.746094 109.933594 229.125 110.152344 C 223.320312 110.75 218.117188 107.097656 214.292969 102.929688 C 214.039062 102.65625 213.792969 102.378906 213.550781 102.09375 "/>
</g>
</g>
</g>
</g>
</g>
</g>
<g clip-path="url(#clip19)" clip-rule="nonzero">
<g clip-path="url(#clip20)" clip-rule="nonzero">
<g clip-path="url(#clip21)" clip-rule="nonzero">
<g clip-path="url(#clip22)" clip-rule="nonzero">
<path style=" stroke:none;fill-rule:nonzero;fill:rgb(16.468811%,54.119873%,23.919678%);fill-opacity:1;" d="M 212.882812 86.765625 C 212.28125 86.5 210.519531 85.710938 208.773438 86.371094 C 208.53125 85.640625 208.015625 84.414062 206.929688 83.234375 C 206.078125 82.308594 205.199219 81.757812 204.574219 81.425781 C 203.804688 81.402344 203.226562 81.894531 203.179688 82.40625 C 203.140625 82.835938 203.492188 83.167969 203.558594 83.230469 C 204.082031 83.34375 205.089844 83.628906 206.078125 84.445312 C 207.167969 85.339844 207.648438 86.394531 207.839844 86.890625 C 207.515625 87.117188 206.652344 87.789062 206.199219 89.035156 C 205.707031 90.410156 206.054688 91.59375 206.171875 91.949219 C 206.632812 91.207031 207.457031 90.070312 208.832031 89.097656 C 210.824219 87.675781 212.835938 87.371094 213.785156 87.296875 C 213.503906 87.082031 213.203125 86.90625 212.882812 86.765625 Z M 200.609375 80.964844 C 199.835938 82.140625 199.6875 83.289062 199.648438 83.824219 C 200.027344 83.941406 201.050781 84.328125 201.847656 85.382812 C 202.726562 86.554688 202.746094 87.785156 202.734375 88.160156 C 202.078125 87.585938 200.957031 86.746094 199.351562 86.222656 C 197.03125 85.453125 195.019531 85.757812 194.089844 85.964844 C 194.304688 85.691406 194.539062 85.4375 194.804688 85.199219 C 195.300781 84.765625 196.75 83.492188 198.613281 83.605469 C 198.628906 82.835938 198.757812 81.515625 199.449219 80.066406 C 199.980469 78.941406 200.667969 78.140625 201.15625 77.644531 C 201.886719 77.394531 202.582031 77.691406 202.78125 78.164062 C 202.941406 78.566406 202.707031 78.988281 202.660156 79.070312 C 202.191406 79.320312 201.3125 79.894531 200.609375 80.964844 "/>
</g>
</g>
</g>
</g>
<g clip-path="url(#clip23)" clip-rule="nonzero">
<g clip-path="url(#clip24)" clip-rule="nonzero">
<g clip-path="url(#clip25)" clip-rule="nonzero">
<g clip-path="url(#clip26)" clip-rule="nonzero">
<path style=" stroke:none;fill-rule:nonzero;fill:rgb(92.939758%,92.939758%,12.548828%);fill-opacity:1;" d="M 193.128906 100.777344 C 193.234375 99.050781 193.160156 97.308594 193.234375 95.578125 C 193.273438 94.765625 193.328125 93.960938 193.429688 93.164062 C 193.535156 92.328125 193.773438 91.527344 193.890625 90.695312 C 193.910156 90.53125 193.691406 90.492188 193.621094 90.625 C 192.925781 92.070312 192.898438 93.96875 192.878906 95.535156 C 192.855469 97.273438 192.859375 99.054688 192.984375 100.785156 C 192.988281 100.863281 193.117188 100.859375 193.128906 100.777344 Z M 192.238281 105.027344 C 192.191406 105.136719 192.019531 105.074219 192.0625 104.960938 C 192.308594 104.234375 192.390625 103.460938 192.609375 102.734375 C 192.667969 102.566406 192.886719 102.65625 192.886719 102.804688 C 192.890625 103.5625 192.554688 104.351562 192.238281 105.027344 "/>
</g>
</g>
</g>
</g>
<g clip-path="url(#clip27)" clip-rule="nonzero">
<g clip-path="url(#clip28)" clip-rule="nonzero">
<g clip-path="url(#clip29)" clip-rule="nonzero">
<g clip-path="url(#clip30)" clip-rule="nonzero">
<path style=" stroke:none;fill-rule:nonzero;fill:rgb(91.369629%,14.898682%,18.818665%);fill-opacity:1;" d="M 222.847656 106.214844 C 222.5 105.71875 222.144531 105.253906 221.871094 104.710938 C 221.765625 104.492188 221.410156 104.648438 221.523438 104.867188 C 221.816406 105.414062 222.230469 105.964844 222.757812 106.308594 C 222.816406 106.351562 222.886719 106.285156 222.847656 106.214844 Z M 220.40625 102.957031 C 220.46875 103.03125 220.351562 103.121094 220.296875 103.046875 C 219.132812 101.703125 218.289062 100.230469 217.621094 98.582031 C 217.28125 97.726562 216.976562 96.851562 216.691406 95.972656 C 216.417969 95.128906 216.144531 94.34375 215.550781 93.667969 C 215.402344 93.5 215.660156 93.226562 215.832031 93.375 C 216.433594 93.921875 216.714844 94.667969 216.953125 95.421875 C 217.226562 96.265625 217.492188 97.101562 217.800781 97.933594 C 218.449219 99.695312 219.230469 101.484375 220.40625 102.957031 "/>
</g>
</g>
</g>
</g>
<g clip-path="url(#clip31)" clip-rule="nonzero">
<g clip-path="url(#clip32)" clip-rule="nonzero">
<g clip-path="url(#clip33)" clip-rule="nonzero">
<g clip-path="url(#clip34)" clip-rule="nonzero">
<path style=" stroke:none;fill-rule:nonzero;fill:rgb(82.348633%,16.079712%,14.509583%);fill-opacity:1;" d="M 89.644531 91.019531 C 90.972656 89.222656 92.097656 87.300781 92.632812 85.558594 C 93.066406 84.152344 93.121094 82.863281 92.613281 81.835938 C 92.292969 81.1875 91.855469 80.707031 91.46875 80.367188 C 91.199219 80.128906 90.957031 79.96875 90.796875 79.871094 C 91.320312 79.898438 91.871094 80.015625 92.40625 80.285156 C 92.40625 80.285156 92.800781 80.480469 93.277344 80.894531 C 93.664062 81.230469 94.101562 81.714844 94.421875 82.363281 C 94.929688 83.378906 94.867188 84.667969 94.4375 86.074219 C 93.84375 88.003906 92.542969 90.140625 91.03125 92.09375 C 89.953125 93.484375 88.765625 94.773438 87.652344 95.839844 C 87.386719 96.09375 87.121094 96.339844 86.851562 96.585938 C 82.328125 100.636719 76.242188 103.917969 70.074219 101.753906 C 70.007812 101.726562 69.945312 101.703125 69.890625 101.675781 C 75.496094 102.820312 80.921875 99.757812 85.046875 96.058594 C 85.320312 95.816406 85.582031 95.570312 85.851562 95.316406 C 87.109375 94.113281 88.460938 92.613281 89.644531 91.019531 "/>
</g>
</g>
</g>
</g>
<g clip-path="url(#clip35)" clip-rule="nonzero">
<g clip-path="url(#clip36)" clip-rule="nonzero">
<g clip-path="url(#clip37)" clip-rule="nonzero">
<g clip-path="url(#clip38)" clip-rule="nonzero">
<path style=" stroke:none;fill-rule:nonzero;fill:rgb(91.369629%,14.898682%,18.818665%);fill-opacity:1;" d="M 80.25 91.546875 C 81.4375 89.148438 82.523438 86.6875 83.949219 84.421875 C 84.863281 82.96875 86 81.4375 87.53125 80.570312 C 87.6875 80.484375 87.84375 80.40625 88.003906 80.332031 C 88.003906 80.332031 88.273438 80.214844 88.5 80.140625 C 88.875 80.015625 89.761719 80.109375 90.839844 80.464844 C 91.046875 80.328125 91.378906 80.160156 91.742188 80.238281 C 92.410156 80.367188 92.652344 81.234375 92.902344 81.730469 C 93.421875 82.765625 93.367188 84.078125 92.925781 85.503906 C 91.898438 88.851562 88.761719 92.824219 86.035156 95.40625 C 85.769531 95.660156 85.496094 95.917969 85.21875 96.164062 C 81.03125 99.914062 75.527344 103.023438 69.835938 101.863281 C 69.242188 101.59375 69.058594 101.136719 69.929688 101 C 71.355469 100.769531 72.796875 100.660156 74.066406 99.921875 C 74.984375 99.394531 75.761719 98.652344 76.445312 97.847656 C 78.039062 95.976562 79.167969 93.734375 80.25 91.546875 "/>
</g>
</g>
</g>
</g>
<g clip-path="url(#clip39)" clip-rule="nonzero">
<g clip-path="url(#clip40)" clip-rule="nonzero">
<g clip-path="url(#clip41)" clip-rule="nonzero">
<g clip-path="url(#clip42)" clip-rule="nonzero">
<path style=" stroke:none;fill-rule:nonzero;fill:rgb(85.488892%,84.309387%,11.369324%);fill-opacity:1;" d="M 95.90625 93.957031 C 95.886719 92.863281 95.964844 91.824219 96.148438 90.890625 C 96.433594 89.457031 97 88.296875 97.9375 87.632812 C 98.527344 87.214844 99.144531 86.996094 99.644531 86.886719 C 100.253906 86.742188 100.695312 86.765625 100.695312 86.765625 C 101.296875 86.789062 101.835938 86.949219 102.3125 87.167969 C 102.125 87.179688 101.832031 87.210938 101.484375 87.285156 C 100.984375 87.398438 100.371094 87.613281 99.777344 88.03125 C 98.839844 88.695312 98.277344 89.859375 97.988281 91.292969 C 97.832031 92.058594 97.757812 92.90625 97.75 93.796875 C 97.710938 96.832031 98.417969 100.382812 99.304688 103.105469 C 99.417969 103.453125 99.535156 103.796875 99.65625 104.140625 C 101.523438 109.355469 104.839844 114.636719 110.308594 116.296875 C 110.242188 116.292969 110.175781 116.285156 110.113281 116.277344 C 103.65625 115.246094 99.867188 109.460938 97.820312 103.742188 C 97.699219 103.398438 97.585938 103.054688 97.46875 102.707031 C 96.632812 100.152344 95.957031 96.863281 95.90625 93.957031 "/>
</g>
</g>
</g>
</g>
<g clip-path="url(#clip43)" clip-rule="nonzero">
<g clip-path="url(#clip44)" clip-rule="nonzero">
<g clip-path="url(#clip45)" clip-rule="nonzero">
<g clip-path="url(#clip46)" clip-rule="nonzero">
<g clip-path="url(#clip47)" clip-rule="nonzero">
<g clip-path="url(#clip48)" clip-rule="nonzero">
<path style=" stroke:none;fill-rule:nonzero;fill:rgb(92.939758%,92.939758%,12.548828%);fill-opacity:1;" d="M 99.003906 103.109375 C 97.832031 99.515625 96.964844 94.5 97.660156 91.050781 C 97.941406 89.5625 98.515625 88.382812 99.472656 87.707031 C 99.789062 87.480469 100.695312 86.652344 101.210938 86.949219 C 101.355469 87.027344 101.433594 87.167969 101.476562 87.289062 C 101.945312 87.320312 103.15625 87.46875 104.125 88.417969 C 104.417969 88.699219 104.628906 89 104.777344 89.269531 C 105.71875 90.765625 105.988281 92.664062 106.101562 94.390625 C 106.28125 97.078125 106.058594 99.78125 105.960938 102.464844 C 105.871094 104.917969 105.796875 107.441406 106.3125 109.863281 C 106.535156 110.902344 106.863281 111.925781 107.425781 112.835938 C 108.199219 114.097656 109.414062 114.875 110.570312 115.765625 C 111.269531 116.308594 110.890625 116.617188 110.238281 116.578125 C 104.652344 114.878906 101.273438 109.496094 99.363281 104.171875 C 99.238281 103.816406 99.117188 103.464844 99.003906 103.109375 "/>
</g>
</g>
</g>
</g>
</g>
</g>
<g clip-path="url(#clip49)" clip-rule="nonzero">
<g clip-path="url(#clip50)" clip-rule="nonzero">
<g clip-path="url(#clip51)" clip-rule="nonzero">
<g clip-path="url(#clip52)" clip-rule="nonzero">
<path style=" stroke:none;fill-rule:nonzero;fill:rgb(16.468811%,54.119873%,23.919678%);fill-opacity:1;" d="M 104.332031 88.722656 C 103.878906 88.242188 102.5625 86.835938 100.695312 86.765625 C 100.757812 85.996094 100.757812 84.667969 100.214844 83.160156 C 99.789062 81.976562 99.191406 81.125 98.746094 80.578125 C 98.042969 80.257812 97.320312 80.488281 97.078125 80.941406 C 96.875 81.320312 97.070312 81.765625 97.109375 81.851562 C 97.546875 82.15625 98.367188 82.808594 98.960938 83.945312 C 99.617188 85.191406 99.652344 86.351562 99.636719 86.882812 C 99.25 86.964844 98.191406 87.25 97.292969 88.222656 C 96.304688 89.296875 96.164062 90.523438 96.136719 90.898438 C 96.847656 90.390625 98.046875 89.667969 99.695312 89.300781 C 102.082031 88.765625 104.054688 89.265625 104.957031 89.558594 C 104.78125 89.253906 104.574219 88.976562 104.332031 88.722656 Z M 95.269531 78.617188 C 94.097656 79.402344 93.515625 80.402344 93.273438 80.878906 C 93.574219 81.132812 94.371094 81.886719 94.695312 83.171875 C 95.054688 84.589844 94.59375 85.734375 94.4375 86.074219 C 94.054688 85.289062 93.34375 84.082031 92.070312 82.976562 C 90.230469 81.367188 88.257812 80.867188 87.320312 80.695312 C 87.625 80.527344 87.9375 80.382812 88.273438 80.269531 C 88.902344 80.0625 90.730469 79.449219 92.402344 80.277344 C 92.714844 79.574219 93.347656 78.40625 94.546875 77.335938 C 95.472656 76.507812 96.414062 76.035156 97.058594 75.765625 C 97.828125 75.820312 98.355469 76.363281 98.355469 76.878906 C 98.347656 77.308594 97.964844 77.609375 97.890625 77.664062 C 97.363281 77.714844 96.332031 77.902344 95.269531 78.617188 "/>
</g>
</g>
</g>
</g>
<g clip-path="url(#clip53)" clip-rule="nonzero">
<g clip-path="url(#clip54)" clip-rule="nonzero">
<g clip-path="url(#clip55)" clip-rule="nonzero">
<g clip-path="url(#clip56)" clip-rule="nonzero">
<path style=" stroke:none;fill-rule:nonzero;fill:rgb(92.939758%,92.939758%,12.548828%);fill-opacity:1;" d="M 80.691406 93.976562 C 81.457031 92.425781 82.066406 90.792969 82.804688 89.226562 C 83.15625 88.496094 83.519531 87.773438 83.917969 87.078125 C 84.34375 86.347656 84.871094 85.699219 85.300781 84.980469 C 85.382812 84.835938 85.195312 84.714844 85.082031 84.8125 C 83.878906 85.875 83.117188 87.613281 82.492188 89.050781 C 81.796875 90.640625 81.109375 92.289062 80.554688 93.929688 C 80.527344 94.003906 80.648438 94.050781 80.691406 93.976562 Z M 78.222656 97.550781 C 78.132812 97.632812 78 97.511719 78.085938 97.421875 C 78.59375 96.847656 78.96875 96.167969 79.453125 95.582031 C 79.570312 95.449219 79.738281 95.617188 79.679688 95.75 C 79.390625 96.453125 78.777344 97.050781 78.222656 97.550781 "/>
</g>
</g>
</g>
</g>
<g clip-path="url(#clip57)" clip-rule="nonzero">
<g clip-path="url(#clip58)" clip-rule="nonzero">
<g clip-path="url(#clip59)" clip-rule="nonzero">
<g clip-path="url(#clip60)" clip-rule="nonzero">
<path style=" stroke:none;fill-rule:nonzero;fill:rgb(91.369629%,14.898682%,18.818665%);fill-opacity:1;" d="M 105.976562 110.515625 C 105.847656 109.921875 105.699219 109.355469 105.660156 108.75 C 105.648438 108.507812 105.257812 108.511719 105.277344 108.757812 C 105.335938 109.375 105.503906 110.046875 105.859375 110.566406 C 105.894531 110.628906 105.984375 110.59375 105.976562 110.515625 Z M 104.988281 106.566406 C 105.019531 106.65625 104.875 106.691406 104.851562 106.605469 C 104.300781 104.914062 104.09375 103.230469 104.117188 101.453125 C 104.132812 100.53125 104.195312 99.605469 104.273438 98.6875 C 104.347656 97.804688 104.402344 96.972656 104.117188 96.121094 C 104.042969 95.90625 104.386719 95.753906 104.484375 95.960938 C 104.832031 96.695312 104.800781 97.492188 104.726562 98.28125 C 104.652344 99.164062 104.574219 100.039062 104.535156 100.925781 C 104.449219 102.796875 104.476562 104.75 104.988281 106.566406 "/>
</g>
</g>
</g>
</g>
<path style=" stroke:none;fill-rule:nonzero;fill:rgb(82.348633%,16.079712%,14.509583%);fill-opacity:1;" d="M 154.609375 133.6875 C 153.761719 131.617188 153.144531 129.480469 153.050781 127.65625 C 152.976562 126.1875 153.238281 124.921875 153.984375 124.054688 C 154.457031 123.507812 155 123.144531 155.453125 122.914062 C 155.773438 122.746094 156.050781 122.652344 156.230469 122.597656 C 155.714844 122.496094 155.152344 122.472656 154.566406 122.601562 C 154.566406 122.601562 154.136719 122.695312 153.570312 122.980469 C 153.117188 123.210938 152.574219 123.570312 152.101562 124.121094 C 151.363281 124.980469 151.101562 126.246094 151.175781 127.714844 C 151.277344 129.730469 152.015625 132.125 153 134.386719 C 153.703125 136 154.535156 137.539062 155.355469 138.847656 C 155.550781 139.160156 155.746094 139.460938 155.949219 139.765625 C 159.335938 144.804688 164.429688 149.484375 170.941406 148.898438 C 171.011719 148.890625 171.078125 148.882812 171.136719 148.867188 C 165.421875 148.601562 160.917969 144.300781 157.824219 139.703125 C 157.621094 139.398438 157.425781 139.09375 157.230469 138.785156 C 156.304688 137.308594 155.363281 135.523438 154.609375 133.6875 "/>
<path style=" stroke:none;fill-rule:nonzero;fill:rgb(91.369629%,14.898682%,18.818665%);fill-opacity:1;" d="M 163.582031 136.507812 C 163.023438 133.890625 162.574219 131.234375 161.75 128.691406 C 161.21875 127.054688 160.496094 125.292969 159.222656 124.078125 C 159.089844 123.953125 158.960938 123.839844 158.824219 123.730469 C 158.824219 123.730469 158.589844 123.550781 158.386719 123.417969 C 158.054688 123.210938 157.171875 123.082031 156.042969 123.160156 C 155.875 122.980469 155.59375 122.734375 155.222656 122.71875 C 154.542969 122.683594 154.09375 123.464844 153.730469 123.882812 C 152.972656 124.757812 152.703125 126.042969 152.78125 127.535156 C 152.957031 131.03125 155.019531 135.652344 157.027344 138.828125 C 157.222656 139.136719 157.425781 139.457031 157.636719 139.757812 C 160.773438 144.421875 165.339844 148.789062 171.144531 149.0625 C 171.789062 148.949219 172.078125 148.550781 171.265625 148.203125 C 169.941406 147.632812 168.570312 147.167969 167.523438 146.144531 C 166.761719 145.40625 166.1875 144.496094 165.726562 143.546875 C 164.640625 141.34375 164.09375 138.890625 163.582031 136.507812 "/>
<g clip-path="url(#clip61)" clip-rule="nonzero">
<path style=" stroke:none;fill-rule:nonzero;fill:rgb(85.488892%,84.309387%,11.369324%);fill-opacity:1;" d="M 147.8125 134.996094 C 148.105469 133.9375 148.285156 132.914062 148.335938 131.964844 C 148.40625 130.503906 148.148438 129.238281 147.402344 128.363281 C 146.929688 127.816406 146.386719 127.453125 145.929688 127.222656 C 145.371094 126.933594 144.9375 126.847656 144.9375 126.847656 C 144.351562 126.722656 143.789062 126.746094 143.273438 126.839844 C 143.453125 126.898438 143.730469 127 144.046875 127.15625 C 144.503906 127.390625 145.046875 127.75 145.519531 128.300781 C 146.265625 129.175781 146.523438 130.441406 146.453125 131.902344 C 146.414062 132.679688 146.277344 133.519531 146.070312 134.386719 C 145.359375 137.335938 143.800781 140.605469 142.273438 143.027344 C 142.078125 143.339844 141.882812 143.640625 141.679688 143.945312 C 138.585938 148.542969 134.074219 152.84375 128.367188 153.113281 C 128.433594 153.128906 128.496094 153.132812 128.5625 153.140625 C 135.074219 153.726562 140.167969 149.050781 143.554688 144.011719 C 143.757812 143.707031 143.953125 143.402344 144.148438 143.09375 C 145.589844 140.820312 147.054688 137.800781 147.8125 134.996094 "/>
</g>
<g clip-path="url(#clip62)" clip-rule="nonzero">
<path style=" stroke:none;fill-rule:nonzero;fill:rgb(92.939758%,92.939758%,12.548828%);fill-opacity:1;" d="M 142.5625 143.105469 C 144.585938 139.910156 146.65625 135.261719 146.828125 131.75 C 146.921875 130.238281 146.65625 128.949219 145.894531 128.0625 C 145.640625 127.765625 144.96875 126.738281 144.394531 126.898438 C 144.234375 126.941406 144.128906 127.054688 144.054688 127.164062 C 143.589844 127.078125 142.382812 126.925781 141.207031 127.605469 C 140.855469 127.808594 140.578125 128.046875 140.367188 128.269531 C 139.085938 129.492188 138.363281 131.265625 137.824219 132.914062 C 136.992188 135.472656 136.542969 138.148438 135.980469 140.769531 C 135.464844 143.171875 134.914062 145.636719 133.820312 147.855469 C 133.351562 148.8125 132.777344 149.722656 132.011719 150.464844 C 130.953125 151.5 129.582031 151.957031 128.242188 152.535156 C 127.433594 152.886719 127.722656 153.277344 128.367188 153.402344 C 134.199219 153.128906 138.796875 148.738281 141.953125 144.046875 C 142.164062 143.734375 142.367188 143.425781 142.5625 143.105469 "/>
</g>
<path style=" stroke:none;fill-rule:nonzero;fill:rgb(16.468811%,54.119873%,23.919678%);fill-opacity:1;" d="M 140.933594 127.851562 C 141.492188 127.496094 143.113281 126.457031 144.9375 126.847656 C 145.070312 126.085938 145.394531 124.800781 146.292969 123.46875 C 146.996094 122.429688 147.785156 121.75 148.351562 121.332031 C 149.109375 121.191406 149.753906 121.589844 149.878906 122.089844 C 149.980469 122.507812 149.683594 122.890625 149.625 122.964844 C 149.125 123.152344 148.167969 123.585938 147.3125 124.539062 C 146.371094 125.589844 146.054688 126.703125 145.9375 127.222656 C 146.292969 127.394531 147.25 127.929688 147.878906 129.09375 C 148.574219 130.382812 148.40625 131.605469 148.34375 131.972656 C 147.777344 131.308594 146.792969 130.308594 145.285156 129.550781 C 143.105469 128.445312 141.070312 128.445312 140.121094 128.507812 C 140.367188 128.257812 140.636719 128.039062 140.933594 127.851562 Z M 152.203125 120.28125 C 153.144531 121.332031 153.464844 122.445312 153.578125 122.964844 C 153.226562 123.136719 152.269531 123.671875 151.636719 124.835938 C 150.945312 126.125 151.109375 127.347656 151.175781 127.714844 C 151.738281 127.050781 152.722656 126.050781 154.230469 125.292969 C 156.410156 124.1875 158.445312 124.1875 159.394531 124.25 C 159.140625 124.011719 158.875 123.796875 158.578125 123.601562 C 158.019531 123.246094 156.398438 122.207031 154.570312 122.597656 C 154.441406 121.835938 154.113281 120.550781 153.21875 119.21875 C 152.523438 118.1875 151.726562 117.5 151.167969 117.078125 C 150.40625 116.941406 149.761719 117.339844 149.640625 117.839844 C 149.539062 118.257812 149.835938 118.640625 149.894531 118.714844 C 150.390625 118.894531 151.347656 119.328125 152.203125 120.28125 "/>
<path style=" stroke:none;fill-rule:nonzero;fill:rgb(92.939758%,92.939758%,12.548828%);fill-opacity:1;" d="M 162.558594 138.753906 C 162.199219 137.0625 162.007812 135.328125 161.675781 133.628906 C 161.519531 132.832031 161.34375 132.046875 161.125 131.273438 C 160.894531 130.460938 160.539062 129.703125 160.300781 128.898438 C 160.257812 128.742188 160.46875 128.667969 160.554688 128.792969 C 161.460938 130.113281 161.769531 131.988281 162.023438 133.535156 C 162.308594 135.246094 162.566406 137.011719 162.703125 138.738281 C 162.714844 138.820312 162.582031 138.832031 162.558594 138.753906 Z M 164.074219 142.824219 C 164.140625 142.925781 164.296875 142.839844 164.242188 142.730469 C 163.886719 142.050781 163.691406 141.300781 163.363281 140.613281 C 163.285156 140.453125 163.082031 140.578125 163.101562 140.722656 C 163.210938 141.472656 163.660156 142.203125 164.074219 142.824219 "/>
<path style=" stroke:none;fill-rule:nonzero;fill:rgb(91.369629%,14.898682%,18.818665%);fill-opacity:1;" d="M 133.988281 148.574219 C 134.253906 148.03125 134.539062 147.515625 134.726562 146.9375 C 134.796875 146.707031 135.175781 146.808594 135.097656 147.039062 C 134.886719 147.625 134.558594 148.234375 134.089844 148.652344 C 134.039062 148.703125 133.957031 148.644531 133.988281 148.574219 Z M 135.914062 144.988281 C 135.863281 145.066406 135.992188 145.136719 136.039062 145.058594 C 136.984375 143.554688 137.601562 141.972656 138.015625 140.242188 C 138.222656 139.347656 138.390625 138.4375 138.542969 137.523438 C 138.6875 136.652344 138.839844 135.832031 139.324219 135.074219 C 139.449219 134.886719 139.152344 134.65625 139.007812 134.828125 C 138.492188 135.457031 138.324219 136.238281 138.203125 137.019531 C 138.058594 137.894531 137.921875 138.761719 137.738281 139.628906 C 137.363281 141.464844 136.855469 143.351562 135.914062 144.988281 "/>
<g clip-path="url(#clip63)" clip-rule="nonzero">
<g clip-path="url(#clip64)" clip-rule="nonzero">
<g clip-path="url(#clip65)" clip-rule="nonzero">
<g clip-path="url(#clip66)" clip-rule="nonzero">
<path style=" stroke:none;fill-rule:nonzero;fill:rgb(82.348633%,16.079712%,14.509583%);fill-opacity:1;" d="M 75.484375 159.027344 C 76.65625 157.125 77.609375 155.113281 78 153.328125 C 78.308594 151.894531 78.257812 150.601562 77.660156 149.625 C 77.285156 149.007812 76.808594 148.5625 76.398438 148.257812 C 76.109375 148.042969 75.851562 147.90625 75.683594 147.820312 C 76.207031 147.804688 76.769531 147.875 77.324219 148.097656 C 77.324219 148.097656 77.734375 148.257812 78.246094 148.628906 C 78.65625 148.933594 79.132812 149.375 79.507812 149.996094 C 80.097656 150.964844 80.148438 152.253906 79.839844 153.691406 C 79.414062 155.664062 78.296875 157.90625 76.957031 159.980469 C 76.003906 161.457031 74.929688 162.839844 73.910156 164 C 73.667969 164.273438 73.425781 164.542969 73.175781 164.808594 C 69.011719 169.230469 63.226562 173.019531 56.898438 171.386719 C 56.828125 171.367188 56.765625 171.347656 56.710938 171.324219 C 62.394531 171.988281 67.535156 168.476562 71.332031 164.441406 C 71.582031 164.171875 71.824219 163.90625 72.070312 163.628906 C 73.222656 162.324219 74.441406 160.714844 75.484375 159.027344 "/>
</g>
</g>
</g>
</g>
<g clip-path="url(#clip67)" clip-rule="nonzero">
<g clip-path="url(#clip68)" clip-rule="nonzero">
<g clip-path="url(#clip69)" clip-rule="nonzero">
<g clip-path="url(#clip70)" clip-rule="nonzero">
<path style=" stroke:none;fill-rule:nonzero;fill:rgb(91.369629%,14.898682%,18.818665%);fill-opacity:1;" d="M 66.171875 160.351562 C 67.148438 157.859375 68.019531 155.316406 69.246094 152.9375 C 70.035156 151.410156 71.035156 149.789062 72.492188 148.796875 C 72.640625 148.695312 72.785156 148.601562 72.941406 148.519531 C 72.941406 148.519531 73.199219 148.378906 73.421875 148.28125 C 73.78125 148.128906 74.675781 148.144531 75.777344 148.40625 C 75.972656 148.253906 76.289062 148.058594 76.65625 148.105469 C 77.335938 148.179688 77.652344 149.023438 77.941406 149.496094 C 78.546875 150.480469 78.605469 151.796875 78.285156 153.25 C 77.542969 156.675781 74.757812 160.898438 72.261719 163.707031 C 72.019531 163.980469 71.765625 164.261719 71.511719 164.527344 C 67.660156 168.621094 62.441406 172.1875 56.671875 171.515625 C 56.054688 171.296875 55.832031 170.859375 56.691406 170.648438 C 58.089844 170.300781 59.515625 170.066406 60.71875 169.222656 C 61.589844 168.617188 62.300781 167.8125 62.914062 166.953125 C 64.34375 164.953125 65.277344 162.621094 66.171875 160.351562 "/>
</g>
</g>
</g>
</g>
<g clip-path="url(#clip71)" clip-rule="nonzero">
<g clip-path="url(#clip72)" clip-rule="nonzero">
<g clip-path="url(#clip73)" clip-rule="nonzero">
<g clip-path="url(#clip74)" clip-rule="nonzero">
<path style=" stroke:none;fill-rule:nonzero;fill:rgb(85.488892%,84.309387%,11.369324%);fill-opacity:1;" d="M 81.976562 161.421875 C 81.859375 160.332031 81.847656 159.289062 81.953125 158.347656 C 82.117188 156.894531 82.582031 155.6875 83.460938 154.945312 C 84.011719 154.480469 84.609375 154.210938 85.09375 154.058594 C 85.691406 153.863281 86.136719 153.847656 86.136719 153.847656 C 86.734375 153.820312 87.289062 153.933594 87.78125 154.109375 C 87.59375 154.136719 87.304688 154.195312 86.964844 154.300781 C 86.476562 154.453125 85.882812 154.722656 85.328125 155.1875 C 84.449219 155.929688 83.988281 157.136719 83.820312 158.589844 C 83.730469 159.363281 83.730469 160.214844 83.796875 161.105469 C 84.019531 164.128906 85.023438 167.609375 86.140625 170.246094 C 86.28125 170.585938 86.425781 170.914062 86.574219 171.25 C 88.882812 176.289062 92.636719 181.265625 98.222656 182.453125 C 98.15625 182.457031 98.089844 182.457031 98.027344 182.453125 C 91.507812 181.972656 87.242188 176.53125 84.714844 171.007812 C 84.5625 170.675781 84.421875 170.34375 84.277344 170.003906 C 83.222656 167.53125 82.269531 164.3125 81.976562 161.421875 "/>
</g>
</g>
</g>
</g>
<g clip-path="url(#clip75)" clip-rule="nonzero">
<g clip-path="url(#clip76)" clip-rule="nonzero">
<g clip-path="url(#clip77)" clip-rule="nonzero">
<g clip-path="url(#clip78)" clip-rule="nonzero">
<g clip-path="url(#clip79)" clip-rule="nonzero">
<g clip-path="url(#clip80)" clip-rule="nonzero">
<path style=" stroke:none;fill-rule:nonzero;fill:rgb(92.939758%,92.939758%,12.548828%);fill-opacity:1;" d="M 85.839844 170.277344 C 84.363281 166.796875 83.074219 161.871094 83.472656 158.378906 C 83.625 156.871094 84.101562 155.644531 84.996094 154.890625 C 85.292969 154.640625 86.125 153.734375 86.664062 153.984375 C 86.8125 154.054688 86.902344 154.1875 86.957031 154.304688 C 87.425781 154.292969 88.644531 154.339844 89.691406 155.203125 C 90.007812 155.460938 90.242188 155.738281 90.414062 155.996094 C 91.480469 157.410156 91.90625 159.273438 92.167969 160.988281 C 92.574219 163.648438 92.582031 166.359375 92.714844 169.042969 C 92.832031 171.492188 92.976562 174.015625 93.695312 176.382812 C 94.003906 177.402344 94.421875 178.394531 95.058594 179.253906 C 95.933594 180.445312 97.210938 181.117188 98.4375 181.902344 C 99.183594 182.386719 98.832031 182.722656 98.175781 182.742188 C 92.46875 181.523438 88.640625 176.445312 86.289062 171.304688 C 86.132812 170.960938 85.980469 170.621094 85.839844 170.277344 "/>
</g>
</g>
</g>
</g>
</g>
</g>
<g clip-path="url(#clip81)" clip-rule="nonzero">
<g clip-path="url(#clip82)" clip-rule="nonzero">
<g clip-path="url(#clip83)" clip-rule="nonzero">
<g clip-path="url(#clip84)" clip-rule="nonzero">
<path style=" stroke:none;fill-rule:nonzero;fill:rgb(16.468811%,54.119873%,23.919678%);fill-opacity:1;" d="M 89.925781 155.488281 C 89.433594 155.050781 88 153.757812 86.136719 153.847656 C 86.128906 153.078125 86.015625 151.753906 85.347656 150.296875 C 84.824219 149.15625 84.152344 148.355469 83.664062 147.851562 C 82.9375 147.589844 82.234375 147.878906 82.035156 148.351562 C 81.863281 148.75 82.097656 149.175781 82.140625 149.257812 C 82.605469 149.523438 83.476562 150.105469 84.164062 151.1875 C 84.925781 152.375 85.058594 153.523438 85.089844 154.054688 C 84.710938 154.167969 83.679688 154.542969 82.867188 155.589844 C 81.972656 156.746094 81.941406 157.976562 81.945312 158.351562 C 82.609375 157.789062 83.742188 156.964844 85.355469 156.460938 C 87.683594 155.722656 89.691406 156.050781 90.617188 156.269531 C 90.417969 155.980469 90.1875 155.722656 89.925781 155.488281 Z M 80.03125 146.191406 C 78.933594 147.070312 78.4375 148.117188 78.238281 148.613281 C 78.5625 148.84375 79.417969 149.527344 79.851562 150.777344 C 80.328125 152.160156 79.964844 153.339844 79.839844 153.691406 C 79.390625 152.941406 78.582031 151.800781 77.21875 150.804688 C 75.246094 149.359375 73.238281 149.03125 72.292969 148.941406 C 72.578125 148.746094 72.878906 148.574219 73.207031 148.429688 C 73.8125 148.171875 75.582031 147.40625 77.320312 148.089844 C 77.574219 147.359375 78.101562 146.144531 79.203125 144.976562 C 80.058594 144.070312 80.957031 143.523438 81.574219 143.199219 C 82.347656 143.1875 82.917969 143.683594 82.960938 144.195312 C 82.992188 144.625 82.636719 144.957031 82.566406 145.015625 C 82.046875 145.113281 81.03125 145.386719 80.03125 146.191406 "/>
</g>
</g>
</g>
</g>
<g clip-path="url(#clip85)" clip-rule="nonzero">
<g clip-path="url(#clip86)" clip-rule="nonzero">
<g clip-path="url(#clip87)" clip-rule="nonzero">
<g clip-path="url(#clip88)" clip-rule="nonzero">
<path style=" stroke:none;fill-rule:nonzero;fill:rgb(92.939758%,92.939758%,12.548828%);fill-opacity:1;" d="M 66.816406 162.738281 C 67.445312 161.125 67.914062 159.445312 68.519531 157.820312 C 68.804688 157.0625 69.105469 156.3125 69.445312 155.585938 C 69.804688 154.824219 70.277344 154.132812 70.644531 153.378906 C 70.710938 153.230469 70.515625 153.125 70.410156 153.230469 C 69.300781 154.390625 68.691406 156.1875 68.191406 157.671875 C 67.632812 159.316406 67.089844 161.015625 66.675781 162.699219 C 66.652344 162.777344 66.78125 162.8125 66.816406 162.738281 Z M 64.660156 166.507812 C 64.578125 166.597656 64.4375 166.484375 64.511719 166.386719 C 64.972656 165.773438 65.285156 165.0625 65.71875 164.4375 C 65.824219 164.296875 66.003906 164.449219 65.960938 164.589844 C 65.730469 165.3125 65.167969 165.960938 64.660156 166.507812 "/>
</g>
</g>
</g>
</g>
<g clip-path="url(#clip89)" clip-rule="nonzero">
<g clip-path="url(#clip90)" clip-rule="nonzero">
<g clip-path="url(#clip91)" clip-rule="nonzero">
<g clip-path="url(#clip92)" clip-rule="nonzero">
<path style=" stroke:none;fill-rule:nonzero;fill:rgb(91.369629%,14.898682%,18.818665%);fill-opacity:1;" d="M 93.414062 177.0625 C 93.238281 176.484375 93.042969 175.929688 92.949219 175.332031 C 92.917969 175.089844 92.527344 175.128906 92.570312 175.371094 C 92.683594 175.980469 92.90625 176.632812 93.300781 177.125 C 93.34375 177.183594 93.433594 177.136719 93.414062 177.0625 Z M 92.097656 173.210938 C 92.132812 173.296875 91.992188 173.347656 91.960938 173.261719 C 91.269531 171.625 90.921875 169.960938 90.792969 168.191406 C 90.730469 167.273438 90.714844 166.347656 90.710938 165.421875 C 90.710938 164.535156 90.695312 163.703125 90.339844 162.878906 C 90.246094 162.671875 90.578125 162.492188 90.691406 162.6875 C 91.097656 163.390625 91.136719 164.1875 91.128906 164.976562 C 91.132812 165.863281 91.125 166.742188 91.164062 167.628906 C 91.238281 169.503906 91.433594 171.445312 92.097656 173.210938 "/>
</g>
</g>
</g>
</g>
<g clip-path="url(#clip93)" clip-rule="nonzero">
<g clip-path="url(#clip94)" clip-rule="nonzero">
<g clip-path="url(#clip95)" clip-rule="nonzero">
<g clip-path="url(#clip96)" clip-rule="nonzero">
<path style=" stroke:none;fill-rule:nonzero;fill:rgb(82.348633%,16.079712%,14.509583%);fill-opacity:1;" d="M 140.144531 225.742188 C 138.792969 223.960938 137.648438 222.050781 137.089844 220.316406 C 136.644531 218.914062 136.570312 217.625 137.070312 216.59375 C 137.382812 215.945312 137.816406 215.453125 138.195312 215.113281 C 138.460938 214.871094 138.703125 214.710938 138.863281 214.609375 C 138.339844 214.640625 137.789062 214.765625 137.253906 215.042969 C 137.253906 215.042969 136.867188 215.242188 136.390625 215.660156 C 136.011719 216 135.578125 216.492188 135.265625 217.140625 C 134.773438 218.164062 134.84375 219.453125 135.292969 220.851562 C 135.90625 222.777344 137.238281 224.898438 138.769531 226.832031 C 139.863281 228.210938 141.0625 229.484375 142.191406 230.539062 C 142.460938 230.789062 142.726562 231.035156 143 231.273438 C 147.570312 235.273438 153.695312 238.488281 159.835938 236.25 C 159.902344 236.222656 159.964844 236.199219 160.019531 236.171875 C 154.425781 237.378906 148.96875 234.378906 144.796875 230.730469 C 144.523438 230.488281 144.257812 230.246094 143.988281 229.996094 C 142.714844 228.808594 141.34375 227.324219 140.144531 225.742188 "/>
</g>
</g>
</g>
</g>
<g clip-path="url(#clip97)" clip-rule="nonzero">
<g clip-path="url(#clip98)" clip-rule="nonzero">
<g clip-path="url(#clip99)" clip-rule="nonzero">
<g clip-path="url(#clip100)" clip-rule="nonzero">
<path style=" stroke:none;fill-rule:nonzero;fill:rgb(91.369629%,14.898682%,18.818665%);fill-opacity:1;" d="M 149.542969 226.164062 C 148.328125 223.777344 147.214844 221.328125 145.761719 219.078125 C 144.832031 217.636719 143.679688 216.117188 142.132812 215.273438 C 141.976562 215.1875 141.820312 215.109375 141.660156 215.039062 C 141.660156 215.039062 141.390625 214.921875 141.160156 214.851562 C 140.785156 214.734375 139.898438 214.832031 138.824219 215.199219 C 138.617188 215.070312 138.28125 214.902344 137.921875 214.984375 C 137.253906 215.125 137.023438 215.996094 136.777344 216.492188 C 136.269531 217.535156 136.339844 218.847656 136.800781 220.265625 C 137.867188 223.601562 141.046875 227.539062 143.804688 230.089844 C 144.070312 230.339844 144.347656 230.59375 144.628906 230.835938 C 148.859375 234.535156 154.398438 237.582031 160.074219 236.355469 C 160.667969 236.078125 160.847656 235.621094 159.972656 235.492188 C 158.546875 235.28125 157.101562 235.1875 155.824219 234.464844 C 154.898438 233.945312 154.113281 233.214844 153.421875 232.417969 C 151.804688 230.566406 150.652344 228.335938 149.542969 226.164062 "/>
</g>
</g>
</g>
</g>
<g clip-path="url(#clip101)" clip-rule="nonzero">
<g clip-path="url(#clip102)" clip-rule="nonzero">
<g clip-path="url(#clip103)" clip-rule="nonzero">
<g clip-path="url(#clip104)" clip-rule="nonzero">
<path style=" stroke:none;fill-rule:nonzero;fill:rgb(85.488892%,84.309387%,11.369324%);fill-opacity:1;" d="M 133.914062 228.753906 C 133.921875 227.65625 133.835938 226.621094 133.640625 225.691406 C 133.335938 224.261719 132.757812 223.105469 131.8125 222.453125 C 131.214844 222.042969 130.597656 221.832031 130.097656 221.726562 C 129.484375 221.589844 129.042969 221.617188 129.042969 221.617188 C 128.445312 221.648438 127.902344 221.816406 127.429688 222.039062 C 127.621094 222.046875 127.914062 222.074219 128.261719 222.144531 C 128.761719 222.253906 129.378906 222.460938 129.976562 222.871094 C 130.921875 223.527344 131.5 224.683594 131.804688 226.113281 C 131.96875 226.875 132.050781 227.722656 132.070312 228.613281 C 132.144531 231.648438 131.476562 235.207031 130.621094 237.9375 C 130.511719 238.289062 130.402344 238.632812 130.285156 238.980469 C 128.476562 244.21875 125.222656 249.535156 119.773438 251.257812 C 119.839844 251.253906 119.90625 251.246094 119.96875 251.234375 C 126.414062 250.128906 130.132812 244.300781 132.113281 238.558594 C 132.230469 238.214844 132.34375 237.871094 132.453125 237.519531 C 133.261719 234.957031 133.898438 231.660156 133.914062 228.753906 "/>
</g>
</g>
</g>
</g>
<g clip-path="url(#clip105)" clip-rule="nonzero">
<g clip-path="url(#clip106)" clip-rule="nonzero">
<g clip-path="url(#clip107)" clip-rule="nonzero">
<g clip-path="url(#clip108)" clip-rule="nonzero">
<g clip-path="url(#clip109)" clip-rule="nonzero">
<g clip-path="url(#clip110)" clip-rule="nonzero">
<path style=" stroke:none;fill-rule:nonzero;fill:rgb(92.939758%,92.939758%,12.548828%);fill-opacity:1;" d="M 130.921875 237.941406 C 132.054688 234.332031 132.863281 229.308594 132.128906 225.867188 C 131.832031 224.382812 131.242188 223.210938 130.277344 222.546875 C 129.957031 222.324219 129.042969 221.503906 128.53125 221.804688 C 128.386719 221.886719 128.3125 222.027344 128.269531 222.152344 C 127.800781 222.1875 126.589844 222.351562 125.632812 223.308594 C 125.34375 223.59375 125.136719 223.898438 124.992188 224.167969 C 124.066406 225.675781 123.820312 227.574219 123.726562 229.304688 C 123.578125 231.992188 123.832031 234.695312 123.960938 237.375 C 124.082031 239.828125 124.183594 242.351562 123.695312 244.777344 C 123.484375 245.820312 123.167969 246.847656 122.613281 247.765625 C 121.859375 249.035156 120.652344 249.828125 119.507812 250.730469 C 118.8125 251.28125 119.195312 251.585938 119.847656 251.539062 C 125.414062 249.773438 128.730469 244.351562 130.578125 239.003906 C 130.699219 238.652344 130.816406 238.300781 130.921875 237.941406 "/>
</g>
</g>
</g>
</g>
</g>
</g>
<g clip-path="url(#clip111)" clip-rule="nonzero">
<g clip-path="url(#clip112)" clip-rule="nonzero">
<g clip-path="url(#clip113)" clip-rule="nonzero">
<g clip-path="url(#clip114)" clip-rule="nonzero">
<path style=" stroke:none;fill-rule:nonzero;fill:rgb(16.468811%,54.119873%,23.919678%);fill-opacity:1;" d="M 125.429688 223.617188 C 125.878906 223.132812 127.179688 221.707031 129.042969 221.617188 C 128.972656 220.847656 128.957031 219.523438 129.484375 218.003906 C 129.894531 216.820312 130.484375 215.960938 130.921875 215.410156 C 131.621094 215.082031 132.347656 215.300781 132.59375 215.75 C 132.800781 216.128906 132.609375 216.574219 132.574219 216.660156 C 132.140625 216.972656 131.328125 217.636719 130.746094 218.777344 C 130.105469 220.03125 130.082031 221.191406 130.105469 221.722656 C 130.492188 221.800781 131.554688 222.070312 132.460938 223.035156 C 133.464844 224.097656 133.617188 225.324219 133.648438 225.695312 C 132.933594 225.199219 131.722656 224.488281 130.074219 224.140625 C 127.683594 223.632812 125.714844 224.152344 124.816406 224.460938 C 124.988281 224.152344 125.191406 223.875 125.429688 223.617188 Z M 134.375 213.40625 C 135.554688 214.175781 136.148438 215.171875 136.394531 215.644531 C 136.097656 215.902344 135.3125 216.667969 135 217.953125 C 134.660156 219.375 135.132812 220.515625 135.292969 220.851562 C 135.667969 220.066406 136.363281 218.847656 137.625 217.726562 C 139.445312 216.097656 141.414062 215.574219 142.347656 215.394531 C 142.042969 215.230469 141.726562 215.089844 141.390625 214.976562 C 140.757812 214.777344 138.921875 214.1875 137.261719 215.035156 C 136.9375 214.332031 136.292969 213.171875 135.082031 212.117188 C 134.144531 211.296875 133.199219 210.839844 132.554688 210.578125 C 131.78125 210.640625 131.261719 211.1875 131.269531 211.703125 C 131.28125 212.132812 131.667969 212.429688 131.742188 212.484375 C 132.269531 212.53125 133.304688 212.703125 134.375 213.40625 "/>
</g>
</g>
</g>
</g>
<g clip-path="url(#clip115)" clip-rule="nonzero">
<g clip-path="url(#clip116)" clip-rule="nonzero">
<g clip-path="url(#clip117)" clip-rule="nonzero">
<g clip-path="url(#clip118)" clip-rule="nonzero">
<path style=" stroke:none;fill-rule:nonzero;fill:rgb(92.939758%,92.939758%,12.548828%);fill-opacity:1;" d="M 149.132812 228.597656 C 148.347656 227.054688 147.71875 225.425781 146.960938 223.871094 C 146.601562 223.144531 146.230469 222.425781 145.824219 221.734375 C 145.390625 221.011719 144.855469 220.367188 144.417969 219.65625 C 144.332031 219.511719 144.519531 219.386719 144.632812 219.484375 C 145.847656 220.53125 146.628906 222.261719 147.273438 223.691406 C 147.984375 225.273438 148.691406 226.910156 149.269531 228.546875 C 149.296875 228.621094 149.171875 228.667969 149.132812 228.597656 Z M 151.640625 232.144531 C 151.730469 232.222656 151.859375 232.097656 151.777344 232.007812 C 151.261719 231.445312 150.878906 230.765625 150.386719 230.1875 C 150.269531 230.054688 150.101562 230.226562 150.160156 230.359375 C 150.460938 231.058594 151.082031 231.648438 151.640625 232.144531 "/>
</g>
</g>
</g>
</g>
<g clip-path="url(#clip119)" clip-rule="nonzero">
<g clip-path="url(#clip120)" clip-rule="nonzero">
<g clip-path="url(#clip121)" clip-rule="nonzero">
<g clip-path="url(#clip122)" clip-rule="nonzero">
<path style=" stroke:none;fill-rule:nonzero;fill:rgb(91.369629%,14.898682%,18.818665%);fill-opacity:1;" d="M 124.039062 245.425781 C 124.160156 244.832031 124.300781 244.265625 124.332031 243.65625 C 124.34375 243.414062 124.734375 243.417969 124.71875 243.660156 C 124.664062 244.28125 124.503906 244.949219 124.15625 245.476562 C 124.121094 245.539062 124.03125 245.503906 124.039062 245.425781 Z M 124.980469 241.464844 C 124.953125 241.554688 125.097656 241.59375 125.117188 241.503906 C 125.648438 239.808594 125.835938 238.117188 125.792969 236.34375 C 125.765625 235.421875 125.691406 234.5 125.605469 233.578125 C 125.519531 232.695312 125.457031 231.867188 125.730469 231.011719 C 125.800781 230.796875 125.457031 230.648438 125.359375 230.855469 C 125.023438 231.59375 125.0625 232.390625 125.144531 233.179688 C 125.230469 234.0625 125.320312 234.933594 125.367188 235.820312 C 125.476562 237.691406 125.46875 239.644531 124.980469 241.464844 "/>
</g>
</g>
</g>
</g>
<g clip-path="url(#clip123)" clip-rule="nonzero">
<g clip-path="url(#clip124)" clip-rule="nonzero">
<g clip-path="url(#clip125)" clip-rule="nonzero">
<g clip-path="url(#clip126)" clip-rule="nonzero">
<path style=" stroke:none;fill-rule:nonzero;fill:rgb(82.348633%,16.079712%,14.509583%);fill-opacity:1;" d="M 200.726562 181.351562 C 201.871094 179.429688 202.800781 177.40625 203.164062 175.617188 C 203.453125 174.179688 203.382812 172.886719 202.773438 171.917969 C 202.390625 171.304688 201.90625 170.867188 201.488281 170.570312 C 201.199219 170.359375 200.941406 170.226562 200.769531 170.140625 C 201.292969 170.117188 201.855469 170.179688 202.417969 170.394531 C 202.417969 170.394531 202.824219 170.550781 203.34375 170.914062 C 203.757812 171.210938 204.242188 171.648438 204.625 172.261719 C 205.230469 173.222656 205.300781 174.515625 205.007812 175.953125 C 204.609375 177.933594 203.523438 180.191406 202.214844 182.28125 C 201.28125 183.773438 200.226562 185.171875 199.222656 186.34375 C 198.984375 186.621094 198.746094 186.894531 198.5 187.164062 C 194.398438 191.644531 188.667969 195.511719 182.316406 193.964844 C 182.246094 193.949219 182.183594 193.933594 182.128906 193.910156 C 187.816406 194.492188 192.910156 190.910156 196.652344 186.820312 C 196.898438 186.550781 197.136719 186.28125 197.378906 186 C 198.511719 184.679688 199.710938 183.054688 200.726562 181.351562 "/>
</g>
</g>
</g>
</g>
<g clip-path="url(#clip127)" clip-rule="nonzero">
<g clip-path="url(#clip128)" clip-rule="nonzero">
<g clip-path="url(#clip129)" clip-rule="nonzero">
<g clip-path="url(#clip130)" clip-rule="nonzero">
<path style=" stroke:none;fill-rule:nonzero;fill:rgb(91.369629%,14.898682%,18.818665%);fill-opacity:1;" d="M 191.433594 182.804688 C 192.375 180.300781 193.214844 177.742188 194.40625 175.347656 C 195.171875 173.8125 196.152344 172.175781 197.59375 171.164062 C 197.738281 171.0625 197.886719 170.964844 198.039062 170.878906 C 198.039062 170.878906 198.292969 170.734375 198.515625 170.636719 C 198.875 170.476562 199.765625 170.480469 200.875 170.726562 C 201.066406 170.574219 201.378906 170.371094 201.75 170.414062 C 202.425781 170.476562 202.753906 171.316406 203.050781 171.785156 C 203.671875 172.761719 203.746094 174.074219 203.445312 175.535156 C 202.753906 178.972656 200.027344 183.234375 197.570312 186.074219 C 197.332031 186.351562 197.082031 186.636719 196.832031 186.90625 C 193.035156 191.050781 187.871094 194.691406 182.089844 194.101562 C 181.472656 193.890625 181.242188 193.453125 182.097656 193.230469 C 183.492188 192.863281 184.914062 192.609375 186.105469 191.75 C 186.96875 191.132812 187.667969 190.316406 188.269531 189.449219 C 189.671875 187.429688 190.570312 185.089844 191.433594 182.804688 "/>
</g>
</g>
</g>
</g>
<g clip-path="url(#clip131)" clip-rule="nonzero">
<g clip-path="url(#clip132)" clip-rule="nonzero">
<g clip-path="url(#clip133)" clip-rule="nonzero">
<g clip-path="url(#clip134)" clip-rule="nonzero">
<path style=" stroke:none;fill-rule:nonzero;fill:rgb(85.488892%,84.309387%,11.369324%);fill-opacity:1;" d="M 207.25 183.652344 C 207.121094 182.566406 207.09375 181.523438 207.1875 180.582031 C 207.332031 179.125 207.777344 177.914062 208.644531 177.160156 C 209.191406 176.683594 209.78125 176.410156 210.269531 176.246094 C 210.863281 176.042969 211.304688 176.023438 211.304688 176.023438 C 211.902344 175.988281 212.457031 176.09375 212.953125 176.261719 C 212.765625 176.292969 212.480469 176.351562 212.140625 176.464844 C 211.65625 176.625 211.0625 176.902344 210.515625 177.375 C 209.648438 178.128906 209.203125 179.339844 209.058594 180.796875 C 208.976562 181.574219 208.988281 182.421875 209.066406 183.3125 C 209.332031 186.335938 210.386719 189.796875 211.539062 192.417969 C 211.683594 192.757812 211.832031 193.085938 211.988281 193.417969 C 214.363281 198.421875 218.1875 203.347656 223.792969 204.460938 C 223.722656 204.464844 223.660156 204.460938 223.59375 204.457031 C 217.066406 204.070312 212.726562 198.6875 210.125 193.203125 C 209.96875 192.871094 209.820312 192.542969 209.671875 192.207031 C 208.585938 189.746094 207.585938 186.539062 207.25 183.652344 "/>
</g>
</g>
</g>
</g>
<g clip-path="url(#clip135)" clip-rule="nonzero">
<g clip-path="url(#clip136)" clip-rule="nonzero">
<g clip-path="url(#clip137)" clip-rule="nonzero">
<g clip-path="url(#clip138)" clip-rule="nonzero">
<g clip-path="url(#clip139)" clip-rule="nonzero">
<g clip-path="url(#clip140)" clip-rule="nonzero">
<path style=" stroke:none;fill-rule:nonzero;fill:rgb(92.939758%,92.939758%,12.548828%);fill-opacity:1;" d="M 211.238281 192.457031 C 209.714844 188.996094 208.359375 184.089844 208.707031 180.589844 C 208.839844 179.082031 209.296875 177.847656 210.179688 177.082031 C 210.472656 176.828125 211.292969 175.910156 211.835938 176.152344 C 211.988281 176.21875 212.078125 176.351562 212.132812 176.46875 C 212.601562 176.453125 213.820312 176.480469 214.882812 177.328125 C 215.203125 177.582031 215.4375 177.859375 215.613281 178.109375 C 216.699219 179.507812 217.152344 181.367188 217.4375 183.078125 C 217.882812 185.734375 217.925781 188.445312 218.097656 191.125 C 218.25 193.574219 218.425781 196.09375 219.179688 198.453125 C 219.503906 199.464844 219.933594 200.449219 220.582031 201.300781 C 221.472656 202.480469 222.761719 203.132812 224 203.90625 C 224.75 204.375 224.402344 204.71875 223.75 204.746094 C 218.023438 203.609375 214.128906 198.585938 211.703125 193.476562 C 211.539062 193.136719 211.386719 192.800781 211.238281 192.457031 "/>
</g>
</g>
</g>
</g>
</g>
</g>
<g clip-path="url(#clip141)" clip-rule="nonzero">
<g clip-path="url(#clip142)" clip-rule="nonzero">
<g clip-path="url(#clip143)" clip-rule="nonzero">
<g clip-path="url(#clip144)" clip-rule="nonzero">
<path style=" stroke:none;fill-rule:nonzero;fill:rgb(16.468811%,54.119873%,23.919678%);fill-opacity:1;" d="M 215.117188 177.613281 C 214.617188 177.179688 213.167969 175.910156 211.304688 176.023438 C 211.289062 175.253906 211.160156 173.933594 210.46875 172.484375 C 209.929688 171.347656 209.246094 170.558594 208.75 170.0625 C 208.019531 169.8125 207.324219 170.109375 207.128906 170.585938 C 206.964844 170.984375 207.203125 171.40625 207.25 171.488281 C 207.714844 171.746094 208.59375 172.320312 209.300781 173.390625 C 210.074219 174.566406 210.222656 175.714844 210.261719 176.246094 C 209.882812 176.367188 208.859375 176.753906 208.0625 177.808594 C 207.183594 178.980469 207.167969 180.210938 207.179688 180.585938 C 207.835938 180.011719 208.957031 179.171875 210.558594 178.644531 C 212.878906 177.875 214.890625 178.175781 215.820312 178.382812 C 215.617188 178.097656 215.382812 177.84375 215.117188 177.613281 Z M 205.097656 168.453125 C 204.011719 169.347656 203.53125 170.402344 203.335938 170.898438 C 203.660156 171.125 204.527344 171.796875 204.980469 173.039062 C 205.476562 174.417969 205.128906 175.601562 205.007812 175.953125 C 204.550781 175.214844 203.722656 174.078125 202.347656 173.105469 C 200.355469 171.6875 198.34375 171.386719 197.394531 171.308594 C 197.679688 171.109375 197.976562 170.9375 198.300781 170.785156 C 198.90625 170.519531 200.664062 169.730469 202.410156 170.386719 C 202.652344 169.65625 203.167969 168.433594 204.253906 167.25 C 205.09375 166.332031 205.984375 165.769531 206.597656 165.4375 C 207.371094 165.414062 207.945312 165.90625 207.996094 166.417969 C 208.035156 166.847656 207.683594 167.179688 207.613281 167.242188 C 207.09375 167.347656 206.082031 167.636719 205.097656 168.453125 "/>
</g>
</g>
</g>
</g>
<g clip-path="url(#clip145)" clip-rule="nonzero">
<g clip-path="url(#clip146)" clip-rule="nonzero">
<g clip-path="url(#clip147)" clip-rule="nonzero">
<g clip-path="url(#clip148)" clip-rule="nonzero">
<path style=" stroke:none;fill-rule:nonzero;fill:rgb(92.939758%,92.939758%,12.548828%);fill-opacity:1;" d="M 192.109375 185.179688 C 192.71875 183.5625 193.164062 181.875 193.746094 180.242188 C 194.019531 179.480469 194.308594 178.726562 194.640625 177.992188 C 194.988281 177.226562 195.453125 176.53125 195.808594 175.769531 C 195.875 175.621094 195.679688 175.519531 195.574219 175.625 C 194.480469 176.800781 193.894531 178.605469 193.414062 180.097656 C 192.882812 181.75 192.363281 183.457031 191.96875 185.144531 C 191.949219 185.222656 192.078125 185.257812 192.109375 185.179688 Z M 190.007812 188.980469 C 189.929688 189.070312 189.785156 188.960938 189.859375 188.863281 C 190.308594 188.242188 190.613281 187.53125 191.039062 186.898438 C 191.140625 186.753906 191.324219 186.90625 191.28125 187.042969 C 191.0625 187.773438 190.507812 188.425781 190.007812 188.980469 "/>
</g>
</g>
</g>
</g>
<g clip-path="url(#clip149)" clip-rule="nonzero">
<g clip-path="url(#clip150)" clip-rule="nonzero">
<g clip-path="url(#clip151)" clip-rule="nonzero">
<g clip-path="url(#clip152)" clip-rule="nonzero">
<path style=" stroke:none;fill-rule:nonzero;fill:rgb(91.369629%,14.898682%,18.818665%);fill-opacity:1;" d="M 218.90625 199.132812 C 218.722656 198.558594 218.519531 198.007812 218.417969 197.410156 C 218.382812 197.167969 217.996094 197.214844 218.039062 197.453125 C 218.160156 198.066406 218.390625 198.714844 218.796875 199.199219 C 218.839844 199.253906 218.925781 199.210938 218.90625 199.132812 Z M 217.535156 195.300781 C 217.574219 195.386719 217.433594 195.441406 217.402344 195.355469 C 216.6875 193.726562 216.3125 192.070312 216.164062 190.300781 C 216.089844 189.382812 216.058594 188.457031 216.042969 187.53125 C 216.03125 186.648438 216 185.816406 215.632812 184.992188 C 215.539062 184.789062 215.867188 184.605469 215.984375 184.796875 C 216.402344 185.496094 216.449219 186.292969 216.457031 187.082031 C 216.46875 187.96875 216.476562 188.847656 216.527344 189.734375 C 216.625 191.605469 216.847656 193.546875 217.535156 195.300781 "/>
</g>
</g>
</g>
</g>
</g>
</svg>
