<?xml version="1.0" encoding="UTF-8"?>
<svg xmlns="http://www.w3.org/2000/svg" xmlns:xlink="http://www.w3.org/1999/xlink" width="300pt" height="299.999988pt" viewBox="0 0 300 299.999988" version="1.2">
<g id="surface1">
<path style=" stroke:none;fill-rule:nonzero;fill:rgb(74.899292%,59.21936%,45.489502%);fill-opacity:1;" d="M 150 0 C 147.546875 0 145.089844 0.0585938 142.640625 0.179688 C 140.1875 0.300781 137.742188 0.480469 135.296875 0.722656 C 132.855469 0.964844 130.417969 1.261719 127.992188 1.625 C 125.5625 1.984375 123.144531 2.402344 120.738281 2.882812 C 118.328125 3.359375 115.933594 3.898438 113.554688 4.496094 C 111.171875 5.09375 108.804688 5.746094 106.457031 6.460938 C 104.109375 7.171875 101.777344 7.941406 99.464844 8.769531 C 97.15625 9.59375 94.867188 10.480469 92.597656 11.417969 C 90.328125 12.359375 88.085938 13.351562 85.867188 14.402344 C 83.648438 15.453125 81.457031 16.554688 79.289062 17.710938 C 77.125 18.867188 74.988281 20.078125 72.882812 21.339844 C 70.777344 22.601562 68.707031 23.914062 66.664062 25.28125 C 64.625 26.644531 62.617188 28.054688 60.644531 29.519531 C 58.671875 30.980469 56.738281 32.492188 54.839844 34.046875 C 52.945312 35.605469 51.085938 37.207031 49.265625 38.859375 C 47.445312 40.507812 45.667969 42.199219 43.933594 43.933594 C 42.199219 45.671875 40.507812 47.449219 38.855469 49.265625 C 37.207031 51.085938 35.605469 52.945312 34.046875 54.839844 C 32.492188 56.738281 30.980469 58.671875 29.519531 60.644531 C 28.054688 62.617188 26.644531 64.625 25.28125 66.664062 C 23.914062 68.707031 22.601562 70.777344 21.339844 72.882812 C 20.078125 74.992188 18.867188 77.125 17.710938 79.289062 C 16.554688 81.457031 15.453125 83.648438 14.402344 85.867188 C 13.351562 88.085938 12.359375 90.328125 11.417969 92.597656 C 10.480469 94.867188 9.59375 97.15625 8.769531 99.464844 C 7.941406 101.777344 7.171875 104.109375 6.457031 106.457031 C 5.746094 108.804688 5.09375 111.171875 4.496094 113.554688 C 3.898438 115.933594 3.359375 118.328125 2.882812 120.738281 C 2.402344 123.144531 1.984375 125.5625 1.625 127.992188 C 1.261719 130.417969 0.964844 132.855469 0.722656 135.296875 C 0.480469 137.742188 0.300781 140.1875 0.179688 142.640625 C 0.0585938 145.09375 0 147.546875 0 150 C 0 152.453125 0.0585938 154.910156 0.179688 157.359375 C 0.300781 159.8125 0.480469 162.257812 0.722656 164.703125 C 0.964844 167.144531 1.261719 169.582031 1.625 172.007812 C 1.984375 174.4375 2.402344 176.855469 2.882812 179.261719 C 3.359375 181.671875 3.898438 184.066406 4.496094 186.445312 C 5.09375 188.828125 5.746094 191.195312 6.457031 193.542969 C 7.171875 195.890625 7.941406 198.222656 8.769531 200.535156 C 9.59375 202.84375 10.480469 205.132812 11.417969 207.402344 C 12.359375 209.671875 13.351562 211.914062 14.402344 214.132812 C 15.453125 216.351562 16.554688 218.542969 17.710938 220.710938 C 18.867188 222.875 20.078125 225.011719 21.339844 227.117188 C 22.601562 229.222656 23.914062 231.292969 25.28125 233.335938 C 26.644531 235.375 28.054688 237.382812 29.519531 239.355469 C 30.980469 241.328125 32.492188 243.261719 34.046875 245.160156 C 35.605469 247.058594 37.207031 248.914062 38.855469 250.734375 C 40.507812 252.554688 42.199219 254.332031 43.933594 256.066406 C 45.667969 257.800781 47.445312 259.496094 49.265625 261.144531 C 51.085938 262.792969 52.945312 264.394531 54.839844 265.953125 C 56.738281 267.507812 58.671875 269.019531 60.644531 270.480469 C 62.617188 271.945312 64.625 273.355469 66.664062 274.71875 C 68.707031 276.085938 70.777344 277.398438 72.882812 278.660156 C 74.988281 279.921875 77.125 281.132812 79.289062 282.289062 C 81.457031 283.445312 83.648438 284.550781 85.867188 285.597656 C 88.085938 286.648438 90.328125 287.640625 92.597656 288.582031 C 94.867188 289.519531 97.15625 290.40625 99.464844 291.230469 C 101.777344 292.058594 104.109375 292.828125 106.457031 293.542969 C 108.804688 294.253906 111.171875 294.910156 113.554688 295.503906 C 115.933594 296.101562 118.328125 296.640625 120.738281 297.117188 C 123.144531 297.597656 125.5625 298.015625 127.992188 298.375 C 130.417969 298.738281 132.855469 299.039062 135.296875 299.277344 C 137.742188 299.519531 140.1875 299.699219 142.640625 299.820312 C 145.089844 299.941406 147.546875 300 150 300 C 152.453125 300 154.910156 299.941406 157.359375 299.820312 C 159.8125 299.699219 162.257812 299.519531 164.703125 299.277344 C 167.144531 299.039062 169.582031 298.738281 172.007812 298.375 C 174.4375 298.015625 176.855469 297.597656 179.261719 297.117188 C 181.671875 296.640625 184.066406 296.101562 186.445312 295.503906 C 188.828125 294.910156 191.195312 294.253906 193.542969 293.542969 C 195.890625 292.828125 198.222656 292.058594 200.535156 291.230469 C 202.84375 290.40625 205.132812 289.519531 207.402344 288.582031 C 209.671875 287.640625 211.914062 286.648438 214.132812 285.597656 C 216.351562 284.550781 218.542969 283.445312 220.710938 282.289062 C 222.875 281.132812 225.011719 279.921875 227.117188 278.660156 C 229.222656 277.398438 231.292969 276.085938 233.335938 274.71875 C 235.375 273.355469 237.382812 271.945312 239.355469 270.480469 C 241.328125 269.019531 243.261719 267.507812 245.160156 265.953125 C 247.054688 264.394531 248.914062 262.792969 250.734375 261.144531 C 252.550781 259.496094 254.332031 257.800781 256.066406 256.066406 C 257.800781 254.332031 259.492188 252.554688 261.144531 250.734375 C 262.792969 248.914062 264.394531 247.058594 265.953125 245.160156 C 267.507812 243.261719 269.019531 241.328125 270.480469 239.355469 C 271.945312 237.382812 273.355469 235.375 274.71875 233.335938 C 276.085938 231.292969 277.398438 229.222656 278.660156 227.117188 C 279.921875 225.011719 281.132812 222.875 282.289062 220.710938 C 283.445312 218.542969 284.546875 216.351562 285.597656 214.132812 C 286.648438 211.914062 287.640625 209.671875 288.582031 207.402344 C 289.519531 205.132812 290.40625 202.84375 291.230469 200.535156 C 292.058594 198.222656 292.828125 195.890625 293.539062 193.542969 C 294.253906 191.195312 294.90625 188.828125 295.503906 186.445312 C 296.101562 184.066406 296.640625 181.671875 297.117188 179.261719 C 297.597656 176.855469 298.015625 174.4375 298.375 172.007812 C 298.738281 169.582031 299.035156 167.144531 299.277344 164.703125 C 299.519531 162.257812 299.699219 159.8125 299.820312 157.359375 C 299.941406 154.910156 300 152.453125 300 150 C 300 147.546875 299.941406 145.09375 299.820312 142.640625 C 299.699219 140.1875 299.519531 137.742188 299.277344 135.296875 C 299.035156 132.855469 298.738281 130.417969 298.375 127.992188 C 298.015625 125.5625 297.597656 123.144531 297.117188 120.738281 C 296.640625 118.328125 296.101562 115.933594 295.503906 113.554688 C 294.90625 111.171875 294.253906 108.804688 293.539062 106.457031 C 292.828125 104.109375 292.058594 101.777344 291.230469 99.464844 C 290.40625 97.15625 289.519531 94.867188 288.582031 92.597656 C 287.640625 90.328125 286.648438 88.085938 285.597656 85.867188 C 284.546875 83.648438 283.445312 81.457031 282.289062 79.289062 C 281.132812 77.125 279.921875 74.992188 278.660156 72.882812 C 277.398438 70.777344 276.085938 68.707031 274.71875 66.664062 C 273.355469 64.625 271.945312 62.617188 270.480469 60.644531 C 269.019531 58.671875 267.507812 56.738281 265.953125 54.839844 C 264.394531 52.945312 262.792969 51.085938 261.144531 49.265625 C 259.492188 47.449219 257.800781 45.671875 256.066406 43.933594 C 254.332031 42.199219 252.550781 40.507812 250.734375 38.859375 C 248.914062 37.207031 247.054688 35.605469 245.160156 34.046875 C 243.261719 32.492188 241.328125 30.980469 239.355469 29.519531 C 237.382812 28.054688 235.375 26.644531 233.335938 25.28125 C 231.292969 23.914062 229.222656 22.601562 227.117188 21.339844 C 225.011719 20.078125 222.875 18.867188 220.710938 17.710938 C 218.542969 16.554688 216.351562 15.453125 214.132812 14.402344 C 211.914062 13.351562 209.671875 12.359375 207.402344 11.417969 C 205.132812 10.480469 202.84375 9.59375 200.535156 8.769531 C 198.222656 7.941406 195.890625 7.171875 193.542969 6.460938 C 191.195312 5.746094 188.828125 5.09375 186.445312 4.496094 C 184.066406 3.898438 181.671875 3.359375 179.261719 2.882812 C 176.855469 2.402344 174.4375 1.984375 172.007812 1.625 C 169.582031 1.261719 167.144531 0.964844 164.703125 0.722656 C 162.257812 0.480469 159.8125 0.300781 157.359375 0.179688 C 154.910156 0.0585938 152.453125 0 150 0 Z M 150 0 "/>
<path style=" stroke:none;fill-rule:nonzero;fill:rgb(98.81897%,91.369629%,61.959839%);fill-opacity:1;" d="M 150 9.5625 C 147.703125 9.5625 145.40625 9.621094 143.109375 9.734375 C 140.8125 9.847656 138.523438 10.015625 136.234375 10.242188 C 133.949219 10.464844 131.667969 10.746094 129.394531 11.085938 C 127.121094 11.421875 124.855469 11.8125 122.601562 12.261719 C 120.347656 12.710938 118.105469 13.214844 115.875 13.773438 C 113.648438 14.332031 111.433594 14.945312 109.234375 15.613281 C 107.035156 16.277344 104.851562 17 102.6875 17.773438 C 100.523438 18.546875 98.382812 19.375 96.257812 20.253906 C 94.132812 21.132812 92.035156 22.066406 89.957031 23.046875 C 87.878906 24.03125 85.824219 25.0625 83.800781 26.148438 C 81.773438 27.230469 79.773438 28.363281 77.800781 29.542969 C 75.832031 30.726562 73.890625 31.953125 71.976562 33.230469 C 70.066406 34.507812 68.1875 35.832031 66.34375 37.199219 C 64.496094 38.570312 62.683594 39.984375 60.910156 41.441406 C 59.132812 42.898438 57.390625 44.402344 55.6875 45.945312 C 53.984375 47.488281 52.320312 49.070312 50.695312 50.695312 C 49.070312 52.320312 47.488281 53.984375 45.945312 55.6875 C 44.402344 57.390625 42.898438 59.132812 41.441406 60.910156 C 39.984375 62.683594 38.570312 64.496094 37.199219 66.34375 C 35.832031 68.1875 34.507812 70.066406 33.230469 71.976562 C 31.953125 73.890625 30.726562 75.832031 29.542969 77.800781 C 28.363281 79.773438 27.230469 81.773438 26.148438 83.800781 C 25.0625 85.824219 24.03125 87.878906 23.046875 89.957031 C 22.066406 92.035156 21.132812 94.132812 20.253906 96.257812 C 19.375 98.382812 18.546875 100.523438 17.773438 102.6875 C 17 104.851562 16.277344 107.035156 15.613281 109.234375 C 14.945312 111.433594 14.332031 113.648438 13.773438 115.875 C 13.214844 118.105469 12.710938 120.347656 12.261719 122.601562 C 11.8125 124.855469 11.421875 127.121094 11.085938 129.394531 C 10.746094 131.667969 10.464844 133.949219 10.242188 136.234375 C 10.015625 138.523438 9.847656 140.8125 9.734375 143.109375 C 9.621094 145.40625 9.5625 147.703125 9.5625 150 C 9.5625 152.296875 9.621094 154.59375 9.734375 156.890625 C 9.847656 159.1875 10.015625 161.476562 10.242188 163.765625 C 10.464844 166.050781 10.746094 168.332031 11.085938 170.605469 C 11.421875 172.878906 11.8125 175.144531 12.261719 177.398438 C 12.710938 179.652344 13.214844 181.894531 13.773438 184.125 C 14.332031 186.351562 14.945312 188.566406 15.613281 190.765625 C 16.277344 192.964844 17 195.148438 17.773438 197.3125 C 18.546875 199.476562 19.375 201.617188 20.253906 203.742188 C 21.132812 205.867188 22.066406 207.964844 23.046875 210.042969 C 24.03125 212.121094 25.0625 214.175781 26.148438 216.199219 C 27.230469 218.226562 28.363281 220.226562 29.542969 222.199219 C 30.726562 224.167969 31.953125 226.109375 33.230469 228.023438 C 34.507812 229.933594 35.832031 231.8125 37.199219 233.65625 C 38.570312 235.503906 39.984375 237.316406 41.441406 239.089844 C 42.898438 240.867188 44.402344 242.609375 45.945312 244.3125 C 47.488281 246.015625 49.070312 247.679688 50.695312 249.304688 C 52.320312 250.929688 53.984375 252.511719 55.6875 254.054688 C 57.390625 255.597656 59.132812 257.101562 60.910156 258.558594 C 62.683594 260.015625 64.496094 261.429688 66.34375 262.800781 C 68.1875 264.167969 70.066406 265.492188 71.976562 266.769531 C 73.890625 268.046875 75.832031 269.273438 77.800781 270.457031 C 79.773438 271.636719 81.773438 272.769531 83.800781 273.851562 C 85.824219 274.9375 87.878906 275.96875 89.957031 276.953125 C 92.035156 277.933594 94.132812 278.867188 96.257812 279.746094 C 98.382812 280.625 100.523438 281.453125 102.6875 282.226562 C 104.851562 283 107.035156 283.722656 109.234375 284.386719 C 111.433594 285.054688 113.648438 285.667969 115.875 286.226562 C 118.105469 286.785156 120.347656 287.289062 122.601562 287.738281 C 124.855469 288.1875 127.121094 288.578125 129.394531 288.914062 C 131.667969 289.253906 133.949219 289.535156 136.234375 289.757812 C 138.523438 289.984375 140.8125 290.152344 143.109375 290.265625 C 145.40625 290.378906 147.703125 290.4375 150 290.4375 C 152.296875 290.4375 154.59375 290.378906 156.890625 290.265625 C 159.1875 290.152344 161.476562 289.984375 163.765625 289.757812 C 166.050781 289.535156 168.332031 289.253906 170.605469 288.914062 C 172.878906 288.578125 175.144531 288.1875 177.398438 287.738281 C 179.652344 287.289062 181.894531 286.785156 184.125 286.226562 C 186.351562 285.667969 188.566406 285.054688 190.765625 284.386719 C 192.964844 283.722656 195.148438 283 197.3125 282.226562 C 199.476562 281.453125 201.617188 280.625 203.742188 279.746094 C 205.867188 278.867188 207.964844 277.933594 210.042969 276.953125 C 212.121094 275.96875 214.175781 274.9375 216.199219 273.851562 C 218.226562 272.769531 220.226562 271.636719 222.199219 270.457031 C 224.167969 269.273438 226.109375 268.046875 228.023438 266.769531 C 229.933594 265.492188 231.8125 264.167969 233.65625 262.800781 C 235.503906 261.429688 237.316406 260.015625 239.089844 258.558594 C 240.867188 257.101562 242.609375 255.597656 244.3125 254.054688 C 246.015625 252.511719 247.679688 250.929688 249.304688 249.304688 C 250.929688 247.679688 252.511719 246.015625 254.054688 244.3125 C 255.597656 242.609375 257.101562 240.867188 258.558594 239.089844 C 260.015625 237.316406 261.429688 235.503906 262.800781 233.65625 C 264.167969 231.8125 265.492188 229.933594 266.769531 228.023438 C 268.042969 226.109375 269.273438 224.167969 270.457031 222.199219 C 271.636719 220.226562 272.769531 218.226562 273.851562 216.199219 C 274.9375 214.175781 275.96875 212.121094 276.953125 210.042969 C 277.933594 207.964844 278.867188 205.867188 279.746094 203.742188 C 280.625 201.617188 281.453125 199.476562 282.226562 197.3125 C 283 195.148438 283.722656 192.964844 284.386719 190.765625 C 285.054688 188.566406 285.667969 186.351562 286.226562 184.125 C 286.785156 181.894531 287.289062 179.652344 287.738281 177.398438 C 288.1875 175.144531 288.578125 172.878906 288.914062 170.605469 C 289.253906 168.332031 289.535156 166.050781 289.757812 163.765625 C 289.984375 161.476562 290.152344 159.1875 290.265625 156.890625 C 290.378906 154.59375 290.4375 152.296875 290.4375 150 C 290.4375 147.703125 290.378906 145.40625 290.265625 143.109375 C 290.152344 140.8125 289.984375 138.523438 289.757812 136.234375 C 289.535156 133.949219 289.253906 131.667969 288.914062 129.394531 C 288.578125 127.121094 288.1875 124.855469 287.738281 122.601562 C 287.289062 120.347656 286.785156 118.105469 286.226562 115.875 C 285.667969 113.648438 285.054688 111.433594 284.386719 109.234375 C 283.722656 107.035156 283 104.851562 282.226562 102.6875 C 281.453125 100.523438 280.625 98.382812 279.746094 96.257812 C 278.867188 94.132812 277.933594 92.035156 276.953125 89.957031 C 275.96875 87.878906 274.9375 85.824219 273.851562 83.800781 C 272.769531 81.773438 271.636719 79.773438 270.457031 77.800781 C 269.273438 75.832031 268.042969 73.890625 266.769531 71.976562 C 265.492188 70.066406 264.167969 68.1875 262.800781 66.34375 C 261.429688 64.496094 260.015625 62.683594 258.558594 60.910156 C 257.101562 59.132812 255.597656 57.390625 254.054688 55.6875 C 252.511719 53.984375 250.929688 52.320312 249.304688 50.695312 C 247.679688 49.070312 246.015625 47.488281 244.3125 45.945312 C 242.609375 44.402344 240.867188 42.898438 239.089844 41.441406 C 237.316406 39.984375 235.503906 38.570312 233.65625 37.199219 C 231.8125 35.832031 229.933594 34.507812 228.023438 33.230469 C 226.109375 31.953125 224.167969 30.726562 222.199219 29.542969 C 220.226562 28.363281 218.226562 27.230469 216.199219 26.148438 C 214.175781 25.0625 212.121094 24.03125 210.042969 23.046875 C 207.964844 22.066406 205.867188 21.132812 203.742188 20.253906 C 201.617188 19.375 199.476562 18.546875 197.3125 17.773438 C 195.148438 17 192.964844 16.277344 190.765625 15.613281 C 188.566406 14.945312 186.351562 14.332031 184.125 13.773438 C 181.894531 13.214844 179.652344 12.710938 177.398438 12.261719 C 175.144531 11.8125 172.878906 11.421875 170.605469 11.085938 C 168.332031 10.746094 166.050781 10.464844 163.765625 10.242188 C 161.476562 10.015625 159.1875 9.847656 156.890625 9.734375 C 154.59375 9.621094 152.296875 9.5625 150 9.5625 Z M 150 9.5625 "/>
<path style=" stroke:none;fill-rule:nonzero;fill:rgb(100%,96.078491%,80.389404%);fill-opacity:1;" d="M 150 14.242188 C 147.777344 14.242188 145.558594 14.296875 143.339844 14.40625 C 141.121094 14.515625 138.90625 14.679688 136.695312 14.898438 C 134.484375 15.113281 132.277344 15.386719 130.082031 15.710938 C 127.882812 16.039062 125.695312 16.417969 123.515625 16.851562 C 121.335938 17.285156 119.167969 17.773438 117.015625 18.3125 C 114.859375 18.851562 112.71875 19.445312 110.59375 20.089844 C 108.464844 20.734375 106.355469 21.429688 104.265625 22.179688 C 102.171875 22.925781 100.101562 23.726562 98.046875 24.578125 C 95.996094 25.425781 93.964844 26.328125 91.957031 27.277344 C 89.949219 28.226562 87.964844 29.226562 86.003906 30.273438 C 84.046875 31.320312 82.113281 32.414062 80.207031 33.558594 C 78.300781 34.699219 76.425781 35.886719 74.578125 37.121094 C 72.730469 38.355469 70.914062 39.636719 69.128906 40.960938 C 67.34375 42.28125 65.59375 43.648438 63.875 45.058594 C 62.160156 46.46875 60.476562 47.917969 58.832031 49.410156 C 57.183594 50.902344 55.578125 52.433594 54.003906 54.003906 C 52.433594 55.578125 50.902344 57.183594 49.410156 58.832031 C 47.917969 60.476562 46.46875 62.160156 45.058594 63.875 C 43.648438 65.59375 42.28125 67.34375 40.960938 69.128906 C 39.636719 70.914062 38.355469 72.730469 37.121094 74.578125 C 35.886719 76.425781 34.699219 78.300781 33.558594 80.207031 C 32.414062 82.113281 31.320312 84.046875 30.273438 86.003906 C 29.226562 87.964844 28.226562 89.949219 27.277344 91.957031 C 26.328125 93.964844 25.425781 95.996094 24.578125 98.046875 C 23.726562 100.101562 22.925781 102.171875 22.179688 104.265625 C 21.429688 106.355469 20.734375 108.464844 20.089844 110.59375 C 19.445312 112.71875 18.851562 114.859375 18.3125 117.015625 C 17.773438 119.167969 17.285156 121.335938 16.851562 123.515625 C 16.417969 125.695312 16.039062 127.882812 15.710938 130.082031 C 15.386719 132.277344 15.113281 134.484375 14.898438 136.695312 C 14.679688 138.90625 14.515625 141.121094 14.40625 143.339844 C 14.296875 145.558594 14.242188 147.777344 14.242188 150 C 14.242188 152.222656 14.296875 154.441406 14.40625 156.660156 C 14.515625 158.878906 14.679688 161.09375 14.898438 163.304688 C 15.113281 165.519531 15.386719 167.722656 15.710938 169.917969 C 16.039062 172.117188 16.417969 174.304688 16.851562 176.484375 C 17.285156 178.664062 17.773438 180.832031 18.3125 182.984375 C 18.851562 185.140625 19.445312 187.28125 20.089844 189.40625 C 20.734375 191.535156 21.429688 193.644531 22.179688 195.734375 C 22.925781 197.828125 23.726562 199.898438 24.578125 201.953125 C 25.425781 204.003906 26.328125 206.035156 27.277344 208.042969 C 28.226562 210.050781 29.226562 212.035156 30.273438 213.996094 C 31.320312 215.953125 32.414062 217.886719 33.558594 219.792969 C 34.699219 221.699219 35.886719 223.574219 37.121094 225.421875 C 38.355469 227.269531 39.636719 229.085938 40.960938 230.871094 C 42.28125 232.65625 43.648438 234.40625 45.058594 236.125 C 46.46875 237.839844 47.917969 239.523438 49.410156 241.167969 C 50.902344 242.816406 52.433594 244.421875 54.003906 245.996094 C 55.578125 247.566406 57.183594 249.097656 58.832031 250.589844 C 60.476562 252.082031 62.160156 253.53125 63.875 254.941406 C 65.59375 256.351562 67.34375 257.71875 69.128906 259.039062 C 70.914062 260.363281 72.730469 261.644531 74.578125 262.878906 C 76.425781 264.113281 78.300781 265.300781 80.207031 266.441406 C 82.113281 267.585938 84.046875 268.679688 86.003906 269.726562 C 87.964844 270.773438 89.949219 271.773438 91.957031 272.722656 C 93.964844 273.671875 95.996094 274.574219 98.046875 275.421875 C 100.101562 276.273438 102.171875 277.074219 104.265625 277.820312 C 106.355469 278.570312 108.464844 279.265625 110.59375 279.910156 C 112.71875 280.554688 114.859375 281.148438 117.015625 281.6875 C 119.167969 282.226562 121.335938 282.714844 123.515625 283.148438 C 125.695312 283.582031 127.882812 283.960938 130.082031 284.289062 C 132.277344 284.613281 134.484375 284.886719 136.695312 285.101562 C 138.90625 285.320312 141.121094 285.484375 143.339844 285.59375 C 145.558594 285.703125 147.777344 285.757812 150 285.757812 C 152.222656 285.757812 154.441406 285.703125 156.660156 285.59375 C 158.878906 285.484375 161.09375 285.320312 163.304688 285.101562 C 165.515625 284.886719 167.722656 284.613281 169.917969 284.289062 C 172.117188 283.960938 174.304688 283.582031 176.484375 283.148438 C 178.664062 282.714844 180.832031 282.226562 182.984375 281.6875 C 185.140625 281.148438 187.28125 280.554688 189.40625 279.910156 C 191.535156 279.265625 193.644531 278.570312 195.734375 277.820312 C 197.828125 277.074219 199.898438 276.273438 201.953125 275.421875 C 204.003906 274.574219 206.035156 273.671875 208.042969 272.722656 C 210.050781 271.773438 212.035156 270.773438 213.996094 269.726562 C 215.953125 268.679688 217.886719 267.585938 219.792969 266.441406 C 221.699219 265.300781 223.574219 264.113281 225.421875 262.878906 C 227.269531 261.644531 229.085938 260.363281 230.871094 259.039062 C 232.65625 257.71875 234.40625 256.351562 236.125 254.941406 C 237.839844 253.53125 239.523438 252.082031 241.167969 250.589844 C 242.816406 249.097656 244.421875 247.566406 245.996094 245.996094 C 247.566406 244.421875 249.097656 242.816406 250.589844 241.167969 C 252.082031 239.523438 253.53125 237.839844 254.941406 236.125 C 256.351562 234.40625 257.71875 232.65625 259.039062 230.871094 C 260.363281 229.085938 261.644531 227.269531 262.878906 225.421875 C 264.113281 223.574219 265.300781 221.699219 266.441406 219.792969 C 267.585938 217.886719 268.679688 215.953125 269.726562 213.996094 C 270.773438 212.035156 271.773438 210.050781 272.722656 208.042969 C 273.671875 206.035156 274.574219 204.003906 275.421875 201.953125 C 276.273438 199.898438 277.074219 197.828125 277.820312 195.734375 C 278.570312 193.644531 279.265625 191.535156 279.910156 189.40625 C 280.554688 187.28125 281.148438 185.140625 281.6875 182.984375 C 282.226562 180.832031 282.714844 178.664062 283.148438 176.484375 C 283.582031 174.304688 283.960938 172.117188 284.289062 169.917969 C 284.613281 167.722656 284.886719 165.519531 285.101562 163.304688 C 285.320312 161.09375 285.484375 158.878906 285.59375 156.660156 C 285.703125 154.441406 285.757812 152.222656 285.757812 150 C 285.757812 147.777344 285.703125 145.558594 285.59375 143.339844 C 285.484375 141.121094 285.320312 138.90625 285.101562 136.695312 C 284.886719 134.484375 284.613281 132.277344 284.289062 130.082031 C 283.960938 127.882812 283.582031 125.695312 283.148438 123.515625 C 282.714844 121.335938 282.226562 119.167969 281.6875 117.015625 C 281.148438 114.859375 280.554688 112.71875 279.910156 110.59375 C 279.265625 108.464844 278.570312 106.355469 277.820312 104.265625 C 277.074219 102.171875 276.273438 100.101562 275.421875 98.046875 C 274.574219 95.996094 273.671875 93.964844 272.722656 91.957031 C 271.773438 89.949219 270.773438 87.964844 269.726562 86.003906 C 268.679688 84.046875 267.585938 82.113281 266.441406 80.207031 C 265.300781 78.300781 264.113281 76.425781 262.878906 74.578125 C 261.644531 72.730469 260.363281 70.914062 259.039062 69.128906 C 257.71875 67.34375 256.351562 65.59375 254.941406 63.875 C 253.53125 62.160156 252.082031 60.476562 250.589844 58.832031 C 249.097656 57.183594 247.566406 55.578125 245.996094 54.003906 C 244.421875 52.433594 242.816406 50.902344 241.167969 49.410156 C 239.523438 47.917969 237.839844 46.46875 236.125 45.058594 C 234.40625 43.648438 232.65625 42.28125 230.871094 40.960938 C 229.085938 39.636719 227.269531 38.355469 225.421875 37.121094 C 223.574219 35.886719 221.699219 34.699219 219.792969 33.558594 C 217.886719 32.414062 215.953125 31.320312 213.996094 30.273438 C 212.035156 29.226562 210.050781 28.226562 208.042969 27.277344 C 206.035156 26.328125 204.003906 25.425781 201.953125 24.578125 C 199.898438 23.726562 197.828125 22.925781 195.734375 22.179688 C 193.644531 21.429688 191.535156 20.734375 189.40625 20.089844 C 187.28125 19.445312 185.140625 18.851562 182.984375 18.3125 C 180.832031 17.773438 178.664062 17.285156 176.484375 16.851562 C 174.304688 16.417969 172.117188 16.039062 169.917969 15.710938 C 167.722656 15.386719 165.515625 15.113281 163.304688 14.898438 C 161.09375 14.679688 158.878906 14.515625 156.660156 14.40625 C 154.441406 14.296875 152.222656 14.242188 150 14.242188 Z M 150 14.242188 "/>
<path style=" stroke:none;fill-rule:nonzero;fill:rgb(87.059021%,57.249451%,6.269836%);fill-opacity:1;" d="M 95.695312 40.054688 L 99.792969 41.90625 L 85.003906 74.648438 L 80.902344 72.792969 Z M 95.695312 40.054688 "/>
<path style=" stroke:none;fill-rule:nonzero;fill:rgb(96.859741%,70.979309%,9.408569%);fill-opacity:1;" d="M 66.496094 50.71875 L 70.902344 51.636719 L 63.582031 86.808594 L 59.175781 85.894531 Z M 66.496094 50.71875 "/>
<path style=" stroke:none;fill-rule:nonzero;fill:rgb(93.728638%,79.998779%,32.939148%);fill-opacity:1;" d="M 110.210938 21.976562 L 114.695312 22.351562 L 111.722656 58.152344 L 107.238281 57.78125 Z M 110.210938 21.976562 "/>
<path style=" stroke:none;fill-rule:nonzero;fill:rgb(93.728638%,79.998779%,32.939148%);fill-opacity:1;" d="M 100.386719 69.605469 L 103.804688 71.152344 L 88.984375 103.957031 L 85.566406 102.414062 Z M 100.386719 69.605469 "/>
<path style=" stroke:none;fill-rule:nonzero;fill:rgb(87.059021%,57.249451%,6.269836%);fill-opacity:1;" d="M 122.578125 116.011719 L 119.179688 113.0625 L 142.714844 85.921875 L 146.113281 88.867188 Z M 122.578125 116.011719 "/>
<path style=" stroke:none;fill-rule:nonzero;fill:rgb(96.859741%,70.979309%,9.408569%);fill-opacity:1;" d="M 153.605469 114.140625 L 149.648438 112.003906 L 166.71875 80.394531 L 170.679688 82.53125 Z M 153.605469 114.140625 "/>
<path style=" stroke:none;fill-rule:nonzero;fill:rgb(93.728638%,79.998779%,32.939148%);fill-opacity:1;" d="M 103.496094 129.179688 L 99.308594 127.542969 L 112.394531 94.085938 L 116.585938 95.726562 Z M 103.496094 129.179688 "/>
<path style=" stroke:none;fill-rule:nonzero;fill:rgb(93.728638%,79.998779%,32.939148%);fill-opacity:1;" d="M 126.539062 86.351562 L 123.707031 83.894531 L 147.292969 56.699219 L 150.125 59.15625 Z M 126.539062 86.351562 "/>
<path style=" stroke:none;fill-rule:nonzero;fill:rgb(87.059021%,57.249451%,6.269836%);fill-opacity:1;" d="M 72.125 152.335938 L 76.226562 154.1875 L 61.4375 186.925781 L 57.335938 185.074219 Z M 72.125 152.335938 "/>
<path style=" stroke:none;fill-rule:nonzero;fill:rgb(96.859741%,70.979309%,9.408569%);fill-opacity:1;" d="M 42.929688 163 L 47.335938 163.914062 L 40.015625 199.089844 L 35.609375 198.171875 Z M 42.929688 163 "/>
<path style=" stroke:none;fill-rule:nonzero;fill:rgb(93.728638%,79.998779%,32.939148%);fill-opacity:1;" d="M 86.644531 134.257812 L 91.128906 134.628906 L 88.15625 170.429688 L 83.667969 170.058594 Z M 86.644531 134.257812 "/>
<path style=" stroke:none;fill-rule:nonzero;fill:rgb(93.728638%,79.998779%,32.939148%);fill-opacity:1;" d="M 76.820312 181.886719 L 80.238281 183.429688 L 65.417969 216.238281 L 62 214.691406 Z M 76.820312 181.886719 "/>
<path style=" stroke:none;fill-rule:nonzero;fill:rgb(87.059021%,57.249451%,6.269836%);fill-opacity:1;" d="M 35.441406 153.382812 L 31.554688 151.117188 L 49.664062 120.089844 L 53.546875 122.355469 Z M 35.441406 153.382812 "/>
<path style=" stroke:none;fill-rule:nonzero;fill:rgb(96.859741%,70.979309%,9.408569%);fill-opacity:1;" d="M 65.585938 145.804688 L 61.300781 144.4375 L 72.226562 110.214844 L 76.515625 111.582031 Z M 65.585938 145.804688 "/>
<path style=" stroke:none;fill-rule:nonzero;fill:rgb(93.728638%,79.998779%,32.939148%);fill-opacity:1;" d="M 19.128906 169.859375 L 14.707031 169.023438 L 21.375 133.722656 L 25.796875 134.558594 Z M 19.128906 169.859375 "/>
<path style=" stroke:none;fill-rule:nonzero;fill:rgb(93.728638%,79.998779%,32.939148%);fill-opacity:1;" d="M 33.847656 123.507812 L 30.605469 121.617188 L 48.753906 90.523438 L 51.992188 92.414062 Z M 33.847656 123.507812 "/>
<path style=" stroke:none;fill-rule:nonzero;fill:rgb(87.059021%,57.249451%,6.269836%);fill-opacity:1;" d="M 194.371094 60.1875 L 191.246094 63.421875 L 165.40625 38.464844 L 168.53125 35.230469 Z M 194.371094 60.1875 "/>
<path style=" stroke:none;fill-rule:nonzero;fill:rgb(96.859741%,70.979309%,9.408569%);fill-opacity:1;" d="M 194.167969 29.101562 L 191.820312 32.941406 L 161.171875 14.199219 L 163.519531 10.363281 Z M 194.167969 29.101562 "/>
<path style=" stroke:none;fill-rule:nonzero;fill:rgb(93.728638%,79.998779%,32.939148%);fill-opacity:1;" d="M 206.503906 79.945312 L 204.640625 84.039062 L 171.933594 69.179688 L 173.796875 65.082031 Z M 206.503906 79.945312 "/>
<path style=" stroke:none;fill-rule:nonzero;fill:rgb(93.728638%,79.998779%,32.939148%);fill-opacity:1;" d="M 164.972656 54.644531 L 162.367188 57.34375 L 136.472656 32.335938 L 139.078125 29.636719 Z M 164.972656 54.644531 "/>
<path style=" stroke:none;fill-rule:nonzero;fill:rgb(87.059021%,57.249451%,6.269836%);fill-opacity:1;" d="M 221.574219 251.457031 L 217.269531 250.148438 L 227.722656 215.777344 L 232.027344 217.085938 Z M 221.574219 251.457031 "/>
<path style=" stroke:none;fill-rule:nonzero;fill:rgb(96.859741%,70.979309%,9.408569%);fill-opacity:1;" d="M 249.15625 237.125 L 244.667969 236.78125 L 247.402344 200.960938 L 251.886719 201.300781 Z M 249.15625 237.125 "/>
<path style=" stroke:none;fill-rule:nonzero;fill:rgb(93.728638%,79.998779%,32.939148%);fill-opacity:1;" d="M 209.503906 271.253906 L 205.007812 271.460938 L 203.351562 235.574219 L 207.84375 235.367188 Z M 209.503906 271.253906 "/>
<path style=" stroke:none;fill-rule:nonzero;fill:rgb(93.728638%,79.998779%,32.939148%);fill-opacity:1;" d="M 213.125 222.753906 L 209.535156 221.664062 L 220.011719 187.222656 L 223.601562 188.3125 Z M 213.125 222.753906 "/>
<path style=" stroke:none;fill-rule:nonzero;fill:rgb(93.728638%,79.998779%,32.939148%);fill-opacity:1;" d="M 202.367188 164.078125 L 206.730469 165.164062 L 198.058594 200.027344 L 193.691406 198.941406 Z M 202.367188 164.078125 "/>
<path style=" stroke:none;fill-rule:nonzero;fill:rgb(87.059021%,57.249451%,6.269836%);fill-opacity:1;" d="M 230.496094 137.078125 L 226.191406 135.769531 L 236.644531 101.398438 L 240.949219 102.710938 Z M 230.496094 137.078125 "/>
<path style=" stroke:none;fill-rule:nonzero;fill:rgb(96.859741%,70.979309%,9.408569%);fill-opacity:1;" d="M 258.078125 122.746094 L 253.589844 122.402344 L 256.324219 86.582031 L 260.808594 86.925781 Z M 258.078125 122.746094 "/>
<path style=" stroke:none;fill-rule:nonzero;fill:rgb(93.728638%,79.998779%,32.939148%);fill-opacity:1;" d="M 218.425781 156.875 L 213.929688 157.082031 L 212.273438 121.195312 L 216.765625 120.988281 Z M 218.425781 156.875 "/>
<path style=" stroke:none;fill-rule:nonzero;fill:rgb(93.728638%,79.998779%,32.939148%);fill-opacity:1;" d="M 222.046875 108.378906 L 218.457031 107.285156 L 228.9375 72.84375 L 232.523438 73.9375 Z M 222.046875 108.378906 "/>
<path style=" stroke:none;fill-rule:nonzero;fill:rgb(87.059021%,57.249451%,6.269836%);fill-opacity:1;" d="M 266.742188 131.316406 L 270.886719 133.066406 L 256.921875 166.167969 L 252.777344 164.417969 Z M 266.742188 131.316406 "/>
<path style=" stroke:none;fill-rule:nonzero;fill:rgb(96.859741%,70.979309%,9.408569%);fill-opacity:1;" d="M 237.820312 142.710938 L 242.246094 143.515625 L 235.816406 178.863281 L 231.386719 178.058594 Z M 237.820312 142.710938 "/>
<path style=" stroke:none;fill-rule:nonzero;fill:rgb(93.728638%,79.998779%,32.939148%);fill-opacity:1;" d="M 280.800781 112.878906 L 285.292969 113.140625 L 283.21875 149.003906 L 278.726562 148.746094 Z M 280.800781 112.878906 "/>
<path style=" stroke:none;fill-rule:nonzero;fill:rgb(93.728638%,79.998779%,32.939148%);fill-opacity:1;" d="M 272.175781 160.742188 L 275.632812 162.199219 L 261.636719 195.367188 L 258.183594 193.910156 Z M 272.175781 160.742188 "/>
<path style=" stroke:none;fill-rule:nonzero;fill:rgb(96.859741%,70.979309%,9.408569%);fill-opacity:1;" d="M 125.328125 274.992188 L 127.160156 270.882812 L 159.96875 285.523438 L 158.132812 289.632812 Z M 125.328125 274.992188 "/>
<path style=" stroke:none;fill-rule:nonzero;fill:rgb(87.059021%,57.249451%,6.269836%);fill-opacity:1;" d="M 185.140625 179.59375 L 188.890625 182.082031 L 169.039062 212.023438 L 165.289062 209.539062 Z M 185.140625 179.59375 "/>
<path style=" stroke:none;fill-rule:nonzero;fill:rgb(96.859741%,70.979309%,9.408569%);fill-opacity:1;" d="M 154.609375 185.441406 L 158.808594 187.050781 L 145.949219 220.59375 L 141.746094 218.984375 Z M 154.609375 185.441406 "/>
<path style=" stroke:none;fill-rule:nonzero;fill:rgb(93.728638%,79.998779%,32.939148%);fill-opacity:1;" d="M 185.035156 209.515625 L 188.160156 211.585938 L 168.269531 241.59375 L 165.144531 239.519531 Z M 185.035156 209.515625 "/>
<path style=" stroke:none;fill-rule:nonzero;fill:rgb(87.059021%,57.249451%,6.269836%);fill-opacity:1;" d="M 121.125 244.195312 L 123.808594 240.582031 L 152.648438 262.003906 L 149.964844 265.617188 Z M 121.125 244.195312 "/>
<path style=" stroke:none;fill-rule:nonzero;fill:rgb(93.728638%,79.998779%,32.939148%);fill-opacity:1;" d="M 106.550781 226.160156 L 107.871094 221.859375 L 142.21875 232.386719 L 140.898438 236.6875 Z M 106.550781 226.160156 "/>
<path style=" stroke:none;fill-rule:nonzero;fill:rgb(93.728638%,79.998779%,32.939148%);fill-opacity:1;" d="M 151 245.902344 L 153.238281 242.894531 L 182.136719 264.363281 L 179.898438 267.371094 Z M 151 245.902344 "/>
<path style=" stroke:none;fill-rule:nonzero;fill:rgb(87.059021%,57.249451%,6.269836%);fill-opacity:1;" d="M 201.765625 103.289062 L 204.640625 106.75 L 177 129.703125 L 174.125 126.242188 Z M 201.765625 103.289062 "/>
<path style=" stroke:none;fill-rule:nonzero;fill:rgb(96.859741%,70.979309%,9.408569%);fill-opacity:1;" d="M 170.84375 100.085938 L 174.40625 102.839844 L 152.417969 131.253906 L 148.859375 128.5 Z M 170.84375 100.085938 "/>
<path style=" stroke:none;fill-rule:nonzero;fill:rgb(93.728638%,79.998779%,32.939148%);fill-opacity:1;" d="M 193.039062 131.910156 L 195.4375 134.792969 L 167.742188 157.792969 L 165.34375 154.910156 Z M 193.039062 131.910156 "/>
<path style=" stroke:none;fill-rule:nonzero;fill:rgb(87.059021%,57.249451%,6.269836%);fill-opacity:1;" d="M 121.847656 146.695312 L 125.457031 144.007812 L 146.894531 172.835938 L 143.285156 175.523438 Z M 121.847656 146.695312 "/>
<path style=" stroke:none;fill-rule:nonzero;fill:rgb(93.728638%,79.998779%,32.939148%);fill-opacity:1;" d="M 113.089844 125.226562 L 115.59375 121.488281 L 145.449219 141.46875 L 142.945312 145.210938 Z M 113.089844 125.226562 "/>
<path style=" stroke:none;fill-rule:nonzero;fill:rgb(93.728638%,79.998779%,32.939148%);fill-opacity:1;" d="M 149.960938 156.941406 L 152.972656 154.707031 L 174.453125 183.59375 L 171.445312 185.832031 Z M 149.960938 156.941406 "/>
<path style=" stroke:none;fill-rule:nonzero;fill:rgb(96.859741%,70.979309%,9.408569%);fill-opacity:1;" d="M 213.820312 71.367188 L 209.332031 71.027344 L 212.0625 35.203125 L 216.550781 35.546875 Z M 213.820312 71.367188 "/>
<path style=" stroke:none;fill-rule:nonzero;fill:rgb(93.728638%,79.998779%,32.939148%);fill-opacity:1;" d="M 250.730469 79.253906 L 247.566406 81.261719 L 228.265625 50.871094 L 231.429688 48.863281 Z M 250.730469 79.253906 "/>
<path style=" stroke:none;fill-rule:nonzero;fill:rgb(87.059021%,57.249451%,6.269836%);fill-opacity:1;" d="M 131.351562 181.027344 L 135.453125 182.882812 L 120.660156 215.621094 L 116.558594 213.769531 Z M 131.351562 181.027344 "/>
<path style=" stroke:none;fill-rule:nonzero;fill:rgb(96.859741%,70.979309%,9.408569%);fill-opacity:1;" d="M 96.433594 188.75 L 100.421875 190.828125 L 83.820312 222.6875 L 79.832031 220.609375 Z M 96.433594 188.75 "/>
<path style=" stroke:none;fill-rule:nonzero;fill:rgb(87.059021%,57.249451%,6.269836%);fill-opacity:1;" d="M 56.46875 243.304688 L 59.546875 240.019531 L 85.753906 264.59375 L 82.679688 267.875 Z M 56.46875 243.304688 "/>
<path style=" stroke:none;fill-rule:nonzero;fill:rgb(93.728638%,79.998779%,32.939148%);fill-opacity:1;" d="M 44.046875 223.726562 L 45.847656 219.605469 L 78.773438 233.980469 L 76.972656 238.101562 Z M 44.046875 223.726562 "/>
<path style=" stroke:none;fill-rule:nonzero;fill:rgb(93.728638%,79.998779%,32.939148%);fill-opacity:1;" d="M 85.957031 248.40625 L 88.519531 245.671875 L 114.785156 270.292969 L 112.21875 273.03125 Z M 85.957031 248.40625 "/>
<path style=" stroke:none;fill-rule:nonzero;fill:rgb(96.859741%,70.979309%,9.408569%);fill-opacity:1;" d="M 116.5625 183.867188 L 112.148438 184.75 L 105.089844 149.523438 L 109.5 148.640625 Z M 116.5625 183.867188 "/>
<path style=" stroke:none;fill-rule:nonzero;fill:rgb(100%,98.039246%,93.328857%);fill-opacity:1;" d="M 240.765625 232.441406 L 236.273438 232.21875 L 238.054688 196.335938 L 242.550781 196.558594 Z M 240.765625 232.441406 "/>
<path style=" stroke:none;fill-rule:nonzero;fill:rgb(100%,98.039246%,67.83905%);fill-opacity:1;" d="M 264.035156 211.832031 L 259.601562 212.589844 L 253.539062 177.179688 L 257.976562 176.421875 Z M 264.035156 211.832031 "/>
<path style=" stroke:none;fill-rule:nonzero;fill:rgb(100%,96.078491%,80.389404%);fill-opacity:1;" d="M 233.875 254.578125 L 229.5625 255.871094 L 219.226562 221.464844 L 223.539062 220.171875 Z M 233.875 254.578125 "/>
<path style=" stroke:none;fill-rule:nonzero;fill:rgb(100%,96.078491%,80.389404%);fill-opacity:1;" d="M 225.582031 206.660156 L 221.835938 206.472656 L 223.625 170.515625 L 227.371094 170.703125 Z M 225.582031 206.660156 "/>
<path style=" stroke:none;fill-rule:nonzero;fill:rgb(100%,98.039246%,93.328857%);fill-opacity:1;" d="M 187.949219 171.59375 L 192.195312 173.09375 L 180.222656 206.964844 L 175.980469 205.464844 Z M 187.949219 171.59375 "/>
<path style=" stroke:none;fill-rule:nonzero;fill:rgb(100%,98.039246%,67.83905%);fill-opacity:1;" d="M 159.757812 184.6875 L 164.226562 185.230469 L 159.90625 220.894531 L 155.4375 220.355469 Z M 159.757812 184.6875 "/>
<path style=" stroke:none;fill-rule:nonzero;fill:rgb(100%,96.078491%,80.389404%);fill-opacity:1;" d="M 200.886719 152.355469 L 205.386719 152.347656 L 205.449219 188.273438 L 200.949219 188.28125 Z M 200.886719 152.355469 "/>
<path style=" stroke:none;fill-rule:nonzero;fill:rgb(100%,96.078491%,80.389404%);fill-opacity:1;" d="M 195.117188 200.644531 L 198.652344 201.894531 L 186.65625 235.835938 L 183.121094 234.585938 Z M 195.117188 200.644531 "/>
<path style=" stroke:none;fill-rule:nonzero;fill:rgb(100%,98.039246%,93.328857%);fill-opacity:1;" d="M 221.609375 119.328125 L 217.113281 119.105469 L 218.898438 83.222656 L 223.390625 83.445312 Z M 221.609375 119.328125 "/>
<path style=" stroke:none;fill-rule:nonzero;fill:rgb(100%,98.039246%,67.83905%);fill-opacity:1;" d="M 244.878906 98.714844 L 240.441406 99.476562 L 234.382812 64.066406 L 238.816406 63.304688 Z M 244.878906 98.714844 "/>
<path style=" stroke:none;fill-rule:nonzero;fill:rgb(100%,96.078491%,80.389404%);fill-opacity:1;" d="M 214.714844 141.464844 L 210.40625 142.757812 L 200.070312 108.351562 L 204.378906 107.058594 Z M 214.714844 141.464844 "/>
<path style=" stroke:none;fill-rule:nonzero;fill:rgb(100%,96.078491%,80.389404%);fill-opacity:1;" d="M 206.425781 93.542969 L 202.679688 93.359375 L 204.46875 57.402344 L 208.210938 57.589844 Z M 206.425781 93.542969 "/>
<path style=" stroke:none;fill-rule:nonzero;fill:rgb(100%,98.039246%,93.328857%);fill-opacity:1;" d="M 255.363281 104.921875 L 259.8125 105.613281 L 254.316406 141.113281 L 249.867188 140.425781 Z M 255.363281 104.921875 "/>
<path style=" stroke:none;fill-rule:nonzero;fill:rgb(100%,96.078491%,80.389404%);fill-opacity:1;" d="M 230.082031 123.007812 L 234.574219 122.714844 L 236.929688 158.5625 L 232.4375 158.855469 Z M 230.082031 123.007812 "/>
<path style=" stroke:none;fill-rule:nonzero;fill:rgb(100%,96.078491%,80.389404%);fill-opacity:1;" d="M 264.515625 83.621094 L 268.9375 82.78125 L 275.648438 118.074219 L 271.226562 118.914062 Z M 264.515625 83.621094 "/>
<path style=" stroke:none;fill-rule:nonzero;fill:rgb(100%,96.078491%,80.389404%);fill-opacity:1;" d="M 267.785156 132.144531 L 271.488281 132.71875 L 265.980469 168.296875 L 262.277344 167.722656 Z M 267.785156 132.144531 "/>
<path style=" stroke:none;fill-rule:nonzero;fill:rgb(100%,98.039246%,67.83905%);fill-opacity:1;" d="M 141.566406 249.820312 L 143.289062 245.664062 L 176.472656 259.433594 L 174.75 263.589844 Z M 141.566406 249.820312 "/>
<path style=" stroke:none;fill-rule:nonzero;fill:rgb(100%,98.039246%,67.83905%);fill-opacity:1;" d="M 153.132812 278.675781 L 153.910156 274.242188 L 189.292969 280.464844 L 188.515625 284.898438 Z M 153.132812 278.675781 "/>
<path style=" stroke:none;fill-rule:nonzero;fill:rgb(100%,96.078491%,80.389404%);fill-opacity:1;" d="M 123.046875 235.871094 L 123.277344 231.378906 L 159.15625 233.238281 L 158.921875 237.734375 Z M 123.046875 235.871094 "/>
<path style=" stroke:none;fill-rule:nonzero;fill:rgb(100%,96.078491%,80.389404%);fill-opacity:1;" d="M 170.953125 244.21875 L 172.390625 240.753906 L 205.640625 254.550781 L 204.203125 258.015625 Z M 170.953125 244.21875 "/>
<path style=" stroke:none;fill-rule:nonzero;fill:rgb(100%,98.039246%,93.328857%);fill-opacity:1;" d="M 46.253906 81.773438 L 50.738281 81.414062 L 53.585938 117.226562 L 49.101562 117.585938 Z M 46.253906 81.773438 "/>
<path style=" stroke:none;fill-rule:nonzero;fill:rgb(100%,98.039246%,67.83905%);fill-opacity:1;" d="M 25.828125 105.207031 L 30.128906 103.882812 L 40.699219 138.21875 L 36.398438 139.542969 Z M 25.828125 105.207031 "/>
<path style=" stroke:none;fill-rule:nonzero;fill:rgb(100%,96.078491%,80.389404%);fill-opacity:1;" d="M 50.242188 58.933594 L 54.347656 57.09375 L 69.023438 89.886719 L 64.917969 91.722656 Z M 50.242188 58.933594 "/>
<path style=" stroke:none;fill-rule:nonzero;fill:rgb(100%,96.078491%,80.389404%);fill-opacity:1;" d="M 64.621094 105.390625 L 68.359375 105.09375 L 71.214844 140.980469 L 67.476562 141.277344 Z M 64.621094 105.390625 "/>
<path style=" stroke:none;fill-rule:nonzero;fill:rgb(100%,96.078491%,80.389404%);fill-opacity:1;" d="M 96.105469 156.0625 L 91.644531 156.648438 L 86.960938 121.03125 L 91.421875 120.441406 Z M 96.105469 156.0625 "/>
<path style=" stroke:none;fill-rule:nonzero;fill:rgb(100%,98.039246%,93.328857%);fill-opacity:1;" d="M 79.808594 191.480469 L 84.292969 191.125 L 87.144531 226.9375 L 82.65625 227.292969 Z M 79.808594 191.480469 "/>
<path style=" stroke:none;fill-rule:nonzero;fill:rgb(100%,98.039246%,67.83905%);fill-opacity:1;" d="M 59.382812 214.914062 L 63.683594 213.589844 L 74.253906 247.925781 L 69.953125 249.25 Z M 59.382812 214.914062 "/>
<path style=" stroke:none;fill-rule:nonzero;fill:rgb(100%,96.078491%,80.389404%);fill-opacity:1;" d="M 83.796875 168.640625 L 87.902344 166.804688 L 102.582031 199.59375 L 98.472656 201.433594 Z M 83.796875 168.640625 "/>
<path style=" stroke:none;fill-rule:nonzero;fill:rgb(100%,96.078491%,80.389404%);fill-opacity:1;" d="M 98.175781 215.101562 L 101.914062 214.800781 L 104.769531 250.6875 L 101.03125 250.988281 Z M 98.175781 215.101562 "/>
<path style=" stroke:none;fill-rule:nonzero;fill:rgb(100%,98.039246%,93.328857%);fill-opacity:1;" d="M 48.1875 210.109375 L 43.6875 209.996094 L 44.570312 174.082031 L 49.066406 174.195312 Z M 48.1875 210.109375 "/>
<path style=" stroke:none;fill-rule:nonzero;fill:rgb(100%,98.039246%,67.83905%);fill-opacity:1;" d="M 70.929688 188.921875 L 66.515625 189.789062 L 59.566406 154.542969 L 63.980469 153.671875 Z M 70.929688 188.921875 "/>
<path style=" stroke:none;fill-rule:nonzero;fill:rgb(100%,96.078491%,80.389404%);fill-opacity:1;" d="M 41.851562 232.410156 L 37.574219 233.8125 L 26.378906 199.675781 L 30.65625 198.273438 Z M 41.851562 232.410156 "/>
<path style=" stroke:none;fill-rule:nonzero;fill:rgb(100%,96.078491%,80.389404%);fill-opacity:1;" d="M 32.359375 184.714844 L 28.609375 184.621094 L 29.496094 148.632812 L 33.242188 148.726562 Z M 32.359375 184.714844 "/>
<path style=" stroke:none;fill-rule:nonzero;fill:rgb(100%,98.039246%,67.83905%);fill-opacity:1;" d="M 127.210938 24.648438 L 127.007812 29.140625 L 91.117188 27.523438 L 91.320312 23.027344 Z M 127.210938 24.648438 "/>
<path style=" stroke:none;fill-rule:nonzero;fill:rgb(100%,98.039246%,93.328857%);fill-opacity:1;" d="M 106.460938 135.316406 L 102.058594 134.375 L 109.574219 99.246094 L 113.972656 100.183594 Z M 106.460938 135.316406 "/>
<path style=" stroke:none;fill-rule:nonzero;fill:rgb(100%,98.039246%,67.83905%);fill-opacity:1;" d="M 132.734375 118.703125 L 128.234375 118.742188 L 127.925781 82.816406 L 132.425781 82.777344 Z M 132.734375 118.703125 "/>
<path style=" stroke:none;fill-rule:nonzero;fill:rgb(100%,96.078491%,80.389404%);fill-opacity:1;" d="M 95.605469 107.433594 L 91.941406 106.648438 L 99.46875 71.445312 L 103.136719 72.230469 Z M 95.605469 107.433594 "/>
<path style=" stroke:none;fill-rule:nonzero;fill:rgb(100%,98.039246%,93.328857%);fill-opacity:1;" d="M 142.394531 51.773438 L 141.21875 56.117188 L 106.539062 46.730469 L 107.714844 42.386719 Z M 142.394531 51.773438 "/>
<path style=" stroke:none;fill-rule:nonzero;fill:rgb(100%,96.078491%,80.389404%);fill-opacity:1;" d="M 162.554688 63.21875 L 162.902344 67.707031 L 127.082031 70.480469 L 126.734375 65.992188 Z M 162.554688 63.21875 "/>
<path style=" stroke:none;fill-rule:nonzero;fill:rgb(100%,96.078491%,80.389404%);fill-opacity:1;" d="M 113.960938 61.113281 L 112.984375 64.734375 L 78.234375 55.332031 L 79.210938 51.710938 Z M 113.960938 61.113281 "/>
<path style=" stroke:none;fill-rule:nonzero;fill:rgb(100%,98.039246%,93.328857%);fill-opacity:1;" d="M 118.910156 212.410156 L 114.96875 210.242188 L 132.289062 178.769531 L 136.234375 180.9375 Z M 118.910156 212.410156 "/>
<path style=" stroke:none;fill-rule:nonzero;fill:rgb(100%,98.039246%,67.83905%);fill-opacity:1;" d="M 148.859375 204.078125 L 144.539062 202.816406 L 154.601562 168.328125 L 158.921875 169.589844 Z M 148.859375 204.078125 "/>
<path style=" stroke:none;fill-rule:nonzero;fill:rgb(100%,96.078491%,80.389404%);fill-opacity:1;" d="M 116.558594 182.585938 L 113.273438 180.777344 L 130.628906 149.238281 L 133.914062 151.046875 Z M 116.558594 182.585938 "/>
<path style=" stroke:none;fill-rule:nonzero;fill:rgb(100%,98.039246%,93.328857%);fill-opacity:1;" d="M 177.402344 142.769531 L 175.023438 146.589844 L 144.523438 127.609375 L 146.902344 123.789062 Z M 177.402344 142.769531 "/>
<path style=" stroke:none;fill-rule:nonzero;fill:rgb(100%,96.078491%,80.389404%);fill-opacity:1;" d="M 193.40625 159.546875 L 192.445312 163.941406 L 157.347656 156.269531 L 158.308594 151.875 Z M 193.40625 159.546875 "/>
<path style=" stroke:none;fill-rule:nonzero;fill:rgb(100%,96.078491%,80.389404%);fill-opacity:1;" d="M 147.484375 143.523438 L 145.503906 146.707031 L 114.941406 127.683594 L 116.921875 124.5 Z M 147.484375 143.523438 "/>
<path style=" stroke:none;fill-rule:nonzero;fill:rgb(100%,98.039246%,67.83905%);fill-opacity:1;" d="M 119.375 246.53125 L 123.675781 245.207031 L 134.242188 279.542969 L 129.941406 280.867188 Z M 119.375 246.53125 "/>
<path style=" stroke:none;fill-rule:nonzero;fill:rgb(100%,96.078491%,80.389404%);fill-opacity:1;" d="M 82.140625 252.703125 L 84.351562 249.671875 L 113.433594 270.890625 L 111.222656 273.921875 Z M 82.140625 252.703125 "/>
<path style=" stroke:none;fill-rule:nonzero;fill:rgb(100%,98.039246%,93.328857%);fill-opacity:1;" d="M 155.992188 114.296875 L 151.496094 114.074219 L 153.28125 78.191406 L 157.773438 78.414062 Z M 155.992188 114.296875 "/>
<path style=" stroke:none;fill-rule:nonzero;fill:rgb(100%,98.039246%,67.83905%);fill-opacity:1;" d="M 185.664062 94.332031 L 181.1875 93.859375 L 184.976562 58.132812 L 189.453125 58.605469 Z M 185.664062 94.332031 "/>
<path style=" stroke:none;fill-rule:nonzero;fill:rgb(100%,98.039246%,93.328857%);fill-opacity:1;" d="M 202.886719 28.9375 L 201.226562 33.121094 L 167.84375 19.84375 L 169.503906 15.664062 Z M 202.886719 28.9375 "/>
<path style=" stroke:none;fill-rule:nonzero;fill:rgb(100%,96.078491%,80.389404%);fill-opacity:1;" d="M 221.613281 42.609375 L 221.445312 47.105469 L 185.546875 45.777344 L 185.710938 41.28125 Z M 221.613281 42.609375 "/>
<path style=" stroke:none;fill-rule:nonzero;fill:rgb(100%,96.078491%,80.389404%);fill-opacity:1;" d="M 173.578125 34.980469 L 172.191406 38.464844 L 138.742188 25.160156 L 140.125 21.675781 Z M 173.578125 34.980469 "/>
<path style=" stroke:none;fill-rule:nonzero;fill:rgb(100%,98.039246%,67.83905%);fill-opacity:1;" d="M 168.714844 106.246094 L 172.5 103.808594 L 191.960938 134.003906 L 188.179688 136.441406 Z M 168.714844 106.246094 "/>
</g>
</svg>
