<?xml version="1.0" encoding="UTF-8"?>
<svg xmlns="http://www.w3.org/2000/svg" xmlns:xlink="http://www.w3.org/1999/xlink" width="300pt" height="299.999988pt" viewBox="0 0 300 299.999988" version="1.2">
<defs>
<clipPath id="clip1">
  <path d="M 59.726562 39.359375 L 126.476562 39.359375 L 126.476562 106.109375 L 59.726562 106.109375 Z M 59.726562 39.359375 "/>
</clipPath>
<clipPath id="clip2">
  <path d="M 140.230469 215.503906 L 206.980469 215.503906 L 206.980469 282.253906 L 140.230469 282.253906 Z M 140.230469 215.503906 "/>
</clipPath>
<clipPath id="clip3">
  <path d="M 48.992188 189.769531 L 115.742188 189.769531 L 115.742188 256.519531 L 48.992188 256.519531 Z M 48.992188 189.769531 "/>
</clipPath>
<clipPath id="clip4">
  <path d="M 15.6875 105.964844 L 82.4375 105.964844 L 82.4375 172.714844 L 15.6875 172.714844 Z M 15.6875 105.964844 "/>
</clipPath>
<clipPath id="clip5">
  <path d="M 140.230469 21.332031 L 206.980469 21.332031 L 206.980469 88.082031 L 140.230469 88.082031 Z M 140.230469 21.332031 "/>
</clipPath>
<clipPath id="clip6">
  <path d="M 206.835938 72.660156 L 273.585938 72.660156 L 273.585938 139.410156 L 206.835938 139.410156 Z M 206.835938 72.660156 "/>
</clipPath>
<clipPath id="clip7">
  <path d="M 211.652344 156.46875 L 278.402344 156.46875 L 278.402344 223.21875 L 211.652344 223.21875 Z M 211.652344 156.46875 "/>
</clipPath>
<clipPath id="clip8">
  <path d="M 116.695312 116.699219 L 183.445312 116.699219 L 183.445312 183.449219 L 116.695312 183.449219 Z M 116.695312 116.699219 "/>
</clipPath>
</defs>
<g id="surface1">
<g clip-path="url(#clip1)" clip-rule="nonzero">
<path style=" stroke:none;fill-rule:nonzero;fill:rgb(97.24884%,97.24884%,96.469116%);fill-opacity:1;" d="M 126.476562 72.734375 C 126.476562 73.824219 126.421875 74.917969 126.3125 76.003906 C 126.207031 77.09375 126.046875 78.171875 125.832031 79.242188 C 125.621094 80.316406 125.355469 81.375 125.039062 82.421875 C 124.71875 83.46875 124.351562 84.496094 123.933594 85.503906 C 123.515625 86.515625 123.050781 87.5 122.535156 88.464844 C 122.019531 89.429688 121.457031 90.367188 120.851562 91.273438 C 120.242188 92.183594 119.59375 93.0625 118.898438 93.90625 C 118.207031 94.75 117.472656 95.558594 116.699219 96.332031 C 115.925781 97.105469 115.117188 97.839844 114.273438 98.53125 C 113.425781 99.226562 112.550781 99.875 111.640625 100.484375 C 110.734375 101.089844 109.796875 101.652344 108.832031 102.167969 C 107.867188 102.683594 106.882812 103.148438 105.871094 103.566406 C 104.863281 103.984375 103.835938 104.351562 102.789062 104.671875 C 101.742188 104.988281 100.683594 105.253906 99.609375 105.464844 C 98.539062 105.679688 97.457031 105.839844 96.371094 105.945312 C 95.285156 106.054688 94.191406 106.109375 93.101562 106.109375 C 92.007812 106.109375 90.917969 106.054688 89.828125 105.945312 C 88.742188 105.839844 87.660156 105.679688 86.589844 105.464844 C 85.515625 105.253906 84.457031 104.988281 83.410156 104.671875 C 82.367188 104.351562 81.335938 103.984375 80.328125 103.566406 C 79.316406 103.148438 78.332031 102.683594 77.367188 102.167969 C 76.402344 101.652344 75.464844 101.089844 74.558594 100.484375 C 73.648438 99.875 72.773438 99.226562 71.925781 98.53125 C 71.082031 97.839844 70.273438 97.105469 69.5 96.332031 C 68.726562 95.558594 67.992188 94.75 67.300781 93.90625 C 66.605469 93.0625 65.957031 92.183594 65.347656 91.273438 C 64.742188 90.367188 64.179688 89.429688 63.664062 88.464844 C 63.148438 87.5 62.683594 86.515625 62.265625 85.503906 C 61.847656 84.496094 61.480469 83.46875 61.160156 82.421875 C 60.84375 81.375 60.578125 80.316406 60.367188 79.242188 C 60.152344 78.171875 59.992188 77.09375 59.886719 76.003906 C 59.777344 74.917969 59.726562 73.824219 59.726562 72.734375 C 59.726562 71.640625 59.777344 70.550781 59.886719 69.460938 C 59.992188 68.375 60.152344 67.292969 60.367188 66.222656 C 60.578125 65.148438 60.84375 64.089844 61.160156 63.042969 C 61.480469 62 61.847656 60.96875 62.265625 59.960938 C 62.683594 58.949219 63.148438 57.964844 63.664062 57 C 64.179688 56.035156 64.742188 55.097656 65.347656 54.191406 C 65.957031 53.28125 66.605469 52.40625 67.300781 51.558594 C 67.992188 50.714844 68.726562 49.90625 69.5 49.132812 C 70.273438 48.359375 71.082031 47.628906 71.925781 46.933594 C 72.773438 46.238281 73.648438 45.589844 74.558594 44.984375 C 75.464844 44.375 76.402344 43.8125 77.367188 43.296875 C 78.332031 42.785156 79.316406 42.316406 80.328125 41.898438 C 81.335938 41.480469 82.367188 41.113281 83.410156 40.796875 C 84.457031 40.476562 85.515625 40.210938 86.589844 40 C 87.660156 39.785156 88.742188 39.625 89.828125 39.519531 C 90.917969 39.410156 92.007812 39.359375 93.101562 39.359375 C 94.191406 39.359375 95.285156 39.410156 96.371094 39.519531 C 97.457031 39.625 98.539062 39.785156 99.609375 40 C 100.683594 40.210938 101.742188 40.476562 102.789062 40.796875 C 103.835938 41.113281 104.863281 41.480469 105.871094 41.898438 C 106.882812 42.316406 107.867188 42.785156 108.832031 43.296875 C 109.796875 43.8125 110.734375 44.375 111.640625 44.984375 C 112.550781 45.589844 113.425781 46.238281 114.273438 46.933594 C 115.117188 47.628906 115.925781 48.359375 116.699219 49.132812 C 117.472656 49.90625 118.207031 50.714844 118.898438 51.558594 C 119.59375 52.40625 120.242188 53.28125 120.851562 54.191406 C 121.457031 55.097656 122.019531 56.035156 122.535156 57 C 123.050781 57.964844 123.515625 58.949219 123.933594 59.960938 C 124.351562 60.96875 124.71875 62 125.039062 63.042969 C 125.355469 64.089844 125.621094 65.148438 125.832031 66.222656 C 126.046875 67.292969 126.207031 68.375 126.3125 69.460938 C 126.421875 70.550781 126.476562 71.640625 126.476562 72.734375 Z M 126.476562 72.734375 "/>
</g>
<g clip-path="url(#clip2)" clip-rule="nonzero">
<path style=" stroke:none;fill-rule:nonzero;fill:rgb(97.24884%,97.24884%,96.469116%);fill-opacity:1;" d="M 206.980469 248.878906 C 206.980469 249.972656 206.925781 251.0625 206.820312 252.152344 C 206.710938 253.238281 206.550781 254.320312 206.339844 255.390625 C 206.125 256.464844 205.859375 257.523438 205.542969 258.566406 C 205.226562 259.613281 204.855469 260.640625 204.4375 261.652344 C 204.019531 262.660156 203.554688 263.648438 203.039062 264.613281 C 202.523438 265.578125 201.960938 266.511719 201.355469 267.421875 C 200.746094 268.332031 200.097656 269.207031 199.402344 270.050781 C 198.710938 270.898438 197.976562 271.707031 197.203125 272.480469 C 196.429688 273.253906 195.621094 273.984375 194.777344 274.679688 C 193.933594 275.371094 193.054688 276.023438 192.148438 276.628906 C 191.238281 277.238281 190.300781 277.796875 189.335938 278.3125 C 188.375 278.828125 187.386719 279.296875 186.375 279.714844 C 185.367188 280.132812 184.339844 280.5 183.292969 280.816406 C 182.246094 281.136719 181.1875 281.398438 180.117188 281.613281 C 179.042969 281.828125 177.964844 281.988281 176.875 282.09375 C 175.789062 282.203125 174.699219 282.253906 173.605469 282.253906 C 172.511719 282.253906 171.421875 282.203125 170.332031 282.09375 C 169.246094 281.988281 168.164062 281.828125 167.09375 281.613281 C 166.019531 281.398438 164.960938 281.136719 163.917969 280.816406 C 162.871094 280.5 161.84375 280.132812 160.832031 279.714844 C 159.824219 279.296875 158.835938 278.828125 157.871094 278.3125 C 156.90625 277.796875 155.972656 277.238281 155.0625 276.628906 C 154.152344 276.023438 153.277344 275.371094 152.429688 274.679688 C 151.585938 273.984375 150.777344 273.253906 150.003906 272.480469 C 149.230469 271.707031 148.5 270.898438 147.804688 270.050781 C 147.113281 269.207031 146.460938 268.332031 145.855469 267.421875 C 145.246094 266.511719 144.683594 265.578125 144.171875 264.613281 C 143.65625 263.648438 143.1875 262.660156 142.769531 261.652344 C 142.351562 260.640625 141.984375 259.613281 141.667969 258.566406 C 141.347656 257.523438 141.082031 256.464844 140.871094 255.390625 C 140.65625 254.320312 140.496094 253.238281 140.390625 252.152344 C 140.28125 251.0625 140.230469 249.972656 140.230469 248.878906 C 140.230469 247.785156 140.28125 246.695312 140.390625 245.609375 C 140.496094 244.519531 140.65625 243.441406 140.871094 242.367188 C 141.082031 241.296875 141.347656 240.238281 141.667969 239.191406 C 141.984375 238.144531 142.351562 237.117188 142.769531 236.109375 C 143.1875 235.097656 143.65625 234.109375 144.171875 233.148438 C 144.683594 232.183594 145.246094 231.246094 145.855469 230.335938 C 146.460938 229.429688 147.113281 228.550781 147.804688 227.707031 C 148.5 226.863281 149.230469 226.054688 150.003906 225.28125 C 150.777344 224.507812 151.585938 223.773438 152.429688 223.082031 C 153.277344 222.386719 154.152344 221.738281 155.0625 221.128906 C 155.972656 220.523438 156.90625 219.960938 157.871094 219.445312 C 158.835938 218.929688 159.824219 218.464844 160.832031 218.046875 C 161.84375 217.628906 162.871094 217.257812 163.917969 216.941406 C 164.960938 216.625 166.019531 216.359375 167.09375 216.144531 C 168.164062 215.933594 169.246094 215.773438 170.332031 215.664062 C 171.421875 215.558594 172.511719 215.503906 173.605469 215.503906 C 174.699219 215.503906 175.789062 215.558594 176.875 215.664062 C 177.964844 215.773438 179.042969 215.933594 180.117188 216.144531 C 181.1875 216.359375 182.246094 216.625 183.292969 216.941406 C 184.339844 217.257812 185.367188 217.628906 186.375 218.046875 C 187.386719 218.464844 188.375 218.929688 189.335938 219.445312 C 190.300781 219.960938 191.238281 220.523438 192.148438 221.128906 C 193.054688 221.738281 193.933594 222.386719 194.777344 223.082031 C 195.621094 223.773438 196.429688 224.507812 197.203125 225.28125 C 197.976562 226.054688 198.710938 226.863281 199.402344 227.707031 C 200.097656 228.550781 200.746094 229.429688 201.355469 230.335938 C 201.960938 231.246094 202.523438 232.183594 203.039062 233.148438 C 203.554688 234.109375 204.019531 235.097656 204.4375 236.109375 C 204.855469 237.117188 205.226562 238.144531 205.542969 239.191406 C 205.859375 240.238281 206.125 241.296875 206.339844 242.367188 C 206.550781 243.441406 206.710938 244.519531 206.820312 245.609375 C 206.925781 246.695312 206.980469 247.785156 206.980469 248.878906 Z M 206.980469 248.878906 "/>
</g>
<g clip-path="url(#clip3)" clip-rule="nonzero">
<path style=" stroke:none;fill-rule:nonzero;fill:rgb(97.24884%,97.24884%,96.469116%);fill-opacity:1;" d="M 115.742188 223.144531 C 115.742188 224.238281 115.6875 225.328125 115.582031 226.417969 C 115.472656 227.503906 115.3125 228.585938 115.097656 229.65625 C 114.886719 230.730469 114.621094 231.789062 114.304688 232.832031 C 113.988281 233.878906 113.617188 234.90625 113.199219 235.917969 C 112.78125 236.925781 112.316406 237.914062 111.800781 238.878906 C 111.285156 239.84375 110.722656 240.777344 110.117188 241.6875 C 109.507812 242.597656 108.859375 243.472656 108.164062 244.320312 C 107.472656 245.164062 106.738281 245.972656 105.964844 246.746094 C 105.191406 247.519531 104.382812 248.25 103.539062 248.945312 C 102.695312 249.636719 101.816406 250.289062 100.90625 250.894531 C 100 251.503906 99.0625 252.066406 98.097656 252.578125 C 97.132812 253.09375 96.148438 253.5625 95.136719 253.980469 C 94.128906 254.398438 93.101562 254.765625 92.054688 255.082031 C 91.007812 255.402344 89.949219 255.667969 88.878906 255.878906 C 87.804688 256.09375 86.726562 256.253906 85.636719 256.359375 C 84.550781 256.46875 83.457031 256.519531 82.367188 256.519531 C 81.273438 256.519531 80.183594 256.46875 79.09375 256.359375 C 78.007812 256.253906 76.925781 256.09375 75.855469 255.878906 C 74.78125 255.667969 73.722656 255.402344 72.675781 255.082031 C 71.632812 254.765625 70.605469 254.398438 69.59375 253.980469 C 68.582031 253.5625 67.597656 253.09375 66.632812 252.578125 C 65.667969 252.066406 64.734375 251.503906 63.824219 250.894531 C 62.914062 250.289062 62.039062 249.636719 61.191406 248.945312 C 60.347656 248.25 59.539062 247.519531 58.765625 246.746094 C 57.992188 245.972656 57.261719 245.164062 56.566406 244.320312 C 55.875 243.472656 55.222656 242.597656 54.617188 241.6875 C 54.007812 240.777344 53.445312 239.84375 52.933594 238.878906 C 52.417969 237.914062 51.949219 236.925781 51.53125 235.917969 C 51.113281 234.90625 50.746094 233.878906 50.429688 232.832031 C 50.109375 231.789062 49.84375 230.730469 49.632812 229.65625 C 49.417969 228.585938 49.257812 227.503906 49.152344 226.417969 C 49.042969 225.328125 48.992188 224.238281 48.992188 223.144531 C 48.992188 222.050781 49.042969 220.960938 49.152344 219.875 C 49.257812 218.785156 49.417969 217.707031 49.632812 216.632812 C 49.84375 215.5625 50.109375 214.503906 50.429688 213.457031 C 50.746094 212.410156 51.113281 211.382812 51.53125 210.375 C 51.949219 209.363281 52.417969 208.375 52.933594 207.414062 C 53.445312 206.449219 54.007812 205.511719 54.617188 204.605469 C 55.222656 203.695312 55.875 202.816406 56.566406 201.972656 C 57.261719 201.128906 57.992188 200.320312 58.765625 199.546875 C 59.539062 198.773438 60.347656 198.039062 61.191406 197.347656 C 62.039062 196.652344 62.914062 196.003906 63.824219 195.394531 C 64.734375 194.789062 65.667969 194.226562 66.632812 193.710938 C 67.597656 193.195312 68.582031 192.730469 69.59375 192.3125 C 70.605469 191.894531 71.632812 191.523438 72.675781 191.207031 C 73.722656 190.890625 74.78125 190.625 75.855469 190.410156 C 76.925781 190.199219 78.007812 190.039062 79.09375 189.929688 C 80.183594 189.824219 81.273438 189.769531 82.367188 189.769531 C 83.457031 189.769531 84.550781 189.824219 85.636719 189.929688 C 86.726562 190.039062 87.804688 190.199219 88.878906 190.410156 C 89.949219 190.625 91.007812 190.890625 92.054688 191.207031 C 93.101562 191.523438 94.128906 191.894531 95.136719 192.3125 C 96.148438 192.730469 97.132812 193.195312 98.097656 193.710938 C 99.0625 194.226562 100 194.789062 100.90625 195.394531 C 101.816406 196.003906 102.695312 196.652344 103.539062 197.347656 C 104.382812 198.039062 105.191406 198.773438 105.964844 199.546875 C 106.738281 200.320312 107.472656 201.128906 108.164062 201.972656 C 108.859375 202.816406 109.507812 203.695312 110.117188 204.605469 C 110.722656 205.511719 111.285156 206.449219 111.800781 207.414062 C 112.316406 208.375 112.78125 209.363281 113.199219 210.375 C 113.617188 211.382812 113.988281 212.410156 114.304688 213.457031 C 114.621094 214.503906 114.886719 215.5625 115.097656 216.632812 C 115.3125 217.707031 115.472656 218.785156 115.582031 219.875 C 115.6875 220.960938 115.742188 222.050781 115.742188 223.144531 Z M 115.742188 223.144531 "/>
</g>
<g clip-path="url(#clip4)" clip-rule="nonzero">
<path style=" stroke:none;fill-rule:nonzero;fill:rgb(97.24884%,97.24884%,96.469116%);fill-opacity:1;" d="M 82.4375 139.339844 C 82.4375 140.429688 82.382812 141.523438 82.277344 142.609375 C 82.171875 143.699219 82.011719 144.777344 81.796875 145.847656 C 81.582031 146.921875 81.316406 147.980469 81 149.027344 C 80.683594 150.074219 80.316406 151.101562 79.898438 152.109375 C 79.480469 153.121094 79.011719 154.105469 78.496094 155.070312 C 77.980469 156.035156 77.421875 156.972656 76.8125 157.878906 C 76.207031 158.789062 75.554688 159.667969 74.863281 160.511719 C 74.167969 161.355469 73.4375 162.164062 72.664062 162.9375 C 71.890625 163.710938 71.082031 164.445312 70.234375 165.136719 C 69.390625 165.832031 68.515625 166.480469 67.605469 167.089844 C 66.695312 167.695312 65.761719 168.257812 64.796875 168.773438 C 63.832031 169.289062 62.84375 169.753906 61.835938 170.171875 C 60.824219 170.589844 59.796875 170.957031 58.75 171.277344 C 57.707031 171.59375 56.644531 171.859375 55.574219 172.070312 C 54.503906 172.285156 53.421875 172.445312 52.335938 172.550781 C 51.246094 172.660156 50.15625 172.714844 49.0625 172.714844 C 47.96875 172.714844 46.878906 172.660156 45.792969 172.550781 C 44.703125 172.445312 43.625 172.285156 42.550781 172.070312 C 41.480469 171.859375 40.421875 171.59375 39.375 171.277344 C 38.328125 170.957031 37.300781 170.589844 36.289062 170.171875 C 35.28125 169.753906 34.292969 169.289062 33.332031 168.773438 C 32.367188 168.257812 31.429688 167.695312 30.519531 167.089844 C 29.613281 166.480469 28.734375 165.832031 27.890625 165.136719 C 27.046875 164.445312 26.234375 163.710938 25.464844 162.9375 C 24.691406 162.164062 23.957031 161.355469 23.265625 160.511719 C 22.570312 159.667969 21.921875 158.789062 21.3125 157.878906 C 20.707031 156.972656 20.144531 156.035156 19.628906 155.070312 C 19.113281 154.105469 18.648438 153.121094 18.230469 152.109375 C 17.808594 151.101562 17.441406 150.074219 17.125 149.027344 C 16.808594 147.980469 16.542969 146.921875 16.328125 145.847656 C 16.117188 144.777344 15.957031 143.699219 15.847656 142.609375 C 15.742188 141.523438 15.6875 140.429688 15.6875 139.339844 C 15.6875 138.246094 15.742188 137.15625 15.847656 136.066406 C 15.957031 134.980469 16.117188 133.898438 16.328125 132.828125 C 16.542969 131.753906 16.808594 130.695312 17.125 129.648438 C 17.441406 128.605469 17.808594 127.578125 18.230469 126.566406 C 18.648438 125.554688 19.113281 124.570312 19.628906 123.605469 C 20.144531 122.640625 20.707031 121.707031 21.3125 120.796875 C 21.921875 119.886719 22.570312 119.011719 23.265625 118.164062 C 23.957031 117.320312 24.691406 116.511719 25.464844 115.738281 C 26.234375 114.964844 27.046875 114.234375 27.890625 113.539062 C 28.734375 112.847656 29.613281 112.195312 30.519531 111.589844 C 31.429688 110.980469 32.367188 110.417969 33.332031 109.902344 C 34.292969 109.390625 35.28125 108.921875 36.289062 108.503906 C 37.300781 108.085938 38.328125 107.71875 39.375 107.402344 C 40.421875 107.082031 41.480469 106.816406 42.550781 106.605469 C 43.625 106.390625 44.703125 106.230469 45.792969 106.125 C 46.878906 106.015625 47.96875 105.964844 49.0625 105.964844 C 50.15625 105.964844 51.246094 106.015625 52.335938 106.125 C 53.421875 106.230469 54.503906 106.390625 55.574219 106.605469 C 56.644531 106.816406 57.707031 107.082031 58.75 107.402344 C 59.796875 107.71875 60.824219 108.085938 61.835938 108.503906 C 62.84375 108.921875 63.832031 109.390625 64.796875 109.902344 C 65.761719 110.417969 66.695312 110.980469 67.605469 111.589844 C 68.515625 112.195312 69.390625 112.847656 70.234375 113.539062 C 71.082031 114.234375 71.890625 114.964844 72.664062 115.738281 C 73.4375 116.511719 74.167969 117.320312 74.863281 118.164062 C 75.554688 119.011719 76.207031 119.886719 76.8125 120.796875 C 77.421875 121.707031 77.980469 122.640625 78.496094 123.605469 C 79.011719 124.570312 79.480469 125.554688 79.898438 126.566406 C 80.316406 127.578125 80.683594 128.605469 81 129.648438 C 81.316406 130.695312 81.582031 131.753906 81.796875 132.828125 C 82.011719 133.898438 82.171875 134.980469 82.277344 136.066406 C 82.382812 137.15625 82.4375 138.246094 82.4375 139.339844 Z M 82.4375 139.339844 "/>
</g>
<g clip-path="url(#clip5)" clip-rule="nonzero">
<path style=" stroke:none;fill-rule:nonzero;fill:rgb(97.24884%,97.24884%,96.469116%);fill-opacity:1;" d="M 206.980469 54.707031 C 206.980469 55.796875 206.925781 56.890625 206.820312 57.976562 C 206.710938 59.066406 206.550781 60.144531 206.339844 61.214844 C 206.125 62.289062 205.859375 63.347656 205.542969 64.394531 C 205.226562 65.441406 204.855469 66.46875 204.4375 67.476562 C 204.019531 68.488281 203.554688 69.472656 203.039062 70.4375 C 202.523438 71.402344 201.960938 72.339844 201.355469 73.246094 C 200.746094 74.15625 200.097656 75.035156 199.402344 75.878906 C 198.710938 76.722656 197.976562 77.53125 197.203125 78.304688 C 196.429688 79.078125 195.621094 79.8125 194.777344 80.503906 C 193.933594 81.199219 193.054688 81.847656 192.148438 82.457031 C 191.238281 83.0625 190.300781 83.625 189.335938 84.140625 C 188.375 84.65625 187.386719 85.121094 186.375 85.539062 C 185.367188 85.957031 184.339844 86.324219 183.292969 86.644531 C 182.246094 86.960938 181.1875 87.226562 180.117188 87.4375 C 179.042969 87.652344 177.964844 87.8125 176.875 87.917969 C 175.789062 88.027344 174.699219 88.082031 173.605469 88.082031 C 172.511719 88.082031 171.421875 88.027344 170.332031 87.917969 C 169.246094 87.8125 168.164062 87.652344 167.09375 87.4375 C 166.019531 87.226562 164.960938 86.960938 163.917969 86.644531 C 162.871094 86.324219 161.84375 85.957031 160.832031 85.539062 C 159.824219 85.121094 158.835938 84.65625 157.871094 84.140625 C 156.90625 83.625 155.972656 83.0625 155.0625 82.457031 C 154.152344 81.847656 153.277344 81.199219 152.429688 80.503906 C 151.585938 79.8125 150.777344 79.078125 150.003906 78.304688 C 149.230469 77.53125 148.5 76.722656 147.804688 75.878906 C 147.113281 75.035156 146.460938 74.15625 145.855469 73.246094 C 145.246094 72.339844 144.683594 71.402344 144.171875 70.4375 C 143.65625 69.472656 143.1875 68.488281 142.769531 67.476562 C 142.351562 66.46875 141.984375 65.441406 141.667969 64.394531 C 141.347656 63.347656 141.082031 62.289062 140.871094 61.214844 C 140.65625 60.144531 140.496094 59.066406 140.390625 57.976562 C 140.28125 56.890625 140.230469 55.796875 140.230469 54.707031 C 140.230469 53.613281 140.28125 52.523438 140.390625 51.433594 C 140.496094 50.347656 140.65625 49.265625 140.871094 48.195312 C 141.082031 47.121094 141.347656 46.0625 141.667969 45.015625 C 141.984375 43.972656 142.351562 42.941406 142.769531 41.933594 C 143.1875 40.921875 143.65625 39.9375 144.171875 38.972656 C 144.683594 38.007812 145.246094 37.070312 145.855469 36.164062 C 146.460938 35.253906 147.113281 34.378906 147.804688 33.53125 C 148.5 32.6875 149.230469 31.878906 150.003906 31.105469 C 150.777344 30.332031 151.585938 29.601562 152.429688 28.90625 C 153.277344 28.210938 154.152344 27.5625 155.0625 26.957031 C 155.972656 26.347656 156.90625 25.785156 157.871094 25.269531 C 158.835938 24.757812 159.824219 24.289062 160.832031 23.871094 C 161.84375 23.453125 162.871094 23.085938 163.917969 22.769531 C 164.960938 22.449219 166.019531 22.183594 167.09375 21.972656 C 168.164062 21.757812 169.246094 21.597656 170.332031 21.492188 C 171.421875 21.382812 172.511719 21.332031 173.605469 21.332031 C 174.699219 21.332031 175.789062 21.382812 176.875 21.492188 C 177.964844 21.597656 179.042969 21.757812 180.117188 21.972656 C 181.1875 22.183594 182.246094 22.449219 183.292969 22.769531 C 184.339844 23.085938 185.367188 23.453125 186.375 23.871094 C 187.386719 24.289062 188.375 24.757812 189.335938 25.269531 C 190.300781 25.785156 191.238281 26.347656 192.148438 26.957031 C 193.054688 27.5625 193.933594 28.210938 194.777344 28.90625 C 195.621094 29.601562 196.429688 30.332031 197.203125 31.105469 C 197.976562 31.878906 198.710938 32.6875 199.402344 33.53125 C 200.097656 34.378906 200.746094 35.253906 201.355469 36.164062 C 201.960938 37.070312 202.523438 38.007812 203.039062 38.972656 C 203.554688 39.9375 204.019531 40.921875 204.4375 41.933594 C 204.855469 42.941406 205.226562 43.972656 205.542969 45.015625 C 205.859375 46.0625 206.125 47.121094 206.339844 48.195312 C 206.550781 49.265625 206.710938 50.347656 206.820312 51.433594 C 206.925781 52.523438 206.980469 53.613281 206.980469 54.707031 Z M 206.980469 54.707031 "/>
</g>
<g clip-path="url(#clip6)" clip-rule="nonzero">
<path style=" stroke:none;fill-rule:nonzero;fill:rgb(97.24884%,97.24884%,96.469116%);fill-opacity:1;" d="M 273.585938 106.035156 C 273.585938 107.128906 273.53125 108.21875 273.425781 109.308594 C 273.316406 110.394531 273.15625 111.476562 272.945312 112.546875 C 272.730469 113.617188 272.464844 114.679688 272.148438 115.722656 C 271.832031 116.769531 271.460938 117.796875 271.042969 118.808594 C 270.625 119.816406 270.160156 120.804688 269.644531 121.769531 C 269.128906 122.734375 268.566406 123.667969 267.960938 124.578125 C 267.351562 125.488281 266.703125 126.363281 266.007812 127.207031 C 265.316406 128.054688 264.582031 128.863281 263.808594 129.636719 C 263.035156 130.410156 262.226562 131.140625 261.382812 131.835938 C 260.539062 132.527344 259.660156 133.179688 258.753906 133.785156 C 257.84375 134.394531 256.90625 134.953125 255.941406 135.46875 C 254.980469 135.984375 253.992188 136.453125 252.980469 136.871094 C 251.972656 137.289062 250.945312 137.65625 249.898438 137.972656 C 248.851562 138.289062 247.792969 138.554688 246.722656 138.769531 C 245.648438 138.984375 244.570312 139.144531 243.480469 139.25 C 242.394531 139.355469 241.304688 139.410156 240.210938 139.410156 C 239.117188 139.410156 238.027344 139.355469 236.9375 139.25 C 235.851562 139.144531 234.769531 138.984375 233.699219 138.769531 C 232.625 138.554688 231.566406 138.289062 230.523438 137.972656 C 229.476562 137.65625 228.449219 137.289062 227.4375 136.871094 C 226.429688 136.453125 225.441406 135.984375 224.476562 135.46875 C 223.511719 134.953125 222.578125 134.394531 221.667969 133.785156 C 220.757812 133.179688 219.882812 132.527344 219.035156 131.835938 C 218.191406 131.140625 217.382812 130.410156 216.609375 129.636719 C 215.835938 128.863281 215.105469 128.054688 214.410156 127.207031 C 213.71875 126.363281 213.066406 125.488281 212.460938 124.578125 C 211.851562 123.667969 211.289062 122.734375 210.777344 121.769531 C 210.261719 120.804688 209.792969 119.816406 209.375 118.808594 C 208.957031 117.796875 208.589844 116.769531 208.273438 115.722656 C 207.953125 114.679688 207.6875 113.617188 207.476562 112.546875 C 207.261719 111.476562 207.101562 110.394531 206.996094 109.308594 C 206.886719 108.21875 206.835938 107.128906 206.835938 106.035156 C 206.835938 104.941406 206.886719 103.851562 206.996094 102.765625 C 207.101562 101.675781 207.261719 100.597656 207.476562 99.523438 C 207.6875 98.453125 207.953125 97.394531 208.273438 96.347656 C 208.589844 95.300781 208.957031 94.273438 209.375 93.265625 C 209.792969 92.253906 210.261719 91.265625 210.777344 90.304688 C 211.289062 89.339844 211.851562 88.402344 212.460938 87.492188 C 213.066406 86.585938 213.71875 85.707031 214.410156 84.863281 C 215.105469 84.019531 215.835938 83.210938 216.609375 82.4375 C 217.382812 81.664062 218.191406 80.929688 219.035156 80.238281 C 219.882812 79.542969 220.757812 78.894531 221.667969 78.285156 C 222.578125 77.679688 223.511719 77.117188 224.476562 76.601562 C 225.441406 76.085938 226.429688 75.621094 227.4375 75.203125 C 228.449219 74.78125 229.476562 74.414062 230.523438 74.097656 C 231.566406 73.78125 232.625 73.515625 233.699219 73.300781 C 234.769531 73.089844 235.851562 72.929688 236.9375 72.820312 C 238.027344 72.714844 239.117188 72.660156 240.210938 72.660156 C 241.304688 72.660156 242.394531 72.714844 243.480469 72.820312 C 244.570312 72.929688 245.648438 73.089844 246.722656 73.300781 C 247.792969 73.515625 248.851562 73.78125 249.898438 74.097656 C 250.945312 74.414062 251.972656 74.78125 252.980469 75.203125 C 253.992188 75.621094 254.980469 76.085938 255.941406 76.601562 C 256.90625 77.117188 257.84375 77.679688 258.753906 78.285156 C 259.660156 78.894531 260.539062 79.542969 261.382812 80.238281 C 262.226562 80.929688 263.035156 81.664062 263.808594 82.4375 C 264.582031 83.210938 265.316406 84.019531 266.007812 84.863281 C 266.703125 85.707031 267.351562 86.585938 267.960938 87.492188 C 268.566406 88.402344 269.128906 89.339844 269.644531 90.304688 C 270.160156 91.265625 270.625 92.253906 271.042969 93.265625 C 271.460938 94.273438 271.832031 95.300781 272.148438 96.347656 C 272.464844 97.394531 272.730469 98.453125 272.945312 99.523438 C 273.15625 100.597656 273.316406 101.675781 273.425781 102.765625 C 273.53125 103.851562 273.585938 104.941406 273.585938 106.035156 Z M 273.585938 106.035156 "/>
</g>
<g clip-path="url(#clip7)" clip-rule="nonzero">
<path style=" stroke:none;fill-rule:nonzero;fill:rgb(97.24884%,97.24884%,96.469116%);fill-opacity:1;" d="M 278.402344 189.84375 C 278.402344 190.9375 278.347656 192.027344 278.242188 193.113281 C 278.132812 194.203125 277.972656 195.28125 277.761719 196.355469 C 277.546875 197.425781 277.28125 198.484375 276.964844 199.53125 C 276.648438 200.578125 276.277344 201.605469 275.859375 202.613281 C 275.441406 203.625 274.976562 204.613281 274.460938 205.574219 C 273.945312 206.539062 273.382812 207.476562 272.777344 208.386719 C 272.167969 209.292969 271.519531 210.171875 270.824219 211.015625 C 270.132812 211.859375 269.398438 212.667969 268.625 213.441406 C 267.851562 214.214844 267.042969 214.949219 266.199219 215.640625 C 265.355469 216.335938 264.476562 216.984375 263.570312 217.59375 C 262.660156 218.199219 261.722656 218.761719 260.757812 219.277344 C 259.796875 219.792969 258.808594 220.257812 257.796875 220.675781 C 256.789062 221.097656 255.761719 221.464844 254.714844 221.78125 C 253.667969 222.097656 252.609375 222.363281 251.539062 222.578125 C 250.464844 222.789062 249.386719 222.949219 248.296875 223.058594 C 247.210938 223.164062 246.121094 223.21875 245.027344 223.21875 C 243.933594 223.21875 242.84375 223.164062 241.753906 223.058594 C 240.667969 222.949219 239.585938 222.789062 238.515625 222.578125 C 237.441406 222.363281 236.382812 222.097656 235.339844 221.78125 C 234.292969 221.464844 233.265625 221.097656 232.253906 220.675781 C 231.246094 220.257812 230.257812 219.792969 229.292969 219.277344 C 228.328125 218.761719 227.394531 218.199219 226.484375 217.59375 C 225.574219 216.984375 224.699219 216.335938 223.851562 215.640625 C 223.007812 214.949219 222.199219 214.214844 221.425781 213.441406 C 220.652344 212.667969 219.921875 211.859375 219.226562 211.015625 C 218.535156 210.171875 217.882812 209.292969 217.277344 208.386719 C 216.667969 207.476562 216.109375 206.539062 215.59375 205.574219 C 215.078125 204.613281 214.609375 203.625 214.191406 202.613281 C 213.773438 201.605469 213.40625 200.578125 213.089844 199.53125 C 212.769531 198.484375 212.507812 197.425781 212.292969 196.355469 C 212.078125 195.28125 211.917969 194.203125 211.8125 193.113281 C 211.703125 192.027344 211.652344 190.9375 211.652344 189.84375 C 211.652344 188.75 211.703125 187.660156 211.8125 186.570312 C 211.917969 185.484375 212.078125 184.402344 212.292969 183.332031 C 212.507812 182.261719 212.769531 181.199219 213.089844 180.15625 C 213.40625 179.109375 213.773438 178.082031 214.191406 177.070312 C 214.609375 176.0625 215.078125 175.074219 215.59375 174.109375 C 216.109375 173.144531 216.667969 172.210938 217.277344 171.300781 C 217.882812 170.390625 218.535156 169.515625 219.226562 168.671875 C 219.921875 167.824219 220.652344 167.015625 221.425781 166.242188 C 222.199219 165.46875 223.007812 164.738281 223.851562 164.042969 C 224.699219 163.351562 225.574219 162.699219 226.484375 162.09375 C 227.394531 161.484375 228.328125 160.925781 229.292969 160.410156 C 230.257812 159.894531 231.246094 159.425781 232.253906 159.007812 C 233.265625 158.589844 234.292969 158.222656 235.339844 157.90625 C 236.382812 157.589844 237.441406 157.324219 238.515625 157.109375 C 239.585938 156.894531 240.667969 156.734375 241.753906 156.628906 C 242.84375 156.523438 243.933594 156.46875 245.027344 156.46875 C 246.121094 156.46875 247.210938 156.523438 248.296875 156.628906 C 249.386719 156.734375 250.464844 156.894531 251.539062 157.109375 C 252.609375 157.324219 253.667969 157.589844 254.714844 157.90625 C 255.761719 158.222656 256.789062 158.589844 257.796875 159.007812 C 258.808594 159.425781 259.796875 159.894531 260.757812 160.410156 C 261.722656 160.925781 262.660156 161.484375 263.570312 162.09375 C 264.476562 162.699219 265.355469 163.351562 266.199219 164.042969 C 267.042969 164.738281 267.851562 165.46875 268.625 166.242188 C 269.398438 167.015625 270.132812 167.824219 270.824219 168.671875 C 271.519531 169.515625 272.167969 170.390625 272.777344 171.300781 C 273.382812 172.210938 273.945312 173.144531 274.460938 174.109375 C 274.976562 175.074219 275.441406 176.0625 275.859375 177.070312 C 276.277344 178.082031 276.648438 179.109375 276.964844 180.15625 C 277.28125 181.199219 277.546875 182.261719 277.761719 183.332031 C 277.972656 184.402344 278.132812 185.484375 278.242188 186.570312 C 278.347656 187.660156 278.402344 188.75 278.402344 189.84375 Z M 278.402344 189.84375 "/>
</g>
<g clip-path="url(#clip8)" clip-rule="nonzero">
<path style=" stroke:none;fill-rule:nonzero;fill:rgb(97.24884%,97.24884%,96.469116%);fill-opacity:1;" d="M 183.445312 150.074219 C 183.445312 151.164062 183.394531 152.257812 183.285156 153.34375 C 183.179688 154.429688 183.019531 155.511719 182.804688 156.582031 C 182.59375 157.65625 182.328125 158.714844 182.011719 159.761719 C 181.691406 160.808594 181.324219 161.835938 180.90625 162.84375 C 180.488281 163.855469 180.023438 164.839844 179.507812 165.804688 C 178.992188 166.769531 178.429688 167.707031 177.824219 168.613281 C 177.214844 169.523438 176.566406 170.398438 175.871094 171.246094 C 175.179688 172.089844 174.445312 172.898438 173.671875 173.671875 C 172.898438 174.445312 172.089844 175.179688 171.246094 175.871094 C 170.398438 176.566406 169.523438 177.214844 168.613281 177.824219 C 167.707031 178.429688 166.769531 178.992188 165.804688 179.507812 C 164.839844 180.023438 163.855469 180.488281 162.84375 180.90625 C 161.835938 181.324219 160.804688 181.691406 159.761719 182.011719 C 158.714844 182.328125 157.65625 182.59375 156.582031 182.804688 C 155.511719 183.019531 154.429688 183.179688 153.34375 183.285156 C 152.253906 183.394531 151.164062 183.449219 150.070312 183.449219 C 148.980469 183.449219 147.890625 183.394531 146.800781 183.285156 C 145.714844 183.179688 144.632812 183.019531 143.5625 182.804688 C 142.488281 182.59375 141.429688 182.328125 140.382812 182.011719 C 139.339844 181.691406 138.308594 181.324219 137.300781 180.90625 C 136.289062 180.488281 135.304688 180.023438 134.339844 179.507812 C 133.375 178.992188 132.4375 178.429688 131.53125 177.824219 C 130.621094 177.214844 129.746094 176.566406 128.898438 175.871094 C 128.054688 175.179688 127.246094 174.445312 126.472656 173.671875 C 125.699219 172.898438 124.964844 172.089844 124.273438 171.246094 C 123.578125 170.398438 122.929688 169.523438 122.320312 168.613281 C 121.714844 167.707031 121.152344 166.769531 120.636719 165.804688 C 120.121094 164.839844 119.65625 163.855469 119.238281 162.84375 C 118.820312 161.835938 118.453125 160.808594 118.132812 159.761719 C 117.816406 158.714844 117.550781 157.65625 117.339844 156.582031 C 117.125 155.511719 116.964844 154.429688 116.859375 153.34375 C 116.75 152.257812 116.695312 151.164062 116.695312 150.074219 C 116.695312 148.980469 116.75 147.890625 116.859375 146.800781 C 116.964844 145.714844 117.125 144.632812 117.339844 143.5625 C 117.550781 142.488281 117.816406 141.429688 118.132812 140.382812 C 118.453125 139.339844 118.820312 138.308594 119.238281 137.300781 C 119.65625 136.289062 120.121094 135.304688 120.636719 134.339844 C 121.152344 133.375 121.714844 132.4375 122.320312 131.53125 C 122.929688 130.621094 123.578125 129.746094 124.273438 128.898438 C 124.964844 128.054688 125.699219 127.246094 126.472656 126.472656 C 127.246094 125.699219 128.054688 124.964844 128.898438 124.273438 C 129.746094 123.578125 130.621094 122.929688 131.53125 122.320312 C 132.4375 121.714844 133.375 121.152344 134.339844 120.636719 C 135.304688 120.121094 136.289062 119.65625 137.300781 119.238281 C 138.308594 118.820312 139.339844 118.453125 140.382812 118.132812 C 141.429688 117.816406 142.488281 117.550781 143.5625 117.339844 C 144.632812 117.125 145.714844 116.964844 146.800781 116.859375 C 147.890625 116.75 148.980469 116.699219 150.070312 116.699219 C 151.164062 116.699219 152.253906 116.75 153.34375 116.859375 C 154.429688 116.964844 155.511719 117.125 156.582031 117.339844 C 157.65625 117.550781 158.714844 117.816406 159.761719 118.132812 C 160.804688 118.453125 161.835938 118.820312 162.84375 119.238281 C 163.855469 119.65625 164.839844 120.121094 165.804688 120.636719 C 166.769531 121.152344 167.707031 121.714844 168.613281 122.320312 C 169.523438 122.929688 170.398438 123.578125 171.246094 124.273438 C 172.089844 124.964844 172.898438 125.699219 173.671875 126.472656 C 174.445312 127.246094 175.179688 128.054688 175.871094 128.898438 C 176.566406 129.746094 177.214844 130.621094 177.824219 131.53125 C 178.429688 132.4375 178.992188 133.375 179.507812 134.339844 C 180.023438 135.304688 180.488281 136.289062 180.90625 137.300781 C 181.324219 138.308594 181.691406 139.339844 182.011719 140.382812 C 182.328125 141.429688 182.59375 142.488281 182.804688 143.5625 C 183.019531 144.632812 183.179688 145.714844 183.285156 146.800781 C 183.394531 147.890625 183.445312 148.980469 183.445312 150.074219 Z M 183.445312 150.074219 "/>
</g>
</g>
</svg>
