<?xml version="1.0" encoding="UTF-8"?>
<svg xmlns="http://www.w3.org/2000/svg" xmlns:xlink="http://www.w3.org/1999/xlink" width="300pt" height="299.999988pt" viewBox="0 0 300 299.999988" version="1.2">
<g id="surface1">
<path style=" stroke:none;fill-rule:nonzero;fill:rgb(100%,98.039246%,93.328857%);fill-opacity:1;" d="M 240.765625 232.441406 L 236.273438 232.21875 L 238.054688 196.335938 L 242.550781 196.558594 Z M 240.765625 232.441406 "/>
<path style=" stroke:none;fill-rule:nonzero;fill:rgb(100%,98.039246%,67.83905%);fill-opacity:1;" d="M 264.035156 211.832031 L 259.601562 212.589844 L 253.539062 177.179688 L 257.976562 176.421875 Z M 264.035156 211.832031 "/>
<path style=" stroke:none;fill-rule:nonzero;fill:rgb(100%,96.078491%,80.389404%);fill-opacity:1;" d="M 233.875 254.578125 L 229.5625 255.871094 L 219.226562 221.464844 L 223.539062 220.171875 Z M 233.875 254.578125 "/>
<path style=" stroke:none;fill-rule:nonzero;fill:rgb(100%,96.078491%,80.389404%);fill-opacity:1;" d="M 225.582031 206.660156 L 221.835938 206.472656 L 223.625 170.515625 L 227.371094 170.703125 Z M 225.582031 206.660156 "/>
<path style=" stroke:none;fill-rule:nonzero;fill:rgb(100%,98.039246%,93.328857%);fill-opacity:1;" d="M 187.949219 171.59375 L 192.195312 173.09375 L 180.222656 206.964844 L 175.980469 205.464844 Z M 187.949219 171.59375 "/>
<path style=" stroke:none;fill-rule:nonzero;fill:rgb(100%,98.039246%,67.83905%);fill-opacity:1;" d="M 159.757812 184.6875 L 164.226562 185.230469 L 159.90625 220.894531 L 155.4375 220.355469 Z M 159.757812 184.6875 "/>
<path style=" stroke:none;fill-rule:nonzero;fill:rgb(100%,96.078491%,80.389404%);fill-opacity:1;" d="M 200.886719 152.355469 L 205.386719 152.347656 L 205.449219 188.273438 L 200.949219 188.28125 Z M 200.886719 152.355469 "/>
<path style=" stroke:none;fill-rule:nonzero;fill:rgb(100%,96.078491%,80.389404%);fill-opacity:1;" d="M 195.117188 200.644531 L 198.652344 201.894531 L 186.65625 235.835938 L 183.121094 234.585938 Z M 195.117188 200.644531 "/>
<path style=" stroke:none;fill-rule:nonzero;fill:rgb(100%,98.039246%,93.328857%);fill-opacity:1;" d="M 221.609375 119.328125 L 217.113281 119.105469 L 218.898438 83.222656 L 223.390625 83.445312 Z M 221.609375 119.328125 "/>
<path style=" stroke:none;fill-rule:nonzero;fill:rgb(100%,98.039246%,67.83905%);fill-opacity:1;" d="M 244.878906 98.714844 L 240.441406 99.476562 L 234.382812 64.066406 L 238.816406 63.304688 Z M 244.878906 98.714844 "/>
<path style=" stroke:none;fill-rule:nonzero;fill:rgb(100%,96.078491%,80.389404%);fill-opacity:1;" d="M 214.714844 141.464844 L 210.40625 142.757812 L 200.070312 108.351562 L 204.378906 107.058594 Z M 214.714844 141.464844 "/>
<path style=" stroke:none;fill-rule:nonzero;fill:rgb(100%,96.078491%,80.389404%);fill-opacity:1;" d="M 206.425781 93.542969 L 202.679688 93.359375 L 204.46875 57.402344 L 208.210938 57.589844 Z M 206.425781 93.542969 "/>
<path style=" stroke:none;fill-rule:nonzero;fill:rgb(100%,98.039246%,93.328857%);fill-opacity:1;" d="M 255.363281 104.921875 L 259.8125 105.613281 L 254.316406 141.113281 L 249.867188 140.425781 Z M 255.363281 104.921875 "/>
<path style=" stroke:none;fill-rule:nonzero;fill:rgb(100%,96.078491%,80.389404%);fill-opacity:1;" d="M 230.082031 123.007812 L 234.574219 122.714844 L 236.929688 158.5625 L 232.4375 158.855469 Z M 230.082031 123.007812 "/>
<path style=" stroke:none;fill-rule:nonzero;fill:rgb(100%,96.078491%,80.389404%);fill-opacity:1;" d="M 264.515625 83.621094 L 268.9375 82.78125 L 275.648438 118.074219 L 271.226562 118.914062 Z M 264.515625 83.621094 "/>
<path style=" stroke:none;fill-rule:nonzero;fill:rgb(100%,96.078491%,80.389404%);fill-opacity:1;" d="M 267.785156 132.144531 L 271.488281 132.71875 L 265.980469 168.296875 L 262.277344 167.722656 Z M 267.785156 132.144531 "/>
<path style=" stroke:none;fill-rule:nonzero;fill:rgb(100%,98.039246%,67.83905%);fill-opacity:1;" d="M 141.566406 249.820312 L 143.289062 245.664062 L 176.472656 259.433594 L 174.75 263.589844 Z M 141.566406 249.820312 "/>
<path style=" stroke:none;fill-rule:nonzero;fill:rgb(100%,98.039246%,67.83905%);fill-opacity:1;" d="M 153.132812 278.675781 L 153.910156 274.242188 L 189.292969 280.464844 L 188.515625 284.898438 Z M 153.132812 278.675781 "/>
<path style=" stroke:none;fill-rule:nonzero;fill:rgb(100%,96.078491%,80.389404%);fill-opacity:1;" d="M 123.046875 235.871094 L 123.277344 231.378906 L 159.15625 233.238281 L 158.921875 237.734375 Z M 123.046875 235.871094 "/>
<path style=" stroke:none;fill-rule:nonzero;fill:rgb(100%,96.078491%,80.389404%);fill-opacity:1;" d="M 170.953125 244.21875 L 172.390625 240.753906 L 205.640625 254.550781 L 204.203125 258.015625 Z M 170.953125 244.21875 "/>
<path style=" stroke:none;fill-rule:nonzero;fill:rgb(100%,98.039246%,93.328857%);fill-opacity:1;" d="M 46.253906 81.773438 L 50.738281 81.414062 L 53.585938 117.226562 L 49.101562 117.585938 Z M 46.253906 81.773438 "/>
<path style=" stroke:none;fill-rule:nonzero;fill:rgb(100%,98.039246%,67.83905%);fill-opacity:1;" d="M 25.828125 105.207031 L 30.128906 103.882812 L 40.699219 138.21875 L 36.398438 139.542969 Z M 25.828125 105.207031 "/>
<path style=" stroke:none;fill-rule:nonzero;fill:rgb(100%,96.078491%,80.389404%);fill-opacity:1;" d="M 50.242188 58.933594 L 54.347656 57.09375 L 69.023438 89.886719 L 64.917969 91.722656 Z M 50.242188 58.933594 "/>
<path style=" stroke:none;fill-rule:nonzero;fill:rgb(100%,96.078491%,80.389404%);fill-opacity:1;" d="M 64.621094 105.390625 L 68.359375 105.09375 L 71.214844 140.980469 L 67.476562 141.277344 Z M 64.621094 105.390625 "/>
<path style=" stroke:none;fill-rule:nonzero;fill:rgb(100%,96.078491%,80.389404%);fill-opacity:1;" d="M 96.105469 156.0625 L 91.644531 156.648438 L 86.960938 121.03125 L 91.421875 120.441406 Z M 96.105469 156.0625 "/>
<path style=" stroke:none;fill-rule:nonzero;fill:rgb(100%,98.039246%,93.328857%);fill-opacity:1;" d="M 79.808594 191.480469 L 84.292969 191.125 L 87.144531 226.9375 L 82.65625 227.292969 Z M 79.808594 191.480469 "/>
<path style=" stroke:none;fill-rule:nonzero;fill:rgb(100%,98.039246%,67.83905%);fill-opacity:1;" d="M 59.382812 214.914062 L 63.683594 213.589844 L 74.253906 247.925781 L 69.953125 249.25 Z M 59.382812 214.914062 "/>
<path style=" stroke:none;fill-rule:nonzero;fill:rgb(100%,96.078491%,80.389404%);fill-opacity:1;" d="M 83.796875 168.640625 L 87.902344 166.804688 L 102.582031 199.59375 L 98.472656 201.433594 Z M 83.796875 168.640625 "/>
<path style=" stroke:none;fill-rule:nonzero;fill:rgb(100%,96.078491%,80.389404%);fill-opacity:1;" d="M 98.175781 215.101562 L 101.914062 214.800781 L 104.769531 250.6875 L 101.03125 250.988281 Z M 98.175781 215.101562 "/>
<path style=" stroke:none;fill-rule:nonzero;fill:rgb(100%,98.039246%,93.328857%);fill-opacity:1;" d="M 48.1875 210.109375 L 43.6875 209.996094 L 44.570312 174.082031 L 49.066406 174.195312 Z M 48.1875 210.109375 "/>
<path style=" stroke:none;fill-rule:nonzero;fill:rgb(100%,98.039246%,67.83905%);fill-opacity:1;" d="M 70.929688 188.921875 L 66.515625 189.789062 L 59.566406 154.542969 L 63.980469 153.671875 Z M 70.929688 188.921875 "/>
<path style=" stroke:none;fill-rule:nonzero;fill:rgb(100%,96.078491%,80.389404%);fill-opacity:1;" d="M 41.851562 232.410156 L 37.574219 233.8125 L 26.378906 199.675781 L 30.65625 198.273438 Z M 41.851562 232.410156 "/>
<path style=" stroke:none;fill-rule:nonzero;fill:rgb(100%,96.078491%,80.389404%);fill-opacity:1;" d="M 32.359375 184.714844 L 28.609375 184.621094 L 29.496094 148.632812 L 33.242188 148.726562 Z M 32.359375 184.714844 "/>
<path style=" stroke:none;fill-rule:nonzero;fill:rgb(100%,98.039246%,67.83905%);fill-opacity:1;" d="M 127.210938 24.648438 L 127.007812 29.140625 L 91.117188 27.523438 L 91.320312 23.027344 Z M 127.210938 24.648438 "/>
<path style=" stroke:none;fill-rule:nonzero;fill:rgb(100%,98.039246%,93.328857%);fill-opacity:1;" d="M 106.460938 135.316406 L 102.058594 134.375 L 109.574219 99.246094 L 113.972656 100.183594 Z M 106.460938 135.316406 "/>
<path style=" stroke:none;fill-rule:nonzero;fill:rgb(100%,98.039246%,67.83905%);fill-opacity:1;" d="M 132.734375 118.703125 L 128.234375 118.742188 L 127.925781 82.816406 L 132.425781 82.777344 Z M 132.734375 118.703125 "/>
<path style=" stroke:none;fill-rule:nonzero;fill:rgb(100%,96.078491%,80.389404%);fill-opacity:1;" d="M 95.605469 107.433594 L 91.941406 106.648438 L 99.46875 71.445312 L 103.136719 72.230469 Z M 95.605469 107.433594 "/>
<path style=" stroke:none;fill-rule:nonzero;fill:rgb(100%,98.039246%,93.328857%);fill-opacity:1;" d="M 142.394531 51.773438 L 141.21875 56.117188 L 106.539062 46.730469 L 107.714844 42.386719 Z M 142.394531 51.773438 "/>
<path style=" stroke:none;fill-rule:nonzero;fill:rgb(100%,96.078491%,80.389404%);fill-opacity:1;" d="M 162.554688 63.21875 L 162.902344 67.707031 L 127.082031 70.480469 L 126.734375 65.992188 Z M 162.554688 63.21875 "/>
<path style=" stroke:none;fill-rule:nonzero;fill:rgb(100%,96.078491%,80.389404%);fill-opacity:1;" d="M 113.960938 61.113281 L 112.984375 64.734375 L 78.234375 55.332031 L 79.210938 51.710938 Z M 113.960938 61.113281 "/>
<path style=" stroke:none;fill-rule:nonzero;fill:rgb(100%,98.039246%,93.328857%);fill-opacity:1;" d="M 118.910156 212.414062 L 114.96875 210.242188 L 132.289062 178.769531 L 136.234375 180.9375 Z M 118.910156 212.414062 "/>
<path style=" stroke:none;fill-rule:nonzero;fill:rgb(100%,98.039246%,67.83905%);fill-opacity:1;" d="M 148.859375 204.078125 L 144.539062 202.816406 L 154.601562 168.328125 L 158.921875 169.589844 Z M 148.859375 204.078125 "/>
<path style=" stroke:none;fill-rule:nonzero;fill:rgb(100%,96.078491%,80.389404%);fill-opacity:1;" d="M 116.558594 182.585938 L 113.273438 180.777344 L 130.628906 149.238281 L 133.914062 151.046875 Z M 116.558594 182.585938 "/>
<path style=" stroke:none;fill-rule:nonzero;fill:rgb(100%,98.039246%,93.328857%);fill-opacity:1;" d="M 177.402344 142.769531 L 175.023438 146.589844 L 144.523438 127.609375 L 146.902344 123.789062 Z M 177.402344 142.769531 "/>
<path style=" stroke:none;fill-rule:nonzero;fill:rgb(100%,96.078491%,80.389404%);fill-opacity:1;" d="M 193.40625 159.546875 L 192.445312 163.941406 L 157.347656 156.269531 L 158.308594 151.875 Z M 193.40625 159.546875 "/>
<path style=" stroke:none;fill-rule:nonzero;fill:rgb(100%,96.078491%,80.389404%);fill-opacity:1;" d="M 147.484375 143.523438 L 145.503906 146.707031 L 114.941406 127.683594 L 116.921875 124.5 Z M 147.484375 143.523438 "/>
<path style=" stroke:none;fill-rule:nonzero;fill:rgb(100%,98.039246%,67.83905%);fill-opacity:1;" d="M 119.375 246.53125 L 123.675781 245.207031 L 134.242188 279.542969 L 129.941406 280.867188 Z M 119.375 246.53125 "/>
<path style=" stroke:none;fill-rule:nonzero;fill:rgb(100%,96.078491%,80.389404%);fill-opacity:1;" d="M 82.140625 252.703125 L 84.351562 249.671875 L 113.433594 270.890625 L 111.222656 273.921875 Z M 82.140625 252.703125 "/>
<path style=" stroke:none;fill-rule:nonzero;fill:rgb(100%,98.039246%,93.328857%);fill-opacity:1;" d="M 155.992188 114.296875 L 151.496094 114.074219 L 153.28125 78.191406 L 157.773438 78.414062 Z M 155.992188 114.296875 "/>
<path style=" stroke:none;fill-rule:nonzero;fill:rgb(100%,98.039246%,67.83905%);fill-opacity:1;" d="M 185.664062 94.332031 L 181.1875 93.859375 L 184.976562 58.132812 L 189.453125 58.605469 Z M 185.664062 94.332031 "/>
<path style=" stroke:none;fill-rule:nonzero;fill:rgb(100%,98.039246%,93.328857%);fill-opacity:1;" d="M 202.886719 28.9375 L 201.226562 33.121094 L 167.84375 19.84375 L 169.503906 15.664062 Z M 202.886719 28.9375 "/>
<path style=" stroke:none;fill-rule:nonzero;fill:rgb(100%,96.078491%,80.389404%);fill-opacity:1;" d="M 221.613281 42.609375 L 221.445312 47.105469 L 185.546875 45.777344 L 185.710938 41.28125 Z M 221.613281 42.609375 "/>
<path style=" stroke:none;fill-rule:nonzero;fill:rgb(100%,96.078491%,80.389404%);fill-opacity:1;" d="M 173.578125 34.980469 L 172.191406 38.464844 L 138.742188 25.160156 L 140.125 21.675781 Z M 173.578125 34.980469 "/>
<path style=" stroke:none;fill-rule:nonzero;fill:rgb(100%,98.039246%,67.83905%);fill-opacity:1;" d="M 168.714844 106.246094 L 172.5 103.808594 L 191.960938 134.003906 L 188.179688 136.441406 Z M 168.714844 106.246094 "/>
</g>
</svg>
