<?xml version="1.0" encoding="UTF-8"?>
<svg xmlns="http://www.w3.org/2000/svg" xmlns:xlink="http://www.w3.org/1999/xlink" width="300pt" height="299.999988pt" viewBox="0 0 300 299.999988" version="1.2">
<defs>
<clipPath id="clip1">
  <path d="M 128 34 L 146 34 L 146 59 L 128 59 Z M 128 34 "/>
</clipPath>
<clipPath id="clip2">
  <path d="M 128.25 36.738281 L 141.515625 34.230469 L 145.695312 56.335938 L 132.429688 58.847656 Z M 128.25 36.738281 "/>
</clipPath>
<clipPath id="clip3">
  <path d="M 124.875 18.886719 L 164.667969 11.359375 L 173.867188 59.996094 L 134.070312 67.523438 Z M 124.875 18.886719 "/>
</clipPath>
<clipPath id="clip4">
  <path d="M 124.875 18.886719 L 164.324219 11.425781 L 173.589844 60.410156 L 134.136719 67.871094 Z M 124.875 18.886719 "/>
</clipPath>
<clipPath id="clip5">
  <path d="M 124.90625 18.878906 L 164.335938 11.421875 L 173.613281 60.472656 L 134.183594 67.933594 Z M 124.90625 18.878906 "/>
</clipPath>
<clipPath id="clip6">
  <path d="M 124.90625 18.878906 L 164.292969 11.429688 L 173.558594 60.417969 L 134.171875 67.867188 Z M 124.90625 18.878906 "/>
</clipPath>
<clipPath id="clip7">
  <path d="M 132 34 L 146 34 L 146 59 L 132 59 Z M 132 34 "/>
</clipPath>
<clipPath id="clip8">
  <path d="M 128.25 36.738281 L 141.515625 34.230469 L 145.695312 56.335938 L 132.429688 58.847656 Z M 128.25 36.738281 "/>
</clipPath>
<clipPath id="clip9">
  <path d="M 124.875 18.886719 L 164.667969 11.359375 L 173.867188 59.996094 L 134.070312 67.523438 Z M 124.875 18.886719 "/>
</clipPath>
<clipPath id="clip10">
  <path d="M 124.875 18.886719 L 164.324219 11.425781 L 173.589844 60.410156 L 134.136719 67.871094 Z M 124.875 18.886719 "/>
</clipPath>
<clipPath id="clip11">
  <path d="M 128.816406 39.554688 L 168.246094 32.097656 L 173.613281 60.472656 L 134.183594 67.933594 Z M 128.816406 39.554688 "/>
</clipPath>
<clipPath id="clip12">
  <path d="M 128.816406 39.554688 L 168.207031 32.105469 L 173.558594 60.417969 L 134.171875 67.867188 Z M 128.816406 39.554688 "/>
</clipPath>
<clipPath id="clip13">
  <path d="M 128 34 L 146 34 L 146 58 L 128 58 Z M 128 34 "/>
</clipPath>
<clipPath id="clip14">
  <path d="M 128.25 36.738281 L 141.515625 34.230469 L 145.695312 56.335938 L 132.429688 58.847656 Z M 128.25 36.738281 "/>
</clipPath>
<clipPath id="clip15">
  <path d="M 124.875 18.886719 L 164.667969 11.359375 L 173.867188 59.996094 L 134.070312 67.523438 Z M 124.875 18.886719 "/>
</clipPath>
<clipPath id="clip16">
  <path d="M 124.875 18.886719 L 164.324219 11.425781 L 173.589844 60.410156 L 134.136719 67.871094 Z M 124.875 18.886719 "/>
</clipPath>
<clipPath id="clip17">
  <path d="M 72 58 L 96 58 L 96 74 L 72 74 Z M 72 58 "/>
</clipPath>
<clipPath id="clip18">
  <path d="M 95.839844 60.507812 L 94.757812 73.964844 L 72.332031 72.164062 L 73.410156 58.707031 Z M 95.839844 60.507812 "/>
</clipPath>
<clipPath id="clip19">
  <path d="M 113.949219 61.960938 L 110.710938 102.332031 L 61.367188 98.371094 L 64.605469 58 Z M 113.949219 61.960938 "/>
</clipPath>
<clipPath id="clip20">
  <path d="M 113.949219 61.960938 L 110.738281 101.984375 L 61.042969 97.996094 L 64.253906 57.972656 Z M 113.949219 61.960938 "/>
</clipPath>
<clipPath id="clip21">
  <path d="M 113.945312 61.992188 L 110.738281 101.992188 L 60.976562 98 L 64.183594 58 Z M 113.945312 61.992188 "/>
</clipPath>
<clipPath id="clip22">
  <path d="M 113.945312 61.992188 L 110.738281 101.953125 L 61.042969 97.964844 L 64.25 58.007812 Z M 113.945312 61.992188 "/>
</clipPath>
<clipPath id="clip23">
  <path d="M 72 58 L 91 58 L 91 74 L 72 74 Z M 72 58 "/>
</clipPath>
<clipPath id="clip24">
  <path d="M 95.839844 60.507812 L 94.757812 73.964844 L 72.332031 72.164062 L 73.410156 58.707031 Z M 95.839844 60.507812 "/>
</clipPath>
<clipPath id="clip25">
  <path d="M 113.949219 61.960938 L 110.710938 102.332031 L 61.367188 98.371094 L 64.605469 58 Z M 113.949219 61.960938 "/>
</clipPath>
<clipPath id="clip26">
  <path d="M 113.949219 61.960938 L 110.738281 101.984375 L 61.042969 97.996094 L 64.253906 57.972656 Z M 113.949219 61.960938 "/>
</clipPath>
<clipPath id="clip27">
  <path d="M 92.96875 60.308594 L 89.761719 100.308594 L 60.976562 98 L 64.183594 58 Z M 92.96875 60.308594 "/>
</clipPath>
<clipPath id="clip28">
  <path d="M 92.96875 60.308594 L 89.765625 100.269531 L 61.042969 97.964844 L 64.25 58.007812 Z M 92.96875 60.308594 "/>
</clipPath>
<clipPath id="clip29">
  <path d="M 73 60 L 96 60 L 96 74 L 73 74 Z M 73 60 "/>
</clipPath>
<clipPath id="clip30">
  <path d="M 95.839844 60.507812 L 94.757812 73.964844 L 72.332031 72.164062 L 73.410156 58.707031 Z M 95.839844 60.507812 "/>
</clipPath>
<clipPath id="clip31">
  <path d="M 113.949219 61.960938 L 110.710938 102.332031 L 61.367188 98.371094 L 64.605469 58 Z M 113.949219 61.960938 "/>
</clipPath>
<clipPath id="clip32">
  <path d="M 113.949219 61.960938 L 110.738281 101.984375 L 61.042969 97.996094 L 64.253906 57.972656 Z M 113.949219 61.960938 "/>
</clipPath>
<clipPath id="clip33">
  <path d="M 121 91 L 138 91 L 138 116 L 121 116 Z M 121 91 "/>
</clipPath>
<clipPath id="clip34">
  <path d="M 121.15625 92.777344 L 134.574219 91.285156 L 137.066406 113.644531 L 123.648438 115.140625 Z M 121.15625 92.777344 "/>
</clipPath>
<clipPath id="clip35">
  <path d="M 119.144531 74.722656 L 159.398438 70.238281 L 164.878906 119.433594 L 124.625 123.917969 Z M 119.144531 74.722656 "/>
</clipPath>
<clipPath id="clip36">
  <path d="M 119.144531 74.722656 L 159.050781 70.277344 L 164.570312 119.824219 L 124.664062 124.269531 Z M 119.144531 74.722656 "/>
</clipPath>
<clipPath id="clip37">
  <path d="M 119.179688 74.71875 L 159.058594 70.273438 L 164.585938 119.890625 L 124.707031 124.332031 Z M 119.179688 74.71875 "/>
</clipPath>
<clipPath id="clip38">
  <path d="M 119.179688 74.71875 L 159.019531 70.28125 L 164.539062 119.832031 L 124.699219 124.269531 Z M 119.179688 74.71875 "/>
</clipPath>
<clipPath id="clip39">
  <path d="M 123 91 L 138 91 L 138 116 L 123 116 Z M 123 91 "/>
</clipPath>
<clipPath id="clip40">
  <path d="M 121.15625 92.777344 L 134.574219 91.285156 L 137.066406 113.644531 L 123.648438 115.140625 Z M 121.15625 92.777344 "/>
</clipPath>
<clipPath id="clip41">
  <path d="M 119.144531 74.722656 L 159.398438 70.238281 L 164.878906 119.433594 L 124.625 123.917969 Z M 119.144531 74.722656 "/>
</clipPath>
<clipPath id="clip42">
  <path d="M 119.144531 74.722656 L 159.050781 70.277344 L 164.570312 119.824219 L 124.664062 124.269531 Z M 119.144531 74.722656 "/>
</clipPath>
<clipPath id="clip43">
  <path d="M 121.507812 95.632812 L 161.390625 91.1875 L 164.585938 119.890625 L 124.707031 124.332031 Z M 121.507812 95.632812 "/>
</clipPath>
<clipPath id="clip44">
  <path d="M 121.507812 95.632812 L 161.347656 91.195312 L 164.539062 119.832031 L 124.699219 124.269531 Z M 121.507812 95.632812 "/>
</clipPath>
<clipPath id="clip45">
  <path d="M 121 91 L 138 91 L 138 115 L 121 115 Z M 121 91 "/>
</clipPath>
<clipPath id="clip46">
  <path d="M 121.15625 92.777344 L 134.574219 91.285156 L 137.066406 113.644531 L 123.648438 115.140625 Z M 121.15625 92.777344 "/>
</clipPath>
<clipPath id="clip47">
  <path d="M 119.144531 74.722656 L 159.398438 70.238281 L 164.878906 119.433594 L 124.625 123.917969 Z M 119.144531 74.722656 "/>
</clipPath>
<clipPath id="clip48">
  <path d="M 119.144531 74.722656 L 159.050781 70.277344 L 164.570312 119.824219 L 124.664062 124.269531 Z M 119.144531 74.722656 "/>
</clipPath>
<clipPath id="clip49">
  <path d="M 195 66 L 220 66 L 220 93 L 195 93 Z M 195 66 "/>
</clipPath>
<clipPath id="clip50">
  <path d="M 208.460938 66.234375 L 219.5625 73.914062 L 206.761719 92.417969 L 195.660156 84.738281 Z M 208.460938 66.234375 "/>
</clipPath>
<clipPath id="clip51">
  <path d="M 218.800781 51.292969 L 252.105469 74.335938 L 223.9375 115.042969 L 190.632812 92 Z M 218.800781 51.292969 "/>
</clipPath>
<clipPath id="clip52">
  <path d="M 218.800781 51.292969 L 251.816406 74.140625 L 223.449219 115.136719 L 190.433594 92.289062 Z M 218.800781 51.292969 "/>
</clipPath>
<clipPath id="clip53">
  <path d="M 218.828125 51.3125 L 251.824219 74.144531 L 223.421875 115.199219 L 190.421875 92.363281 Z M 218.828125 51.3125 "/>
</clipPath>
<clipPath id="clip54">
  <path d="M 218.828125 51.3125 L 251.792969 74.121094 L 223.421875 115.121094 L 190.457031 92.3125 Z M 218.828125 51.3125 "/>
</clipPath>
<clipPath id="clip55">
  <path d="M 195 86 L 220 86 L 220 93 L 195 93 Z M 195 86 "/>
</clipPath>
<clipPath id="clip56">
  <path d="M 208.460938 66.234375 L 219.5625 73.914062 L 206.761719 92.417969 L 195.660156 84.738281 Z M 208.460938 66.234375 "/>
</clipPath>
<clipPath id="clip57">
  <path d="M 218.800781 51.292969 L 252.105469 74.335938 L 223.9375 115.042969 L 190.632812 92 Z M 218.800781 51.292969 "/>
</clipPath>
<clipPath id="clip58">
  <path d="M 218.800781 51.292969 L 251.816406 74.140625 L 223.449219 115.136719 L 190.433594 92.289062 Z M 218.800781 51.292969 "/>
</clipPath>
<clipPath id="clip59">
  <path d="M 206.851562 68.617188 L 239.851562 91.449219 L 223.421875 115.199219 L 190.421875 92.363281 Z M 206.851562 68.617188 "/>
</clipPath>
<clipPath id="clip60">
  <path d="M 206.851562 68.617188 L 239.820312 91.425781 L 223.421875 115.121094 L 190.457031 92.3125 Z M 206.851562 68.617188 "/>
</clipPath>
<clipPath id="clip61">
  <path d="M 199 66 L 220 66 L 220 93 L 199 93 Z M 199 66 "/>
</clipPath>
<clipPath id="clip62">
  <path d="M 208.460938 66.234375 L 219.5625 73.914062 L 206.761719 92.417969 L 195.660156 84.738281 Z M 208.460938 66.234375 "/>
</clipPath>
<clipPath id="clip63">
  <path d="M 218.800781 51.292969 L 252.105469 74.335938 L 223.9375 115.042969 L 190.632812 92 Z M 218.800781 51.292969 "/>
</clipPath>
<clipPath id="clip64">
  <path d="M 218.800781 51.292969 L 251.816406 74.140625 L 223.449219 115.136719 L 190.433594 92.289062 Z M 218.800781 51.292969 "/>
</clipPath>
<clipPath id="clip65">
  <path d="M 70 220 L 96 220 L 96 241 L 70 241 Z M 70 220 "/>
</clipPath>
<clipPath id="clip66">
  <path d="M 95.835938 227.179688 L 91.675781 240.023438 L 70.273438 233.085938 L 74.433594 220.246094 Z M 95.835938 227.179688 "/>
</clipPath>
<clipPath id="clip67">
  <path d="M 113.121094 232.78125 L 100.640625 271.308594 L 53.546875 256.050781 L 66.03125 217.523438 Z M 113.121094 232.78125 "/>
</clipPath>
<clipPath id="clip68">
  <path d="M 113.121094 232.78125 L 100.746094 270.976562 L 53.320312 255.609375 L 65.695312 217.414062 Z M 113.121094 232.78125 "/>
</clipPath>
<clipPath id="clip69">
  <path d="M 113.109375 232.8125 L 100.742188 270.984375 L 53.253906 255.597656 L 65.621094 217.425781 Z M 113.109375 232.8125 "/>
</clipPath>
<clipPath id="clip70">
  <path d="M 113.109375 232.8125 L 100.753906 270.945312 L 53.324219 255.578125 L 65.679688 217.445312 Z M 113.109375 232.8125 "/>
</clipPath>
<clipPath id="clip71">
  <path d="M 70 220 L 83 220 L 83 241 L 70 241 Z M 70 220 "/>
</clipPath>
<clipPath id="clip72">
  <path d="M 95.835938 227.179688 L 91.675781 240.023438 L 70.273438 233.085938 L 74.433594 220.246094 Z M 95.835938 227.179688 "/>
</clipPath>
<clipPath id="clip73">
  <path d="M 113.121094 232.78125 L 100.640625 271.308594 L 53.546875 256.050781 L 66.03125 217.523438 Z M 113.121094 232.78125 "/>
</clipPath>
<clipPath id="clip74">
  <path d="M 113.121094 232.78125 L 100.746094 270.976562 L 53.320312 255.609375 L 65.695312 217.414062 Z M 113.121094 232.78125 "/>
</clipPath>
<clipPath id="clip75">
  <path d="M 93.09375 226.324219 L 80.722656 264.5 L 53.253906 255.597656 L 65.621094 217.425781 Z M 93.09375 226.324219 "/>
</clipPath>
<clipPath id="clip76">
  <path d="M 93.09375 226.324219 L 80.738281 264.460938 L 53.324219 255.578125 L 65.679688 217.445312 Z M 93.09375 226.324219 "/>
</clipPath>
<clipPath id="clip77">
  <path d="M 72 224 L 96 224 L 96 241 L 72 241 Z M 72 224 "/>
</clipPath>
<clipPath id="clip78">
  <path d="M 95.835938 227.179688 L 91.675781 240.023438 L 70.273438 233.085938 L 74.433594 220.246094 Z M 95.835938 227.179688 "/>
</clipPath>
<clipPath id="clip79">
  <path d="M 113.121094 232.78125 L 100.640625 271.308594 L 53.546875 256.050781 L 66.03125 217.523438 Z M 113.121094 232.78125 "/>
</clipPath>
<clipPath id="clip80">
  <path d="M 113.121094 232.78125 L 100.746094 270.976562 L 53.320312 255.609375 L 65.695312 217.414062 Z M 113.121094 232.78125 "/>
</clipPath>
<clipPath id="clip81">
  <path d="M 99 150 L 122 150 L 122 177 L 99 177 Z M 99 150 "/>
</clipPath>
<clipPath id="clip82">
  <path d="M 109.058594 150 L 121.328125 155.632812 L 111.945312 176.082031 L 99.675781 170.453125 Z M 109.058594 150 "/>
</clipPath>
<clipPath id="clip83">
  <path d="M 116.636719 133.488281 L 153.445312 150.378906 L 132.804688 195.367188 L 95.992188 178.476562 Z M 116.636719 133.488281 "/>
</clipPath>
<clipPath id="clip84">
  <path d="M 116.636719 133.488281 L 153.128906 150.230469 L 132.339844 195.542969 L 95.847656 178.800781 Z M 116.636719 133.488281 "/>
</clipPath>
<clipPath id="clip85">
  <path d="M 116.667969 133.5 L 153.140625 150.234375 L 132.320312 195.609375 L 95.847656 178.875 Z M 116.667969 133.5 "/>
</clipPath>
<clipPath id="clip86">
  <path d="M 116.667969 133.5 L 153.101562 150.21875 L 132.308594 195.535156 L 95.875 178.816406 Z M 116.667969 133.5 "/>
</clipPath>
<clipPath id="clip87">
  <path d="M 99 167 L 122 167 L 122 177 L 99 177 Z M 99 167 "/>
</clipPath>
<clipPath id="clip88">
  <path d="M 109.058594 150 L 121.328125 155.632812 L 111.945312 176.082031 L 99.675781 170.453125 Z M 109.058594 150 "/>
</clipPath>
<clipPath id="clip89">
  <path d="M 116.636719 133.488281 L 153.445312 150.378906 L 132.804688 195.367188 L 95.992188 178.476562 Z M 116.636719 133.488281 "/>
</clipPath>
<clipPath id="clip90">
  <path d="M 116.636719 133.488281 L 153.128906 150.230469 L 132.339844 195.542969 L 95.847656 178.800781 Z M 116.636719 133.488281 "/>
</clipPath>
<clipPath id="clip91">
  <path d="M 107.890625 152.628906 L 144.363281 169.363281 L 132.320312 195.609375 L 95.847656 178.875 Z M 107.890625 152.628906 "/>
</clipPath>
<clipPath id="clip92">
  <path d="M 107.890625 152.628906 L 144.328125 169.34375 L 132.308594 195.535156 L 95.875 178.816406 Z M 107.890625 152.628906 "/>
</clipPath>
<clipPath id="clip93">
  <path d="M 103 150 L 122 150 L 122 175 L 103 175 Z M 103 150 "/>
</clipPath>
<clipPath id="clip94">
  <path d="M 109.058594 150 L 121.328125 155.632812 L 111.945312 176.082031 L 99.675781 170.453125 Z M 109.058594 150 "/>
</clipPath>
<clipPath id="clip95">
  <path d="M 116.636719 133.488281 L 153.445312 150.378906 L 132.804688 195.367188 L 95.992188 178.476562 Z M 116.636719 133.488281 "/>
</clipPath>
<clipPath id="clip96">
  <path d="M 116.636719 133.488281 L 153.128906 150.230469 L 132.339844 195.542969 L 95.847656 178.800781 Z M 116.636719 133.488281 "/>
</clipPath>
<clipPath id="clip97">
  <path d="M 181 135 L 208 135 L 208 161 L 181 161 Z M 181 135 "/>
</clipPath>
<clipPath id="clip98">
  <path d="M 207.472656 150.4375 L 198.285156 160.328125 L 181.800781 145.011719 L 190.992188 135.121094 Z M 207.472656 150.4375 "/>
</clipPath>
<clipPath id="clip99">
  <path d="M 220.785156 162.804688 L 193.214844 192.472656 L 156.953125 158.777344 L 184.523438 129.109375 Z M 220.785156 162.804688 "/>
</clipPath>
<clipPath id="clip100">
  <path d="M 220.785156 162.804688 L 193.449219 192.21875 L 156.929688 158.28125 L 184.265625 128.867188 Z M 220.785156 162.804688 "/>
</clipPath>
<clipPath id="clip101">
  <path d="M 220.761719 162.832031 L 193.445312 192.226562 L 156.875 158.242188 L 184.191406 128.847656 Z M 220.761719 162.832031 "/>
</clipPath>
<clipPath id="clip102">
  <path d="M 220.761719 162.832031 L 193.472656 192.195312 L 156.949219 158.257812 L 184.238281 128.890625 Z M 220.761719 162.832031 "/>
</clipPath>
<clipPath id="clip103">
  <path d="M 181 135 L 190 135 L 190 161 L 181 161 Z M 181 135 "/>
</clipPath>
<clipPath id="clip104">
  <path d="M 207.472656 150.4375 L 198.285156 160.328125 L 181.800781 145.011719 L 190.992188 135.121094 Z M 207.472656 150.4375 "/>
</clipPath>
<clipPath id="clip105">
  <path d="M 220.785156 162.804688 L 193.214844 192.472656 L 156.953125 158.777344 L 184.523438 129.109375 Z M 220.785156 162.804688 "/>
</clipPath>
<clipPath id="clip106">
  <path d="M 220.785156 162.804688 L 193.449219 192.21875 L 156.929688 158.28125 L 184.265625 128.867188 Z M 220.785156 162.804688 "/>
</clipPath>
<clipPath id="clip107">
  <path d="M 205.347656 148.507812 L 178.027344 177.902344 L 156.875 158.242188 L 184.191406 128.847656 Z M 205.347656 148.507812 "/>
</clipPath>
<clipPath id="clip108">
  <path d="M 205.347656 148.507812 L 178.058594 177.871094 L 156.949219 158.257812 L 184.238281 128.890625 Z M 205.347656 148.507812 "/>
</clipPath>
<clipPath id="clip109">
  <path d="M 181 138 L 208 138 L 208 161 L 181 161 Z M 181 138 "/>
</clipPath>
<clipPath id="clip110">
  <path d="M 207.472656 150.4375 L 198.285156 160.328125 L 181.800781 145.011719 L 190.992188 135.121094 Z M 207.472656 150.4375 "/>
</clipPath>
<clipPath id="clip111">
  <path d="M 220.785156 162.804688 L 193.214844 192.472656 L 156.953125 158.777344 L 184.523438 129.109375 Z M 220.785156 162.804688 "/>
</clipPath>
<clipPath id="clip112">
  <path d="M 220.785156 162.804688 L 193.449219 192.21875 L 156.929688 158.28125 L 184.265625 128.867188 Z M 220.785156 162.804688 "/>
</clipPath>
<clipPath id="clip113">
  <path d="M 145 194 L 166 194 L 166 221 L 145 221 Z M 145 194 "/>
</clipPath>
<clipPath id="clip114">
  <path d="M 152.148438 194.613281 L 165.0625 198.546875 L 158.507812 220.070312 L 145.59375 216.140625 Z M 152.148438 194.613281 "/>
</clipPath>
<clipPath id="clip115">
  <path d="M 157.441406 177.234375 L 196.183594 189.035156 L 181.761719 236.386719 L 143.019531 224.585938 Z M 157.441406 177.234375 "/>
</clipPath>
<clipPath id="clip116">
  <path d="M 157.441406 177.234375 L 195.851562 188.933594 L 181.324219 236.625 L 142.917969 224.925781 Z M 157.441406 177.234375 "/>
</clipPath>
<clipPath id="clip117">
  <path d="M 157.472656 177.246094 L 195.859375 188.933594 L 181.316406 236.691406 L 142.929688 225 Z M 157.472656 177.246094 "/>
</clipPath>
<clipPath id="clip118">
  <path d="M 157.472656 177.246094 L 195.820312 188.921875 L 181.296875 236.617188 L 142.945312 224.9375 Z M 157.472656 177.246094 "/>
</clipPath>
<clipPath id="clip119">
  <path d="M 145 207 L 166 207 L 166 221 L 145 221 Z M 145 207 "/>
</clipPath>
<clipPath id="clip120">
  <path d="M 152.148438 194.613281 L 165.0625 198.546875 L 158.507812 220.070312 L 145.59375 216.140625 Z M 152.148438 194.613281 "/>
</clipPath>
<clipPath id="clip121">
  <path d="M 157.441406 177.234375 L 196.183594 189.035156 L 181.761719 236.386719 L 143.019531 224.585938 Z M 157.441406 177.234375 "/>
</clipPath>
<clipPath id="clip122">
  <path d="M 157.441406 177.234375 L 195.851562 188.933594 L 181.324219 236.625 L 142.917969 224.925781 Z M 157.441406 177.234375 "/>
</clipPath>
<clipPath id="clip123">
  <path d="M 151.339844 197.375 L 189.730469 209.066406 L 181.316406 236.691406 L 142.929688 225 Z M 151.339844 197.375 "/>
</clipPath>
<clipPath id="clip124">
  <path d="M 151.339844 197.375 L 189.691406 209.054688 L 181.296875 236.617188 L 142.945312 224.9375 Z M 151.339844 197.375 "/>
</clipPath>
<clipPath id="clip125">
  <path d="M 149 194 L 166 194 L 166 218 L 149 218 Z M 149 194 "/>
</clipPath>
<clipPath id="clip126">
  <path d="M 152.148438 194.613281 L 165.0625 198.546875 L 158.507812 220.070312 L 145.59375 216.140625 Z M 152.148438 194.613281 "/>
</clipPath>
<clipPath id="clip127">
  <path d="M 157.441406 177.234375 L 196.183594 189.035156 L 181.761719 236.386719 L 143.019531 224.585938 Z M 157.441406 177.234375 "/>
</clipPath>
<clipPath id="clip128">
  <path d="M 157.441406 177.234375 L 195.851562 188.933594 L 181.324219 236.625 L 142.917969 224.925781 Z M 157.441406 177.234375 "/>
</clipPath>
<clipPath id="clip129">
  <path d="M 176 239 L 203 239 L 203 264 L 176 264 Z M 176 239 "/>
</clipPath>
<clipPath id="clip130">
  <path d="M 194.699219 239.84375 L 202.457031 250.890625 L 184.039062 263.816406 L 176.28125 252.765625 Z M 194.699219 239.84375 "/>
</clipPath>
<clipPath id="clip131">
  <path d="M 209.570312 229.40625 L 232.835938 262.554688 L 192.320312 290.992188 L 169.054688 257.839844 Z M 209.570312 229.40625 "/>
</clipPath>
<clipPath id="clip132">
  <path d="M 209.570312 229.40625 L 232.636719 262.269531 L 191.828125 290.910156 L 168.765625 258.042969 Z M 209.570312 229.40625 "/>
</clipPath>
<clipPath id="clip133">
  <path d="M 209.589844 229.433594 L 232.644531 262.277344 L 191.78125 290.957031 L 168.730469 258.109375 Z M 209.589844 229.433594 "/>
</clipPath>
<clipPath id="clip134">
  <path d="M 209.589844 229.433594 L 232.621094 262.246094 L 191.808594 290.886719 L 168.78125 258.074219 Z M 209.589844 229.433594 "/>
</clipPath>
<clipPath id="clip135">
  <path d="M 176 253 L 203 253 L 203 264 L 176 264 Z M 176 253 "/>
</clipPath>
<clipPath id="clip136">
  <path d="M 194.699219 239.84375 L 202.457031 250.890625 L 184.039062 263.816406 L 176.28125 252.765625 Z M 194.699219 239.84375 "/>
</clipPath>
<clipPath id="clip137">
  <path d="M 209.570312 229.40625 L 232.835938 262.554688 L 192.320312 290.992188 L 169.054688 257.839844 Z M 209.570312 229.40625 "/>
</clipPath>
<clipPath id="clip138">
  <path d="M 209.570312 229.40625 L 232.636719 262.269531 L 191.828125 290.910156 L 168.765625 258.042969 Z M 209.570312 229.40625 "/>
</clipPath>
<clipPath id="clip139">
  <path d="M 192.367188 241.519531 L 215.417969 274.367188 L 191.78125 290.957031 L 168.730469 258.109375 Z M 192.367188 241.519531 "/>
</clipPath>
<clipPath id="clip140">
  <path d="M 192.367188 241.519531 L 215.394531 274.332031 L 191.808594 290.886719 L 168.78125 258.074219 Z M 192.367188 241.519531 "/>
</clipPath>
<clipPath id="clip141">
  <path d="M 178 239 L 203 239 L 203 264 L 178 264 Z M 178 239 "/>
</clipPath>
<clipPath id="clip142">
  <path d="M 194.699219 239.84375 L 202.457031 250.890625 L 184.039062 263.816406 L 176.28125 252.765625 Z M 194.699219 239.84375 "/>
</clipPath>
<clipPath id="clip143">
  <path d="M 209.570312 229.40625 L 232.835938 262.554688 L 192.320312 290.992188 L 169.054688 257.839844 Z M 209.570312 229.40625 "/>
</clipPath>
<clipPath id="clip144">
  <path d="M 209.570312 229.40625 L 232.636719 262.269531 L 191.828125 290.910156 L 168.765625 258.042969 Z M 209.570312 229.40625 "/>
</clipPath>
<clipPath id="clip145">
  <path d="M 30 156 L 57 156 L 57 181 L 30 181 Z M 30 156 "/>
</clipPath>
<clipPath id="clip146">
  <path d="M 48.5625 156.605469 L 56.316406 167.652344 L 37.898438 180.578125 L 30.144531 169.527344 Z M 48.5625 156.605469 "/>
</clipPath>
<clipPath id="clip147">
  <path d="M 63.433594 146.167969 L 86.699219 179.316406 L 46.183594 207.753906 L 22.917969 174.601562 Z M 63.433594 146.167969 "/>
</clipPath>
<clipPath id="clip148">
  <path d="M 63.433594 146.167969 L 86.5 179.03125 L 45.691406 207.671875 L 22.625 174.804688 Z M 63.433594 146.167969 "/>
</clipPath>
<clipPath id="clip149">
  <path d="M 63.453125 146.195312 L 86.503906 179.039062 L 45.640625 207.71875 L 22.589844 174.871094 Z M 63.453125 146.195312 "/>
</clipPath>
<clipPath id="clip150">
  <path d="M 63.453125 146.195312 L 86.480469 179.007812 L 45.671875 207.648438 L 22.640625 174.835938 Z M 63.453125 146.195312 "/>
</clipPath>
<clipPath id="clip151">
  <path d="M 30 170 L 57 170 L 57 181 L 30 181 Z M 30 170 "/>
</clipPath>
<clipPath id="clip152">
  <path d="M 48.5625 156.605469 L 56.316406 167.652344 L 37.898438 180.578125 L 30.144531 169.527344 Z M 48.5625 156.605469 "/>
</clipPath>
<clipPath id="clip153">
  <path d="M 63.433594 146.167969 L 86.699219 179.316406 L 46.183594 207.753906 L 22.917969 174.601562 Z M 63.433594 146.167969 "/>
</clipPath>
<clipPath id="clip154">
  <path d="M 63.433594 146.167969 L 86.5 179.03125 L 45.691406 207.671875 L 22.625 174.804688 Z M 63.433594 146.167969 "/>
</clipPath>
<clipPath id="clip155">
  <path d="M 46.226562 158.28125 L 69.28125 191.128906 L 45.640625 207.71875 L 22.589844 174.871094 Z M 46.226562 158.28125 "/>
</clipPath>
<clipPath id="clip156">
  <path d="M 46.226562 158.28125 L 69.257812 191.09375 L 45.671875 207.648438 L 22.640625 174.835938 Z M 46.226562 158.28125 "/>
</clipPath>
<clipPath id="clip157">
  <path d="M 32 156 L 57 156 L 57 181 L 32 181 Z M 32 156 "/>
</clipPath>
<clipPath id="clip158">
  <path d="M 48.5625 156.605469 L 56.316406 167.652344 L 37.898438 180.578125 L 30.144531 169.527344 Z M 48.5625 156.605469 "/>
</clipPath>
<clipPath id="clip159">
  <path d="M 63.433594 146.167969 L 86.699219 179.316406 L 46.183594 207.753906 L 22.917969 174.601562 Z M 63.433594 146.167969 "/>
</clipPath>
<clipPath id="clip160">
  <path d="M 63.433594 146.167969 L 86.5 179.03125 L 45.691406 207.671875 L 22.625 174.804688 Z M 63.433594 146.167969 "/>
</clipPath>
<clipPath id="clip161">
  <path d="M 49 101 L 71 101 L 71 128 L 49 128 Z M 49 101 "/>
</clipPath>
<clipPath id="clip162">
  <path d="M 61.691406 127.910156 L 49.167969 122.871094 L 57.566406 101.996094 L 70.09375 107.035156 Z M 61.691406 127.910156 "/>
</clipPath>
<clipPath id="clip163">
  <path d="M 54.910156 144.765625 L 17.339844 129.648438 L 35.816406 83.726562 L 73.386719 98.84375 Z M 54.910156 144.765625 "/>
</clipPath>
<clipPath id="clip164">
  <path d="M 54.910156 144.765625 L 17.660156 129.777344 L 36.269531 83.527344 L 73.519531 98.515625 Z M 54.910156 144.765625 "/>
</clipPath>
<clipPath id="clip165">
  <path d="M 54.878906 144.753906 L 17.652344 129.773438 L 36.285156 83.460938 L 73.515625 98.4375 Z M 54.878906 144.753906 "/>
</clipPath>
<clipPath id="clip166">
  <path d="M 54.878906 144.753906 L 17.691406 129.789062 L 36.300781 83.535156 L 73.492188 98.5 Z M 54.878906 144.753906 "/>
</clipPath>
<clipPath id="clip167">
  <path d="M 49 101 L 71 101 L 71 112 L 49 112 Z M 49 101 "/>
</clipPath>
<clipPath id="clip168">
  <path d="M 61.691406 127.910156 L 49.167969 122.871094 L 57.566406 101.996094 L 70.09375 107.035156 Z M 61.691406 127.910156 "/>
</clipPath>
<clipPath id="clip169">
  <path d="M 54.910156 144.765625 L 17.339844 129.648438 L 35.816406 83.726562 L 73.386719 98.84375 Z M 54.910156 144.765625 "/>
</clipPath>
<clipPath id="clip170">
  <path d="M 54.910156 144.765625 L 17.660156 129.777344 L 36.269531 83.527344 L 73.519531 98.515625 Z M 54.910156 144.765625 "/>
</clipPath>
<clipPath id="clip171">
  <path d="M 62.734375 125.230469 L 25.507812 110.25 L 36.285156 83.460938 L 73.515625 98.4375 Z M 62.734375 125.230469 "/>
</clipPath>
<clipPath id="clip172">
  <path d="M 62.734375 125.230469 L 25.546875 110.265625 L 36.300781 83.535156 L 73.492188 98.5 Z M 62.734375 125.230469 "/>
</clipPath>
<clipPath id="clip173">
  <path d="M 49 103 L 67 103 L 67 128 L 49 128 Z M 49 103 "/>
</clipPath>
<clipPath id="clip174">
  <path d="M 61.691406 127.910156 L 49.167969 122.871094 L 57.566406 101.996094 L 70.09375 107.035156 Z M 61.691406 127.910156 "/>
</clipPath>
<clipPath id="clip175">
  <path d="M 54.910156 144.765625 L 17.339844 129.648438 L 35.816406 83.726562 L 73.386719 98.84375 Z M 54.910156 144.765625 "/>
</clipPath>
<clipPath id="clip176">
  <path d="M 54.910156 144.765625 L 17.660156 129.777344 L 36.269531 83.527344 L 73.519531 98.515625 Z M 54.910156 144.765625 "/>
</clipPath>
<clipPath id="clip177">
  <path d="M 222 202 L 238 202 L 238 227 L 222 227 Z M 222 202 "/>
</clipPath>
<clipPath id="clip178">
  <path d="M 235.726562 226.386719 L 222.285156 225.117188 L 224.398438 202.714844 L 237.839844 203.984375 Z M 235.726562 226.386719 "/>
</clipPath>
<clipPath id="clip179">
  <path d="M 234.019531 244.472656 L 193.695312 240.667969 L 198.347656 191.386719 L 238.667969 195.191406 Z M 234.019531 244.472656 "/>
</clipPath>
<clipPath id="clip180">
  <path d="M 234.019531 244.472656 L 194.042969 240.703125 L 198.726562 191.066406 L 238.703125 194.839844 Z M 234.019531 244.472656 "/>
</clipPath>
<clipPath id="clip181">
  <path d="M 233.984375 244.46875 L 194.035156 240.699219 L 198.722656 191 L 238.675781 194.769531 Z M 233.984375 244.46875 "/>
</clipPath>
<clipPath id="clip182">
  <path d="M 233.984375 244.46875 L 194.074219 240.703125 L 198.757812 191.066406 L 238.667969 194.832031 Z M 233.984375 244.46875 "/>
</clipPath>
<clipPath id="clip183">
  <path d="M 222 202 L 238 202 L 238 221 L 222 221 Z M 222 202 "/>
</clipPath>
<clipPath id="clip184">
  <path d="M 235.726562 226.386719 L 222.285156 225.117188 L 224.398438 202.714844 L 237.839844 203.984375 Z M 235.726562 226.386719 "/>
</clipPath>
<clipPath id="clip185">
  <path d="M 234.019531 244.472656 L 193.695312 240.667969 L 198.347656 191.386719 L 238.667969 195.191406 Z M 234.019531 244.472656 "/>
</clipPath>
<clipPath id="clip186">
  <path d="M 234.019531 244.472656 L 194.042969 240.703125 L 198.726562 191.066406 L 238.703125 194.839844 Z M 234.019531 244.472656 "/>
</clipPath>
<clipPath id="clip187">
  <path d="M 235.960938 223.519531 L 196.011719 219.75 L 198.722656 191 L 238.675781 194.769531 Z M 235.960938 223.519531 "/>
</clipPath>
<clipPath id="clip188">
  <path d="M 235.960938 223.519531 L 196.050781 219.753906 L 198.757812 191.066406 L 238.667969 194.832031 Z M 235.960938 223.519531 "/>
</clipPath>
<clipPath id="clip189">
  <path d="M 222 203 L 237 203 L 237 227 L 222 227 Z M 222 203 "/>
</clipPath>
<clipPath id="clip190">
  <path d="M 235.726562 226.386719 L 222.285156 225.117188 L 224.398438 202.714844 L 237.839844 203.984375 Z M 235.726562 226.386719 "/>
</clipPath>
<clipPath id="clip191">
  <path d="M 234.019531 244.472656 L 193.695312 240.667969 L 198.347656 191.386719 L 238.667969 195.191406 Z M 234.019531 244.472656 "/>
</clipPath>
<clipPath id="clip192">
  <path d="M 234.019531 244.472656 L 194.042969 240.703125 L 198.726562 191.066406 L 238.703125 194.839844 Z M 234.019531 244.472656 "/>
</clipPath>
<clipPath id="clip193">
  <path d="M 242 116 L 258 116 L 258 140 L 242 140 Z M 242 116 "/>
</clipPath>
<clipPath id="clip194">
  <path d="M 257.453125 138.953125 L 243.964844 139.539062 L 242.988281 117.058594 L 256.476562 116.472656 Z M 257.453125 138.953125 "/>
</clipPath>
<clipPath id="clip195">
  <path d="M 258.242188 157.105469 L 217.777344 158.859375 L 215.628906 109.40625 L 256.09375 107.648438 Z M 258.242188 157.105469 "/>
</clipPath>
<clipPath id="clip196">
  <path d="M 258.242188 157.105469 L 218.125 158.847656 L 215.964844 109.039062 L 256.078125 107.296875 Z M 258.242188 157.105469 "/>
</clipPath>
<clipPath id="clip197">
  <path d="M 258.207031 157.105469 L 218.117188 158.847656 L 215.949219 108.972656 L 256.042969 107.230469 Z M 258.207031 157.105469 "/>
</clipPath>
<clipPath id="clip198">
  <path d="M 258.207031 157.105469 L 218.15625 158.84375 L 215.996094 109.035156 L 256.042969 107.292969 Z M 258.207031 157.105469 "/>
</clipPath>
<clipPath id="clip199">
  <path d="M 242 116 L 257 116 L 257 138 L 242 138 Z M 242 116 "/>
</clipPath>
<clipPath id="clip200">
  <path d="M 257.453125 138.953125 L 243.964844 139.539062 L 242.988281 117.058594 L 256.476562 116.472656 Z M 257.453125 138.953125 "/>
</clipPath>
<clipPath id="clip201">
  <path d="M 258.242188 157.105469 L 217.777344 158.859375 L 215.628906 109.40625 L 256.09375 107.648438 Z M 258.242188 157.105469 "/>
</clipPath>
<clipPath id="clip202">
  <path d="M 258.242188 157.105469 L 218.125 158.847656 L 215.964844 109.039062 L 256.078125 107.296875 Z M 258.242188 157.105469 "/>
</clipPath>
<clipPath id="clip203">
  <path d="M 257.292969 136.082031 L 217.203125 137.824219 L 215.949219 108.972656 L 256.042969 107.230469 Z M 257.292969 136.082031 "/>
</clipPath>
<clipPath id="clip204">
  <path d="M 257.292969 136.082031 L 217.246094 137.820312 L 215.996094 109.035156 L 256.042969 107.292969 Z M 257.292969 136.082031 "/>
</clipPath>
<clipPath id="clip205">
  <path d="M 242 116 L 258 116 L 258 140 L 242 140 Z M 242 116 "/>
</clipPath>
<clipPath id="clip206">
  <path d="M 257.453125 138.953125 L 243.964844 139.539062 L 242.988281 117.058594 L 256.476562 116.472656 Z M 257.453125 138.953125 "/>
</clipPath>
<clipPath id="clip207">
  <path d="M 258.242188 157.105469 L 217.777344 158.859375 L 215.628906 109.40625 L 256.09375 107.648438 Z M 258.242188 157.105469 "/>
</clipPath>
<clipPath id="clip208">
  <path d="M 258.242188 157.105469 L 218.125 158.847656 L 215.964844 109.039062 L 256.078125 107.296875 Z M 258.242188 157.105469 "/>
</clipPath>
</defs>
<g id="surface1">
<g clip-path="url(#clip1)" clip-rule="nonzero">
<g clip-path="url(#clip2)" clip-rule="nonzero">
<g clip-path="url(#clip3)" clip-rule="nonzero">
<g clip-path="url(#clip4)" clip-rule="nonzero">
<g clip-path="url(#clip5)" clip-rule="nonzero">
<g clip-path="url(#clip6)" clip-rule="nonzero">
<path style=" stroke:none;fill-rule:nonzero;fill:rgb(98.81897%,94.898987%,23.919678%);fill-opacity:1;" d="M 158.554688 59.074219 C 151.488281 65.328125 142.339844 67.5 133.785156 65.820312 L 124.90625 18.878906 L 168.734375 34.902344 C 169.074219 43.847656 165.621094 52.824219 158.554688 59.074219 "/>
</g>
</g>
</g>
</g>
</g>
</g>
<g clip-path="url(#clip7)" clip-rule="nonzero">
<g clip-path="url(#clip8)" clip-rule="nonzero">
<g clip-path="url(#clip9)" clip-rule="nonzero">
<g clip-path="url(#clip10)" clip-rule="nonzero">
<g clip-path="url(#clip11)" clip-rule="nonzero">
<g clip-path="url(#clip12)" clip-rule="nonzero">
<path style=" stroke:none;fill-rule:nonzero;fill:rgb(100%,69.40918%,15.289307%);fill-opacity:1;" d="M 163.617188 33.03125 L 168.734375 34.902344 C 169.074219 43.847656 165.621094 52.824219 158.554688 59.074219 C 151.488281 65.328125 142.339844 67.5 133.785156 65.820312 L 132.746094 60.339844 C 140.089844 60.753906 147.566406 58.386719 153.546875 53.09375 C 159.527344 47.800781 162.921875 40.558594 163.617188 33.03125 "/>
</g>
</g>
</g>
</g>
</g>
</g>
<g clip-path="url(#clip13)" clip-rule="nonzero">
<g clip-path="url(#clip14)" clip-rule="nonzero">
<g clip-path="url(#clip15)" clip-rule="nonzero">
<g clip-path="url(#clip16)" clip-rule="nonzero">
<path style=" stroke:none;fill-rule:nonzero;fill:rgb(100%,89.019775%,10.198975%);fill-opacity:1;" d="M 151.34375 49.378906 L 140.453125 36.367188 C 140.203125 36.070312 139.765625 36.03125 139.476562 36.289062 C 139.1875 36.542969 139.160156 36.992188 139.410156 37.289062 L 150.300781 50.300781 C 150.550781 50.597656 150.988281 50.636719 151.273438 50.378906 C 151.5625 50.125 151.59375 49.675781 151.34375 49.378906 Z M 160.652344 36.488281 C 160.796875 36.125 160.621094 35.710938 160.269531 35.558594 L 144.867188 29.046875 C 144.511719 28.894531 144.109375 29.070312 143.96875 29.433594 C 143.824219 29.796875 144 30.210938 144.351562 30.363281 L 159.753906 36.875 C 160.003906 36.980469 160.277344 36.925781 160.464844 36.761719 C 160.546875 36.6875 160.613281 36.597656 160.652344 36.488281 Z M 137.519531 56.964844 L 133.550781 40.339844 C 133.457031 39.957031 133.085938 39.71875 132.714844 39.808594 C 132.34375 39.898438 132.117188 40.28125 132.207031 40.664062 L 136.179688 57.292969 C 136.269531 57.675781 136.644531 57.910156 137.015625 57.820312 C 137.125 57.792969 137.222656 57.742188 137.304688 57.671875 C 137.492188 57.503906 137.585938 57.234375 137.519531 56.964844 Z M 128.898438 39.988281 L 124.90625 18.878906 L 144.613281 26.085938 C 143.582031 29.585938 141.609375 32.828125 138.71875 35.382812 C 135.832031 37.9375 132.417969 39.460938 128.898438 39.988281 "/>
</g>
</g>
</g>
</g>
<g clip-path="url(#clip17)" clip-rule="nonzero">
<g clip-path="url(#clip18)" clip-rule="nonzero">
<g clip-path="url(#clip19)" clip-rule="nonzero">
<g clip-path="url(#clip20)" clip-rule="nonzero">
<g clip-path="url(#clip21)" clip-rule="nonzero">
<g clip-path="url(#clip22)" clip-rule="nonzero">
<path style=" stroke:none;fill-rule:nonzero;fill:rgb(98.81897%,94.898987%,23.919678%);fill-opacity:1;" d="M 66.296875 83.84375 C 62.132812 75.378906 62.449219 65.984375 66.324219 58.171875 L 113.945312 61.992188 L 86.929688 100.042969 C 78.210938 98.011719 70.460938 92.308594 66.296875 83.84375 "/>
</g>
</g>
</g>
</g>
</g>
</g>
<g clip-path="url(#clip23)" clip-rule="nonzero">
<g clip-path="url(#clip24)" clip-rule="nonzero">
<g clip-path="url(#clip25)" clip-rule="nonzero">
<g clip-path="url(#clip26)" clip-rule="nonzero">
<g clip-path="url(#clip27)" clip-rule="nonzero">
<g clip-path="url(#clip28)" clip-rule="nonzero">
<path style=" stroke:none;fill-rule:nonzero;fill:rgb(100%,69.40918%,15.289307%);fill-opacity:1;" d="M 90.085938 95.597656 L 86.929688 100.042969 C 78.210938 98.011719 70.460938 92.308594 66.296875 83.84375 C 62.132812 75.378906 62.449219 65.984375 66.324219 58.171875 L 71.886719 58.617188 C 69.546875 65.59375 69.863281 73.425781 73.386719 80.59375 C 76.914062 87.757812 83.007812 92.945312 90.085938 95.597656 "/>
</g>
</g>
</g>
</g>
</g>
</g>
<g clip-path="url(#clip29)" clip-rule="nonzero">
<g clip-path="url(#clip30)" clip-rule="nonzero">
<g clip-path="url(#clip31)" clip-rule="nonzero">
<g clip-path="url(#clip32)" clip-rule="nonzero">
<path style=" stroke:none;fill-rule:nonzero;fill:rgb(100%,89.019775%,10.198975%);fill-opacity:1;" d="M 77.554688 79.449219 L 92.976562 72.375 C 93.332031 72.210938 93.480469 71.800781 93.3125 71.457031 C 93.140625 71.113281 92.714844 70.964844 92.359375 71.125 L 76.941406 78.199219 C 76.585938 78.363281 76.433594 78.773438 76.605469 79.117188 C 76.773438 79.464844 77.199219 79.609375 77.554688 79.449219 Z M 87.53125 91.828125 C 87.84375 92.0625 88.289062 92.003906 88.527344 91.703125 L 98.875 78.5625 C 99.113281 78.261719 99.050781 77.828125 98.738281 77.59375 C 98.425781 77.363281 97.976562 77.421875 97.742188 77.722656 L 87.394531 90.859375 C 87.226562 91.074219 87.207031 91.351562 87.316406 91.578125 C 87.367188 91.671875 87.4375 91.761719 87.53125 91.828125 Z M 73.882812 64.113281 L 90.96875 64.671875 C 91.359375 64.683594 91.6875 64.382812 91.699219 64.003906 C 91.710938 63.621094 91.402344 63.304688 91.007812 63.289062 L 73.921875 62.734375 C 73.527344 62.71875 73.199219 63.019531 73.1875 63.398438 C 73.1875 63.511719 73.210938 63.621094 73.257812 63.71875 C 73.371094 63.945312 73.605469 64.105469 73.882812 64.113281 Z M 92.53125 60.273438 L 113.945312 61.992188 L 101.796875 79.101562 C 98.691406 77.183594 96.085938 74.421875 94.382812 70.964844 C 92.679688 67.507812 92.113281 63.8125 92.53125 60.273438 "/>
</g>
</g>
</g>
</g>
<g clip-path="url(#clip33)" clip-rule="nonzero">
<g clip-path="url(#clip34)" clip-rule="nonzero">
<g clip-path="url(#clip35)" clip-rule="nonzero">
<g clip-path="url(#clip36)" clip-rule="nonzero">
<g clip-path="url(#clip37)" clip-rule="nonzero">
<g clip-path="url(#clip38)" clip-rule="nonzero">
<path style=" stroke:none;fill-rule:nonzero;fill:rgb(98.81897%,94.898987%,23.919678%);fill-opacity:1;" d="M 149.679688 117.351562 C 142.160156 123.046875 132.871094 124.523438 124.46875 122.199219 L 119.179688 74.71875 L 161.664062 94.019531 C 161.324219 102.96875 157.199219 111.65625 149.679688 117.351562 "/>
</g>
</g>
</g>
</g>
</g>
</g>
<g clip-path="url(#clip39)" clip-rule="nonzero">
<g clip-path="url(#clip40)" clip-rule="nonzero">
<g clip-path="url(#clip41)" clip-rule="nonzero">
<g clip-path="url(#clip42)" clip-rule="nonzero">
<g clip-path="url(#clip43)" clip-rule="nonzero">
<g clip-path="url(#clip44)" clip-rule="nonzero">
<path style=" stroke:none;fill-rule:nonzero;fill:rgb(100%,69.40918%,15.289307%);fill-opacity:1;" d="M 156.703125 91.765625 L 161.664062 94.019531 C 161.324219 102.96875 157.199219 111.65625 149.679688 117.351562 C 142.160156 123.046875 132.871094 124.523438 124.46875 122.199219 L 123.851562 116.652344 C 131.140625 117.625 138.773438 115.828125 145.140625 111.007812 C 151.507812 106.183594 155.441406 99.21875 156.703125 91.765625 "/>
</g>
</g>
</g>
</g>
</g>
</g>
<g clip-path="url(#clip45)" clip-rule="nonzero">
<g clip-path="url(#clip46)" clip-rule="nonzero">
<g clip-path="url(#clip47)" clip-rule="nonzero">
<g clip-path="url(#clip48)" clip-rule="nonzero">
<path style=" stroke:none;fill-rule:nonzero;fill:rgb(100%,89.019775%,10.198975%);fill-opacity:1;" d="M 143.226562 107.132812 L 133.351562 93.335938 C 133.125 93.019531 132.695312 92.949219 132.386719 93.179688 C 132.082031 93.414062 132.015625 93.859375 132.242188 94.175781 L 142.113281 107.976562 C 142.34375 108.292969 142.773438 108.363281 143.082031 108.128906 C 143.386719 107.898438 143.453125 107.453125 143.226562 107.132812 Z M 153.488281 94.988281 C 153.65625 94.640625 153.515625 94.210938 153.171875 94.035156 L 138.308594 86.371094 C 137.964844 86.195312 137.550781 86.335938 137.382812 86.6875 C 137.214844 87.039062 137.355469 87.46875 137.699219 87.644531 L 152.5625 95.308594 C 152.800781 95.429688 153.078125 95.398438 153.277344 95.246094 C 153.363281 95.179688 153.4375 95.09375 153.488281 94.988281 Z M 128.867188 113.652344 L 126.167969 96.769531 C 126.105469 96.382812 125.75 96.117188 125.375 96.179688 C 125 96.238281 124.746094 96.605469 124.804688 96.992188 L 127.503906 113.875 C 127.566406 114.261719 127.921875 114.527344 128.296875 114.46875 C 128.410156 114.449219 128.511719 114.402344 128.597656 114.339844 C 128.796875 114.1875 128.910156 113.925781 128.867188 113.652344 Z M 121.558594 96.066406 L 119.179688 74.71875 L 138.28125 83.398438 C 136.988281 86.8125 134.773438 89.894531 131.699219 92.222656 C 128.628906 94.550781 125.109375 95.808594 121.558594 96.066406 "/>
</g>
</g>
</g>
</g>
<g clip-path="url(#clip49)" clip-rule="nonzero">
<g clip-path="url(#clip50)" clip-rule="nonzero">
<g clip-path="url(#clip51)" clip-rule="nonzero">
<g clip-path="url(#clip52)" clip-rule="nonzero">
<g clip-path="url(#clip53)" clip-rule="nonzero">
<g clip-path="url(#clip54)" clip-rule="nonzero">
<path style=" stroke:none;fill-rule:nonzero;fill:rgb(98.81897%,94.898987%,23.919678%);fill-opacity:1;" d="M 213.839844 103.496094 C 204.429688 102.855469 196.457031 97.867188 191.644531 90.597656 L 218.828125 51.3125 L 238.199219 93.765625 C 232.070312 100.289062 223.253906 104.136719 213.839844 103.496094 "/>
</g>
</g>
</g>
</g>
</g>
</g>
<g clip-path="url(#clip55)" clip-rule="nonzero">
<g clip-path="url(#clip56)" clip-rule="nonzero">
<g clip-path="url(#clip57)" clip-rule="nonzero">
<g clip-path="url(#clip58)" clip-rule="nonzero">
<g clip-path="url(#clip59)" clip-rule="nonzero">
<g clip-path="url(#clip60)" clip-rule="nonzero">
<path style=" stroke:none;fill-rule:nonzero;fill:rgb(100%,69.40918%,15.289307%);fill-opacity:1;" d="M 235.9375 88.808594 L 238.199219 93.765625 C 232.070312 100.289062 223.253906 104.136719 213.839844 103.496094 C 204.429688 102.855469 196.457031 97.867188 191.644531 90.597656 L 194.820312 86.007812 C 199.679688 91.53125 206.617188 95.1875 214.582031 95.730469 C 222.550781 96.269531 230.09375 93.597656 235.9375 88.808594 "/>
</g>
</g>
</g>
</g>
</g>
</g>
<g clip-path="url(#clip61)" clip-rule="nonzero">
<g clip-path="url(#clip62)" clip-rule="nonzero">
<g clip-path="url(#clip63)" clip-rule="nonzero">
<g clip-path="url(#clip64)" clip-rule="nonzero">
<path style=" stroke:none;fill-rule:nonzero;fill:rgb(100%,89.019775%,10.198975%);fill-opacity:1;" d="M 215.683594 91.550781 L 217.292969 74.660156 C 217.332031 74.273438 217.050781 73.9375 216.667969 73.910156 C 216.285156 73.882812 215.941406 74.179688 215.90625 74.566406 L 214.292969 91.457031 C 214.253906 91.84375 214.535156 92.179688 214.917969 92.207031 C 215.304688 92.234375 215.644531 91.9375 215.683594 91.550781 Z M 231.394531 89.128906 C 231.753906 88.972656 231.929688 88.558594 231.785156 88.199219 L 225.605469 72.660156 C 225.464844 72.300781 225.058594 72.136719 224.699219 72.292969 C 224.34375 72.445312 224.167969 72.863281 224.308594 73.21875 L 230.488281 88.761719 C 230.589844 89.011719 230.820312 89.167969 231.070312 89.183594 C 231.175781 89.191406 231.289062 89.175781 231.394531 89.128906 Z M 200.570312 87.039062 L 209.621094 72.535156 C 209.828125 72.203125 209.734375 71.769531 209.410156 71.566406 C 209.085938 71.367188 208.65625 71.472656 208.449219 71.808594 L 199.398438 86.3125 C 199.1875 86.644531 199.285156 87.078125 199.609375 87.28125 C 199.703125 87.339844 199.808594 87.371094 199.917969 87.378906 C 200.167969 87.398438 200.425781 87.273438 200.570312 87.039062 Z M 206.605469 68.976562 L 218.828125 51.3125 L 227.539062 70.402344 C 224.320312 72.125 220.625 73 216.78125 72.738281 C 212.933594 72.476562 209.453125 71.113281 206.605469 68.976562 "/>
</g>
</g>
</g>
</g>
<g clip-path="url(#clip65)" clip-rule="nonzero">
<g clip-path="url(#clip66)" clip-rule="nonzero">
<g clip-path="url(#clip67)" clip-rule="nonzero">
<g clip-path="url(#clip68)" clip-rule="nonzero">
<g clip-path="url(#clip69)" clip-rule="nonzero">
<g clip-path="url(#clip70)" clip-rule="nonzero">
<path style=" stroke:none;fill-rule:nonzero;fill:rgb(98.81897%,94.898987%,23.919678%);fill-opacity:1;" d="M 61.703125 243.058594 C 59.605469 233.859375 62.085938 224.789062 67.664062 218.085938 L 113.109375 232.8125 L 78.03125 263.585938 C 70.015625 259.59375 63.796875 252.253906 61.703125 243.058594 "/>
</g>
</g>
</g>
</g>
</g>
</g>
<g clip-path="url(#clip71)" clip-rule="nonzero">
<g clip-path="url(#clip72)" clip-rule="nonzero">
<g clip-path="url(#clip73)" clip-rule="nonzero">
<g clip-path="url(#clip74)" clip-rule="nonzero">
<g clip-path="url(#clip75)" clip-rule="nonzero">
<g clip-path="url(#clip76)" clip-rule="nonzero">
<path style=" stroke:none;fill-rule:nonzero;fill:rgb(100%,69.40918%,15.289307%);fill-opacity:1;" d="M 82.128906 259.992188 L 78.03125 263.585938 C 70.015625 259.59375 63.796875 252.253906 61.703125 243.058594 C 59.605469 233.859375 62.085938 224.789062 67.664062 218.085938 L 72.972656 219.804688 C 69.082031 226.050781 67.578125 233.746094 69.351562 241.53125 C 71.128906 249.320312 75.855469 255.773438 82.128906 259.992188 "/>
</g>
</g>
</g>
</g>
</g>
</g>
<g clip-path="url(#clip77)" clip-rule="nonzero">
<g clip-path="url(#clip78)" clip-rule="nonzero">
<g clip-path="url(#clip79)" clip-rule="nonzero">
<g clip-path="url(#clip80)" clip-rule="nonzero">
<path style=" stroke:none;fill-rule:nonzero;fill:rgb(100%,89.019775%,10.198975%);fill-opacity:1;" d="M 73.671875 241.382812 L 90.308594 238.066406 C 90.691406 237.988281 90.933594 237.621094 90.847656 237.246094 C 90.761719 236.875 90.382812 236.632812 90 236.707031 L 73.363281 240.023438 C 72.980469 240.101562 72.738281 240.464844 72.824219 240.839844 C 72.90625 241.214844 73.289062 241.457031 73.671875 241.382812 Z M 80.511719 255.734375 C 80.765625 256.03125 81.210938 256.078125 81.515625 255.839844 L 94.617188 245.449219 C 94.917969 245.210938 94.960938 244.773438 94.710938 244.476562 C 94.457031 244.175781 94.011719 244.128906 93.710938 244.367188 L 80.605469 254.757812 C 80.394531 254.925781 80.308594 255.191406 80.367188 255.4375 C 80.390625 255.542969 80.4375 255.644531 80.511719 255.734375 Z M 73.640625 225.613281 L 90.136719 230.105469 C 90.515625 230.207031 90.902344 229.992188 91.003906 229.625 C 91.101562 229.257812 90.875 228.875 90.496094 228.769531 L 74 224.277344 C 73.621094 224.175781 73.230469 224.390625 73.132812 224.757812 C 73.105469 224.867188 73.101562 224.980469 73.128906 225.082031 C 73.183594 225.328125 73.375 225.539062 73.640625 225.613281 Z M 92.675781 226.191406 L 113.109375 232.8125 L 97.335938 246.648438 C 94.761719 244.0625 92.859375 240.777344 92.003906 237.019531 C 91.148438 233.257812 91.449219 229.53125 92.675781 226.191406 "/>
</g>
</g>
</g>
</g>
<g clip-path="url(#clip81)" clip-rule="nonzero">
<g clip-path="url(#clip82)" clip-rule="nonzero">
<g clip-path="url(#clip83)" clip-rule="nonzero">
<g clip-path="url(#clip84)" clip-rule="nonzero">
<g clip-path="url(#clip85)" clip-rule="nonzero">
<g clip-path="url(#clip86)" clip-rule="nonzero">
<path style=" stroke:none;fill-rule:nonzero;fill:rgb(98.81897%,94.898987%,23.919678%);fill-opacity:1;" d="M 120.847656 185.753906 C 111.46875 186.765625 102.75 183.242188 96.746094 176.921875 L 116.667969 133.503906 L 143.140625 171.929688 C 138.242188 179.425781 130.230469 184.746094 120.847656 185.753906 "/>
</g>
</g>
</g>
</g>
</g>
</g>
<g clip-path="url(#clip87)" clip-rule="nonzero">
<g clip-path="url(#clip88)" clip-rule="nonzero">
<g clip-path="url(#clip89)" clip-rule="nonzero">
<g clip-path="url(#clip90)" clip-rule="nonzero">
<g clip-path="url(#clip91)" clip-rule="nonzero">
<g clip-path="url(#clip92)" clip-rule="nonzero">
<path style=" stroke:none;fill-rule:nonzero;fill:rgb(100%,69.40918%,15.289307%);fill-opacity:1;" d="M 140.050781 167.441406 L 143.140625 171.929688 C 138.242188 179.425781 130.230469 184.746094 120.847656 185.753906 C 111.46875 186.765625 102.75 183.242188 96.746094 176.921875 L 99.070312 171.851562 C 104.820312 176.441406 112.285156 178.832031 120.226562 177.980469 C 128.167969 177.125 135.128906 173.179688 140.050781 167.441406 "/>
</g>
</g>
</g>
</g>
</g>
</g>
<g clip-path="url(#clip93)" clip-rule="nonzero">
<g clip-path="url(#clip94)" clip-rule="nonzero">
<g clip-path="url(#clip95)" clip-rule="nonzero">
<g clip-path="url(#clip96)" clip-rule="nonzero">
<path style=" stroke:none;fill-rule:nonzero;fill:rgb(100%,89.019775%,10.198975%);fill-opacity:1;" d="M 120.582031 173.671875 L 119.226562 156.761719 C 119.195312 156.371094 118.859375 156.089844 118.476562 156.128906 C 118.097656 156.171875 117.8125 156.519531 117.84375 156.910156 L 119.195312 173.820312 C 119.226562 174.210938 119.5625 174.492188 119.945312 174.453125 C 120.328125 174.410156 120.609375 174.0625 120.582031 173.671875 Z M 135.632812 168.550781 C 135.957031 168.335938 136.058594 167.894531 135.855469 167.566406 L 127.0625 153.34375 C 126.859375 153.015625 126.433594 152.921875 126.105469 153.136719 C 125.78125 153.351562 125.679688 153.792969 125.882812 154.117188 L 134.675781 168.34375 C 134.816406 168.574219 135.070312 168.6875 135.320312 168.660156 C 135.429688 168.648438 135.535156 168.613281 135.632812 168.550781 Z M 104.914062 171.863281 L 111.300781 156.003906 C 111.445312 155.640625 111.277344 155.230469 110.925781 155.085938 C 110.570312 154.945312 110.164062 155.128906 110.015625 155.492188 L 103.632812 171.351562 C 103.484375 171.714844 103.652344 172.128906 104.007812 172.269531 C 104.113281 172.308594 104.222656 172.324219 104.332031 172.3125 C 104.582031 172.285156 104.8125 172.121094 104.914062 171.863281 Z M 107.707031 153.027344 L 116.667969 133.503906 L 128.570312 150.78125 C 125.703125 153.039062 122.214844 154.542969 118.382812 154.953125 C 114.550781 155.367188 110.886719 154.632812 107.707031 153.027344 "/>
</g>
</g>
</g>
</g>
<g clip-path="url(#clip97)" clip-rule="nonzero">
<g clip-path="url(#clip98)" clip-rule="nonzero">
<g clip-path="url(#clip99)" clip-rule="nonzero">
<g clip-path="url(#clip100)" clip-rule="nonzero">
<g clip-path="url(#clip101)" clip-rule="nonzero">
<g clip-path="url(#clip102)" clip-rule="nonzero">
<path style=" stroke:none;fill-rule:nonzero;fill:rgb(98.81897%,94.898987%,23.919678%);fill-opacity:1;" d="M 169.828125 150.433594 C 171.804688 141.210938 177.882812 134.035156 185.765625 130.308594 L 220.761719 162.832031 L 175.972656 175.9375 C 170.390625 168.933594 167.847656 159.660156 169.828125 150.433594 "/>
</g>
</g>
</g>
</g>
</g>
</g>
<g clip-path="url(#clip103)" clip-rule="nonzero">
<g clip-path="url(#clip104)" clip-rule="nonzero">
<g clip-path="url(#clip105)" clip-rule="nonzero">
<g clip-path="url(#clip106)" clip-rule="nonzero">
<g clip-path="url(#clip107)" clip-rule="nonzero">
<g clip-path="url(#clip108)" clip-rule="nonzero">
<path style=" stroke:none;fill-rule:nonzero;fill:rgb(100%,69.40918%,15.289307%);fill-opacity:1;" d="M 181.203125 174.40625 L 175.972656 175.9375 C 170.390625 168.933594 167.847656 159.660156 169.828125 150.433594 C 171.804688 141.210938 177.882812 134.035156 185.765625 130.308594 L 189.851562 134.109375 C 183.695312 138.128906 179.082031 144.472656 177.40625 152.28125 C 175.730469 160.089844 177.296875 167.933594 181.203125 174.40625 "/>
</g>
</g>
</g>
</g>
</g>
</g>
<g clip-path="url(#clip109)" clip-rule="nonzero">
<g clip-path="url(#clip110)" clip-rule="nonzero">
<g clip-path="url(#clip111)" clip-rule="nonzero">
<g clip-path="url(#clip112)" clip-rule="nonzero">
<path style=" stroke:none;fill-rule:nonzero;fill:rgb(100%,89.019775%,10.198975%);fill-opacity:1;" d="M 181.386719 153.964844 L 197.871094 157.976562 C 198.25 158.066406 198.621094 157.839844 198.703125 157.460938 C 198.785156 157.085938 198.542969 156.707031 198.164062 156.613281 L 181.679688 152.601562 C 181.296875 152.511719 180.925781 152.742188 180.84375 153.117188 C 180.765625 153.492188 181.007812 153.871094 181.386719 153.964844 Z M 181.535156 169.863281 C 181.636719 170.238281 182.023438 170.472656 182.398438 170.382812 L 198.664062 166.488281 C 199.035156 166.398438 199.257812 166.019531 199.15625 165.644531 C 199.054688 165.269531 198.667969 165.035156 198.292969 165.125 L 182.03125 169.019531 C 181.765625 169.082031 181.578125 169.285156 181.527344 169.535156 C 181.503906 169.636719 181.503906 169.75 181.535156 169.863281 Z M 188.011719 139.65625 L 201.070312 150.683594 C 201.371094 150.9375 201.816406 150.90625 202.058594 150.617188 C 202.304688 150.324219 202.261719 149.882812 201.960938 149.628906 L 188.898438 138.597656 C 188.597656 138.34375 188.15625 138.375 187.910156 138.667969 C 187.835938 138.753906 187.789062 138.855469 187.769531 138.957031 C 187.714844 139.207031 187.800781 139.476562 188.011719 139.65625 Z M 205.023438 148.207031 L 220.761719 162.832031 L 200.621094 168.722656 C 199.375 165.292969 199.039062 161.511719 199.847656 157.742188 C 200.660156 153.972656 202.503906 150.722656 205.023438 148.207031 "/>
</g>
</g>
</g>
</g>
<g clip-path="url(#clip113)" clip-rule="nonzero">
<g clip-path="url(#clip114)" clip-rule="nonzero">
<g clip-path="url(#clip115)" clip-rule="nonzero">
<g clip-path="url(#clip116)" clip-rule="nonzero">
<g clip-path="url(#clip117)" clip-rule="nonzero">
<g clip-path="url(#clip118)" clip-rule="nonzero">
<path style=" stroke:none;fill-rule:nonzero;fill:rgb(98.81897%,94.898987%,23.919678%);fill-opacity:1;" d="M 168.625 228.464844 C 159.464844 230.722656 150.355469 228.402344 143.554688 222.945312 L 157.472656 177.246094 L 188.863281 211.773438 C 185.011719 219.855469 177.785156 226.207031 168.625 228.464844 "/>
</g>
</g>
</g>
</g>
</g>
</g>
<g clip-path="url(#clip119)" clip-rule="nonzero">
<g clip-path="url(#clip120)" clip-rule="nonzero">
<g clip-path="url(#clip121)" clip-rule="nonzero">
<g clip-path="url(#clip122)" clip-rule="nonzero">
<g clip-path="url(#clip123)" clip-rule="nonzero">
<g clip-path="url(#clip124)" clip-rule="nonzero">
<path style=" stroke:none;fill-rule:nonzero;fill:rgb(100%,69.40918%,15.289307%);fill-opacity:1;" d="M 185.195312 207.742188 L 188.863281 211.773438 C 185.011719 219.855469 177.785156 226.207031 168.625 228.464844 C 159.464844 230.722656 150.355469 228.402344 143.554688 222.945312 L 145.179688 217.609375 C 151.492188 221.382812 159.210938 222.753906 166.964844 220.839844 C 174.71875 218.929688 181.089844 214.085938 185.195312 207.742188 "/>
</g>
</g>
</g>
</g>
</g>
</g>
<g clip-path="url(#clip125)" clip-rule="nonzero">
<g clip-path="url(#clip126)" clip-rule="nonzero">
<g clip-path="url(#clip127)" clip-rule="nonzero">
<g clip-path="url(#clip128)" clip-rule="nonzero">
<path style=" stroke:none;fill-rule:nonzero;fill:rgb(100%,89.019775%,10.198975%);fill-opacity:1;" d="M 166.738281 216.527344 L 163.128906 199.949219 C 163.046875 199.566406 162.675781 199.332031 162.300781 199.425781 C 161.929688 199.515625 161.695312 199.902344 161.777344 200.28125 L 165.386719 216.859375 C 165.46875 217.242188 165.839844 217.476562 166.214844 217.382812 C 166.585938 217.292969 166.820312 216.910156 166.738281 216.527344 Z M 180.96875 209.429688 C 181.261719 209.175781 181.300781 208.726562 181.054688 208.429688 L 170.433594 195.511719 C 170.191406 195.214844 169.753906 195.179688 169.460938 195.4375 C 169.167969 195.691406 169.125 196.140625 169.371094 196.4375 L 179.992188 209.355469 C 180.164062 209.566406 180.429688 209.644531 180.675781 209.582031 C 180.777344 209.558594 180.878906 209.507812 180.96875 209.429688 Z M 150.972656 216.835938 L 155.171875 200.261719 C 155.269531 199.882812 155.046875 199.496094 154.675781 199.40625 C 154.308594 199.3125 153.929688 199.546875 153.832031 199.929688 L 149.632812 216.5 C 149.535156 216.882812 149.757812 217.265625 150.128906 217.359375 C 150.238281 217.386719 150.347656 217.382812 150.453125 217.359375 C 150.699219 217.296875 150.90625 217.101562 150.972656 216.835938 Z M 151.214844 197.792969 L 157.472656 177.246094 L 171.585938 192.769531 C 169.046875 195.394531 165.792969 197.351562 162.050781 198.273438 C 158.308594 199.195312 154.578125 198.960938 151.214844 197.792969 "/>
</g>
</g>
</g>
</g>
<g clip-path="url(#clip129)" clip-rule="nonzero">
<g clip-path="url(#clip130)" clip-rule="nonzero">
<g clip-path="url(#clip131)" clip-rule="nonzero">
<g clip-path="url(#clip132)" clip-rule="nonzero">
<g clip-path="url(#clip133)" clip-rule="nonzero">
<g clip-path="url(#clip134)" clip-rule="nonzero">
<path style=" stroke:none;fill-rule:nonzero;fill:rgb(98.81897%,94.898987%,23.919678%);fill-opacity:1;" d="M 186.847656 276.660156 C 178.238281 272.800781 172.484375 265.363281 170.488281 256.875 L 209.589844 229.433594 L 213.066406 275.964844 C 205.058594 279.964844 195.453125 280.519531 186.847656 276.660156 "/>
</g>
</g>
</g>
</g>
</g>
</g>
<g clip-path="url(#clip135)" clip-rule="nonzero">
<g clip-path="url(#clip136)" clip-rule="nonzero">
<g clip-path="url(#clip137)" clip-rule="nonzero">
<g clip-path="url(#clip138)" clip-rule="nonzero">
<g clip-path="url(#clip139)" clip-rule="nonzero">
<g clip-path="url(#clip140)" clip-rule="nonzero">
<path style=" stroke:none;fill-rule:nonzero;fill:rgb(100%,69.40918%,15.289307%);fill-opacity:1;" d="M 212.660156 270.53125 L 213.066406 275.964844 C 205.058594 279.964844 195.453125 280.519531 186.847656 276.660156 C 178.238281 272.800781 172.484375 265.363281 170.488281 256.875 L 175.054688 253.671875 C 177.703125 260.53125 182.945312 266.363281 190.230469 269.632812 C 197.519531 272.898438 205.519531 273.003906 212.660156 270.53125 "/>
</g>
</g>
</g>
</g>
</g>
</g>
<g clip-path="url(#clip141)" clip-rule="nonzero">
<g clip-path="url(#clip142)" clip-rule="nonzero">
<g clip-path="url(#clip143)" clip-rule="nonzero">
<g clip-path="url(#clip144)" clip-rule="nonzero">
<path style=" stroke:none;fill-rule:nonzero;fill:rgb(100%,89.019775%,10.198975%);fill-opacity:1;" d="M 192.707031 266.09375 L 200.070312 250.804688 C 200.238281 250.453125 200.089844 250.042969 199.742188 249.882812 C 199.390625 249.726562 198.96875 249.886719 198.800781 250.238281 L 191.4375 265.523438 C 191.269531 265.875 191.414062 266.285156 191.765625 266.445312 C 192.117188 266.601562 192.539062 266.445312 192.707031 266.09375 Z M 208.289062 269.261719 C 208.675781 269.238281 208.984375 268.910156 208.976562 268.527344 L 208.558594 251.808594 C 208.550781 251.421875 208.226562 251.128906 207.835938 251.148438 C 207.449219 251.167969 207.140625 251.5 207.148438 251.882812 L 207.566406 268.601562 C 207.574219 268.871094 207.734375 269.097656 207.964844 269.199219 C 208.0625 269.246094 208.171875 269.265625 208.289062 269.261719 Z M 180.09375 256.628906 L 193.605469 246.15625 C 193.917969 245.914062 193.980469 245.476562 193.746094 245.175781 C 193.511719 244.875 193.066406 244.824219 192.757812 245.066406 L 179.246094 255.539062 C 178.933594 255.78125 178.871094 256.21875 179.105469 256.519531 C 179.175781 256.609375 179.265625 256.675781 179.363281 256.722656 C 179.59375 256.824219 179.875 256.796875 180.09375 256.628906 Z M 192.007812 241.773438 L 209.589844 229.433594 L 211.152344 250.355469 C 207.539062 250.859375 203.769531 250.398438 200.253906 248.824219 C 196.734375 247.246094 193.941406 244.761719 192.007812 241.773438 "/>
</g>
</g>
</g>
</g>
<g clip-path="url(#clip145)" clip-rule="nonzero">
<g clip-path="url(#clip146)" clip-rule="nonzero">
<g clip-path="url(#clip147)" clip-rule="nonzero">
<g clip-path="url(#clip148)" clip-rule="nonzero">
<g clip-path="url(#clip149)" clip-rule="nonzero">
<g clip-path="url(#clip150)" clip-rule="nonzero">
<path style=" stroke:none;fill-rule:nonzero;fill:rgb(98.81897%,94.898987%,23.919678%);fill-opacity:1;" d="M 40.707031 193.421875 C 32.097656 189.5625 26.347656 182.125 24.347656 173.636719 L 63.453125 146.195312 L 66.929688 192.726562 C 58.917969 196.726562 49.316406 197.28125 40.707031 193.421875 "/>
</g>
</g>
</g>
</g>
</g>
</g>
<g clip-path="url(#clip151)" clip-rule="nonzero">
<g clip-path="url(#clip152)" clip-rule="nonzero">
<g clip-path="url(#clip153)" clip-rule="nonzero">
<g clip-path="url(#clip154)" clip-rule="nonzero">
<g clip-path="url(#clip155)" clip-rule="nonzero">
<g clip-path="url(#clip156)" clip-rule="nonzero">
<path style=" stroke:none;fill-rule:nonzero;fill:rgb(100%,69.40918%,15.289307%);fill-opacity:1;" d="M 66.523438 187.292969 L 66.929688 192.726562 C 58.917969 196.726562 49.316406 197.28125 40.707031 193.421875 C 32.097656 189.5625 26.347656 182.125 24.347656 173.636719 L 28.914062 170.433594 C 31.5625 177.292969 36.804688 183.125 44.09375 186.394531 C 51.378906 189.660156 59.378906 189.765625 66.523438 187.292969 "/>
</g>
</g>
</g>
</g>
</g>
</g>
<g clip-path="url(#clip157)" clip-rule="nonzero">
<g clip-path="url(#clip158)" clip-rule="nonzero">
<g clip-path="url(#clip159)" clip-rule="nonzero">
<g clip-path="url(#clip160)" clip-rule="nonzero">
<path style=" stroke:none;fill-rule:nonzero;fill:rgb(100%,89.019775%,10.198975%);fill-opacity:1;" d="M 46.570312 182.855469 L 53.929688 167.566406 C 54.101562 167.214844 53.953125 166.804688 53.601562 166.644531 C 53.25 166.488281 52.828125 166.648438 52.660156 167 L 45.300781 182.285156 C 45.128906 182.636719 45.277344 183.046875 45.628906 183.207031 C 45.976562 183.363281 46.398438 183.207031 46.570312 182.855469 Z M 62.148438 186.023438 C 62.539062 186 62.847656 185.671875 62.835938 185.289062 L 62.421875 168.570312 C 62.410156 168.183594 62.089844 167.890625 61.699219 167.910156 C 61.308594 167.929688 61 168.261719 61.011719 168.644531 L 61.425781 185.363281 C 61.433594 185.632812 61.597656 185.859375 61.828125 185.960938 C 61.925781 186.007812 62.035156 186.027344 62.148438 186.023438 Z M 33.957031 173.390625 L 47.46875 162.917969 C 47.777344 162.675781 47.839844 162.238281 47.605469 161.9375 C 47.371094 161.636719 46.929688 161.585938 46.617188 161.828125 L 33.105469 172.300781 C 32.796875 172.542969 32.734375 172.980469 32.96875 173.28125 C 33.039062 173.371094 33.125 173.4375 33.222656 173.484375 C 33.453125 173.585938 33.738281 173.558594 33.957031 173.390625 Z M 45.867188 158.535156 L 63.453125 146.195312 L 65.015625 167.117188 C 61.398438 167.621094 57.632812 167.160156 54.113281 165.585938 C 50.597656 164.007812 47.800781 161.523438 45.867188 158.535156 "/>
</g>
</g>
</g>
</g>
<g clip-path="url(#clip161)" clip-rule="nonzero">
<g clip-path="url(#clip162)" clip-rule="nonzero">
<g clip-path="url(#clip163)" clip-rule="nonzero">
<g clip-path="url(#clip164)" clip-rule="nonzero">
<g clip-path="url(#clip165)" clip-rule="nonzero">
<g clip-path="url(#clip166)" clip-rule="nonzero">
<path style=" stroke:none;fill-rule:nonzero;fill:rgb(98.81897%,94.898987%,23.919678%);fill-opacity:1;" d="M 48.214844 92.757812 C 57.535156 91.300781 66.414062 94.40625 72.710938 100.433594 L 54.878906 144.753906 L 26.605469 107.628906 C 31.144531 99.910156 38.894531 94.210938 48.214844 92.757812 "/>
</g>
</g>
</g>
</g>
</g>
</g>
<g clip-path="url(#clip167)" clip-rule="nonzero">
<g clip-path="url(#clip168)" clip-rule="nonzero">
<g clip-path="url(#clip169)" clip-rule="nonzero">
<g clip-path="url(#clip170)" clip-rule="nonzero">
<g clip-path="url(#clip171)" clip-rule="nonzero">
<g clip-path="url(#clip172)" clip-rule="nonzero">
<path style=" stroke:none;fill-rule:nonzero;fill:rgb(100%,69.40918%,15.289307%);fill-opacity:1;" d="M 29.910156 111.964844 L 26.605469 107.628906 C 31.144531 99.910156 38.894531 94.210938 48.214844 92.757812 C 57.535156 91.300781 66.414062 94.40625 72.710938 100.433594 L 70.628906 105.609375 C 64.671875 101.296875 57.097656 99.261719 49.207031 100.496094 C 41.316406 101.726562 34.550781 106 29.910156 111.964844 "/>
</g>
</g>
</g>
</g>
</g>
</g>
<g clip-path="url(#clip173)" clip-rule="nonzero">
<g clip-path="url(#clip174)" clip-rule="nonzero">
<g clip-path="url(#clip175)" clip-rule="nonzero">
<g clip-path="url(#clip176)" clip-rule="nonzero">
<path style=" stroke:none;fill-rule:nonzero;fill:rgb(100%,89.019775%,10.198975%);fill-opacity:1;" d="M 49.058594 104.8125 L 51.214844 121.640625 C 51.265625 122.027344 51.613281 122.292969 51.992188 122.234375 C 52.375 122.175781 52.640625 121.8125 52.589844 121.425781 L 50.433594 104.597656 C 50.382812 104.210938 50.035156 103.945312 49.65625 104.003906 C 49.277344 104.0625 49.007812 104.425781 49.058594 104.8125 Z M 34.269531 110.648438 C 33.953125 110.878906 33.875 111.320312 34.09375 111.636719 L 43.550781 125.429688 C 43.769531 125.746094 44.203125 125.816406 44.515625 125.585938 C 44.832031 125.359375 44.910156 124.914062 44.691406 124.597656 L 35.234375 110.804688 C 35.082031 110.582031 34.820312 110.480469 34.570312 110.519531 C 34.464844 110.539062 34.363281 110.578125 34.269531 110.648438 Z M 64.792969 105.875 L 59.171875 122.019531 C 59.039062 122.390625 59.226562 122.792969 59.589844 122.917969 C 59.949219 123.042969 60.347656 122.839844 60.476562 122.46875 L 66.097656 106.324219 C 66.226562 105.953125 66.039062 105.550781 65.679688 105.425781 C 65.570312 105.390625 65.460938 105.382812 65.355469 105.398438 C 65.105469 105.4375 64.882812 105.613281 64.792969 105.875 Z M 62.898438 124.824219 L 54.878906 144.753906 L 42.167969 128.058594 C 44.925781 125.667969 48.335938 124 52.144531 123.40625 C 55.953125 122.8125 59.648438 123.367188 62.898438 124.824219 "/>
</g>
</g>
</g>
</g>
<g clip-path="url(#clip177)" clip-rule="nonzero">
<g clip-path="url(#clip178)" clip-rule="nonzero">
<g clip-path="url(#clip179)" clip-rule="nonzero">
<g clip-path="url(#clip180)" clip-rule="nonzero">
<g clip-path="url(#clip181)" clip-rule="nonzero">
<g clip-path="url(#clip182)" clip-rule="nonzero">
<path style=" stroke:none;fill-rule:nonzero;fill:rgb(98.81897%,94.898987%,23.919678%);fill-opacity:1;" d="M 212.804688 196.519531 C 221.324219 192.472656 230.71875 192.921875 238.472656 196.910156 L 233.984375 244.46875 L 196.320312 216.921875 C 198.472656 208.230469 204.28125 200.566406 212.804688 196.519531 "/>
</g>
</g>
</g>
</g>
</g>
</g>
<g clip-path="url(#clip183)" clip-rule="nonzero">
<g clip-path="url(#clip184)" clip-rule="nonzero">
<g clip-path="url(#clip185)" clip-rule="nonzero">
<g clip-path="url(#clip186)" clip-rule="nonzero">
<g clip-path="url(#clip187)" clip-rule="nonzero">
<g clip-path="url(#clip188)" clip-rule="nonzero">
<path style=" stroke:none;fill-rule:nonzero;fill:rgb(100%,69.40918%,15.289307%);fill-opacity:1;" d="M 200.71875 220.140625 L 196.320312 216.921875 C 198.472656 208.230469 204.28125 200.566406 212.804688 196.519531 C 221.324219 192.472656 230.71875 192.921875 238.472656 196.910156 L 237.949219 202.464844 C 231.007812 200.027344 223.171875 200.230469 215.957031 203.65625 C 208.742188 207.082031 203.472656 213.101562 200.71875 220.140625 "/>
</g>
</g>
</g>
</g>
</g>
</g>
<g clip-path="url(#clip189)" clip-rule="nonzero">
<g clip-path="url(#clip190)" clip-rule="nonzero">
<g clip-path="url(#clip191)" clip-rule="nonzero">
<g clip-path="url(#clip192)" clip-rule="nonzero">
<path style=" stroke:none;fill-rule:nonzero;fill:rgb(100%,89.019775%,10.198975%);fill-opacity:1;" d="M 217.042969 207.839844 L 223.898438 223.355469 C 224.054688 223.714844 224.464844 223.871094 224.8125 223.703125 C 225.160156 223.539062 225.3125 223.117188 225.15625 222.757812 L 218.300781 207.242188 C 218.140625 206.882812 217.734375 206.726562 217.386719 206.894531 C 217.039062 207.058594 216.882812 207.480469 217.042969 207.839844 Z M 204.523438 217.636719 C 204.285156 217.949219 204.335938 218.394531 204.636719 218.636719 L 217.628906 229.167969 C 217.925781 229.410156 218.359375 229.355469 218.597656 229.046875 C 218.835938 228.734375 218.785156 228.289062 218.484375 228.046875 L 205.492188 217.515625 C 205.28125 217.34375 205.007812 217.320312 204.777344 217.429688 C 204.679688 217.476562 204.59375 217.546875 204.523438 217.636719 Z M 232.425781 204.378906 L 231.628906 221.457031 C 231.613281 221.847656 231.90625 222.179688 232.285156 222.199219 C 232.667969 222.214844 232.992188 221.910156 233.011719 221.515625 L 233.808594 204.441406 C 233.824219 204.046875 233.53125 203.714844 233.148438 203.699219 C 233.035156 203.691406 232.929688 203.71875 232.832031 203.761719 C 232.605469 203.871094 232.441406 204.105469 232.425781 204.378906 Z M 236.003906 223.082031 L 233.984375 244.46875 L 217.046875 232.082031 C 219.011719 229.003906 221.804688 226.4375 225.289062 224.785156 C 228.769531 223.128906 232.472656 222.613281 236.003906 223.082031 "/>
</g>
</g>
</g>
</g>
<g clip-path="url(#clip193)" clip-rule="nonzero">
<g clip-path="url(#clip194)" clip-rule="nonzero">
<g clip-path="url(#clip195)" clip-rule="nonzero">
<g clip-path="url(#clip196)" clip-rule="nonzero">
<g clip-path="url(#clip197)" clip-rule="nonzero">
<g clip-path="url(#clip198)" clip-rule="nonzero">
<path style=" stroke:none;fill-rule:nonzero;fill:rgb(98.81897%,94.898987%,23.919678%);fill-opacity:1;" d="M 230.652344 112.511719 C 238.542969 107.332031 247.90625 106.492188 256.132812 109.378906 L 258.207031 157.105469 L 217.121094 134.980469 C 218.0625 126.074219 222.765625 117.6875 230.652344 112.511719 "/>
</g>
</g>
</g>
</g>
</g>
</g>
<g clip-path="url(#clip199)" clip-rule="nonzero">
<g clip-path="url(#clip200)" clip-rule="nonzero">
<g clip-path="url(#clip201)" clip-rule="nonzero">
<g clip-path="url(#clip202)" clip-rule="nonzero">
<g clip-path="url(#clip203)" clip-rule="nonzero">
<g clip-path="url(#clip204)" clip-rule="nonzero">
<path style=" stroke:none;fill-rule:nonzero;fill:rgb(100%,69.40918%,15.289307%);fill-opacity:1;" d="M 221.917969 137.5625 L 217.121094 134.980469 C 218.0625 126.074219 222.765625 117.6875 230.652344 112.511719 C 238.542969 107.332031 247.90625 106.492188 256.132812 109.378906 L 256.375 114.949219 C 249.167969 113.488281 241.429688 114.765625 234.753906 119.148438 C 228.078125 123.527344 223.683594 130.214844 221.917969 137.5625 "/>
</g>
</g>
</g>
</g>
</g>
</g>
<g clip-path="url(#clip205)" clip-rule="nonzero">
<g clip-path="url(#clip206)" clip-rule="nonzero">
<g clip-path="url(#clip207)" clip-rule="nonzero">
<g clip-path="url(#clip208)" clip-rule="nonzero">
<path style=" stroke:none;fill-rule:nonzero;fill:rgb(100%,89.019775%,10.198975%);fill-opacity:1;" d="M 236.402344 123.140625 L 245.320312 137.574219 C 245.527344 137.90625 245.953125 138.003906 246.277344 137.792969 C 246.597656 137.582031 246.691406 137.140625 246.484375 136.808594 L 237.566406 122.375 C 237.363281 122.042969 236.9375 121.945312 236.613281 122.15625 C 236.292969 122.367188 236.199219 122.808594 236.402344 123.140625 Z M 225.34375 134.5625 C 225.152344 134.902344 225.265625 135.339844 225.59375 135.539062 L 239.90625 144.1875 C 240.238281 144.386719 240.660156 144.273438 240.851562 143.933594 C 241.042969 143.59375 240.933594 143.160156 240.601562 142.960938 L 226.289062 134.308594 C 226.058594 134.167969 225.78125 134.183594 225.570312 134.324219 C 225.480469 134.382812 225.402344 134.460938 225.34375 134.5625 Z M 251.167969 117.605469 L 252.722656 134.632812 C 252.757812 135.023438 253.09375 135.3125 253.472656 135.277344 C 253.851562 135.238281 254.132812 134.894531 254.097656 134.5 L 252.542969 117.476562 C 252.507812 117.085938 252.171875 116.796875 251.792969 116.832031 C 251.679688 116.84375 251.574219 116.878906 251.484375 116.9375 C 251.273438 117.078125 251.144531 117.332031 251.167969 117.605469 Z M 257.273438 135.644531 L 258.207031 157.105469 L 239.734375 147.15625 C 241.253906 143.839844 243.671875 140.910156 246.894531 138.796875 C 250.117188 136.679688 253.714844 135.660156 257.273438 135.644531 "/>
</g>
</g>
</g>
</g>
</g>
</svg>
