<?xml version="1.0" encoding="UTF-8"?>
<svg xmlns="http://www.w3.org/2000/svg" xmlns:xlink="http://www.w3.org/1999/xlink" width="300pt" height="299.999988pt" viewBox="0 0 300 299.999988" version="1.2">
<g id="surface1">
<path style=" stroke:none;fill-rule:nonzero;fill:rgb(100%,96.078491%,80.389404%);fill-opacity:1;" d="M 150 14.242188 C 147.777344 14.242188 145.558594 14.296875 143.339844 14.40625 C 141.121094 14.515625 138.90625 14.679688 136.695312 14.898438 C 134.484375 15.113281 132.277344 15.386719 130.082031 15.710938 C 127.882812 16.039062 125.695312 16.417969 123.515625 16.851562 C 121.335938 17.285156 119.167969 17.773438 117.015625 18.3125 C 114.859375 18.851562 112.71875 19.445312 110.59375 20.089844 C 108.464844 20.734375 106.355469 21.429688 104.265625 22.179688 C 102.171875 22.925781 100.101562 23.726562 98.046875 24.578125 C 95.996094 25.425781 93.964844 26.328125 91.957031 27.277344 C 89.949219 28.226562 87.964844 29.226562 86.003906 30.273438 C 84.046875 31.320312 82.113281 32.414062 80.207031 33.558594 C 78.300781 34.699219 76.425781 35.886719 74.578125 37.121094 C 72.730469 38.355469 70.914062 39.636719 69.128906 40.957031 C 67.34375 42.28125 65.59375 43.648438 63.875 45.058594 C 62.160156 46.46875 60.476562 47.917969 58.832031 49.410156 C 57.183594 50.902344 55.578125 52.433594 54.003906 54.003906 C 52.433594 55.578125 50.902344 57.183594 49.410156 58.832031 C 47.917969 60.476562 46.46875 62.160156 45.058594 63.875 C 43.648438 65.59375 42.28125 67.34375 40.960938 69.128906 C 39.636719 70.914062 38.355469 72.730469 37.121094 74.578125 C 35.886719 76.425781 34.699219 78.300781 33.558594 80.207031 C 32.414062 82.113281 31.320312 84.046875 30.273438 86.003906 C 29.226562 87.964844 28.226562 89.949219 27.277344 91.957031 C 26.328125 93.964844 25.425781 95.996094 24.578125 98.046875 C 23.726562 100.101562 22.925781 102.171875 22.179688 104.265625 C 21.429688 106.355469 20.734375 108.464844 20.089844 110.589844 C 19.445312 112.71875 18.851562 114.859375 18.3125 117.011719 C 17.773438 119.167969 17.285156 121.335938 16.851562 123.515625 C 16.417969 125.695312 16.039062 127.882812 15.710938 130.082031 C 15.386719 132.277344 15.113281 134.480469 14.898438 136.691406 C 14.679688 138.90625 14.515625 141.121094 14.40625 143.339844 C 14.296875 145.558594 14.242188 147.777344 14.242188 150 C 14.242188 152.222656 14.296875 154.441406 14.40625 156.660156 C 14.515625 158.878906 14.679688 161.09375 14.898438 163.304688 C 15.113281 165.515625 15.386719 167.722656 15.710938 169.917969 C 16.039062 172.117188 16.417969 174.304688 16.851562 176.484375 C 17.285156 178.664062 17.773438 180.832031 18.3125 182.984375 C 18.851562 185.140625 19.445312 187.28125 20.089844 189.40625 C 20.734375 191.535156 21.429688 193.644531 22.179688 195.734375 C 22.925781 197.828125 23.726562 199.898438 24.578125 201.953125 C 25.425781 204.003906 26.328125 206.035156 27.277344 208.042969 C 28.226562 210.050781 29.226562 212.035156 30.273438 213.996094 C 31.320312 215.953125 32.414062 217.886719 33.558594 219.792969 C 34.699219 221.699219 35.886719 223.574219 37.121094 225.421875 C 38.355469 227.269531 39.636719 229.085938 40.960938 230.871094 C 42.28125 232.65625 43.648438 234.40625 45.058594 236.125 C 46.46875 237.839844 47.917969 239.523438 49.410156 241.167969 C 50.902344 242.816406 52.433594 244.421875 54.003906 245.996094 C 55.578125 247.566406 57.183594 249.097656 58.832031 250.589844 C 60.476562 252.082031 62.160156 253.53125 63.875 254.941406 C 65.59375 256.351562 67.34375 257.71875 69.128906 259.039062 C 70.914062 260.363281 72.730469 261.644531 74.578125 262.878906 C 76.425781 264.113281 78.300781 265.300781 80.207031 266.441406 C 82.113281 267.585938 84.046875 268.679688 86.003906 269.726562 C 87.964844 270.773438 89.949219 271.773438 91.957031 272.722656 C 93.964844 273.671875 95.996094 274.574219 98.046875 275.421875 C 100.101562 276.273438 102.171875 277.074219 104.265625 277.820312 C 106.355469 278.570312 108.464844 279.265625 110.59375 279.910156 C 112.71875 280.554688 114.859375 281.148438 117.015625 281.6875 C 119.167969 282.226562 121.335938 282.714844 123.515625 283.148438 C 125.695312 283.582031 127.882812 283.960938 130.082031 284.289062 C 132.277344 284.613281 134.484375 284.886719 136.695312 285.101562 C 138.90625 285.320312 141.121094 285.484375 143.339844 285.59375 C 145.558594 285.703125 147.777344 285.757812 150 285.757812 C 152.222656 285.757812 154.441406 285.703125 156.660156 285.59375 C 158.878906 285.484375 161.09375 285.320312 163.304688 285.101562 C 165.515625 284.886719 167.722656 284.613281 169.917969 284.289062 C 172.117188 283.960938 174.304688 283.582031 176.484375 283.148438 C 178.664062 282.714844 180.832031 282.226562 182.984375 281.6875 C 185.140625 281.148438 187.28125 280.554688 189.40625 279.910156 C 191.535156 279.265625 193.644531 278.570312 195.734375 277.820312 C 197.828125 277.074219 199.898438 276.273438 201.953125 275.421875 C 204.003906 274.574219 206.035156 273.671875 208.042969 272.722656 C 210.050781 271.773438 212.035156 270.773438 213.996094 269.726562 C 215.953125 268.679688 217.886719 267.585938 219.792969 266.441406 C 221.699219 265.300781 223.574219 264.113281 225.421875 262.878906 C 227.269531 261.644531 229.085938 260.363281 230.871094 259.039062 C 232.65625 257.71875 234.40625 256.351562 236.125 254.941406 C 237.839844 253.53125 239.523438 252.082031 241.167969 250.589844 C 242.816406 249.097656 244.421875 247.566406 245.996094 245.996094 C 247.566406 244.421875 249.097656 242.816406 250.589844 241.167969 C 252.082031 239.523438 253.53125 237.839844 254.941406 236.125 C 256.351562 234.40625 257.71875 232.65625 259.039062 230.871094 C 260.363281 229.085938 261.644531 227.269531 262.878906 225.421875 C 264.113281 223.574219 265.300781 221.699219 266.441406 219.792969 C 267.585938 217.886719 268.679688 215.953125 269.726562 213.996094 C 270.773438 212.035156 271.773438 210.050781 272.722656 208.042969 C 273.671875 206.035156 274.574219 204.003906 275.421875 201.953125 C 276.273438 199.898438 277.074219 197.828125 277.820312 195.734375 C 278.570312 193.644531 279.265625 191.535156 279.910156 189.40625 C 280.554688 187.28125 281.148438 185.140625 281.6875 182.984375 C 282.226562 180.832031 282.714844 178.664062 283.148438 176.484375 C 283.582031 174.304688 283.960938 172.117188 284.289062 169.917969 C 284.613281 167.722656 284.886719 165.515625 285.101562 163.304688 C 285.320312 161.09375 285.484375 158.878906 285.59375 156.660156 C 285.703125 154.441406 285.757812 152.222656 285.757812 150 C 285.757812 147.777344 285.703125 145.558594 285.59375 143.339844 C 285.484375 141.121094 285.320312 138.90625 285.101562 136.691406 C 284.886719 134.480469 284.613281 132.277344 284.289062 130.082031 C 283.960938 127.882812 283.582031 125.695312 283.148438 123.515625 C 282.714844 121.335938 282.226562 119.167969 281.6875 117.011719 C 281.148438 114.859375 280.554688 112.71875 279.910156 110.589844 C 279.265625 108.464844 278.570312 106.355469 277.820312 104.265625 C 277.074219 102.171875 276.273438 100.101562 275.421875 98.046875 C 274.574219 95.996094 273.671875 93.964844 272.722656 91.957031 C 271.773438 89.949219 270.773438 87.964844 269.726562 86.003906 C 268.679688 84.046875 267.585938 82.113281 266.441406 80.207031 C 265.300781 78.300781 264.113281 76.425781 262.878906 74.578125 C 261.644531 72.730469 260.363281 70.914062 259.039062 69.128906 C 257.71875 67.34375 256.351562 65.59375 254.941406 63.875 C 253.53125 62.160156 252.082031 60.476562 250.589844 58.832031 C 249.097656 57.183594 247.566406 55.578125 245.996094 54.003906 C 244.421875 52.433594 242.816406 50.902344 241.167969 49.410156 C 239.523438 47.917969 237.839844 46.46875 236.125 45.058594 C 234.40625 43.648438 232.65625 42.28125 230.871094 40.957031 C 229.085938 39.636719 227.269531 38.355469 225.421875 37.121094 C 223.574219 35.886719 221.699219 34.699219 219.792969 33.558594 C 217.886719 32.414062 215.953125 31.320312 213.996094 30.273438 C 212.035156 29.226562 210.050781 28.226562 208.042969 27.277344 C 206.035156 26.328125 204.003906 25.425781 201.953125 24.578125 C 199.898438 23.726562 197.828125 22.925781 195.734375 22.179688 C 193.644531 21.429688 191.535156 20.734375 189.40625 20.089844 C 187.28125 19.445312 185.140625 18.851562 182.984375 18.3125 C 180.832031 17.773438 178.664062 17.285156 176.484375 16.851562 C 174.304688 16.417969 172.117188 16.039062 169.917969 15.710938 C 167.722656 15.386719 165.515625 15.113281 163.304688 14.898438 C 161.09375 14.679688 158.878906 14.515625 156.660156 14.40625 C 154.441406 14.296875 152.222656 14.242188 150 14.242188 Z M 150 14.242188 "/>
</g>
</svg>
